<?xml version="1.0" standalone="no"?>
<!DOCTYPE svg PUBLIC "-//W3C//DTD SVG 1.1//EN" "http://www.w3.org/Graphics/SVG/1.1/DTD/svg11.dtd" >
<svg>
<metadata>
Created by FontForge 20120731 at Wed Jun  5 12:21:42 2024
 By fw_worker
2021 Wahyu &#38; Sani Co. All Rights Reserved.
</metadata>
<defs>
<font id="Geliat-Medium" horiz-adv-x="1238" >
  <font-face 
    font-family="Geliat Medium"
    font-weight="500"
    font-stretch="normal"
    units-per-em="2048"
    panose-1="0 0 6 0 0 0 0 0 0 0"
    ascent="1638"
    descent="-410"
    x-height="1074"
    cap-height="1406"
    bbox="-1066 -462 2694 1954"
    underline-thickness="75"
    underline-position="-26"
    unicode-range="U+0020-FB04"
  />
<missing-glyph horiz-adv-x="1024" 
d="M907 -430h-790v1952h790v-1952zM681 772h31v141h-31l-12 -42l-107 35l-142 48l254 85l7 -26h31v148h-31l-14 -42l-106 -36l-141 48l254 84l7 -25h31v149h-31l-14 -43l-358 -119v-53l186 -62l-186 -62v-52l352 -118zM483.5 502q23.5 18 44.5 55l37 72q13 24 25.5 36.5
t33.5 12.5q52 -3 52 -58q0 -31 -10.5 -49.5t-32.5 -27.5l-50 -15v-31h129v31l-24 8q29 34 29 84q0 63 -28 102t-88 39q-39 0 -63.5 -18.5t-44.5 -55.5l-37 -72q-25 -47 -59 -47q-26 0 -39 18.5t-13 45.5q0 43 16 65t57 34l20 7v31h-129v-31l33 -10q-38 -35 -38 -96
q0 -65 27.5 -106.5t88.5 -41.5q40 0 63.5 18zM425 164q-34 3 -57 27.5t-23 72.5q0 40 27 63.5t61 23.5h157q36 0 62.5 -21t26.5 -61q0 -32 -11 -56.5t-34 -32.5l-50 -16v-30h131v30l-30 9q16 18 25.5 43.5t9.5 56.5q0 51 -22.5 88t-60 56t-81.5 19h-88q-44 0 -81.5 -19
t-60 -56t-22.5 -88q0 -61 34 -97.5t87 -41.5v30zM598 -172q60 0 89.5 38.5t29.5 102.5q0 50 -34.5 84.5t-84.5 34.5h-61q-49 0 -84 -34.5t-35 -84.5v-22q0 -50 34.5 -84.5t84.5 -34.5h61zM501 -94q-20 0 -33.5 13t-13.5 33q0 58 47 58h134q19 0 32.5 -13.5t13.5 -32.5v-12
q0 -20 -13 -33t-33 -13h-134zM378.5 -73q12.5 13 12.5 31t-13 31t-31 13t-30.5 -13t-12.5 -31t12.5 -31t30.5 -13q19 0 31.5 13z" />
    <glyph glyph-name="ff" unicode="ff" horiz-adv-x="1479" 
d="M250 0v885h-189v190h189v134q0 150 88.5 236t255.5 86q77 0 157 -10v-186h-132q-64 0 -104.5 -37.5t-40.5 -102.5v-120h460v134q0 150 88.5 236t255.5 86q77 0 157 -10v-186h-131q-65 0 -105 -37t-40 -103v-120h276v-190h-276v-885h-225v885h-460v-885h-224z" />
    <glyph glyph-name="ffi" unicode="ffi" horiz-adv-x="1997" 
d="M250 0v885h-189v190h189v134q0 153 90 237.5t254 84.5q77 0 157 -10v-186h-132q-66 0 -105.5 -37.5t-39.5 -102.5v-120h460v134q0 153 90 237.5t254 84.5q77 0 157 -10v-186h-131q-66 0 -105.5 -37.5t-39.5 -102.5v-120h681v-1075h-225v885h-456v-885h-225v885h-460v-885
h-224zM1621 1275q-41 36 -41 102q0 67 41.5 103.5t105.5 36.5q66 0 107 -37t41 -103q0 -65 -42 -101.5t-106 -36.5q-65 0 -106 36z" />
    <glyph glyph-name="ffl" unicode="ffl" horiz-adv-x="1996" 
d="M250 0v885h-189v190h189v134q0 150 88.5 236t255.5 86q77 0 157 -10v-186h-132q-64 0 -104.5 -37.5t-40.5 -102.5v-120h460v134q0 150 88.5 236t255.5 86q77 0 157 -10v-186h-131q-65 0 -105 -37t-40 -103v-120h276v-190h-276v-885h-225v885h-460v-885h-224zM1831 0h-224
v1523h224v-1523z" />
    <glyph glyph-name="fi" unicode="fi" horiz-adv-x="1314" 
d="M250 0v885h-189v190h189v134q0 150 88.5 236t255.5 86q77 0 157 -10v-186h-132q-64 0 -104.5 -37.5t-40.5 -102.5v-120h675v-1075h-225v885h-450v-885h-224zM930 1275.5q-42 36.5 -42 101.5q0 67 42 103.5t106 36.5t106 -37t42 -103q0 -65 -42 -101.5t-106 -36.5
t-106 36.5z" />
    <glyph glyph-name="fl" unicode="fl" horiz-adv-x="1312" 
d="M250 0v885h-189v190h189v134q0 152 90 237t254 85q76 0 157 -10v-186h-132q-64 0 -104.5 -38.5t-40.5 -101.5v-120h277v-190h-277v-885h-224zM1148 0h-224v1522h224v-1522z" />
    <glyph glyph-name=".notdef" horiz-adv-x="1024" 
d="M907 -430h-790v1952h790v-1952zM681 772h31v141h-31l-12 -42l-107 35l-142 48l254 85l7 -26h31v148h-31l-14 -42l-106 -36l-141 48l254 84l7 -25h31v149h-31l-14 -43l-358 -119v-53l186 -62l-186 -62v-52l352 -118zM483.5 502q23.5 18 44.5 55l37 72q13 24 25.5 36.5
t33.5 12.5q52 -3 52 -58q0 -31 -10.5 -49.5t-32.5 -27.5l-50 -15v-31h129v31l-24 8q29 34 29 84q0 63 -28 102t-88 39q-39 0 -63.5 -18.5t-44.5 -55.5l-37 -72q-25 -47 -59 -47q-26 0 -39 18.5t-13 45.5q0 43 16 65t57 34l20 7v31h-129v-31l33 -10q-38 -35 -38 -96
q0 -65 27.5 -106.5t88.5 -41.5q40 0 63.5 18zM425 164q-34 3 -57 27.5t-23 72.5q0 40 27 63.5t61 23.5h157q36 0 62.5 -21t26.5 -61q0 -32 -11 -56.5t-34 -32.5l-50 -16v-30h131v30l-30 9q16 18 25.5 43.5t9.5 56.5q0 51 -22.5 88t-60 56t-81.5 19h-88q-44 0 -81.5 -19
t-60 -56t-22.5 -88q0 -61 34 -97.5t87 -41.5v30zM598 -172q60 0 89.5 38.5t29.5 102.5q0 50 -34.5 84.5t-84.5 34.5h-61q-49 0 -84 -34.5t-35 -84.5v-22q0 -50 34.5 -84.5t84.5 -34.5h61zM501 -94q-20 0 -33.5 13t-13.5 33q0 58 47 58h134q19 0 32.5 -13.5t13.5 -32.5v-12
q0 -20 -13 -33t-33 -13h-134zM378.5 -73q12.5 13 12.5 31t-13 31t-31 13t-30.5 -13t-12.5 -31t12.5 -31t30.5 -13q19 0 31.5 13z" />
    <glyph glyph-name=".null" horiz-adv-x="0" 
 />
    <glyph glyph-name="space" unicode=" " horiz-adv-x="384" 
 />
    <glyph glyph-name="space" unicode="&#xa0;" horiz-adv-x="384" 
 />
    <glyph glyph-name="A" unicode="A" horiz-adv-x="1371" 
d="M260 0h-259l555 1406h258l556 -1406h-258l-125 323h-603zM685 1130l-239 -611h479z" />
    <glyph glyph-name="Aacute" unicode="&#xc1;" horiz-adv-x="1371" 
d="M970 1811l-311 -294l-117 58l284 347zM260 0h-259l555 1406h258l556 -1406h-258l-125 323h-603zM685 1130l-239 -611h479z" />
    <glyph glyph-name="Abreve" unicode="&#x102;" horiz-adv-x="1371" 
d="M524 1584.5q-73 43.5 -116 118.5t-43 165h136q0 -48 25 -88t67 -62.5t91 -22.5t91 22.5t67 62.5t25 88h138q0 -90 -43 -165t-116.5 -118.5t-161.5 -43.5q-87 0 -160 43.5zM260 0h-259l555 1406h258l556 -1406h-258l-125 323h-603zM685 1130l-239 -611h479z" />
    <glyph glyph-name="Acircumflex" unicode="&#xc2;" horiz-adv-x="1371" 
d="M685 1738l-210 -211l-116 58l232 296h188l233 -296l-116 -58zM260 0h-259l555 1406h258l556 -1406h-258l-125 323h-603zM685 1130l-239 -611h479z" />
    <glyph glyph-name="Adieresis" unicode="&#xc4;" horiz-adv-x="1371" 
d="M390 1636q-36 36 -36 92t36 92t92 36q57 0 93.5 -36t36.5 -92t-36.5 -92t-93.5 -36q-56 0 -92 36zM795 1636q-36 36 -36 92t36 92t92 36q57 0 93 -36t36 -92t-36 -92t-93 -36q-56 0 -92 36zM260 0h-259l555 1406h258l556 -1406h-258l-125 323h-603zM685 1130l-239 -611
h479z" />
    <glyph glyph-name="Agrave" unicode="&#xc0;" horiz-adv-x="1371" 
d="M827 1575l-116 -58l-311 294l144 111zM260 0h-259l555 1406h258l556 -1406h-258l-125 323h-603zM685 1130l-239 -611h479z" />
    <glyph glyph-name="Amacron" unicode="&#x100;" horiz-adv-x="1371" 
d="M994 1660h-618v137h618v-137zM260 0h-259l555 1406h258l556 -1406h-258l-125 323h-603zM685 1130l-239 -611h479z" />
    <glyph glyph-name="Aogonek" unicode="&#x104;" horiz-adv-x="1371" 
d="M1063.5 -420.5q-48.5 41.5 -48.5 106.5q0 46 16.5 82.5t50.5 71.5l137 160h-107l-125 323h-603l-124 -323h-259l555 1406h258l556 -1406h-23l-137 -199q-23 -33 -23 -67q0 -28 18 -45.5t51 -17.5q26 0 46 6.5t39 21.5l39 -121q-36 -20 -82 -30t-92 -10q-94 0 -142.5 41.5
zM685 1130l-239 -611h479z" />
    <glyph glyph-name="Aring" unicode="&#xc5;" horiz-adv-x="1371" 
d="M581.5 1533.5q-47.5 26.5 -75 73t-27.5 103.5t27.5 104t74.5 73.5t104 26.5t104.5 -26.5t74.5 -73t27 -104.5q0 -57 -27 -103.5t-74.5 -73t-104.5 -26.5q-56 0 -103.5 26.5zM758 1636q30 30 30 74t-30 74.5t-73 30.5t-72.5 -30.5t-29.5 -74.5t29.5 -74t72.5 -30t73 30z
M260 0h-259l555 1406h258l556 -1406h-258l-125 323h-603zM685 1130l-239 -611h479z" />
    <glyph glyph-name="Atilde" unicode="&#xc3;" horiz-adv-x="1371" 
d="M746 1588q-33 15 -78 44q-36 25 -60.5 36.5t-52.5 11.5q-35 0 -66 -24t-47 -61l-102 92q28 73 83.5 116.5t124.5 43.5q44 0 78 -15.5t76 -44.5q38 -24 61.5 -35.5t51.5 -11.5q35 0 66 24t47 61l103 -92q-29 -73 -84.5 -116.5t-124.5 -43.5q-43 0 -76 15zM260 0h-259
l555 1406h258l556 -1406h-258l-125 323h-603zM685 1130l-239 -611h479z" />
    <glyph glyph-name="AE" unicode="&#xc6;" horiz-adv-x="1687" 
d="M206 0h-259l747 1406h912v-213h-570v-365h536v-209h-536v-406h570v-213h-808v322h-410zM798 1130l-332 -612h332v612z" />
    <glyph glyph-name="B" unicode="B" horiz-adv-x="1210" 
d="M165 0v1406h474q217 0 335 -101t118 -290q0 -97 -47.5 -172.5t-132.5 -114.5q101 -39 160 -126t59 -193q0 -132 -56 -223.5t-159 -138.5t-242 -47h-509zM616 817q71 0 125.5 24.5t84 68.5t29.5 99q0 93 -61.5 138.5t-177.5 45.5h-212v-376h212zM649 214q113 0 178 55.5
t65 152.5q0 57 -31 104t-87.5 74.5t-130.5 27.5h-239v-414h245z" />
    <glyph glyph-name="C" unicode="C" horiz-adv-x="1534" 
d="M440 62q-165 94 -258.5 261.5t-93.5 379.5t93.5 379.5t258.5 261.5t374 94q157 0 291.5 -54.5t232.5 -154.5t148 -233l-230 -84q-53 141 -171.5 222t-270.5 81q-137 0 -246 -64.5t-171.5 -181t-62.5 -266.5q0 -149 62.5 -265t171.5 -180.5t246 -64.5q101 0 189.5 37
t154 106t99.5 161l231 -82q-49 -133 -147 -234t-234 -157t-293 -56q-209 0 -374 94z" />
    <glyph glyph-name="Cacute" unicode="&#x106;" horiz-adv-x="1534" 
d="M1111 1811l-311 -294l-117 58l283 347zM440 62q-165 94 -258.5 261.5t-93.5 379.5t93.5 379.5t258.5 261.5t374 94q157 0 291.5 -54.5t232.5 -154.5t148 -233l-230 -84q-53 141 -171.5 222t-270.5 81q-137 0 -246 -64.5t-171.5 -181t-62.5 -266.5q0 -149 62.5 -265
t171.5 -180.5t246 -64.5q101 0 189.5 37t154 106t99.5 161l231 -82q-49 -133 -147 -234t-234 -157t-293 -56q-209 0 -374 94z" />
    <glyph glyph-name="Ccaron" unicode="&#x10c;" horiz-adv-x="1534" 
d="M920 1527h-188l-233 296l117 58l210 -211l210 211l117 -58zM440 62q-165 94 -258.5 261.5t-93.5 379.5t93.5 379.5t258.5 261.5t374 94q157 0 291.5 -54.5t232.5 -154.5t148 -233l-230 -84q-53 141 -171.5 222t-270.5 81q-137 0 -246 -64.5t-171.5 -181t-62.5 -266.5
q0 -149 62.5 -265t171.5 -180.5t246 -64.5q101 0 189.5 37t154 106t99.5 161l231 -82q-49 -133 -147 -234t-234 -157t-293 -56q-209 0 -374 94z" />
    <glyph glyph-name="Ccedilla" unicode="&#xc7;" horiz-adv-x="1534" 
d="M569 -424l48 112q43 -28 104 -28q51 0 83 24.5t32 67.5q0 99 -151 99l51 120q-192 17 -339 115.5t-228 259t-81 357.5q0 215 93.5 382t259 260t373.5 93q161 0 295.5 -55.5t230 -155.5t146.5 -231l-230 -84q-56 144 -173.5 223.5t-268.5 79.5q-139 0 -248 -65
t-170.5 -181.5t-61.5 -265.5q0 -150 62.5 -266t172 -180t245.5 -64q153 0 271.5 81.5t171.5 222.5l231 -82q-47 -127 -138.5 -225t-217.5 -155.5t-273 -65.5l-20 -46q81 -10 126 -54.5t45 -126.5q0 -64 -34.5 -110t-93 -70t-129.5 -24q-128 0 -184 38z" />
    <glyph glyph-name="Ccircumflex" unicode="&#x108;" horiz-adv-x="1534" 
d="M826 1738l-210 -211l-117 58l233 296h188l233 -296l-117 -58zM440 62q-165 94 -258.5 261.5t-93.5 379.5t93.5 379.5t258.5 261.5t374 94q157 0 291.5 -54.5t232.5 -154.5t148 -233l-230 -84q-53 141 -171.5 222t-270.5 81q-137 0 -246 -64.5t-171.5 -181t-62.5 -266.5
q0 -149 62.5 -265t171.5 -180.5t246 -64.5q101 0 189.5 37t154 106t99.5 161l231 -82q-49 -133 -147 -234t-234 -157t-293 -56q-209 0 -374 94z" />
    <glyph glyph-name="Cdotaccent" unicode="&#x10a;" horiz-adv-x="1534" 
d="M728 1636q-38 36 -38 92t38 92t98 36q59 0 97.5 -36t38.5 -92t-38.5 -92t-97.5 -36q-60 0 -98 36zM440 62q-165 94 -258.5 261.5t-93.5 379.5t93.5 379.5t258.5 261.5t374 94q157 0 291.5 -54.5t232.5 -154.5t148 -233l-230 -84q-53 141 -171.5 222t-270.5 81
q-137 0 -246 -64.5t-171.5 -181t-62.5 -266.5q0 -149 62.5 -265t171.5 -180.5t246 -64.5q101 0 189.5 37t154 106t99.5 161l231 -82q-49 -133 -147 -234t-234 -157t-293 -56q-209 0 -374 94z" />
    <glyph glyph-name="D" unicode="D" horiz-adv-x="1493" 
d="M165 0v1406h529q210 0 371.5 -88t250.5 -247.5t89 -365.5q0 -207 -89 -367t-250.5 -249t-371.5 -89h-529zM686 214q137 0 245 62.5t168 174.5t60 254t-60 253t-168 173.5t-245 62.5h-283v-980h283z" />
    <glyph glyph-name="Eth" unicode="&#xd0;" horiz-adv-x="1493" 
d="M166 0v640h-147v126h147v641h529q210 0 371 -89t250 -248.5t89 -366.5t-89 -366.5t-250 -248t-371 -88.5h-529zM687 213q137 0 245 62.5t168 174t60 253.5t-60 253.5t-168 174.5t-245 63h-284v-428h317v-126h-317v-427h284z" />
    <glyph glyph-name="Dcaron" unicode="&#x10e;" horiz-adv-x="1493" 
d="M799 1527h-188l-232 296l116 58l210 -211l211 211l116 -58zM165 0v1406h529q210 0 371.5 -88t250.5 -247.5t89 -365.5q0 -207 -89 -367t-250.5 -249t-371.5 -89h-529zM686 214q137 0 245 62.5t168 174.5t60 254t-60 253t-168 173.5t-245 62.5h-283v-980h283z" />
    <glyph glyph-name="Dcroat" unicode="&#x110;" horiz-adv-x="1493" 
d="M166 0v640h-147v126h147v641h529q210 0 371 -89t250 -248.5t89 -366.5t-89 -366.5t-250 -248t-371 -88.5h-529zM687 213q137 0 245 62.5t168 174t60 253.5t-60 253.5t-168 174.5t-245 63h-284v-428h317v-126h-317v-427h284z" />
    <glyph glyph-name="uni1E0C" unicode="&#x1e0c;" horiz-adv-x="1493" 
d="M165 0v1406h529q210 0 371.5 -88t250.5 -247.5t89 -365.5q0 -207 -89 -367t-250.5 -249t-371.5 -89h-529zM686 214q137 0 245 62.5t168 174.5t60 254t-60 253t-168 173.5t-245 62.5h-283v-980h283zM646.5 -343q-36.5 34 -36.5 87q0 54 36.5 88.5t93.5 34.5
q58 0 94.5 -34.5t36.5 -88.5q0 -53 -36.5 -87t-94.5 -34q-57 0 -93.5 34z" />
    <glyph glyph-name="E" unicode="E" horiz-adv-x="1055" 
d="M973 0h-808v1406h808v-213h-570v-365h536v-209h-536v-406h570v-213z" />
    <glyph glyph-name="Eacute" unicode="&#xc9;" horiz-adv-x="1055" 
d="M853 1811l-311 -294l-116 58l283 347zM973 0h-808v1406h808v-213h-570v-365h536v-209h-536v-406h570v-213z" />
    <glyph glyph-name="Ebreve" unicode="&#x114;" horiz-adv-x="1055" 
d="M406.5 1584.5q-73.5 43.5 -116.5 118.5t-43 165h137q0 -48 25 -88t67 -62.5t91 -22.5t90.5 22.5t66.5 62.5t25 88h139q0 -90 -43 -165t-117 -118.5t-161 -43.5t-160.5 43.5zM973 0h-808v1406h808v-213h-570v-365h536v-209h-536v-406h570v-213z" />
    <glyph glyph-name="Ecaron" unicode="&#x11a;" horiz-adv-x="1055" 
d="M662 1527h-188l-232 296l116 58l210 -211l211 211l116 -58zM973 0h-808v1406h808v-213h-570v-365h536v-209h-536v-406h570v-213z" />
    <glyph glyph-name="Ecircumflex" unicode="&#xca;" horiz-adv-x="1055" 
d="M568 1738l-210 -211l-116 58l232 296h188l233 -296l-116 -58zM973 0h-808v1406h808v-213h-570v-365h536v-209h-536v-406h570v-213z" />
    <glyph glyph-name="Edieresis" unicode="&#xcb;" horiz-adv-x="1055" 
d="M273.5 1636q-36.5 36 -36.5 92t36.5 92t92.5 36t92.5 -36t36.5 -92t-36.5 -92t-92.5 -36t-92.5 36zM678 1636q-36 36 -36 92t36 92t92 36q57 0 93.5 -36t36.5 -92t-36.5 -92t-93.5 -36q-56 0 -92 36zM973 0h-808v1406h808v-213h-570v-365h536v-209h-536v-406h570v-213z
" />
    <glyph glyph-name="Edotaccent" unicode="&#x116;" horiz-adv-x="1055" 
d="M470 1636q-38 36 -38 92t38 92t98 36t98.5 -36t38.5 -92t-38.5 -92t-98.5 -36t-98 36zM973 0h-808v1406h808v-213h-570v-365h536v-209h-536v-406h570v-213z" />
    <glyph glyph-name="Egrave" unicode="&#xc8;" horiz-adv-x="1055" 
d="M710 1575l-116 -58l-311 294l144 111zM973 0h-808v1406h808v-213h-570v-365h536v-209h-536v-406h570v-213z" />
    <glyph glyph-name="Emacron" unicode="&#x112;" horiz-adv-x="1055" 
d="M877 1660h-618v137h618v-137zM973 0h-808v1406h808v-213h-570v-365h536v-209h-536v-406h570v-213z" />
    <glyph glyph-name="Eogonek" unicode="&#x118;" horiz-adv-x="1055" 
d="M687.5 -420q-47.5 42 -47.5 106q0 44 16.5 79.5t51.5 74.5l137 160h-680v1406h808v-212h-570v-366h536v-209h-536v-406h570v-213l-137 -199q-24 -36 -24 -67q0 -28 18 -45.5t52 -17.5q52 0 86 28l37 -121q-76 -40 -174 -40q-96 0 -143.5 42z" />
    <glyph glyph-name="uni1EBC" unicode="&#x1ebc;" horiz-adv-x="1055" 
d="M629 1588q-33 15 -78 44q-36 25 -60.5 36.5t-52.5 11.5q-35 0 -66 -24t-47 -61l-102 92q28 73 83.5 116.5t124.5 43.5q44 0 78 -15.5t76 -44.5q38 -24 61.5 -35.5t51.5 -11.5q35 0 66.5 24.5t46.5 60.5l103 -92q-29 -73 -84.5 -116.5t-124.5 -43.5q-43 0 -76 15zM973 0
h-808v1406h808v-212h-570v-366h536v-209h-536v-406h570v-213z" />
    <glyph glyph-name="F" unicode="F" horiz-adv-x="1034" 
d="M403 0h-238v1406h808v-212h-570v-366h536v-209h-536v-619z" />
    <glyph glyph-name="G" unicode="G" horiz-adv-x="1590" 
d="M439.5 62q-165.5 94 -258.5 261.5t-93 379.5t93.5 379.5t258.5 261.5t374 94q157 0 292 -54.5t233 -154.5t147 -234l-235 -68q-55 135 -171.5 211.5t-265.5 76.5q-138 0 -247.5 -64.5t-171.5 -180.5t-62 -267q0 -150 62 -266t171.5 -180t248.5 -64q127 0 224 43.5
t152 118t62 167.5h-454v189h722q0 -238 -85.5 -404.5t-244.5 -252.5t-377 -86q-209 0 -374.5 94z" />
    <glyph glyph-name="Gbreve" unicode="&#x11e;" horiz-adv-x="1590" 
d="M643.5 1584.5q-73.5 43.5 -116.5 118.5t-43 165h137q0 -48 25 -88t67 -62.5t91 -22.5t90.5 22.5t66.5 62.5t25 88h139q0 -90 -43 -165t-117 -118.5t-161 -43.5t-160.5 43.5zM439.5 62q-165.5 94 -258.5 261.5t-93 379.5t93.5 379.5t258.5 261.5t374 94q157 0 292 -54.5
t233 -154.5t147 -234l-235 -68q-55 135 -171.5 211.5t-265.5 76.5q-138 0 -247.5 -64.5t-171.5 -180.5t-62 -267q0 -150 62 -266t171.5 -180t248.5 -64q127 0 224 43.5t152 118t62 167.5h-454v189h722q0 -238 -85.5 -404.5t-244.5 -252.5t-377 -86q-209 0 -374.5 94z" />
    <glyph glyph-name="uni0122" unicode="&#x122;" horiz-adv-x="1590" 
d="M439.5 62q-165.5 94 -258.5 261.5t-93 379.5t93.5 379.5t258.5 261.5t374 94q157 0 292 -54.5t233 -154.5t147 -234l-235 -68q-55 135 -171.5 211.5t-265.5 76.5q-138 0 -247.5 -64.5t-171.5 -180.5t-62 -267q0 -150 62 -266t171.5 -180t248.5 -64q127 0 224 43.5
t152 118t62 167.5h-454v189h722q0 -238 -85.5 -404.5t-244.5 -252.5t-377 -86q-209 0 -374.5 94zM821 -462h-125l48 297h200z" />
    <glyph glyph-name="Gcircumflex" unicode="&#x11c;" horiz-adv-x="1590" 
d="M805 1738l-210 -211l-116 58l232 296h188l233 -296l-116 -58zM439.5 62q-165.5 94 -258.5 261.5t-93 379.5t93.5 379.5t258.5 261.5t374 94q157 0 292 -54.5t233 -154.5t147 -234l-235 -68q-55 135 -171.5 211.5t-265.5 76.5q-138 0 -247.5 -64.5t-171.5 -180.5t-62 -267
q0 -150 62 -266t171.5 -180t248.5 -64q127 0 224 43.5t152 118t62 167.5h-454v189h722q0 -238 -85.5 -404.5t-244.5 -252.5t-377 -86q-209 0 -374.5 94z" />
    <glyph glyph-name="Gdotaccent" unicode="&#x120;" horiz-adv-x="1590" 
d="M707 1636q-38 36 -38 92t38 92t98 36t98 -36t38 -92t-38 -92t-98 -36t-98 36zM439.5 62q-165.5 94 -258.5 261.5t-93 379.5t93.5 379.5t258.5 261.5t374 94q157 0 292 -54.5t233 -154.5t147 -234l-235 -68q-55 135 -171.5 211.5t-265.5 76.5q-138 0 -247.5 -64.5
t-171.5 -180.5t-62 -267q0 -150 62 -266t171.5 -180t248.5 -64q127 0 224 43.5t152 118t62 167.5h-454v189h722q0 -238 -85.5 -404.5t-244.5 -252.5t-377 -86q-209 0 -374.5 94z" />
    <glyph glyph-name="H" unicode="H" horiz-adv-x="1558" 
d="M403 0h-238v1406h238v-574h752v574h238v-1406h-238v619h-752v-619z" />
    <glyph glyph-name="Hbar" unicode="&#x126;" horiz-adv-x="1558" 
d="M403 0h-238v1196h-98v125h98v85h238v-85h752v85h238v-85h98v-125h-98v-1196h-238v619h-752v-619zM403 1196v-364h752v364h-752z" />
    <glyph glyph-name="Hcircumflex" unicode="&#x124;" horiz-adv-x="1558" 
d="M779 1738l-210 -211l-117 58l233 296h188l233 -296l-116 -58zM403 0h-238v1406h238v-574h752v574h238v-1406h-238v619h-752v-619z" />
    <glyph glyph-name="uni1E24" unicode="&#x1e24;" horiz-adv-x="1558" 
d="M403 0h-238v1406h238v-574h752v574h238v-1406h-238v619h-752v-619zM685 -343q-37 34 -37 87q0 54 37 88.5t94 34.5t93.5 -34.5t36.5 -88.5q0 -53 -36.5 -87t-93.5 -34t-94 34z" />
    <glyph glyph-name="I" unicode="I" horiz-adv-x="568" 
d="M403 0h-238v1406h238v-1406z" />
    <glyph glyph-name="Iacute" unicode="&#xcd;" horiz-adv-x="568" 
d="M568 1811l-311 -294l-115 58l283 347zM403 0h-238v1406h238v-1406z" />
    <glyph glyph-name="Ibreve" unicode="&#x12c;" horiz-adv-x="568" 
d="M123.5 1584.5q-73.5 43.5 -116.5 118.5t-43 165h137q0 -48 25 -88t67 -62.5t91 -22.5q48 0 90 22.5t67 62.5t25 88h139q0 -90 -43 -165t-117 -118.5t-161 -43.5t-160.5 43.5zM404 0h-238v1406h238v-1406z" />
    <glyph glyph-name="Icircumflex" unicode="&#xce;" horiz-adv-x="568" 
d="M285 1738l-210 -211l-117 58l233 296h188l233 -296l-116 -58zM404 0h-238v1406h238v-1406z" />
    <glyph glyph-name="Idieresis" unicode="&#xcf;" horiz-adv-x="568" 
d="M16.5 1636q-36.5 36 -36.5 92t36.5 92t92.5 36t92.5 -36t36.5 -92t-36.5 -92t-92.5 -36t-92.5 36zM368.5 1636q-36.5 36 -36.5 92t36.5 92t92.5 36q57 0 93 -36t36 -92t-36 -92t-93 -36q-56 0 -92.5 36zM404 0h-238v1406h238v-1406z" />
    <glyph glyph-name="Idotaccent" unicode="&#x130;" horiz-adv-x="568" 
d="M186 1636q-38 36 -38 92t38 92t98 36t98.5 -36t38.5 -92t-38.5 -92t-98.5 -36t-98 36zM403 0h-238v1406h238v-1406z" />
    <glyph glyph-name="Igrave" unicode="&#xcc;" horiz-adv-x="568" 
d="M427 1575l-116 -58l-311 294l144 111zM404 0h-238v1406h238v-1406z" />
    <glyph glyph-name="Imacron" unicode="&#x12a;" horiz-adv-x="568" 
d="M547 1660h-526v137h526v-137zM403 0h-238v1406h238v-1406z" />
    <glyph glyph-name="Iogonek" unicode="&#x12e;" horiz-adv-x="568" 
d="M100.5 -420.5q-48.5 41.5 -48.5 106.5q0 46 16.5 82.5t50.5 71.5l137 160h-91v1406h238v-1406h-20l-136 -199q-23 -33 -23 -67q0 -28 18 -45.5t51 -17.5q26 0 46 6.5t40 21.5l38 -121q-35 -20 -80.5 -30t-93.5 -10q-94 0 -142.5 41.5z" />
    <glyph glyph-name="Itilde" unicode="&#x128;" horiz-adv-x="568" 
d="M344 1588.5q-34 15.5 -76 44.5q-38 24 -61.5 35.5t-51.5 11.5q-35 0 -66 -24t-47 -61l-103 92q29 73 84.5 116.5t124.5 43.5q43 0 76 -15t78 -44q36 -25 60.5 -36.5t52.5 -11.5q35 0 66.5 24.5t46.5 60.5l103 -92q-29 -73 -84.5 -116.5t-124.5 -43.5q-44 0 -78 15.5z
M404 0h-238v1406h238v-1406z" />
    <glyph glyph-name="J" unicode="J" horiz-adv-x="611" 
d="M-67 -249q130 0 203.5 66t73.5 206v1383h238v-1399q0 -241 -131 -355t-384 -114v213z" />
    <glyph glyph-name="Jcircumflex" unicode="&#x134;" horiz-adv-x="611" 
d="M328 1738l-209 -211l-117 58l232 296h188l234 -296l-117 -58zM-67 -249q130 0 203.5 66t73.5 206v1383h238v-1399q0 -241 -131 -355t-384 -114v213z" />
    <glyph glyph-name="K" unicode="K" horiz-adv-x="1213" 
d="M403 0h-238v1406h238v-589l475 589h288l-538 -652l635 -754h-310l-550 657v-657z" />
    <glyph glyph-name="uni0136" unicode="&#x136;" horiz-adv-x="1213" 
d="M403 0h-238v1406h238v-589l475 589h288l-538 -652l635 -754h-310l-550 657v-657zM675 -462h-125l48 297h200z" />
    <glyph glyph-name="uni1E32" unicode="&#x1e32;" horiz-adv-x="1213" 
d="M403 0h-238v1406h238v-589l475 589h288l-538 -652l635 -754h-310l-550 657v-657zM569.5 -343q-36.5 34 -36.5 87q0 54 36.5 88.5t93.5 34.5t93.5 -34.5t36.5 -88.5q0 -53 -36.5 -87t-93.5 -34t-93.5 34z" />
    <glyph glyph-name="L" unicode="L" horiz-adv-x="971" 
d="M972 0h-807v1406h238v-1193h569v-213z" />
    <glyph glyph-name="Lacute" unicode="&#x139;" horiz-adv-x="971" 
d="M568 1811l-311 -294l-116 58l284 347zM972 0h-807v1406h238v-1192h569v-214z" />
    <glyph glyph-name="Lcaron" unicode="&#x13d;" horiz-adv-x="971" 
d="M972 0h-807v1406h238v-1192h569v-214zM775 1109h-126l49 297h199z" />
    <glyph glyph-name="uni013B" unicode="&#x13b;" horiz-adv-x="971" 
d="M972 0h-807v1406h238v-1192h569v-214zM585 -462h-125l48 297h200z" />
    <glyph glyph-name="uni1E36" unicode="&#x1e36;" horiz-adv-x="971" 
d="M972 0h-807v1406h238v-1192h569v-214zM474.5 -343q-36.5 34 -36.5 87q0 54 36.5 88.5t93.5 34.5q58 0 94.5 -34.5t36.5 -88.5q0 -53 -36.5 -87t-94.5 -34q-57 0 -93.5 34z" />
    <glyph glyph-name="uni1E38" unicode="&#x1e38;" horiz-adv-x="971" 
d="M581 1660h-556v137h556v-137zM972 0h-807v1406h238v-1192h569v-214zM474.5 -343q-36.5 34 -36.5 87q0 54 36.5 88.5t93.5 34.5q58 0 94.5 -34.5t36.5 -88.5q0 -53 -36.5 -87t-94.5 -34q-57 0 -93.5 34z" />
    <glyph glyph-name="uni1E3A" unicode="&#x1e3a;" horiz-adv-x="971" 
d="M972 0h-807v1406h238v-1192h569v-214zM925 -345h-713v137h713v-137z" />
    <glyph glyph-name="Lmiddledot" unicode="&#x13f;" horiz-adv-x="971" 
d="M972 0h-807v1406h238v-1192h569v-214zM683.5 619.5q-33.5 32.5 -33.5 83.5t33.5 84t85.5 33t85.5 -33t33.5 -84t-33.5 -83.5t-85.5 -32.5t-85.5 32.5z" />
    <glyph glyph-name="Lslash" unicode="&#x141;" horiz-adv-x="971" 
d="M973 0h-807v534l-123 -70l-62 108l185 107l-1 727h239v-590l315 181l62 -108l-377 -218v-457h569v-214z" />
    <glyph glyph-name="M" unicode="M" horiz-adv-x="1913" 
d="M324 0h-238l178 1406h250l442 -1076l443 1076h251l178 -1406h-238l-123 1014l-427 -1014h-165l-429 1014z" />
    <glyph glyph-name="uni1E40" unicode="&#x1e40;" horiz-adv-x="1913" 
d="M858.5 1636q-38.5 36 -38.5 92t38.5 92t97.5 36q60 0 98.5 -36t38.5 -92t-38.5 -92t-98.5 -36q-59 0 -97.5 36zM324 0h-238l178 1406h250l442 -1076l443 1076h251l178 -1406h-238l-123 1014l-427 -1014h-165l-429 1014z" />
    <glyph glyph-name="uni1E42" unicode="&#x1e42;" horiz-adv-x="1913" 
d="M324 0h-238l178 1406h250l442 -1076l443 1076h251l178 -1406h-238l-123 1014l-427 -1014h-165l-429 1014zM862.5 -343q-36.5 34 -36.5 87q0 54 36.5 88.5t93.5 34.5t94 -34.5t37 -88.5q0 -53 -37 -87t-94 -34t-93.5 34z" />
    <glyph glyph-name="N" unicode="N" horiz-adv-x="1604" 
d="M402 0h-237v1406h237l798 -1025v1025h239v-1406h-239l-798 1026v-1026z" />
    <glyph glyph-name="Nacute" unicode="&#x143;" horiz-adv-x="1604" 
d="M1086 1811l-311 -294l-116 58l283 347zM402 0h-237v1406h237l798 -1025v1025h239v-1406h-239l-798 1026v-1026z" />
    <glyph glyph-name="Ncaron" unicode="&#x147;" horiz-adv-x="1604" 
d="M896 1527h-188l-233 296l117 58l210 -211l210 211l117 -58zM402 0h-237v1406h237l798 -1025v1025h239v-1406h-239l-798 1026v-1026z" />
    <glyph glyph-name="uni0145" unicode="&#x145;" horiz-adv-x="1604" 
d="M402 0h-237v1406h237l798 -1025v1025h239v-1406h-239l-798 1026v-1026zM818 -462h-125l47 297h201z" />
    <glyph glyph-name="uni1E44" unicode="&#x1e44;" horiz-adv-x="1604" 
d="M704 1636q-38 36 -38 92t38 92t98 36q59 0 97.5 -36t38.5 -92t-38.5 -92t-97.5 -36q-60 0 -98 36zM402 0h-237v1406h237l798 -1025v1025h239v-1406h-239l-798 1026v-1026z" />
    <glyph glyph-name="uni1E46" unicode="&#x1e46;" horiz-adv-x="1604" 
d="M402 0h-237v1406h237l798 -1025v1025h239v-1406h-239l-798 1026v-1026zM707.5 -343q-36.5 34 -36.5 87q0 54 36.5 88.5t94.5 34.5q56 0 92.5 -34.5t36.5 -88.5q0 -53 -36.5 -87t-92.5 -34q-58 0 -94.5 34z" />
    <glyph glyph-name="Eng" unicode="&#x14a;" horiz-adv-x="1604" 
d="M1047 -268q50 0 88 20.5t58.5 55t20.5 75.5v118l-812 1025v-1026h-237v1406h237l798 -1011v1011h239v-1557q-1 -164 -100.5 -237.5t-291.5 -73.5v194z" />
    <glyph glyph-name="uni1E48" unicode="&#x1e48;" horiz-adv-x="1604" 
d="M402 0h-237v1406h237l798 -1025v1025h239v-1406h-239l-798 1026v-1026zM1216 -345h-829v137h829v-137z" />
    <glyph glyph-name="Ntilde" unicode="&#xd1;" horiz-adv-x="1604" 
d="M861 1588.5q-34 15.5 -76 44.5q-38 24 -61.5 35.5t-51.5 11.5q-35 0 -66 -24t-47 -61l-103 92q28 73 83.5 116.5t124.5 43.5q44 0 77.5 -15t76.5 -44q36 -25 60.5 -36.5t53.5 -11.5q34 0 65.5 24.5t46.5 60.5l104 -92q-29 -73 -84.5 -116.5t-124.5 -43.5q-44 0 -78 15.5z
M402 0h-237v1406h237l798 -1025v1025h239v-1406h-239l-798 1026v-1026z" />
    <glyph glyph-name="O" unicode="O" horiz-adv-x="1629" 
d="M440.5 62q-165.5 94 -259 261.5t-93.5 379.5t93.5 379.5t259 261.5t374.5 94t374 -94t258.5 -261.5t93.5 -379.5t-93.5 -379.5t-258.5 -261.5t-374 -94t-374.5 94zM1062.5 261q109.5 65 171 180.5t61.5 261.5q0 147 -61.5 262.5t-171 180.5t-247.5 65t-248 -65
t-171.5 -180.5t-61.5 -262.5q0 -146 61.5 -261.5t171.5 -180.5t248 -65t247.5 65z" />
    <glyph glyph-name="Oacute" unicode="&#xd3;" horiz-adv-x="1629" 
d="M1100 1811l-311 -294l-117 58l283 347zM440.5 62q-165.5 94 -259 261.5t-93.5 379.5t93.5 379.5t259 261.5t374.5 94t374 -94t258.5 -261.5t93.5 -379.5t-93.5 -379.5t-258.5 -261.5t-374 -94t-374.5 94zM1062.5 261q109.5 65 171 180.5t61.5 261.5q0 147 -61.5 262.5
t-171 180.5t-247.5 65t-248 -65t-171.5 -180.5t-61.5 -262.5q0 -146 61.5 -261.5t171.5 -180.5t248 -65t247.5 65z" />
    <glyph glyph-name="Obreve" unicode="&#x14e;" horiz-adv-x="1629" 
d="M653.5 1584.5q-73.5 43.5 -116.5 118.5t-43 165h136q0 -48 25 -88t67 -62.5t91 -22.5t91 22.5t67 62.5t25 88h138q0 -90 -43 -165t-116.5 -118.5t-161.5 -43.5q-86 0 -159.5 43.5zM440.5 62q-165.5 94 -259 261.5t-93.5 379.5t93.5 379.5t259 261.5t374.5 94t374 -94
t258.5 -261.5t93.5 -379.5t-93.5 -379.5t-258.5 -261.5t-374 -94t-374.5 94zM1062.5 261q109.5 65 171 180.5t61.5 261.5q0 147 -61.5 262.5t-171 180.5t-247.5 65t-248 -65t-171.5 -180.5t-61.5 -262.5q0 -146 61.5 -261.5t171.5 -180.5t248 -65t247.5 65z" />
    <glyph glyph-name="Ocircumflex" unicode="&#xd4;" horiz-adv-x="1629" 
d="M815 1738l-210 -211l-117 58l233 296h188l233 -296l-117 -58zM440.5 62q-165.5 94 -259 261.5t-93.5 379.5t93.5 379.5t259 261.5t374.5 94t374 -94t258.5 -261.5t93.5 -379.5t-93.5 -379.5t-258.5 -261.5t-374 -94t-374.5 94zM1062.5 261q109.5 65 171 180.5t61.5 261.5
q0 147 -61.5 262.5t-171 180.5t-247.5 65t-248 -65t-171.5 -180.5t-61.5 -262.5q0 -146 61.5 -261.5t171.5 -180.5t248 -65t247.5 65z" />
    <glyph glyph-name="Odieresis" unicode="&#xd6;" horiz-adv-x="1629" 
d="M520 1636q-36 36 -36 92t36 92t92 36t92.5 -36t36.5 -92t-36.5 -92t-92.5 -36t-92 36zM925 1636q-36 36 -36 92t36 92t92 36q57 0 93 -36t36 -92t-36 -92t-93 -36q-56 0 -92 36zM440.5 62q-165.5 94 -259 261.5t-93.5 379.5t93.5 379.5t259 261.5t374.5 94t374 -94
t258.5 -261.5t93.5 -379.5t-93.5 -379.5t-258.5 -261.5t-374 -94t-374.5 94zM1062.5 261q109.5 65 171 180.5t61.5 261.5q0 147 -61.5 262.5t-171 180.5t-247.5 65t-248 -65t-171.5 -180.5t-61.5 -262.5q0 -146 61.5 -261.5t171.5 -180.5t248 -65t247.5 65z" />
    <glyph glyph-name="Odoubleacute" unicode="&#x150;" horiz-adv-x="1629" 
d="M937 1793l-310 -294l-99 76l266 328zM1300 1789l-310 -294l-99 76l266 328zM440.5 62q-165.5 94 -259 261.5t-93.5 379.5t93.5 379.5t259 261.5t374.5 94t374 -94t258.5 -261.5t93.5 -379.5t-93.5 -379.5t-258.5 -261.5t-374 -94t-374.5 94zM1062.5 261
q109.5 65 171 180.5t61.5 261.5q0 147 -61.5 262.5t-171 180.5t-247.5 65t-248 -65t-171.5 -180.5t-61.5 -262.5q0 -146 61.5 -261.5t171.5 -180.5t248 -65t247.5 65z" />
    <glyph glyph-name="Ograve" unicode="&#xd2;" horiz-adv-x="1629" 
d="M957 1575l-117 -58l-311 294l145 111zM440.5 62q-165.5 94 -259 261.5t-93.5 379.5t93.5 379.5t259 261.5t374.5 94t374 -94t258.5 -261.5t93.5 -379.5t-93.5 -379.5t-258.5 -261.5t-374 -94t-374.5 94zM1062.5 261q109.5 65 171 180.5t61.5 261.5q0 147 -61.5 262.5
t-171 180.5t-247.5 65t-248 -65t-171.5 -180.5t-61.5 -262.5q0 -146 61.5 -261.5t171.5 -180.5t248 -65t247.5 65z" />
    <glyph glyph-name="Omacron" unicode="&#x14c;" horiz-adv-x="1629" 
d="M1124 1660h-619v137h619v-137zM440.5 62q-165.5 94 -259 261.5t-93.5 379.5t93.5 379.5t259 261.5t374.5 94t374 -94t258.5 -261.5t93.5 -379.5t-93.5 -379.5t-258.5 -261.5t-374 -94t-374.5 94zM1062.5 261q109.5 65 171 180.5t61.5 261.5q0 147 -61.5 262.5t-171 180.5
t-247.5 65t-248 -65t-171.5 -180.5t-61.5 -262.5q0 -146 61.5 -261.5t171.5 -180.5t248 -65t247.5 65z" />
    <glyph glyph-name="Oslash" unicode="&#xd8;" horiz-adv-x="1629" 
d="M350 -32l-100 77l74 102q-112 99 -174 242t-62 314q0 212 93.5 379.5t258.5 261.5t374 94q218 0 389 -104l76 104l100 -78l-74 -101q112 -99 174 -242t62 -314q0 -212 -93.5 -379.5t-259 -261.5t-374.5 -94q-109 0 -207.5 26.5t-180.5 77.5zM1056 1147q-108 68 -242 68
q-138 0 -247.5 -66t-171 -182.5t-61.5 -263.5q0 -110 38 -202.5t107 -156.5zM1061.5 257q109.5 66 171.5 182.5t62 263.5q0 110 -38 202.5t-107 155.5l-577 -802q108 -68 241 -68q138 0 247.5 66z" />
    <glyph glyph-name="Otilde" unicode="&#xd5;" horiz-adv-x="1629" 
d="M874 1588.5q-34 15.5 -76 44.5q-38 24 -61.5 35.5t-51.5 11.5q-35 0 -66 -24t-47 -61l-103 92q28 73 83.5 116.5t124.5 43.5q44 0 76.5 -14.5t78.5 -44.5q35 -24 59.5 -36t53.5 -12q34 0 65.5 24.5t46.5 60.5l104 -92q-29 -73 -84.5 -116.5t-124.5 -43.5q-44 0 -78 15.5z
M440.5 62q-165.5 94 -259 261.5t-93.5 379.5t93.5 379.5t259 261.5t374.5 94t374 -94t258.5 -261.5t93.5 -379.5t-93.5 -379.5t-258.5 -261.5t-374 -94t-374.5 94zM1062.5 261q109.5 65 171 180.5t61.5 261.5q0 147 -61.5 262.5t-171 180.5t-247.5 65t-248 -65
t-171.5 -180.5t-61.5 -262.5q0 -146 61.5 -261.5t171.5 -180.5t248 -65t247.5 65z" />
    <glyph glyph-name="OE" unicode="&#x152;" horiz-adv-x="1930" 
d="M440 62q-165 94 -258.5 261.5t-93.5 379.5t93.5 379.5t258.5 261.5t374 94q120 0 228 -32h807v-212h-569v-366h536v-209h-536v-406h569v-213h-807q-108 -32 -228 -32q-209 0 -374 94zM1042 254v898q-50 31 -104 45t-120 14q-138 0 -248 -65t-173 -180.5t-63 -262.5
q0 -146 63 -261.5t173 -180.5t248 -65q137 0 224 58z" />
    <glyph glyph-name="P" unicode="P" horiz-adv-x="1162" 
d="M165 0v1406h454q229 0 350.5 -107.5t121.5 -313.5q0 -142 -61.5 -236.5t-167.5 -140.5t-243 -46h-216v-562h-238zM615 775q105 0 172 53t67 157q0 209 -239 209h-212v-419h212z" />
    <glyph glyph-name="Thorn" unicode="&#xde;" horiz-adv-x="1166" 
d="M165 0v1406h238v-282h216q229 0 350.5 -107.5t121.5 -313.5q0 -142 -61.5 -236.5t-167.5 -140.5t-243 -46h-216v-280h-238zM615 493q105 0 172 53t67 157q0 208 -239 208h-212v-418h212z" />
    <glyph glyph-name="Q" unicode="Q" horiz-adv-x="1629" 
d="M813 -32q-209 0 -374 94t-258 261.5t-93 379.5t93.5 379.5t258.5 261.5t374 94t374.5 -94t258.5 -261.5t93 -379.5q0 -157 -53.5 -289t-150 -225t-225.5 -137l564 -301l-97 -196zM1061.5 256.5q109.5 65.5 171 182t61.5 264.5t-61.5 264.5t-171 182t-247.5 65.5
t-247.5 -65.5t-171 -182t-61.5 -264.5t61.5 -264.5t171 -182t247.5 -65.5t247.5 65.5z" />
    <glyph glyph-name="R" unicode="R" horiz-adv-x="1293" 
d="M165 0v1406h453q227 0 350 -105.5t123 -314.5q0 -139 -68.5 -233t-182.5 -141l478 -612h-300l-431 563h-184v-563h-238zM614 775q106 0 173 53t67 158q0 207 -240 207h-211v-418h211z" />
    <glyph glyph-name="Racute" unicode="&#x154;" horiz-adv-x="1293" 
d="M909 1811l-311 -294l-116 58l283 347zM165 0v1406h453q227 0 350 -105.5t123 -314.5q0 -139 -68.5 -233t-182.5 -141l478 -612h-300l-431 563h-184v-563h-238zM614 775q106 0 173 53t67 158q0 207 -240 207h-211v-418h211z" />
    <glyph glyph-name="Rcaron" unicode="&#x158;" horiz-adv-x="1293" 
d="M719 1527h-188l-233 296l116 58l211 -211l211 211l115 -58zM165 0v1406h453q227 0 350 -105.5t123 -314.5q0 -139 -68.5 -233t-182.5 -141l478 -612h-300l-431 563h-184v-563h-238zM614 775q106 0 173 53t67 158q0 207 -240 207h-211v-418h211z" />
    <glyph glyph-name="uni0156" unicode="&#x156;" horiz-adv-x="1293" 
d="M165 0v1406h453q227 0 350 -105.5t123 -314.5q0 -139 -68.5 -233t-182.5 -141l478 -612h-300l-431 563h-184v-563h-238zM614 775q106 0 173 53t67 158q0 207 -240 207h-211v-418h211zM721 -462h-125l48 297h200z" />
    <glyph glyph-name="uni1E58" unicode="&#x1e58;" horiz-adv-x="1293" 
d="M527 1636q-38 36 -38 92t38 92t98 36t98 -36t38 -92t-38 -92t-98 -36t-98 36zM165 0v1406h453q227 0 350 -105.5t123 -314.5q0 -139 -68.5 -233t-182.5 -141l478 -612h-300l-431 563h-184v-563h-238zM614 775q106 0 173 53t67 158q0 207 -240 207h-211v-418h211z" />
    <glyph glyph-name="uni1E5A" unicode="&#x1e5a;" horiz-adv-x="1293" 
d="M165 0v1406h453q227 0 350 -105.5t123 -314.5q0 -139 -68.5 -233t-182.5 -141l478 -612h-300l-431 563h-184v-563h-238zM614 775q106 0 173 53t67 158q0 207 -240 207h-211v-418h211zM615.5 -343q-36.5 34 -36.5 87q0 54 36.5 88.5t93.5 34.5q58 0 94.5 -34.5t36.5 -88.5
q0 -53 -36.5 -87t-94.5 -34q-57 0 -93.5 34z" />
    <glyph glyph-name="uni1E5C" unicode="&#x1e5c;" horiz-adv-x="1293" 
d="M933 1660h-618v137h618v-137zM165 0v1406h453q227 0 350 -105.5t123 -314.5q0 -139 -68.5 -233t-182.5 -141l478 -612h-300l-431 563h-184v-563h-238zM614 775q106 0 173 53t67 158q0 207 -240 207h-211v-418h211zM615.5 -343q-36.5 34 -36.5 87q0 54 36.5 88.5
t93.5 34.5q58 0 94.5 -34.5t36.5 -88.5q0 -53 -36.5 -87t-94.5 -34q-57 0 -93.5 34z" />
    <glyph glyph-name="uni1E5E" unicode="&#x1e5e;" horiz-adv-x="1293" 
d="M165 0v1406h453q227 0 350 -105.5t123 -314.5q0 -139 -68.5 -233t-182.5 -141l478 -612h-300l-431 563h-184v-563h-238zM614 775q106 0 173 53t67 158q0 207 -240 207h-211v-418h211zM1077 -345h-712v137h712v-137z" />
    <glyph glyph-name="S" unicode="S" horiz-adv-x="1092" 
d="M316.5 20.5q-103.5 45.5 -167 132.5t-82.5 209l213 37q12 -73 53.5 -123t99.5 -75t122 -25q68 0 119 25t77.5 67t26.5 93q-1 71 -34 120.5t-112 88.5l-257 134q-121 63 -187.5 146t-66.5 210q0 103 52 187.5t150.5 134t233.5 49.5q121 0 212.5 -43.5t145.5 -122.5
t67 -185l-213 -37q-15 89 -70 138t-140 49q-62 0 -106.5 -21.5t-67.5 -58.5t-23 -82q0 -56 32.5 -93t113.5 -78l253 -133q130 -67 193.5 -160.5t63.5 -235.5q0 -113 -54 -202t-158.5 -140t-250.5 -51q-135 0 -238.5 45.5z" />
    <glyph glyph-name="Sacute" unicode="&#x15a;" horiz-adv-x="1092" 
d="M820 1811l-311 -294l-116 58l284 347zM316.5 20.5q-103.5 45.5 -167 132.5t-82.5 209l213 37q12 -73 53.5 -123t99.5 -75t122 -25q68 0 119 25t77.5 67t26.5 93q-1 71 -34 120.5t-112 88.5l-257 134q-121 63 -187.5 146t-66.5 210q0 103 52 187.5t150.5 134t233.5 49.5
q121 0 212.5 -43.5t145.5 -122.5t67 -185l-213 -37q-15 89 -70 138t-140 49q-62 0 -106.5 -21.5t-67.5 -58.5t-23 -82q0 -56 32.5 -93t113.5 -78l253 -133q130 -67 193.5 -160.5t63.5 -235.5q0 -113 -54 -202t-158.5 -140t-250.5 -51q-135 0 -238.5 45.5z" />
    <glyph glyph-name="Scaron" unicode="&#x160;" horiz-adv-x="1092" 
d="M629 1527h-188l-232 296l117 58l209 -211l212 211l116 -58zM316.5 20.5q-103.5 45.5 -167 132.5t-82.5 209l213 37q12 -73 53.5 -123t99.5 -75t122 -25q68 0 119 25t77.5 67t26.5 93q-1 71 -34 120.5t-112 88.5l-257 134q-121 63 -187.5 146t-66.5 210q0 103 52 187.5
t150.5 134t233.5 49.5q121 0 212.5 -43.5t145.5 -122.5t67 -185l-213 -37q-15 89 -70 138t-140 49q-62 0 -106.5 -21.5t-67.5 -58.5t-23 -82q0 -56 32.5 -93t113.5 -78l253 -133q130 -67 193.5 -160.5t63.5 -235.5q0 -113 -54 -202t-158.5 -140t-250.5 -51
q-135 0 -238.5 45.5z" />
    <glyph glyph-name="Scedilla" unicode="&#x15e;" horiz-adv-x="1092" 
d="M315 -424l48 112q43 -28 105 -28q53 0 83 25.5t30 66.5q0 99 -151 99l55 127q-172 17 -281.5 115.5t-136.5 268.5l213 37q14 -75 56 -125t99 -74t120 -24q69 0 119.5 24.5t77 67t26.5 93.5q0 70 -34.5 120t-111.5 89l-257 134q-123 63 -188.5 146t-65.5 210
q0 103 51.5 187.5t150 134t234.5 49.5q126 0 217 -44.5t143 -123.5t65 -183l-213 -37q-16 88 -70 137.5t-140 49.5q-94 0 -145.5 -45.5t-51.5 -116.5q0 -55 32.5 -93t113.5 -78l253 -133q130 -67 193.5 -161.5t63.5 -234.5q0 -105 -47 -190.5t-139.5 -138.5t-223.5 -62
l-23 -54q81 -10 126 -54.5t45 -126.5q0 -66 -35.5 -112t-94 -69t-126.5 -23q-129 0 -185 38z" />
    <glyph glyph-name="Scircumflex" unicode="&#x15c;" horiz-adv-x="1092" 
d="M549 1738l-210 -211l-117 58l233 296h188l233 -296l-116 -58zM316.5 20.5q-103.5 45.5 -167 132.5t-82.5 209l213 37q12 -73 53.5 -123t99.5 -75t122 -25q68 0 119 25t77.5 67t26.5 93q-1 71 -34 120.5t-112 88.5l-257 134q-121 63 -187.5 146t-66.5 210q0 103 52 187.5
t150.5 134t233.5 49.5q121 0 212.5 -43.5t145.5 -122.5t67 -185l-213 -37q-15 89 -70 138t-140 49q-62 0 -106.5 -21.5t-67.5 -58.5t-23 -82q0 -56 32.5 -93t113.5 -78l253 -133q130 -67 193.5 -160.5t63.5 -235.5q0 -113 -54 -202t-158.5 -140t-250.5 -51
q-135 0 -238.5 45.5z" />
    <glyph glyph-name="uni0218" unicode="&#x218;" horiz-adv-x="1092" 
d="M316.5 20.5q-103.5 45.5 -167 132.5t-82.5 209l213 37q12 -73 53.5 -123t99.5 -75t122 -25q68 0 119 25t77.5 67t26.5 93q-1 71 -34 120.5t-112 88.5l-257 134q-121 63 -187.5 146t-66.5 210q0 103 52 187.5t150.5 134t233.5 49.5q121 0 212.5 -43.5t145.5 -122.5
t67 -185l-213 -37q-15 89 -70 138t-140 49q-62 0 -106.5 -21.5t-67.5 -58.5t-23 -82q0 -56 32.5 -93t113.5 -78l253 -133q130 -67 193.5 -160.5t63.5 -235.5q0 -113 -54 -202t-158.5 -140t-250.5 -51q-135 0 -238.5 45.5zM552 -462h-125l48 297h200z" />
    <glyph glyph-name="uni1E62" unicode="&#x1e62;" horiz-adv-x="1092" 
d="M316.5 20.5q-103.5 45.5 -167 132.5t-82.5 209l213 37q12 -73 53.5 -123t99.5 -75t122 -25q68 0 119 25t77.5 67t26.5 93q-1 71 -34 120.5t-112 88.5l-257 134q-121 63 -187.5 146t-66.5 210q0 103 52 187.5t150.5 134t233.5 49.5q121 0 212.5 -43.5t145.5 -122.5
t67 -185l-213 -37q-15 89 -70 138t-140 49q-62 0 -106.5 -21.5t-67.5 -58.5t-23 -82q0 -56 32.5 -93t113.5 -78l253 -133q130 -67 193.5 -160.5t63.5 -235.5q0 -113 -54 -202t-158.5 -140t-250.5 -51q-135 0 -238.5 45.5zM441.5 -343q-36.5 34 -36.5 87q0 54 36.5 88.5
t93.5 34.5q58 0 94.5 -34.5t36.5 -88.5q0 -53 -36.5 -87t-94.5 -34q-57 0 -93.5 34z" />
    <glyph glyph-name="uni1E9E" unicode="&#x1e9e;" horiz-adv-x="1336" 
d="M638.5 -12.5q-49.5 3.5 -108.5 12.5v192h229q75 0 136 28.5t96.5 83t35.5 128.5q0 70 -33 122.5t-95 81.5t-145 29h-183v163l288 367h-255q-101 0 -159.5 -59t-59.5 -158v-978h-238v980q0 126 56 222.5t159.5 150t241.5 53.5h547v-136l-347 -434h62q103 0 194 -44.5
t147.5 -134t56.5 -218.5q0 -140 -65 -243t-180 -157.5t-261 -54.5q-70 0 -119.5 3.5z" />
    <glyph glyph-name="T" unicode="T" horiz-adv-x="1162" 
d="M700 0h-238v1194h-468v212h1174v-212h-468v-1194z" />
    <glyph glyph-name="Tbar" unicode="&#x166;" horiz-adv-x="1162" 
d="M700 0h-238v584h-269v124h269v486h-468v212h1174v-212h-468v-486h269v-124h-269v-584z" />
    <glyph glyph-name="Tcaron" unicode="&#x164;" horiz-adv-x="1162" 
d="M675 1527h-188l-232 296l116 58l210 -211l211 211l116 -58zM700 0h-238v1194h-468v212h1174v-212h-468v-1194z" />
    <glyph glyph-name="uni0162" unicode="&#x162;" horiz-adv-x="1162" 
d="M355 -424l47 112q24 -16 49 -22t57 -6q52 0 82.5 24.5t30.5 67.5q0 99 -151 99l63 149h-71v1194h-468v212h1174v-212h-468v-1194h-42l-33 -77q81 -10 126 -55.5t45 -125.5q0 -64 -35 -110t-93.5 -70t-128.5 -24q-123 0 -184 38z" />
    <glyph glyph-name="uni021A" unicode="&#x21a;" horiz-adv-x="1162" 
d="M700 0h-238v1194h-468v212h1174v-212h-468v-1194zM588 -462h-125l48 297h200z" />
    <glyph glyph-name="uni1E6C" unicode="&#x1e6c;" horiz-adv-x="1162" 
d="M700 0h-238v1194h-468v212h1174v-212h-468v-1194zM487.5 -343q-36.5 34 -36.5 87q0 54 36.5 88.5t93.5 34.5t93.5 -34.5t36.5 -88.5q0 -53 -36.5 -87t-93.5 -34t-93.5 34z" />
    <glyph glyph-name="U" unicode="U" horiz-adv-x="1515" 
d="M436.5 38q-135.5 70 -207 195t-71.5 285v888h237v-890q0 -97 44 -172.5t126 -118.5t193 -43q110 0 191.5 43t125.5 118.5t44 172.5v890h239v-888q0 -160 -71.5 -285t-207 -195t-321.5 -70t-321.5 70z" />
    <glyph glyph-name="Uacute" unicode="&#xda;" horiz-adv-x="1515" 
d="M1042 1811l-311 -294l-116 58l283 347zM436.5 38q-135.5 70 -207 195t-71.5 285v888h237v-890q0 -97 44 -172.5t126 -118.5t193 -43q110 0 191.5 43t125.5 118.5t44 172.5v890h239v-888q0 -160 -71.5 -285t-207 -195t-321.5 -70t-321.5 70z" />
    <glyph glyph-name="Ubreve" unicode="&#x16c;" horiz-adv-x="1515" 
d="M597 1584.5q-73 43.5 -116 118.5t-43 165h135q0 -48 25.5 -88t67.5 -62.5t91 -22.5q48 0 90 22.5t67.5 62.5t25.5 88h138q0 -90 -43 -165t-116.5 -118.5t-161.5 -43.5q-87 0 -160 43.5zM436.5 38q-135.5 70 -207 195t-71.5 285v888h237v-890q0 -97 44 -172.5t126 -118.5
t193 -43q110 0 191.5 43t125.5 118.5t44 172.5v890h239v-888q0 -160 -71.5 -285t-207 -195t-321.5 -70t-321.5 70z" />
    <glyph glyph-name="Ucircumflex" unicode="&#xdb;" horiz-adv-x="1515" 
d="M758 1738l-210 -211l-117 58l233 296h188l233 -296l-116 -58zM436.5 38q-135.5 70 -207 195t-71.5 285v888h237v-890q0 -97 44 -172.5t126 -118.5t193 -43q110 0 191.5 43t125.5 118.5t44 172.5v890h239v-888q0 -160 -71.5 -285t-207 -195t-321.5 -70t-321.5 70z" />
    <glyph glyph-name="Udieresis" unicode="&#xdc;" horiz-adv-x="1515" 
d="M463 1636q-36 36 -36 92t36 92t92 36q57 0 93 -36t36 -92t-36 -92t-93 -36q-56 0 -92 36zM868.5 1636q-36.5 36 -36.5 92t36.5 92t92.5 36q57 0 92.5 -36t35.5 -92t-35.5 -92t-92.5 -36q-56 0 -92.5 36zM436.5 38q-135.5 70 -207 195t-71.5 285v888h237v-890
q0 -97 44 -172.5t126 -118.5t193 -43q110 0 191.5 43t125.5 118.5t44 172.5v890h239v-888q0 -160 -71.5 -285t-207 -195t-321.5 -70t-321.5 70z" />
    <glyph glyph-name="Udoubleacute" unicode="&#x170;" horiz-adv-x="1515" 
d="M874 1793l-310 -294l-99 76l265 328zM1237 1789l-311 -294l-99 76l267 328zM436.5 38q-135.5 70 -207 195t-71.5 285v888h237v-890q0 -97 44 -172.5t126 -118.5t193 -43q110 0 191.5 43t125.5 118.5t44 172.5v890h239v-888q0 -160 -71.5 -285t-207 -195t-321.5 -70
t-321.5 70z" />
    <glyph glyph-name="Ugrave" unicode="&#xd9;" horiz-adv-x="1515" 
d="M900 1575l-117 -58l-310 294l144 111zM436.5 38q-135.5 70 -207 195t-71.5 285v888h237v-890q0 -97 44 -172.5t126 -118.5t193 -43q110 0 191.5 43t125.5 118.5t44 172.5v890h239v-888q0 -160 -71.5 -285t-207 -195t-321.5 -70t-321.5 70z" />
    <glyph glyph-name="Umacron" unicode="&#x16a;" horiz-adv-x="1515" 
d="M1067 1660h-619v137h619v-137zM436.5 38q-135.5 70 -207 195t-71.5 285v888h237v-890q0 -97 44 -172.5t126 -118.5t193 -43q110 0 191.5 43t125.5 118.5t44 172.5v890h239v-888q0 -160 -71.5 -285t-207 -195t-321.5 -70t-321.5 70z" />
    <glyph glyph-name="Uogonek" unicode="&#x172;" horiz-adv-x="1515" 
d="M792.5 -420.5q-48.5 41.5 -48.5 106.5q0 46 17.5 82.5t51.5 69.5l147 158q-95 -28 -202 -28q-187 0 -322.5 70.5t-206.5 195t-71 284.5v888h237v-890q0 -97 43.5 -173t126 -118.5t193.5 -42.5q112 0 193.5 43.5t124.5 119.5t43 171v890h239v-888q0 -124 -47 -226.5
t-133 -172.5l-238 -320q-24 -33 -24 -65q0 -28 18.5 -45.5t51.5 -17.5q25 0 45 6.5t40 21.5l39 -121q-36 -20 -82 -30t-93 -10q-94 0 -142.5 41.5z" />
    <glyph glyph-name="Uring" unicode="&#x16e;" horiz-adv-x="1515" 
d="M654.5 1533.5q-47.5 26.5 -75 73t-27.5 103.5q0 58 27 104.5t74.5 73t104.5 26.5t104 -26.5t74 -73.5t27 -104t-27 -103.5t-74 -73t-104 -26.5q-56 0 -103.5 26.5zM831 1636.5q30 30.5 30 73.5q0 44 -30 74.5t-73 30.5t-73 -30.5t-30 -74.5q0 -43 30 -73.5t73 -30.5
t73 30.5zM436.5 38q-135.5 70 -207 195t-71.5 285v888h237v-890q0 -97 44 -172.5t126 -118.5t193 -43q110 0 191.5 43t125.5 118.5t44 172.5v890h239v-888q0 -160 -71.5 -285t-207 -195t-321.5 -70t-321.5 70z" />
    <glyph glyph-name="Utilde" unicode="&#x168;" horiz-adv-x="1515" 
d="M817 1588.5q-34 15.5 -76 44.5q-38 24 -61.5 35.5t-51.5 11.5q-35 0 -65.5 -24.5t-46.5 -60.5l-104 92q29 73 84.5 116.5t124.5 43.5q43 0 76 -15t78 -44q36 -25 60.5 -36.5t52.5 -11.5q35 0 66 24t47 61l103 -92q-28 -72 -84 -116t-125 -44q-44 0 -78 15.5zM436.5 38
q-135.5 70 -207 195t-71.5 285v888h237v-890q0 -97 44 -172.5t126 -118.5t193 -43q110 0 191.5 43t125.5 118.5t44 172.5v890h239v-888q0 -160 -71.5 -285t-207 -195t-321.5 -70t-321.5 70z" />
    <glyph glyph-name="V" unicode="V" horiz-adv-x="1346" 
d="M802 0h-258l-556 1406h259l426 -1124l426 1124h259z" />
    <glyph glyph-name="W" unicode="W" horiz-adv-x="2060" 
d="M780 0h-272l-513 1406h257l409 -1136l263 719l-135 417h249l366 -1121l405 1121h256l-512 -1406h-272l-250 675z" />
    <glyph glyph-name="Wacute" unicode="&#x1e82;" horiz-adv-x="2060" 
d="M1315 1811l-311 -294l-116 58l283 347zM780 0h-272l-513 1406h257l409 -1136l263 719l-135 417h249l366 -1121l405 1121h256l-512 -1406h-272l-250 675z" />
    <glyph glyph-name="Wcircumflex" unicode="&#x174;" horiz-adv-x="2060" 
d="M1030 1738l-209 -211l-118 58l233 296h188l234 -296l-117 -58zM780 0h-272l-513 1406h257l409 -1136l263 719l-135 417h249l366 -1121l405 1121h256l-512 -1406h-272l-250 675z" />
    <glyph glyph-name="Wdieresis" unicode="&#x1e84;" horiz-adv-x="2060" 
d="M735.5 1636q-36.5 36 -36.5 92t36.5 92t92.5 36t92 -36t36 -92t-36 -92t-92 -36t-92.5 36zM1141 1636q-36 36 -36 92t36 92t92 36q57 0 93 -36t36 -92t-36 -92t-93 -36q-56 0 -92 36zM780 0h-272l-513 1406h257l409 -1136l263 719l-135 417h249l366 -1121l405 1121h256
l-512 -1406h-272l-250 675z" />
    <glyph glyph-name="uni1E88" unicode="&#x1e88;" horiz-adv-x="2060" 
d="M780 0h-272l-513 1406h257l409 -1136l263 719l-135 417h249l366 -1121l405 1121h256l-512 -1406h-272l-250 675zM936 -343q-37 34 -37 87q0 54 37 88.5t94 34.5t93.5 -34.5t36.5 -88.5q0 -53 -36.5 -87t-93.5 -34t-94 34z" />
    <glyph glyph-name="Wgrave" unicode="&#x1e80;" horiz-adv-x="2060" 
d="M1173 1575l-117 -58l-311 294l144 111zM780 0h-272l-513 1406h257l409 -1136l263 719l-135 417h249l366 -1121l405 1121h256l-512 -1406h-272l-250 675z" />
    <glyph glyph-name="X" unicode="X" horiz-adv-x="1289" 
d="M645 546l-355 -546l-282 1l487 744l-436 662h278l308 -471l308 471h278l-436 -662l487 -744h-282z" />
    <glyph glyph-name="Y" unicode="Y" horiz-adv-x="1144" 
d="M691 0h-239v567l-485 839h278l327 -604l326 604h279l-486 -839v-567z" />
    <glyph glyph-name="Yacute" unicode="&#xdd;" horiz-adv-x="1144" 
d="M856 1811l-311 -294l-115 58l283 347zM691 0h-239v567l-485 839h278l327 -604l326 604h279l-486 -839v-567z" />
    <glyph glyph-name="Ycircumflex" unicode="&#x176;" horiz-adv-x="1144" 
d="M572 1738l-210 -211l-117 58l233 296h188l233 -296l-116 -58zM691 0h-239v567l-485 839h278l327 -604l326 604h279l-486 -839v-567z" />
    <glyph glyph-name="Ydieresis" unicode="&#x178;" horiz-adv-x="1144" 
d="M277.5 1636q-36.5 36 -36.5 92t36.5 92t92.5 36t92 -36t36 -92t-36 -92t-92 -36t-92.5 36zM682 1636q-36 36 -36 92t36 92t92 36q57 0 93.5 -36t36.5 -92t-36.5 -92t-93.5 -36q-56 0 -92 36zM691 0h-239v567l-485 839h278l327 -604l326 604h279l-486 -839v-567z" />
    <glyph glyph-name="uni1EF4" unicode="&#x1ef4;" horiz-adv-x="1144" 
d="M691 0h-239v567l-485 839h278l327 -604l326 604h279l-486 -839v-567zM477.5 -343q-36.5 34 -36.5 87q0 54 36.5 88.5t94.5 34.5q57 0 93.5 -34.5t36.5 -88.5q0 -53 -36.5 -87t-93.5 -34q-58 0 -94.5 34z" />
    <glyph glyph-name="Ygrave" unicode="&#x1ef2;" horiz-adv-x="1144" 
d="M714 1575l-116 -58l-311 294l144 111zM691 0h-239v567l-485 839h278l327 -604l326 604h279l-486 -839v-567z" />
    <glyph glyph-name="uni0232" unicode="&#x232;" horiz-adv-x="1144" 
d="M881 1660h-619v137h619v-137zM691 0h-239v567l-485 839h278l327 -604l326 604h279l-486 -839v-567z" />
    <glyph glyph-name="Z" unicode="Z" horiz-adv-x="1086" 
d="M1049 0h-968v140l624 1054h-590v212h895v-139l-623 -1053h662v-214z" />
    <glyph glyph-name="Zacute" unicode="&#x179;" horiz-adv-x="1086" 
d="M850 1811l-311 -294l-116 58l283 347zM1049 0h-968v140l624 1054h-590v212h895v-139l-623 -1053h662v-214z" />
    <glyph glyph-name="Zcaron" unicode="&#x17d;" horiz-adv-x="1086" 
d="M660 1527h-188l-233 296l117 58l210 -211l210 211l117 -58zM1049 0h-968v140l624 1054h-590v212h895v-139l-623 -1053h662v-214z" />
    <glyph glyph-name="Zdotaccent" unicode="&#x17b;" horiz-adv-x="1086" 
d="M468 1636q-38 36 -38 92t38 92t98 36q59 0 97.5 -36t38.5 -92t-38.5 -92t-97.5 -36q-60 0 -98 36zM1049 0h-968v140l624 1054h-590v212h895v-139l-623 -1053h662v-214z" />
    <glyph glyph-name="uni1E92" unicode="&#x1e92;" horiz-adv-x="1086" 
d="M1049 0h-968v140l624 1054h-590v212h895v-139l-623 -1053h662v-214zM471.5 -343q-36.5 34 -36.5 87q0 54 36.5 88.5t94.5 34.5q56 0 92.5 -34.5t36.5 -88.5q0 -53 -36.5 -87t-92.5 -34q-58 0 -94.5 34z" />
    <glyph glyph-name="J.ss01" horiz-adv-x="1156" 
d="M290 21q-101 53 -159 147t-69 218l233 18q11 -105 71 -163.5t159 -58.5q111 0 172 70t61 199v955h239v-947q0 -162 -57 -272t-162.5 -164.5t-250.5 -54.5q-136 0 -237 53z" />
    <glyph glyph-name="Jcircumflex.ss01" horiz-adv-x="1156" 
d="M872 1738l-211 -211l-116 58l233 296h188l232 -296l-115 -58zM290 21q-101 53 -159 147t-69 218l233 18q11 -105 71 -163.5t159 -58.5q111 0 172 70t61 199v955h239v-947q0 -162 -57 -272t-162.5 -164.5t-250.5 -54.5q-136 0 -237 53z" />
    <glyph glyph-name="W.ss02" horiz-adv-x="2008" 
d="M680 0h-254l-431 1406h258l316 -1082l338 1082h194l339 -1082l316 1082h257l-430 -1406h-253l-325 1004z" />
    <glyph glyph-name="Wacute.ss02" horiz-adv-x="2008" 
d="M1288 1811l-311 -294l-116 58l283 347zM680 0h-254l-431 1406h258l316 -1082l338 1082h194l339 -1082l316 1082h257l-430 -1406h-253l-325 1004z" />
    <glyph glyph-name="Wcircumflex.ss02" horiz-adv-x="2008" 
d="M1005 1738l-211 -211l-116 58l233 296h188l232 -296l-116 -58zM680 0h-254l-431 1406h258l316 -1082l338 1082h194l339 -1082l316 1082h257l-430 -1406h-253l-325 1004z" />
    <glyph glyph-name="Wdieresis.ss02" horiz-adv-x="2008" 
d="M710 1636q-36 36 -36 92t36 92t92 36t92.5 -36t36.5 -92t-36.5 -92t-92.5 -36t-92 36zM1114.5 1636q-36.5 36 -36.5 92t36.5 92t92.5 36q57 0 93 -36t36 -92t-36 -92t-93 -36q-56 0 -92.5 36zM680 0h-254l-431 1406h258l316 -1082l338 1082h194l339 -1082l316 1082h257
l-430 -1406h-253l-325 1004z" />
    <glyph glyph-name="uni1E88.ss02" horiz-adv-x="2008" 
d="M680 0h-254l-431 1406h258l316 -1082l338 1082h194l339 -1082l316 1082h257l-430 -1406h-253l-325 1004zM910.5 -343q-36.5 34 -36.5 87q0 54 36.5 88.5t94.5 34.5q56 0 92.5 -34.5t36.5 -88.5q0 -53 -36.5 -87t-92.5 -34q-58 0 -94.5 34z" />
    <glyph glyph-name="Wgrave.ss02" horiz-adv-x="2008" 
d="M1147 1575l-116 -58l-311 294l144 111zM680 0h-254l-431 1406h258l316 -1082l338 1082h194l339 -1082l316 1082h257l-430 -1406h-253l-325 1004z" />
    <glyph glyph-name="a" unicode="a" horiz-adv-x="1085" 
d="M220.5 1q-67.5 33 -102 92t-34.5 138q0 112 72.5 196t201.5 122l348 99v65q0 90 -49 141.5t-140 51.5q-47 0 -88 -23.5t-68.5 -67.5t-34.5 -105l-213 32q17 109 74 191.5t144 127.5t190 45q206 0 310 -103t104 -290v-713h-206v129h-7q-60 -77 -147.5 -119t-191.5 -42
q-95 0 -162.5 33zM574 204.5q59 33.5 95.5 85t36.5 103.5v92l-257 -69q-68 -18 -102.5 -54.5t-34.5 -88.5q0 -46 35.5 -74t104.5 -28q63 0 122 33.5z" />
    <glyph glyph-name="aacute" unicode="&#xe1;" horiz-adv-x="1085" 
d="M819 1492l-311 -294l-116 58l283 347zM220.5 1q-67.5 33 -102 92t-34.5 138q0 112 72.5 196t201.5 122l348 99v65q0 90 -49 141.5t-140 51.5q-47 0 -88 -23.5t-68.5 -67.5t-34.5 -105l-213 32q17 109 74 191.5t144 127.5t190 45q206 0 310 -103t104 -290v-713h-206v129
h-7q-60 -77 -147.5 -119t-191.5 -42q-95 0 -162.5 33zM574 204.5q59 33.5 95.5 85t36.5 103.5v92l-257 -69q-68 -18 -102.5 -54.5t-34.5 -88.5q0 -46 35.5 -74t104.5 -28q63 0 122 33.5z" />
    <glyph glyph-name="abreve" unicode="&#x103;" horiz-adv-x="1085" 
d="M372.5 1237.5q-73.5 43.5 -116.5 118.5t-43 165h137q0 -48 25 -88t67 -62.5t91 -22.5t90.5 22.5t66.5 62.5t25 88h139q0 -90 -43 -165t-117 -118.5t-161 -43.5t-160.5 43.5zM220.5 1q-67.5 33 -102 92t-34.5 138q0 112 72.5 196t201.5 122l348 99v65q0 90 -49 141.5
t-140 51.5q-47 0 -88 -23.5t-68.5 -67.5t-34.5 -105l-213 32q17 109 74 191.5t144 127.5t190 45q206 0 310 -103t104 -290v-713h-206v129h-7q-60 -77 -147.5 -119t-191.5 -42q-95 0 -162.5 33zM574 204.5q59 33.5 95.5 85t36.5 103.5v92l-257 -69q-68 -18 -102.5 -54.5
t-34.5 -88.5q0 -46 35.5 -74t104.5 -28q63 0 122 33.5z" />
    <glyph glyph-name="acircumflex" unicode="&#xe2;" horiz-adv-x="1085" 
d="M534 1391l-210 -211l-116 58l232 296h188l233 -296l-116 -58zM220.5 1q-67.5 33 -102 92t-34.5 138q0 112 72.5 196t201.5 122l348 99v65q0 90 -49 141.5t-140 51.5q-47 0 -88 -23.5t-68.5 -67.5t-34.5 -105l-213 32q17 109 74 191.5t144 127.5t190 45q206 0 310 -103
t104 -290v-713h-206v129h-7q-60 -77 -147.5 -119t-191.5 -42q-95 0 -162.5 33zM574 204.5q59 33.5 95.5 85t36.5 103.5v92l-257 -69q-68 -18 -102.5 -54.5t-34.5 -88.5q0 -46 35.5 -74t104.5 -28q63 0 122 33.5z" />
    <glyph glyph-name="adieresis" unicode="&#xe4;" horiz-adv-x="1085" 
d="M239.5 1289q-36.5 36 -36.5 92t36.5 92t92.5 36t92.5 -36t36.5 -92t-36.5 -92t-92.5 -36t-92.5 36zM644 1289q-36 36 -36 92t36 92t92 36q57 0 93.5 -36t36.5 -92t-36.5 -92t-93.5 -36q-56 0 -92 36zM220.5 1q-67.5 33 -102 92t-34.5 138q0 112 72.5 196t201.5 122
l348 99v65q0 90 -49 141.5t-140 51.5q-47 0 -88 -23.5t-68.5 -67.5t-34.5 -105l-213 32q17 109 74 191.5t144 127.5t190 45q206 0 310 -103t104 -290v-713h-206v129h-7q-60 -77 -147.5 -119t-191.5 -42q-95 0 -162.5 33zM574 204.5q59 33.5 95.5 85t36.5 103.5v92l-257 -69
q-68 -18 -102.5 -54.5t-34.5 -88.5q0 -46 35.5 -74t104.5 -28q63 0 122 33.5z" />
    <glyph glyph-name="agrave" unicode="&#xe0;" horiz-adv-x="1085" 
d="M676 1256l-116 -58l-311 294l144 111zM220.5 1q-67.5 33 -102 92t-34.5 138q0 112 72.5 196t201.5 122l348 99v65q0 90 -49 141.5t-140 51.5q-47 0 -88 -23.5t-68.5 -67.5t-34.5 -105l-213 32q17 109 74 191.5t144 127.5t190 45q206 0 310 -103t104 -290v-713h-206v129
h-7q-60 -77 -147.5 -119t-191.5 -42q-95 0 -162.5 33zM574 204.5q59 33.5 95.5 85t36.5 103.5v92l-257 -69q-68 -18 -102.5 -54.5t-34.5 -88.5q0 -46 35.5 -74t104.5 -28q63 0 122 33.5z" />
    <glyph glyph-name="amacron" unicode="&#x101;" horiz-adv-x="1085" 
d="M843 1313h-618v137h618v-137zM220.5 1q-67.5 33 -102 92t-34.5 138q0 112 72.5 196t201.5 122l348 99v65q0 90 -49 141.5t-140 51.5q-47 0 -88 -23.5t-68.5 -67.5t-34.5 -105l-213 32q17 109 74 191.5t144 127.5t190 45q206 0 310 -103t104 -290v-713h-206v129h-7
q-60 -77 -147.5 -119t-191.5 -42q-95 0 -162.5 33zM574 204.5q59 33.5 95.5 85t36.5 103.5v92l-257 -69q-68 -18 -102.5 -54.5t-34.5 -88.5q0 -46 35.5 -74t104.5 -28q63 0 122 33.5z" />
    <glyph glyph-name="aogonek" unicode="&#x105;" horiz-adv-x="1085" 
d="M630.5 -420q-47.5 42 -47.5 106q0 45 17 81.5t51 72.5l136 160h-58v129h-7q-61 -78 -148.5 -119.5t-190.5 -41.5q-98 0 -165 33.5t-100.5 93t-33.5 136.5q0 110 71 194.5t203 123.5l348 99v65q0 88 -48 140.5t-141 52.5q-71 0 -124.5 -51t-66.5 -145l-213 32
q19 113 76.5 195.5t143 125.5t188.5 43q210 0 312 -104.5t102 -288.5v-713h-19l-137 -199q-24 -29 -24 -67q0 -28 18 -45.5t52 -17.5q52 0 86 28l37 -121q-77 -40 -174 -40q-96 0 -143.5 42zM575 204.5q59 33.5 95 85t36 103.5v92l-257 -69q-68 -18 -102.5 -55t-34.5 -88
q0 -46 35 -74t105 -28q64 0 123 33.5z" />
    <glyph glyph-name="aring" unicode="&#xe5;" horiz-adv-x="1085" 
d="M431 1186.5q-47 26.5 -75 73t-28 103.5t27.5 104t74.5 73.5t104 26.5t104 -26.5t74 -73t27 -104.5q0 -57 -27 -103.5t-74 -73t-104 -26.5q-56 0 -103 26.5zM607 1289.5q30 30.5 30 73.5q0 44 -30 74.5t-73 30.5t-73 -30.5t-30 -74.5q0 -43 30 -73.5t73 -30.5t73 30.5z
M220.5 1q-67.5 33 -102 92t-34.5 138q0 112 72.5 196t201.5 122l348 99v65q0 90 -49 141.5t-140 51.5q-47 0 -88 -23.5t-68.5 -67.5t-34.5 -105l-213 32q17 109 74 191.5t144 127.5t190 45q206 0 310 -103t104 -290v-713h-206v129h-7q-60 -77 -147.5 -119t-191.5 -42
q-95 0 -162.5 33zM574 204.5q59 33.5 95.5 85t36.5 103.5v92l-257 -69q-68 -18 -102.5 -54.5t-34.5 -88.5q0 -46 35.5 -74t104.5 -28q63 0 122 33.5z" />
    <glyph glyph-name="atilde" unicode="&#xe3;" horiz-adv-x="1085" 
d="M595 1241q-33 15 -78 44q-36 25 -60.5 36.5t-52.5 11.5q-35 0 -66 -24t-47 -61l-102 92q28 73 83.5 116.5t124.5 43.5q44 0 78 -15.5t76 -44.5q38 -24 61.5 -35.5t51.5 -11.5q35 0 66.5 24.5t46.5 60.5l103 -92q-29 -73 -84.5 -116.5t-124.5 -43.5q-43 0 -76 15zM220.5 1
q-67.5 33 -102 92t-34.5 138q0 112 72.5 196t201.5 122l348 99v65q0 90 -49 141.5t-140 51.5q-47 0 -88 -23.5t-68.5 -67.5t-34.5 -105l-213 32q17 109 74 191.5t144 127.5t190 45q206 0 310 -103t104 -290v-713h-206v129h-7q-60 -77 -147.5 -119t-191.5 -42
q-95 0 -162.5 33zM574 204.5q59 33.5 95.5 85t36.5 103.5v92l-257 -69q-68 -18 -102.5 -54.5t-34.5 -88.5q0 -46 35.5 -74t104.5 -28q63 0 122 33.5z" />
    <glyph glyph-name="ae" unicode="&#xe6;" horiz-adv-x="1867" 
d="M221.5 1q-67.5 33 -102.5 92t-35 138q0 113 72.5 197t202.5 121l348 99v65q0 90 -49.5 141.5t-139.5 51.5q-47 0 -88.5 -23.5t-69 -68t-34.5 -104.5l-213 32q18 110 75 192t144 127t191 45q121 0 207 -44t135 -125q72 85 170 127t213 42q148 0 270.5 -64.5t196.5 -189.5
t78 -297q0 -66 -5 -87l-852 1v-93q33 -99 117.5 -157.5t196.5 -58.5q113 0 193 49t126 135l187 -96q-43 -86 -120 -149t-174 -97t-200 -34q-104 0 -195 32.5t-157.5 89t-101.5 129.5q-65 -121 -166 -186t-258 -65q-95 0 -162.5 33zM1566 627q-6 85 -49.5 151.5t-114 103.5
t-154.5 37q-109 0 -193.5 -60t-118.5 -160v-72h630zM574.5 204.5q59.5 33.5 96.5 85t37 103.5v92l-258 -69q-68 -18 -103 -54.5t-35 -88.5q0 -46 36 -74t104 -28q63 0 122.5 33.5z" />
    <glyph glyph-name="b" unicode="b" horiz-adv-x="1368" 
d="M529.5 13q-93.5 45 -151.5 116h-7v-129h-206v1522h224v-565q60 65 149 107t204 42q153 0 278 -73t197 -203t72 -293t-72 -293t-197 -203t-278 -73q-119 0 -212.5 45zM899 221q78 46 122 128t44 188t-44 188t-122 128t-175 46t-175 -46t-122.5 -128t-44.5 -188t44.5 -188
t122.5 -128t175 -46t175 46z" />
    <glyph glyph-name="c" unicode="c" horiz-adv-x="1208" 
d="M355.5 41q-129.5 73 -203.5 202.5t-74 293.5t74 293.5t203.5 202.5t291.5 73q120 0 225 -42.5t182.5 -120t115.5 -180.5l-211 -79q-39 103 -123 158.5t-189 55.5q-96 0 -174.5 -45.5t-124.5 -128t-46 -187.5t46 -187.5t124.5 -128t174.5 -45.5q105 0 189 55.5t123 158.5
l211 -79q-38 -103 -115.5 -180.5t-182.5 -120t-225 -42.5q-162 0 -291.5 73z" />
    <glyph glyph-name="cacute" unicode="&#x107;" horiz-adv-x="1208" 
d="M942 1492l-311 -294l-117 58l284 347zM354.5 41q-129.5 73 -203.5 202.5t-74 293.5t74 293.5t203.5 202.5t291.5 73q120 0 225.5 -42.5t182.5 -120t115 -180.5l-210 -79q-39 103 -123.5 158.5t-189.5 55.5q-96 0 -174.5 -45.5t-124.5 -128t-46 -187.5t46 -187.5
t124.5 -128t174.5 -45.5q105 0 189.5 55.5t123.5 158.5l210 -79q-38 -103 -115 -180.5t-182.5 -120t-225.5 -42.5q-162 0 -291.5 73z" />
    <glyph glyph-name="ccaron" unicode="&#x10d;" horiz-adv-x="1208" 
d="M740 1180h-188l-232 296l116 58l210 -211l211 211l116 -58zM354.5 41q-129.5 73 -203.5 202.5t-74 293.5t74 293.5t203.5 202.5t291.5 73q120 0 225.5 -42.5t182.5 -120t115 -180.5l-210 -79q-39 103 -123.5 158.5t-189.5 55.5q-96 0 -174.5 -45.5t-124.5 -128
t-46 -187.5t46 -187.5t124.5 -128t174.5 -45.5q105 0 189.5 55.5t123.5 158.5l210 -79q-38 -103 -115 -180.5t-182.5 -120t-225.5 -42.5q-162 0 -291.5 73z" />
    <glyph glyph-name="ccedilla" unicode="&#xe7;" horiz-adv-x="1208" 
d="M410 -424l48 112q23 -16 49 -22t58 -6q52 0 82 25t30 67q0 99 -151 99l51 121q-147 15 -260.5 91t-176.5 199.5t-63 274.5q0 166 74 295.5t203.5 201.5t291.5 72q122 0 226.5 -43t180.5 -120.5t116 -179.5l-210 -79q-43 107 -126.5 160.5t-186.5 53.5q-96 0 -175 -45.5
t-124.5 -128t-45.5 -187.5q0 -108 46.5 -190t125.5 -126.5t173 -44.5q103 0 186.5 53.5t126.5 160.5l210 -79q-57 -149 -183.5 -238.5t-285.5 -102.5l-20 -47q81 -10 126.5 -54.5t45.5 -126.5q0 -64 -34.5 -110t-93 -70t-130.5 -24q-128 0 -184 38z" />
    <glyph glyph-name="ccircumflex" unicode="&#x109;" horiz-adv-x="1208" 
d="M657 1391l-210 -211l-117 58l233 296h188l233 -296l-116 -58zM354.5 41q-129.5 73 -203.5 202.5t-74 293.5t74 293.5t203.5 202.5t291.5 73q120 0 225.5 -42.5t182.5 -120t115 -180.5l-210 -79q-39 103 -123.5 158.5t-189.5 55.5q-96 0 -174.5 -45.5t-124.5 -128
t-46 -187.5t46 -187.5t124.5 -128t174.5 -45.5q105 0 189.5 55.5t123.5 158.5l210 -79q-38 -103 -115 -180.5t-182.5 -120t-225.5 -42.5q-162 0 -291.5 73z" />
    <glyph glyph-name="cdotaccent" unicode="&#x10b;" horiz-adv-x="1208" 
d="M559.5 1289q-38.5 36 -38.5 92t38.5 92t97.5 36q60 0 98 -36t38 -92t-38 -92t-98 -36q-59 0 -97.5 36zM354.5 41q-129.5 73 -203.5 202.5t-74 293.5t74 293.5t203.5 202.5t291.5 73q120 0 225.5 -42.5t182.5 -120t115 -180.5l-210 -79q-39 103 -123.5 158.5t-189.5 55.5
q-96 0 -174.5 -45.5t-124.5 -128t-46 -187.5t46 -187.5t124.5 -128t174.5 -45.5q105 0 189.5 55.5t123.5 158.5l210 -79q-38 -103 -115 -180.5t-182.5 -120t-225.5 -42.5q-162 0 -291.5 73z" />
    <glyph glyph-name="d" unicode="d" horiz-adv-x="1368" 
d="M347.5 41q-125.5 73 -197.5 203t-72 293t72 293t197.5 203t278.5 73q115 0 203.5 -42t148.5 -107v565h225v-1522h-206v129h-7q-58 -71 -151.5 -116t-212.5 -45q-153 0 -278.5 73zM819 221q78 46 122 128t44 188t-44 188t-122 128t-175 46t-175 -46t-122 -128t-44 -188
t44 -188t122 -128t175 -46t175 46z" />
    <glyph glyph-name="eth" unicode="&#xf0;" horiz-adv-x="1296" 
d="M351 40.5q-128 72.5 -200.5 202.5t-72.5 294q0 162 72 289t195.5 197.5t272.5 70.5q116 0 203 -74q-80 149 -199 272l-368 -98l-33 121l316 85q-66 66 -115 109l187 57q66 -61 118 -116l301 81l31 -121l-246 -66q247 -287 355 -605q34 -94 34 -202q0 -164 -72 -294
t-199.5 -202.5t-289.5 -72.5t-290 72.5zM814 227.5q77 45.5 120.5 126t43.5 183.5t-43.5 183.5t-120.5 126t-173 45.5t-173.5 -45.5t-121 -126.5t-43.5 -183t43.5 -183t121 -126.5t173.5 -45.5t173 45.5z" />
    <glyph glyph-name="dcaron" unicode="&#x10f;" horiz-adv-x="1440" 
d="M347.5 41q-125.5 73 -197.5 203t-72 293t72 293t197.5 203t278.5 73q115 0 203.5 -42t148.5 -107v565h225v-1522h-206v129h-7q-58 -71 -151.5 -116t-212.5 -45q-153 0 -278.5 73zM1406 1225h-126l49 297h200zM819 221q78 46 122 128t44 188t-44 188t-122 128t-175 46
t-175 -46t-122 -128t-44 -188t44 -188t122 -128t175 -46t175 46z" />
    <glyph glyph-name="dcroat" unicode="&#x111;" horiz-adv-x="1368" 
d="M345 41.5q-125 73.5 -196 203.5t-71 292q0 165 72.5 294.5t197.5 202t278 72.5q114 0 202.5 -41t149.5 -108v270h-427v124h427v171h225v-171h125v-124h-125v-1227h-206v129h-7q-56 -69 -149.5 -115t-214.5 -46q-156 0 -281 73.5zM818.5 220q77.5 45 122 127t44.5 190
t-44.5 190t-122 127t-174.5 45q-96 0 -173.5 -45t-122.5 -127t-45 -190t45 -190.5t122.5 -127t173.5 -44.5q97 0 174.5 45z" />
    <glyph glyph-name="uni1E0D" unicode="&#x1e0d;" horiz-adv-x="1368" 
d="M347.5 41q-125.5 73 -197.5 203t-72 293t72 293t197.5 203t278.5 73q115 0 203.5 -42t148.5 -107v565h225v-1522h-206v129h-7q-58 -71 -151.5 -116t-212.5 -45q-153 0 -278.5 73zM819 221q78 46 122 128t44 188t-44 188t-122 128t-175 46t-175 -46t-122 -128t-44 -188
t44 -188t122 -128t175 -46t175 46zM544.5 -343q-36.5 34 -36.5 87q0 54 36.5 88.5t94.5 34.5q57 0 93.5 -34.5t36.5 -88.5q0 -53 -36.5 -87t-93.5 -34q-58 0 -94.5 34z" />
    <glyph glyph-name="e" unicode="e" 
d="M359 39q-130 71 -205.5 200.5t-75.5 297.5t74 297.5t201.5 200.5t284.5 71q147 0 265.5 -64.5t188 -189t73.5 -297.5q0 -65 -5 -86h-850q4 -90 50 -161t122 -110.5t166 -39.5q107 0 186.5 49.5t126.5 136.5l181 -95q-43 -86 -119 -149.5t-173.5 -97.5t-203.5 -34
q-157 0 -287 71zM938 627q-6 87 -45.5 154t-106 104t-149.5 37q-84 0 -155 -37t-116.5 -104.5t-54.5 -153.5h627z" />
    <glyph glyph-name="eacute" unicode="&#xe9;" 
d="M924 1492l-311 -294l-116 58l283 347zM359 39q-130 71 -205.5 200.5t-75.5 297.5t74 297.5t201.5 200.5t284.5 71q147 0 265.5 -64.5t188 -189t73.5 -297.5q0 -65 -5 -86h-850q4 -90 50 -161t122 -110.5t166 -39.5q107 0 186.5 49.5t126.5 136.5l181 -95
q-43 -86 -119 -149.5t-173.5 -97.5t-203.5 -34q-157 0 -287 71zM938 627q-6 87 -45.5 154t-106 104t-149.5 37q-84 0 -155 -37t-116.5 -104.5t-54.5 -153.5h627z" />
    <glyph glyph-name="ebreve" unicode="&#x115;" 
d="M489.5 1237.5q-73.5 43.5 -116.5 118.5t-43 165h137q0 -48 25 -88t67 -62.5t91 -22.5q48 0 90 22.5t67 62.5t25 88h139q0 -90 -43 -165t-117 -118.5t-161 -43.5t-160.5 43.5zM359 39q-130 71 -205.5 200.5t-75.5 297.5t74 297.5t201.5 200.5t284.5 71q147 0 265.5 -64.5
t188 -189t73.5 -297.5q0 -65 -5 -86h-850q4 -90 50 -161t122 -110.5t166 -39.5q107 0 186.5 49.5t126.5 136.5l181 -95q-43 -86 -119 -149.5t-173.5 -97.5t-203.5 -34q-157 0 -287 71zM938 627q-6 87 -45.5 154t-106 104t-149.5 37q-84 0 -155 -37t-116.5 -104.5
t-54.5 -153.5h627z" />
    <glyph glyph-name="ecaron" unicode="&#x11b;" 
d="M745 1180h-188l-233 296l117 58l210 -211l211 211l116 -58zM359 39q-130 71 -205.5 200.5t-75.5 297.5t74 297.5t201.5 200.5t284.5 71q147 0 265.5 -64.5t188 -189t73.5 -297.5q0 -65 -5 -86h-850q4 -90 50 -161t122 -110.5t166 -39.5q107 0 186.5 49.5t126.5 136.5
l181 -95q-43 -86 -119 -149.5t-173.5 -97.5t-203.5 -34q-157 0 -287 71zM938 627q-6 87 -45.5 154t-106 104t-149.5 37q-84 0 -155 -37t-116.5 -104.5t-54.5 -153.5h627z" />
    <glyph glyph-name="ecircumflex" unicode="&#xea;" 
d="M640 1391l-210 -211l-117 58l233 296h188l233 -296l-116 -58zM359 39q-130 71 -205.5 200.5t-75.5 297.5t74 297.5t201.5 200.5t284.5 71q147 0 265.5 -64.5t188 -189t73.5 -297.5q0 -65 -5 -86h-850q4 -90 50 -161t122 -110.5t166 -39.5q107 0 186.5 49.5t126.5 136.5
l181 -95q-43 -86 -119 -149.5t-173.5 -97.5t-203.5 -34q-157 0 -287 71zM938 627q-6 87 -45.5 154t-106 104t-149.5 37q-84 0 -155 -37t-116.5 -104.5t-54.5 -153.5h627z" />
    <glyph glyph-name="edieresis" unicode="&#xeb;" 
d="M345 1289q-36 36 -36 92t36 92t92 36q57 0 93 -36t36 -92t-36 -92t-93 -36q-56 0 -92 36zM750.5 1289q-36.5 36 -36.5 92t36.5 92t92.5 36q57 0 92.5 -36t35.5 -92t-35.5 -92t-92.5 -36q-56 0 -92.5 36zM359 39q-130 71 -205.5 200.5t-75.5 297.5t74 297.5t201.5 200.5
t284.5 71q147 0 265.5 -64.5t188 -189t73.5 -297.5q0 -65 -5 -86h-850q4 -90 50 -161t122 -110.5t166 -39.5q107 0 186.5 49.5t126.5 136.5l181 -95q-43 -86 -119 -149.5t-173.5 -97.5t-203.5 -34q-157 0 -287 71zM938 627q-6 87 -45.5 154t-106 104t-149.5 37
q-84 0 -155 -37t-116.5 -104.5t-54.5 -153.5h627z" />
    <glyph glyph-name="edotaccent" unicode="&#x117;" 
d="M553 1289q-38 36 -38 92t38 92t98 36t98.5 -36t38.5 -92t-38.5 -92t-98.5 -36t-98 36zM359 39q-130 71 -205.5 200.5t-75.5 297.5t74 297.5t201.5 200.5t284.5 71q147 0 265.5 -64.5t188 -189t73.5 -297.5q0 -65 -5 -86h-850q4 -90 50 -161t122 -110.5t166 -39.5
q107 0 186.5 49.5t126.5 136.5l181 -95q-43 -86 -119 -149.5t-173.5 -97.5t-203.5 -34q-157 0 -287 71zM938 627q-6 87 -45.5 154t-106 104t-149.5 37q-84 0 -155 -37t-116.5 -104.5t-54.5 -153.5h627z" />
    <glyph glyph-name="egrave" unicode="&#xe8;" 
d="M782 1256l-117 -58l-310 294l144 111zM359 39q-130 71 -205.5 200.5t-75.5 297.5t74 297.5t201.5 200.5t284.5 71q147 0 265.5 -64.5t188 -189t73.5 -297.5q0 -65 -5 -86h-850q4 -90 50 -161t122 -110.5t166 -39.5q107 0 186.5 49.5t126.5 136.5l181 -95
q-43 -86 -119 -149.5t-173.5 -97.5t-203.5 -34q-157 0 -287 71zM938 627q-6 87 -45.5 154t-106 104t-149.5 37q-84 0 -155 -37t-116.5 -104.5t-54.5 -153.5h627z" />
    <glyph glyph-name="emacron" unicode="&#x113;" 
d="M960 1313h-619v137h619v-137zM359 39q-130 71 -205.5 200.5t-75.5 297.5t74 297.5t201.5 200.5t284.5 71q147 0 265.5 -64.5t188 -189t73.5 -297.5q0 -65 -5 -86h-850q4 -90 50 -161t122 -110.5t166 -39.5q107 0 186.5 49.5t126.5 136.5l181 -95q-43 -86 -119 -149.5
t-173.5 -97.5t-203.5 -34q-157 0 -287 71zM938 627q-6 87 -45.5 154t-106 104t-149.5 37q-84 0 -155 -37t-116.5 -104.5t-54.5 -153.5h627z" />
    <glyph glyph-name="eogonek" unicode="&#x119;" 
d="M691.5 -420q-47.5 42 -47.5 106q0 43 16.5 77.5t51.5 76.5l126 159q-93 -31 -192 -31q-159 0 -288.5 71t-204.5 200.5t-75 297.5q0 169 74 298.5t202 200t284 70.5q145 0 264.5 -62t191 -186.5t71.5 -302.5q0 -20 -1.5 -46.5t-3.5 -39.5h-850q6 -95 53 -165.5t122 -108
t163 -37.5q109 0 187.5 49.5t125.5 136.5l181 -95q-26 -50 -63 -95l-240 -353q-23 -31 -23 -67q0 -27 18 -45t51 -18q54 0 86 28l38 -121q-80 -40 -174 -40q-96 0 -143.5 42zM938 627q-8 87 -46 154t-103.5 104t-151.5 37q-82 0 -152 -35t-116 -102t-58 -158h627z" />
    <glyph glyph-name="uni1EBD" unicode="&#x1ebd;" 
d="M699 1241.5q-34 15.5 -76 44.5q-38 24 -61.5 35.5t-51.5 11.5q-35 0 -65.5 -24.5t-46.5 -60.5l-104 92q29 73 84.5 116.5t124.5 43.5q43 0 76 -15t78 -44q36 -25 60.5 -36.5t52.5 -11.5q35 0 66 24t47 61l103 -92q-28 -72 -84 -116t-125 -44q-44 0 -78 15.5zM359 39
q-130 71 -205.5 200.5t-75.5 297.5t74 297.5t201.5 200.5t284.5 71q147 0 265.5 -64.5t188 -189t73.5 -297.5q0 -65 -5 -86h-850q4 -90 50 -161t122 -110.5t166 -39.5q107 0 186.5 49.5t126.5 136.5l181 -95q-43 -86 -119 -149.5t-173.5 -97.5t-203.5 -34q-157 0 -287 71z
M938 627q-6 87 -45.5 154t-106 104t-149.5 37q-84 0 -155 -37t-116.5 -104.5t-54.5 -153.5h627z" />
    <glyph glyph-name="f" unicode="f" horiz-adv-x="795" 
d="M250 0v885h-189v190h189v134q0 152 90 237t254 85q76 0 157 -10v-186h-132q-64 0 -104.5 -38.5t-40.5 -101.5v-120h277v-190h-277v-885h-224z" />
    <glyph glyph-name="g" unicode="g" horiz-adv-x="1368" 
d="M413.5 -427.5q-108.5 34.5 -185.5 95t-113 138.5l211 84q31 -71 121 -110t198 -39q94 0 170.5 35t119.5 92.5t43 122.5v130q-61 -65 -149.5 -106.5t-202.5 -41.5q-153 0 -278.5 72t-197.5 201t-72 291q0 163 72 293t197.5 203t278.5 73q119 0 212.5 -45t151.5 -116h7v129
h206v-1088q0 -126 -68.5 -228t-195 -161t-293.5 -59q-124 0 -232.5 34.5zM819 221q78 46 122 128t44 188t-44 188.5t-122 128.5t-175 46t-175 -46t-122 -128.5t-44 -188.5t44 -188t122 -128t175 -46t175 46z" />
    <glyph glyph-name="gbreve" unicode="&#x11f;" horiz-adv-x="1368" 
d="M477.5 1237.5q-73.5 43.5 -116.5 118.5t-43 165h137q0 -48 25 -88t67 -62.5t91 -22.5q48 0 90 22.5t67 62.5t25 88h139q0 -90 -43 -165t-117 -118.5t-161 -43.5t-160.5 43.5zM413.5 -427.5q-108.5 34.5 -185.5 95t-113 138.5l211 84q31 -71 121 -110t198 -39
q94 0 170.5 35t119.5 92.5t43 122.5v130q-61 -65 -149.5 -106.5t-202.5 -41.5q-153 0 -278.5 72t-197.5 201t-72 291q0 163 72 293t197.5 203t278.5 73q119 0 212.5 -45t151.5 -116h7v129h206v-1088q0 -126 -68.5 -228t-195 -161t-293.5 -59q-124 0 -232.5 34.5zM819 221
q78 46 122 128t44 188t-44 188.5t-122 128.5t-175 46t-175 -46t-122 -128.5t-44 -188.5t44 -188t122 -128t175 -46t175 46z" />
    <glyph glyph-name="uni0123" unicode="&#x123;" horiz-adv-x="1369" 
d="M716 1178h-200l123 298h125zM415 -427.5q-108 34.5 -185.5 95t-113.5 138.5l212 84q31 -72 120.5 -110.5t197.5 -38.5q95 0 171.5 35t119.5 92.5t43 122.5v130q-60 -65 -149 -106.5t-204 -41.5q-153 0 -278 72t-197 201t-72 291q0 163 72 293t197 203t278 73
q119 0 212.5 -45t151.5 -116h7v129h206v-1088q0 -126 -68.5 -228t-194.5 -161t-293 -59q-125 0 -233 34.5zM820 221q78 46 122.5 128t44.5 188t-44.5 188.5t-122.5 128.5t-175 46t-174.5 -46t-122 -128.5t-44.5 -188.5t44.5 -188t122 -128t174.5 -46t175 46z" />
    <glyph glyph-name="gcircumflex" unicode="&#x11d;" horiz-adv-x="1368" 
d="M639 1391l-210 -211l-117 58l233 296h188l233 -296l-116 -58zM413.5 -427.5q-108.5 34.5 -185.5 95t-113 138.5l211 84q31 -71 121 -110t198 -39q94 0 170.5 35t119.5 92.5t43 122.5v130q-61 -65 -149.5 -106.5t-202.5 -41.5q-153 0 -278.5 72t-197.5 201t-72 291
q0 163 72 293t197.5 203t278.5 73q119 0 212.5 -45t151.5 -116h7v129h206v-1088q0 -126 -68.5 -228t-195 -161t-293.5 -59q-124 0 -232.5 34.5zM819 221q78 46 122 128t44 188t-44 188.5t-122 128.5t-175 46t-175 -46t-122 -128.5t-44 -188.5t44 -188t122 -128t175 -46
t175 46z" />
    <glyph glyph-name="gdotaccent" unicode="&#x121;" horiz-adv-x="1368" 
d="M541 1289q-38 36 -38 92t38 92t98 36t98.5 -36t38.5 -92t-38.5 -92t-98.5 -36t-98 36zM413.5 -427.5q-108.5 34.5 -185.5 95t-113 138.5l211 84q31 -71 121 -110t198 -39q94 0 170.5 35t119.5 92.5t43 122.5v130q-61 -65 -149.5 -106.5t-202.5 -41.5q-153 0 -278.5 72
t-197.5 201t-72 291q0 163 72 293t197.5 203t278.5 73q119 0 212.5 -45t151.5 -116h7v129h206v-1088q0 -126 -68.5 -228t-195 -161t-293.5 -59q-124 0 -232.5 34.5zM819 221q78 46 122 128t44 188t-44 188.5t-122 128.5t-175 46t-175 -46t-122 -128.5t-44 -188.5t44 -188
t122 -128t175 -46t175 46z" />
    <glyph glyph-name="h" unicode="h" horiz-adv-x="1247" 
d="M165 0v1522h224v-567q48 68 127 109.5t175 41.5q119 0 211 -56t143 -155t51 -224v-671h-224v676q0 64 -26.5 118t-77 86.5t-118.5 32.5q-76 0 -135.5 -38.5t-92.5 -105.5t-33 -150v-619h-224z" />
    <glyph glyph-name="hbar" unicode="&#x127;" horiz-adv-x="1247" 
d="M165 0v1231h-126v125h126v166h224v-166h428v-125h-428v-276q47 68 124.5 109.5t177.5 41.5q121 0 213 -56t142 -155t50 -224v-671h-224v676q0 64 -26.5 118t-76.5 86.5t-119 32.5q-78 0 -137 -38.5t-90.5 -105.5t-33.5 -150v-619h-224z" />
    <glyph glyph-name="hcircumflex" unicode="&#x125;" horiz-adv-x="1247" 
d="M278 1810l-209 -210l-118 58l233 296h188l234 -296l-117 -58zM165 0v1522h224v-567q48 68 127 109.5t175 41.5q119 0 211 -56t143 -155t51 -224v-671h-224v676q0 64 -26.5 118t-77 86.5t-118.5 32.5q-76 0 -135.5 -38.5t-92.5 -105.5t-33 -150v-619h-224z" />
    <glyph glyph-name="uni1E25" unicode="&#x1e25;" horiz-adv-x="1247" 
d="M165 0v1522h224v-567q48 68 127 109.5t175 41.5q119 0 211 -56t143 -155t51 -224v-671h-224v676q0 64 -26.5 118t-77 86.5t-118.5 32.5q-76 0 -135.5 -38.5t-92.5 -105.5t-33 -150v-619h-224zM536.5 -343q-36.5 34 -36.5 87q0 54 36.5 88.5t94.5 34.5q57 0 93.5 -34.5
t36.5 -88.5q0 -53 -36.5 -87t-93.5 -34q-58 0 -94.5 34z" />
    <glyph glyph-name="i" unicode="i" horiz-adv-x="555" 
d="M171 1277q-41 38 -41 100q0 64 41 102t106 38q66 0 107 -38t41 -102q0 -62 -41 -100t-107 -38q-65 0 -106 38zM389 0h-224v1075h224v-1075z" />
    <glyph glyph-name="dotlessi" unicode="&#x131;" horiz-adv-x="555" 
d="M389 0h-224v1075h224v-1075z" />
    <glyph glyph-name="iacute" unicode="&#xed;" horiz-adv-x="555" 
d="M562 1492l-311 -294l-116 58l283 347zM389 0h-224v1075h224v-1075z" />
    <glyph glyph-name="ibreve" unicode="&#x12d;" horiz-adv-x="555" 
d="M117 1237.5q-73 43.5 -116 118.5t-43 165h136q0 -48 25 -88t67 -62.5t91 -22.5q48 0 90 22.5t67.5 62.5t25.5 88h138q0 -90 -43 -165t-116.5 -118.5t-161.5 -43.5q-87 0 -160 43.5zM390 0h-224v1075h224v-1075z" />
    <glyph glyph-name="icircumflex" unicode="&#xee;" horiz-adv-x="555" 
d="M278 1391l-209 -211l-118 58l233 296h188l234 -296l-117 -58zM390 0h-224v1075h224v-1075z" />
    <glyph glyph-name="idieresis" unicode="&#xef;" horiz-adv-x="555" 
d="M19 1289q-36 36 -36 92t36 92t92 36q57 0 93 -36t36 -92t-36 -92t-93 -36q-56 0 -92 36zM352 1289q-36 36 -36 92t36 92t92 36q57 0 93 -36t36 -92t-36 -92t-93 -36q-56 0 -92 36zM390 0h-224v1075h224v-1075z" />
    <glyph glyph-name="igrave" unicode="&#xec;" horiz-adv-x="555" 
d="M427 1256l-116 -58l-311 294l144 111zM390 0h-224v1075h224v-1075z" />
    <glyph glyph-name="imacron" unicode="&#x12b;" horiz-adv-x="555" 
d="M547 1313h-526v137h526v-137zM389 0h-224v1075h224v-1075z" />
    <glyph glyph-name="iogonek" unicode="&#x12f;" horiz-adv-x="555" 
d="M171 1276.5q-41 37.5 -41 100.5q0 65 41 102.5t106 37.5t106.5 -37.5t41.5 -102.5q0 -63 -41.5 -100.5t-106.5 -37.5t-106 37.5zM90.5 -420.5q-48.5 41.5 -48.5 106.5q0 46 17 82t51 72l137 160h-82v1075h225v-1075h-16l-136 -199q-25 -33 -25 -67q0 -28 19 -45.5
t52 -17.5q26 0 45.5 6.5t39.5 21.5l38 -121q-35 -20 -81.5 -30t-93.5 -10q-93 0 -141.5 41.5z" />
    <glyph glyph-name="itilde" unicode="&#x129;" horiz-adv-x="555" 
d="M344 1241.5q-34 15.5 -76 44.5q-38 24 -61.5 35.5t-51.5 11.5q-35 0 -66 -24t-47 -61l-103 92q29 73 84.5 116.5t124.5 43.5q43 0 76 -15t78 -44q36 -25 60.5 -36.5t52.5 -11.5q35 0 66.5 24.5t46.5 60.5l103 -92q-29 -73 -84.5 -116.5t-124.5 -43.5q-44 0 -78 15.5z
M390 0h-224v1075h224v-1075z" />
    <glyph glyph-name="j" unicode="j" horiz-adv-x="555" 
d="M170.5 1277q-41.5 38 -41.5 100q0 64 41.5 102t106.5 38t106.5 -38t41.5 -102q0 -62 -41.5 -100t-106.5 -38t-106.5 38zM-1 -268q49 0 86.5 20t58.5 54.5t21 76.5v1192h225v-1226q-1 -163 -100.5 -237t-290.5 -74v194z" />
    <glyph glyph-name="uni0237" unicode="&#x237;" horiz-adv-x="555" 
d="M-1 -268q49 0 86.5 20t58.5 54.5t21 76.5v1192h225v-1226q-1 -163 -100.5 -237t-290.5 -74v194z" />
    <glyph glyph-name="jcircumflex" unicode="&#x135;" horiz-adv-x="555" 
d="M277 1391l-210 -211l-117 58l233 296h188l233 -296l-116 -58zM-1 -268q49 0 86.5 20t58.5 54.5t21 76.5v1192h225v-1226q-1 -163 -100.5 -237t-290.5 -74v194z" />
    <glyph glyph-name="k" unicode="k" horiz-adv-x="1054" 
d="M389 0h-224v1522h224v-858l367 411h261l-441 -502l493 -573h-273l-407 460v-460z" />
    <glyph glyph-name="uni0137" unicode="&#x137;" horiz-adv-x="1054" 
d="M389 0h-224v1522h224v-858l367 411h261l-441 -502l493 -573h-273l-407 460v-460zM599 -462h-125l47 297h201z" />
    <glyph glyph-name="uni1E33" unicode="&#x1e33;" horiz-adv-x="1054" 
d="M389 0h-224v1522h224v-858l367 411h261l-441 -502l493 -573h-273l-407 460v-460zM503.5 -343q-36.5 34 -36.5 87q0 54 36.5 88.5t94.5 34.5q57 0 93.5 -34.5t36.5 -88.5q0 -53 -36.5 -87t-93.5 -34q-58 0 -94.5 34z" />
    <glyph glyph-name="kra" unicode="&#x138;" horiz-adv-x="1054" 
d="M389 0h-224v1075h224v-411l367 411h261l-441 -502l493 -573h-273l-407 460v-460z" />
    <glyph glyph-name="l" unicode="l" horiz-adv-x="554" 
d="M389 0h-224v1522h224v-1522z" />
    <glyph glyph-name="lacute" unicode="&#x13a;" horiz-adv-x="554" 
d="M548 1862l-312 -270l-116 49l283 312zM389 0h-224v1522h224v-1522z" />
    <glyph glyph-name="lcaron" unicode="&#x13e;" horiz-adv-x="626" 
d="M592 1225h-126l48 298h201zM389 0h-224v1522h224v-1522z" />
    <glyph glyph-name="uni013C" unicode="&#x13c;" horiz-adv-x="554" 
d="M389 0h-224v1522h224v-1522zM269 -462h-125l48 297h200z" />
    <glyph glyph-name="uni1E37" unicode="&#x1e37;" horiz-adv-x="554" 
d="M389 0h-224v1522h224v-1522zM182.5 -343q-36.5 34 -36.5 87q0 54 36.5 88.5t94.5 34.5q57 0 93.5 -34.5t36.5 -88.5q0 -53 -36.5 -87t-93.5 -34q-58 0 -94.5 34z" />
    <glyph glyph-name="uni1E39" unicode="&#x1e39;" horiz-adv-x="554" 
d="M540 1765h-526v137h526v-137zM390 0h-224v1522h224v-1522zM183.5 -343q-36.5 34 -36.5 87q0 54 36.5 88.5t93.5 34.5q58 0 94.5 -34.5t36.5 -88.5q0 -53 -36.5 -87t-94.5 -34q-57 0 -93.5 34z" />
    <glyph glyph-name="uni1E3B" unicode="&#x1e3b;" horiz-adv-x="554" 
d="M389 0h-224v1522h224v-1522zM530 -345h-506v137h506v-137z" />
    <glyph glyph-name="lmiddledot" unicode="&#x140;" horiz-adv-x="726" 
d="M389 0h-224v1522h224v-1522zM544.5 686q-33.5 33 -33.5 84t33.5 83.5t85.5 32.5t85.5 -32.5t33.5 -83.5t-33.5 -84t-85.5 -33t-85.5 33z" />
    <glyph glyph-name="lslash" unicode="&#x142;" horiz-adv-x="718" 
d="M472 0h-225v624l-217 -126l-63 108l280 162v754h225v-625l217 127l62 -109l-279 -161v-754z" />
    <glyph glyph-name="m" unicode="m" horiz-adv-x="1934" 
d="M165 0v1075h206v-120h6q47 67 131 109t182 42q104 0 184.5 -43.5t133.5 -123.5q59 79 152 123t207 44q119 0 214 -56t149 -155.5t54 -223.5v-671h-225v677q0 60 -24 111.5t-72 83t-115 31.5q-76 0 -135.5 -37.5t-92.5 -102.5t-33 -144v-619h-225v677q0 60 -24.5 111.5
t-72 83t-115.5 31.5q-76 0 -135.5 -37.5t-92.5 -102.5t-33 -144v-619h-224z" />
    <glyph glyph-name="uni1E41" unicode="&#x1e41;" horiz-adv-x="1934" 
d="M876 1289q-38 36 -38 92t38 92t98 36t98.5 -36t38.5 -92t-38.5 -92t-98.5 -36t-98 36zM165 0v1075h206v-120h6q47 67 131 109t182 42q104 0 184.5 -43.5t133.5 -123.5q59 79 152 123t207 44q119 0 214 -56t149 -155.5t54 -223.5v-671h-225v677q0 60 -24 111.5t-72 83
t-115 31.5q-76 0 -135.5 -37.5t-92.5 -102.5t-33 -144v-619h-225v677q0 60 -24.5 111.5t-72 83t-115.5 31.5q-76 0 -135.5 -37.5t-92.5 -102.5t-33 -144v-619h-224z" />
    <glyph glyph-name="uni1E43" unicode="&#x1e43;" horiz-adv-x="1934" 
d="M165 0v1075h206v-120h6q47 67 131 109t182 42q104 0 184.5 -43.5t133.5 -123.5q59 79 152 123t207 44q119 0 214 -56t149 -155.5t54 -223.5v-671h-225v677q0 60 -24 111.5t-72 83t-115 31.5q-76 0 -135.5 -37.5t-92.5 -102.5t-33 -144v-619h-225v677q0 60 -24.5 111.5
t-72 83t-115.5 31.5q-76 0 -135.5 -37.5t-92.5 -102.5t-33 -144v-619h-224zM880.5 -343q-36.5 34 -36.5 87q0 54 36.5 88.5t93.5 34.5t93.5 -34.5t36.5 -88.5q0 -53 -36.5 -87t-93.5 -34t-93.5 34z" />
    <glyph glyph-name="n" unicode="n" horiz-adv-x="1246" 
d="M165 0v1075h207v-120h6q48 68 127 109.5t176 41.5q119 0 214 -56t148 -155t53 -224v-671h-224v677q0 59 -26.5 111t-77 83.5t-117.5 31.5q-77 0 -136.5 -37.5t-92 -102.5t-32.5 -144v-619h-225z" />
    <glyph glyph-name="nacute" unicode="&#x144;" horiz-adv-x="1246" 
d="M915 1492l-311 -294l-116 58l283 347zM165 0v1075h207v-120h6q48 68 127 109.5t176 41.5q119 0 214 -56t148 -155t53 -224v-671h-224v677q0 59 -26.5 111t-77 83.5t-117.5 31.5q-77 0 -136.5 -37.5t-92 -102.5t-32.5 -144v-619h-225z" />
    <glyph glyph-name="napostrophe" unicode="&#x149;" horiz-adv-x="1246" 
d="M139 1164h-126l49 297h200zM165 0v1075h206v-120h7q47 68 126 109.5t176 41.5q120 0 214.5 -56t148 -155t53.5 -224v-671h-224v677q0 59 -26.5 111t-77 83.5t-118.5 31.5q-76 0 -135.5 -37.5t-92.5 -102.5t-33 -144v-619h-224z" />
    <glyph glyph-name="ncaron" unicode="&#x148;" horiz-adv-x="1246" 
d="M725 1180h-188l-233 296l116 58l211 -211l211 211l115 -58zM165 0v1075h207v-120h6q48 68 127 109.5t176 41.5q119 0 214 -56t148 -155t53 -224v-671h-224v677q0 59 -26.5 111t-77 83.5t-117.5 31.5q-77 0 -136.5 -37.5t-92 -102.5t-32.5 -144v-619h-225z" />
    <glyph glyph-name="uni0146" unicode="&#x146;" horiz-adv-x="1246" 
d="M165 0v1075h207v-120h6q48 68 127 109.5t176 41.5q119 0 214 -56t148 -155t53 -224v-671h-224v677q0 59 -26.5 111t-77 83.5t-117.5 31.5q-77 0 -136.5 -37.5t-92 -102.5t-32.5 -144v-619h-225zM632 -462h-125l47 297h201z" />
    <glyph glyph-name="uni1E45" unicode="&#x1e45;" horiz-adv-x="1246" 
d="M533 1289q-38 36 -38 92t38 92t98 36t98 -36t38 -92t-38 -92t-98 -36t-98 36zM165 0v1075h207v-120h6q48 68 127 109.5t176 41.5q119 0 214 -56t148 -155t53 -224v-671h-224v677q0 59 -26.5 111t-77 83.5t-117.5 31.5q-77 0 -136.5 -37.5t-92 -102.5t-32.5 -144v-619
h-225z" />
    <glyph glyph-name="uni1E47" unicode="&#x1e47;" horiz-adv-x="1246" 
d="M165 0v1075h207v-120h6q48 68 127 109.5t176 41.5q119 0 214 -56t148 -155t53 -224v-671h-224v677q0 59 -26.5 111t-77 83.5t-117.5 31.5q-77 0 -136.5 -37.5t-92 -102.5t-32.5 -144v-619h-225zM536.5 -343q-36.5 34 -36.5 87q0 54 36.5 88.5t94.5 34.5q57 0 93.5 -34.5
t36.5 -88.5q0 -53 -36.5 -87t-93.5 -34q-58 0 -94.5 34z" />
    <glyph glyph-name="eng" unicode="&#x14b;" horiz-adv-x="1246" 
d="M705 -268q52 0 90 21t57.5 55.5t19.5 74.5v794q0 59 -26 111t-76 83.5t-119 31.5q-77 0 -136.5 -37.5t-92 -102.5t-32.5 -144v-619h-225v1075h207v-120h6q48 68 125.5 109.5t177.5 41.5q121 0 215.5 -56t147 -155.5t52.5 -223.5v-822q-1 -164 -100 -237.5t-291 -73.5v194
z" />
    <glyph glyph-name="uni1E49" unicode="&#x1e49;" horiz-adv-x="1246" 
d="M165 0v1075h207v-120h6q48 68 127 109.5t176 41.5q119 0 214 -56t148 -155t53 -224v-671h-224v677q0 59 -26.5 111t-77 83.5t-117.5 31.5q-77 0 -136.5 -37.5t-92 -102.5t-32.5 -144v-619h-225zM987 -345h-713v137h713v-137z" />
    <glyph glyph-name="ntilde" unicode="&#xf1;" horiz-adv-x="1246" 
d="M690.5 1241q-33.5 15 -76.5 44q-36 25 -60.5 36.5t-52.5 11.5q-35 0 -66 -24t-47 -61l-103 92q29 73 84.5 116.5t124.5 43.5q43 0 76 -15t78 -44q36 -25 60.5 -36.5t52.5 -11.5q35 0 66 24t47 61l102 -92q-28 -73 -84 -116.5t-125 -43.5q-43 0 -76.5 15zM165 0v1075h207
v-120h6q48 68 127 109.5t176 41.5q119 0 214 -56t148 -155t53 -224v-671h-224v677q0 59 -26.5 111t-77 83.5t-117.5 31.5q-77 0 -136.5 -37.5t-92 -102.5t-32.5 -144v-619h-225z" />
    <glyph glyph-name="o" unicode="o" horiz-adv-x="1303" 
d="M358 40.5q-131 72.5 -205.5 202t-74.5 294.5t74.5 294.5t205.5 202t294 72.5q162 0 293 -72.5t205.5 -202t74.5 -294.5t-74.5 -294.5t-205.5 -202t-293 -72.5q-163 0 -294 72.5zM828.5 222.5q79.5 46.5 126 129t46.5 185.5t-46.5 185.5t-126 129t-176.5 46.5t-177 -46.5
t-126.5 -129t-46.5 -185.5t46.5 -185.5t126.5 -129t177 -46.5t176.5 46.5z" />
    <glyph glyph-name="oacute" unicode="&#xf3;" horiz-adv-x="1303" 
d="M936 1492l-311 -294l-115 58l283 347zM358 40.5q-131 72.5 -205.5 202t-74.5 294.5t74.5 294.5t205.5 202t294 72.5q162 0 293 -72.5t205.5 -202t74.5 -294.5t-74.5 -294.5t-205.5 -202t-293 -72.5q-163 0 -294 72.5zM828.5 222.5q79.5 46.5 126 129t46.5 185.5
t-46.5 185.5t-126 129t-176.5 46.5t-177 -46.5t-126.5 -129t-46.5 -185.5t46.5 -185.5t126.5 -129t177 -46.5t176.5 46.5z" />
    <glyph glyph-name="obreve" unicode="&#x14f;" horiz-adv-x="1303" 
d="M490.5 1237.5q-73.5 43.5 -116.5 118.5t-43 165h137q0 -48 25 -88t67 -62.5t91 -22.5q48 0 90 22.5t67 62.5t25 88h139q0 -90 -43 -165t-117 -118.5t-161 -43.5t-160.5 43.5zM358 40.5q-131 72.5 -205.5 202t-74.5 294.5t74.5 294.5t205.5 202t294 72.5q162 0 293 -72.5
t205.5 -202t74.5 -294.5t-74.5 -294.5t-205.5 -202t-293 -72.5q-163 0 -294 72.5zM828.5 222.5q79.5 46.5 126 129t46.5 185.5t-46.5 185.5t-126 129t-176.5 46.5t-177 -46.5t-126.5 -129t-46.5 -185.5t46.5 -185.5t126.5 -129t177 -46.5t176.5 46.5z" />
    <glyph glyph-name="ocircumflex" unicode="&#xf4;" horiz-adv-x="1303" 
d="M652 1391l-210 -211l-117 58l233 296h188l233 -296l-116 -58zM358 40.5q-131 72.5 -205.5 202t-74.5 294.5t74.5 294.5t205.5 202t294 72.5q162 0 293 -72.5t205.5 -202t74.5 -294.5t-74.5 -294.5t-205.5 -202t-293 -72.5q-163 0 -294 72.5zM828.5 222.5
q79.5 46.5 126 129t46.5 185.5t-46.5 185.5t-126 129t-176.5 46.5t-177 -46.5t-126.5 -129t-46.5 -185.5t46.5 -185.5t126.5 -129t177 -46.5t176.5 46.5z" />
    <glyph glyph-name="odieresis" unicode="&#xf6;" horiz-adv-x="1303" 
d="M357.5 1289q-36.5 36 -36.5 92t36.5 92t92.5 36t92 -36t36 -92t-36 -92t-92 -36t-92.5 36zM762 1289q-36 36 -36 92t36 92t92 36q57 0 93.5 -36t36.5 -92t-36.5 -92t-93.5 -36q-56 0 -92 36zM358 40.5q-131 72.5 -205.5 202t-74.5 294.5t74.5 294.5t205.5 202t294 72.5
q162 0 293 -72.5t205.5 -202t74.5 -294.5t-74.5 -294.5t-205.5 -202t-293 -72.5q-163 0 -294 72.5zM828.5 222.5q79.5 46.5 126 129t46.5 185.5t-46.5 185.5t-126 129t-176.5 46.5t-177 -46.5t-126.5 -129t-46.5 -185.5t46.5 -185.5t126.5 -129t177 -46.5t176.5 46.5z" />
    <glyph glyph-name="odoubleacute" unicode="&#x151;" horiz-adv-x="1303" 
d="M764 1478l-310 -294l-99 76l265 328zM1127 1474l-311 -294l-99 76l267 328zM358 40.5q-131 72.5 -205.5 202t-74.5 294.5t74.5 294.5t205.5 202t294 72.5q162 0 293 -72.5t205.5 -202t74.5 -294.5t-74.5 -294.5t-205.5 -202t-293 -72.5q-163 0 -294 72.5zM828.5 222.5
q79.5 46.5 126 129t46.5 185.5t-46.5 185.5t-126 129t-176.5 46.5t-177 -46.5t-126.5 -129t-46.5 -185.5t46.5 -185.5t126.5 -129t177 -46.5t176.5 46.5z" />
    <glyph glyph-name="ograve" unicode="&#xf2;" horiz-adv-x="1303" 
d="M794 1256l-116 -58l-311 294l144 111zM358 40.5q-131 72.5 -205.5 202t-74.5 294.5t74.5 294.5t205.5 202t294 72.5q162 0 293 -72.5t205.5 -202t74.5 -294.5t-74.5 -294.5t-205.5 -202t-293 -72.5q-163 0 -294 72.5zM828.5 222.5q79.5 46.5 126 129t46.5 185.5
t-46.5 185.5t-126 129t-176.5 46.5t-177 -46.5t-126.5 -129t-46.5 -185.5t46.5 -185.5t126.5 -129t177 -46.5t176.5 46.5z" />
    <glyph glyph-name="omacron" unicode="&#x14d;" horiz-adv-x="1303" 
d="M961 1313h-619v137h619v-137zM358 40.5q-131 72.5 -205.5 202t-74.5 294.5t74.5 294.5t205.5 202t294 72.5q162 0 293 -72.5t205.5 -202t74.5 -294.5t-74.5 -294.5t-205.5 -202t-293 -72.5q-163 0 -294 72.5zM828.5 222.5q79.5 46.5 126 129t46.5 185.5t-46.5 185.5
t-126 129t-176.5 46.5t-177 -46.5t-126.5 -129t-46.5 -185.5t46.5 -185.5t126.5 -129t177 -46.5t176.5 46.5z" />
    <glyph glyph-name="oslash" unicode="&#xf8;" horiz-adv-x="1303" 
d="M349 46l-58 -74l-103 89l53 67q-77 77 -120 179.5t-43 229.5q0 166 75 295.5t206 201.5t293 72q165 0 300 -78l58 74l103 -89l-53 -66q79 -76 122 -179t43 -231q0 -166 -75 -295.5t-206 -201.5t-292 -72q-168 0 -303 78zM815 857q-72 41 -163 41q-99 0 -179 -46.5
t-125 -129t-45 -185.5q0 -136 80 -232zM830 222.5q80 46.5 125.5 129t45.5 185.5q0 136 -82 234l-433 -554q73 -41 166 -41q98 0 178 46.5z" />
    <glyph glyph-name="otilde" unicode="&#xf5;" horiz-adv-x="1303" 
d="M711 1241.5q-34 15.5 -76 44.5q-38 24 -61.5 35.5t-51.5 11.5q-35 0 -66 -24t-47 -61l-103 92q29 73 84.5 116.5t124.5 43.5q43 0 76 -15t78 -44q36 -25 60.5 -36.5t52.5 -11.5q35 0 66.5 24.5t46.5 60.5l103 -92q-29 -73 -84.5 -116.5t-124.5 -43.5q-44 0 -78 15.5z
M358 40.5q-131 72.5 -205.5 202t-74.5 294.5t74.5 294.5t205.5 202t294 72.5q162 0 293 -72.5t205.5 -202t74.5 -294.5t-74.5 -294.5t-205.5 -202t-293 -72.5q-163 0 -294 72.5zM828.5 222.5q79.5 46.5 126 129t46.5 185.5t-46.5 185.5t-126 129t-176.5 46.5t-177 -46.5
t-126.5 -129t-46.5 -185.5t46.5 -185.5t126.5 -129t177 -46.5t176.5 46.5z" />
    <glyph glyph-name="oe" unicode="&#x153;" horiz-adv-x="2142" 
d="M350 40.5q-128 72.5 -200 202.5t-72 294t72 294t200 202.5t290 72.5q143 0 260 -63.5t190 -178.5q74 117 187.5 179.5t254.5 62.5q147 0 267.5 -64.5t192.5 -189t77 -297.5q0 -19 -1.5 -47t-3.5 -40l-852 1q4 -91 48 -161t117.5 -109t164.5 -39q102 0 181 49.5t124 134.5
l188 -96q-43 -86 -119 -149.5t-174 -97t-204 -33.5q-141 0 -258 63t-190 179q-73 -115 -190 -178.5t-260 -63.5q-162 0 -290 72.5zM1842 627q-7 86 -49 152.5t-110 103t-152 36.5t-153 -36.5t-112.5 -103t-53.5 -152.5h630zM815 224.5q77 45.5 120.5 127t43.5 185.5
q0 100 -42 181.5t-119 128.5t-177 47q-97 0 -174.5 -45.5t-121 -127t-43.5 -184.5t43.5 -185t121 -127.5t174.5 -45.5t174 45.5z" />
    <glyph glyph-name="p" unicode="p" horiz-adv-x="1368" 
d="M165 -430v1505h206v-130h7q58 71 152.5 116t211.5 45q153 0 278 -73t197 -203t72 -293t-72 -293t-197 -203t-278 -73q-115 0 -204 42t-149 107v-547h-224zM899 221q78 46 122 128t44 188t-44 188.5t-122 128.5t-175 46t-175 -46t-122.5 -128.5t-44.5 -188.5t44.5 -188
t122.5 -128t175 -46t175 46z" />
    <glyph glyph-name="thorn" unicode="&#xfe;" horiz-adv-x="1368" 
d="M165 -430v1952h207v-577h6q56 71 151.5 116t212.5 45q156 0 280.5 -73.5t195.5 -203t71 -292.5q0 -165 -72 -295t-197 -202t-278 -72q-114 0 -203.5 41.5t-149.5 107.5v-547h-224zM897.5 220q77.5 45 122.5 127t45 190q0 107 -44.5 189.5t-122.5 128t-174 45.5
q-97 0 -175 -45.5t-122.5 -128t-44.5 -189.5t44.5 -189.5t122.5 -127.5t175 -45q96 0 173.5 45z" />
    <glyph glyph-name="q" unicode="q" horiz-adv-x="1368" 
d="M978 117q-60 -65 -148.5 -107t-203.5 -42q-153 0 -278.5 73t-197.5 203t-72 293t72 293t197.5 203t278.5 73q117 0 211.5 -45t152.5 -116h7v130h206v-1505h-225v547zM819 221q78 46 122 128t44 188t-44 188.5t-122 128.5t-175 46t-175 -46t-122 -128.5t-44 -188.5
t44 -188t122 -128t175 -46t175 46z" />
    <glyph glyph-name="r" unicode="r" horiz-adv-x="798" 
d="M165 0v1077h206l1 -130h6q46 66 125 105t177 39q48 0 92 -9v-201h-115q-79 0 -140 -37.5t-94.5 -104t-33.5 -149.5v-590h-224z" />
    <glyph glyph-name="racute" unicode="&#x155;" horiz-adv-x="798" 
d="M755 1492l-311 -294l-116 58l284 347zM165 0v1077h206l1 -130h6q46 66 125 105t177 39q48 0 92 -9v-201h-115q-79 0 -140 -37.5t-94.5 -104t-33.5 -149.5v-590h-224z" />
    <glyph glyph-name="rcaron" unicode="&#x159;" horiz-adv-x="798" 
d="M565 1180h-188l-233 296l118 58l209 -211l211 211l117 -58zM165 0v1077h206l1 -130h6q46 66 125.5 105t177.5 39q48 0 92 -9v-201h-116q-79 0 -139.5 -37.5t-94 -104t-33.5 -149.5v-590h-225z" />
    <glyph glyph-name="uni0157" unicode="&#x157;" horiz-adv-x="798" 
d="M165 0v1077h206l1 -130h6q46 66 125 105t177 39q48 0 92 -9v-201h-115q-79 0 -140 -37.5t-94.5 -104t-33.5 -149.5v-590h-224zM281 -462h-125l48 297h200z" />
    <glyph glyph-name="uni1E59" unicode="&#x1e59;" horiz-adv-x="798" 
d="M372.5 1289q-38.5 36 -38.5 92t38.5 92t97.5 36q61 0 99 -36t38 -92t-38 -92t-99 -36q-59 0 -97.5 36zM165 0v1077h206l1 -130h6q46 66 125 105t177 39q48 0 92 -9v-201h-115q-79 0 -140 -37.5t-94.5 -104t-33.5 -149.5v-590h-224z" />
    <glyph glyph-name="uni1E5B" unicode="&#x1e5b;" horiz-adv-x="798" 
d="M165 0v1077h206l1 -130h6q46 66 125.5 105t177.5 39q48 0 92 -9v-201h-116q-79 0 -139.5 -37.5t-94 -104t-33.5 -149.5v-590h-225zM183 -343q-37 34 -37 87q0 54 37 88.5t94 34.5t93.5 -34.5t36.5 -88.5q0 -53 -36.5 -87t-93.5 -34t-94 34z" />
    <glyph glyph-name="uni1E5D" unicode="&#x1e5d;" horiz-adv-x="798" 
d="M750 1313h-557v137h557v-137zM165 0v1077h206l1 -130h6q46 66 125.5 105t177.5 39q48 0 92 -9v-201h-116q-79 0 -139.5 -37.5t-94 -104t-33.5 -149.5v-590h-225zM183 -343q-37 34 -37 87q0 54 37 88.5t94 34.5t93.5 -34.5t36.5 -88.5q0 -53 -36.5 -87t-93.5 -34t-94 34z
" />
    <glyph glyph-name="uni1E5F" unicode="&#x1e5f;" horiz-adv-x="798" 
d="M165 0v1077h206l1 -130h6q46 66 125.5 105t177.5 39q48 0 92 -9v-201h-116q-79 0 -139.5 -37.5t-94 -104t-33.5 -149.5v-590h-225zM577 -345h-506v137h506v-137z" />
    <glyph glyph-name="s" unicode="s" horiz-adv-x="910" 
d="M186 55.5q-100 82.5 -118 229.5l201 19q11 -67 63 -109.5t125 -42.5q83 0 126.5 35.5t43.5 92.5q-1 54 -27 86.5t-94 61.5l-186 82q-117 48 -170.5 116.5t-53.5 170.5q0 88 43.5 157t126.5 108.5t197 39.5q108 0 188.5 -36t126.5 -99.5t56 -146.5l-201 -19
q-7 56 -54 91.5t-112 35.5q-71 0 -110.5 -31t-39.5 -80q0 -41 22 -67t83 -53l184 -82q123 -51 182.5 -126.5t59.5 -191.5q0 -96 -45 -169t-132.5 -114t-211.5 -41q-173 0 -273 82.5z" />
    <glyph glyph-name="sacute" unicode="&#x15b;" horiz-adv-x="910" 
d="M741 1492l-311 -294l-117 58l283 347zM186 55.5q-100 82.5 -118 229.5l201 19q11 -67 63 -109.5t125 -42.5q83 0 126.5 35.5t43.5 92.5q-1 54 -27 86.5t-94 61.5l-186 82q-117 48 -170.5 116.5t-53.5 170.5q0 88 43.5 157t126.5 108.5t197 39.5q108 0 188.5 -36
t126.5 -99.5t56 -146.5l-201 -19q-7 56 -54 91.5t-112 35.5q-71 0 -110.5 -31t-39.5 -80q0 -41 22 -67t83 -53l184 -82q123 -51 182.5 -126.5t59.5 -191.5q0 -96 -45 -169t-132.5 -114t-211.5 -41q-173 0 -273 82.5z" />
    <glyph glyph-name="scaron" unicode="&#x161;" horiz-adv-x="910" 
d="M561 1180h-188l-233 296l117 58l210 -211l211 211l116 -58zM186 55.5q-100 82.5 -118 229.5l201 19q11 -67 63 -109.5t125 -42.5q83 0 126.5 35.5t43.5 92.5q-1 54 -27 86.5t-94 61.5l-186 82q-117 48 -170.5 116.5t-53.5 170.5q0 88 43.5 157t126.5 108.5t197 39.5
q108 0 188.5 -36t126.5 -99.5t56 -146.5l-201 -19q-7 56 -54 91.5t-112 35.5q-71 0 -110.5 -31t-39.5 -80q0 -41 22 -67t83 -53l184 -82q123 -51 182.5 -126.5t59.5 -191.5q0 -96 -45 -169t-132.5 -114t-211.5 -41q-173 0 -273 82.5z" />
    <glyph glyph-name="scedilla" unicode="&#x15f;" horiz-adv-x="910" 
d="M236 -424l48 112q44 -28 105 -28q53 0 83 25t31 67q0 99 -150 99l54 130q-147 12 -234 90t-105 214l201 19q12 -67 62 -109.5t126 -42.5q85 0 127.5 36t42.5 93q0 52 -27.5 85t-93.5 62l-186 82q-117 51 -170.5 119t-53.5 168q0 87 43 156t126 109t198 40
q111 0 191 -36.5t125 -100t55 -145.5l-201 -19q-8 56 -54.5 91.5t-111.5 35.5q-73 0 -111.5 -31.5t-38.5 -79.5q0 -42 23 -68t82 -52l184 -82q126 -55 184 -130t58 -188q0 -131 -81 -215t-235 -99l-25 -60q81 -10 126 -54.5t45 -126.5q0 -66 -35.5 -112t-94 -69t-127.5 -23
q-127 0 -185 38z" />
    <glyph glyph-name="scircumflex" unicode="&#x15d;" horiz-adv-x="910" 
d="M467 1391l-210 -211l-117 58l233 296h188l233 -296l-116 -58zM186 55.5q-100 82.5 -118 229.5l201 19q11 -67 63 -109.5t125 -42.5q83 0 126.5 35.5t43.5 92.5q-1 54 -27 86.5t-94 61.5l-186 82q-117 48 -170.5 116.5t-53.5 170.5q0 88 43.5 157t126.5 108.5t197 39.5
q108 0 188.5 -36t126.5 -99.5t56 -146.5l-201 -19q-7 56 -54 91.5t-112 35.5q-71 0 -110.5 -31t-39.5 -80q0 -41 22 -67t83 -53l184 -82q123 -51 182.5 -126.5t59.5 -191.5q0 -96 -45 -169t-132.5 -114t-211.5 -41q-173 0 -273 82.5z" />
    <glyph glyph-name="uni0219" unicode="&#x219;" horiz-adv-x="910" 
d="M186 55.5q-100 82.5 -118 229.5l201 19q11 -67 63 -109.5t125 -42.5q83 0 126.5 35.5t43.5 92.5q-1 54 -27 86.5t-94 61.5l-186 82q-117 48 -170.5 116.5t-53.5 170.5q0 88 43.5 157t126.5 108.5t197 39.5q108 0 188.5 -36t126.5 -99.5t56 -146.5l-201 -19
q-7 56 -54 91.5t-112 35.5q-71 0 -110.5 -31t-39.5 -80q0 -41 22 -67t83 -53l184 -82q123 -51 182.5 -126.5t59.5 -191.5q0 -96 -45 -169t-132.5 -114t-211.5 -41q-173 0 -273 82.5zM468 -462h-125l47 297h201z" />
    <glyph glyph-name="uni1E63" unicode="&#x1e63;" horiz-adv-x="910" 
d="M186 55.5q-100 82.5 -118 229.5l201 19q11 -67 63 -109.5t125 -42.5q83 0 126.5 35.5t43.5 92.5q-1 54 -27 86.5t-94 61.5l-186 82q-117 48 -170.5 116.5t-53.5 170.5q0 88 43.5 157t126.5 108.5t197 39.5q108 0 188.5 -36t126.5 -99.5t56 -146.5l-201 -19
q-7 56 -54 91.5t-112 35.5q-71 0 -110.5 -31t-39.5 -80q0 -41 22 -67t83 -53l184 -82q123 -51 182.5 -126.5t59.5 -191.5q0 -96 -45 -169t-132.5 -114t-211.5 -41q-173 0 -273 82.5zM372.5 -343q-36.5 34 -36.5 87q0 54 36.5 88.5t94.5 34.5q57 0 93.5 -34.5t36.5 -88.5
q0 -53 -36.5 -87t-93.5 -34q-58 0 -94.5 34z" />
    <glyph glyph-name="germandbls" unicode="&#xdf;" horiz-adv-x="1333" 
d="M533 0v173h218q76 0 141.5 36.5t105 101t39.5 146.5q0 78 -35.5 141.5t-100.5 99.5t-150 36h-176v189h63q55 0 103 29.5t76.5 79.5t28.5 109q0 64 -28 115.5t-77 80.5t-110 29q-77 0 -132 -33.5t-84 -94t-29 -139.5v-1099h-224v1097q0 146 56 248.5t161.5 155.5t252.5 53
q123 0 222.5 -45.5t157 -133.5t57.5 -211q0 -93 -42 -168t-109 -116q93 -14 171 -69t124.5 -146t46.5 -207q0 -145 -63 -252.5t-177.5 -164.5t-264.5 -57q-114 0 -222 16z" />
    <glyph glyph-name="t" unicode="t" horiz-adv-x="814" 
d="M323.5 74.5q-91.5 84.5 -91.5 238.5v572h-190v190h195v270l219 61v-331h277v-190h-277v-559q0 -63 40.5 -101.5t104.5 -38.5h132v-186q-76 -10 -157 -10q-161 0 -252.5 84.5z" />
    <glyph glyph-name="tbar" unicode="&#x167;" horiz-adv-x="814" 
d="M395.5 26.5q-77.5 36.5 -120.5 109t-43 177.5v181h-140v124h140v267h-190v190h195v270l219 61v-331h277v-190h-277v-267h226v-124h-226v-168q1 -65 41.5 -102.5t103.5 -37.5h132v-186q-76 -10 -157 -10q-103 0 -180.5 36.5z" />
    <glyph glyph-name="tcaron" unicode="&#x165;" horiz-adv-x="843" 
d="M742 1246h-126l48 298h201zM323.5 74.5q-91.5 84.5 -91.5 238.5v572h-190v190h195v270l219 61v-331h277v-190h-277v-559q0 -63 40.5 -101.5t104.5 -38.5h132v-186q-76 -10 -157 -10q-161 0 -252.5 84.5z" />
    <glyph glyph-name="uni0163" unicode="&#x163;" horiz-adv-x="814" 
d="M185 -424l48 112q44 -28 105 -28q53 0 83.5 25t30.5 67q0 99 -151 99l77 184q-146 83 -146 278v572h-190v190h195v270l219 61v-331h277v-190h-277v-559q1 -65 41.5 -102.5t103.5 -37.5h132v-186q-76 -10 -157 -10q-52 0 -89 8l-31 -75q81 -10 125.5 -54.5t44.5 -126.5
q0 -64 -34.5 -110t-92.5 -70t-129 -24q-128 0 -185 38z" />
    <glyph glyph-name="uni021B" unicode="&#x21b;" horiz-adv-x="814" 
d="M323.5 74.5q-91.5 84.5 -91.5 238.5v572h-190v190h195v270l219 61v-331h277v-190h-277v-559q0 -63 40.5 -101.5t104.5 -38.5h132v-186q-76 -10 -157 -10q-161 0 -252.5 84.5zM429 -462h-125l48 297h200z" />
    <glyph glyph-name="uni1E6D" unicode="&#x1e6d;" horiz-adv-x="814" 
d="M323.5 74.5q-91.5 84.5 -91.5 238.5v572h-190v190h195v270l219 61v-331h277v-190h-277v-559q0 -63 40.5 -101.5t104.5 -38.5h132v-186q-76 -10 -157 -10q-161 0 -252.5 84.5zM361.5 -343q-36.5 34 -36.5 87q0 54 36.5 88.5t94.5 34.5q57 0 93.5 -34.5t36.5 -88.5
q0 -53 -36.5 -87t-93.5 -34q-58 0 -94.5 34z" />
    <glyph glyph-name="u" unicode="u" horiz-adv-x="1246" 
d="M352 24q-95 56 -148.5 155.5t-53.5 223.5v671h224v-677q0 -59 26.5 -111t77.5 -83.5t119 -31.5q76 0 135.5 37.5t92 102.5t32.5 144v619h224v-1075h-205v120h-8q-47 -68 -126 -109.5t-176 -41.5q-119 0 -214 56z" />
    <glyph glyph-name="uacute" unicode="&#xfa;" horiz-adv-x="1246" 
d="M900 1492l-311 -294l-116 58l283 347zM352 24q-95 56 -148.5 155.5t-53.5 223.5v671h224v-677q0 -59 26.5 -111t77.5 -83.5t119 -31.5q76 0 135.5 37.5t92 102.5t32.5 144v619h224v-1075h-205v120h-8q-47 -68 -126 -109.5t-176 -41.5q-119 0 -214 56z" />
    <glyph glyph-name="ubreve" unicode="&#x16d;" horiz-adv-x="1247" 
d="M455 1237.5q-73 43.5 -116 118.5t-43 165h135q0 -48 25.5 -88t67.5 -62.5t91 -22.5q48 0 90 22.5t67.5 62.5t25.5 88h138q0 -90 -43 -165t-116.5 -118.5t-161.5 -43.5q-87 0 -160 43.5zM352 24q-95 56 -148.5 155.5t-53.5 223.5v671h224v-677q0 -59 26.5 -111t77.5 -83.5
t119 -31.5q76 0 135.5 37.5t92 102.5t32.5 144v619h224v-1075h-205v120h-8q-47 -68 -126 -109.5t-176 -41.5q-119 0 -214 56z" />
    <glyph glyph-name="ucircumflex" unicode="&#xfb;" horiz-adv-x="1246" 
d="M616 1391l-210 -211l-117 58l233 296h188l233 -296l-116 -58zM352 24q-95 56 -148.5 155.5t-53.5 223.5v671h224v-677q0 -59 26.5 -111t77.5 -83.5t119 -31.5q76 0 135.5 37.5t92 102.5t32.5 144v619h224v-1075h-205v120h-8q-47 -68 -126 -109.5t-176 -41.5
q-119 0 -214 56z" />
    <glyph glyph-name="udieresis" unicode="&#xfc;" horiz-adv-x="1246" 
d="M321 1289q-36 36 -36 92t36 92t92 36q57 0 93 -36t36 -92t-36 -92t-93 -36q-56 0 -92 36zM726.5 1289q-36.5 36 -36.5 92t36.5 92t92.5 36q57 0 92.5 -36t35.5 -92t-35.5 -92t-92.5 -36q-56 0 -92.5 36zM352 24q-95 56 -148.5 155.5t-53.5 223.5v671h224v-677
q0 -59 26.5 -111t77.5 -83.5t119 -31.5q76 0 135.5 37.5t92 102.5t32.5 144v619h224v-1075h-205v120h-8q-47 -68 -126 -109.5t-176 -41.5q-119 0 -214 56z" />
    <glyph glyph-name="udoubleacute" unicode="&#x171;" horiz-adv-x="1246" 
d="M723 1478l-310 -294l-99 76l266 328zM1086 1474l-310 -294l-99 76l266 328zM352 24q-95 56 -148.5 155.5t-53.5 223.5v671h224v-677q0 -59 26.5 -111t77.5 -83.5t119 -31.5q76 0 135.5 37.5t92 102.5t32.5 144v619h224v-1075h-205v120h-8q-47 -68 -126 -109.5t-176 -41.5
q-119 0 -214 56z" />
    <glyph glyph-name="ugrave" unicode="&#xf9;" horiz-adv-x="1246" 
d="M758 1256l-117 -58l-310 294l144 111zM352 24q-95 56 -148.5 155.5t-53.5 223.5v671h224v-677q0 -59 26.5 -111t77.5 -83.5t119 -31.5q76 0 135.5 37.5t92 102.5t32.5 144v619h224v-1075h-205v120h-8q-47 -68 -126 -109.5t-176 -41.5q-119 0 -214 56z" />
    <glyph glyph-name="umacron" unicode="&#x16b;" horiz-adv-x="1246" 
d="M925 1313h-619v137h619v-137zM352 24q-95 56 -148.5 155.5t-53.5 223.5v671h224v-677q0 -59 26.5 -111t77.5 -83.5t119 -31.5q76 0 135.5 37.5t92 102.5t32.5 144v619h224v-1075h-205v120h-8q-47 -68 -126 -109.5t-176 -41.5q-119 0 -214 56z" />
    <glyph glyph-name="uogonek" unicode="&#x173;" horiz-adv-x="1246" 
d="M777 -420q-48 42 -48 106q0 44 17 79.5t51 74.5l136 159h-57l-1 120h-7q-46 -68 -124 -109.5t-178 -41.5q-121 0 -216 56.5t-147.5 155.5t-52.5 223v671h224v-677q0 -59 26 -111t76.5 -83.5t120.5 -31.5q76 0 135 37.5t92 102.5t33 144v620h224v-1076h-20l-136 -198
q-25 -36 -25 -67q0 -27 19 -45t52 -18q53 0 85 28l39 -121q-79 -40 -175 -40q-95 0 -143 42z" />
    <glyph glyph-name="uring" unicode="&#x16f;" horiz-adv-x="1246" 
d="M512.5 1186.5q-47.5 26.5 -75 73t-27.5 103.5q0 58 27 104.5t74.5 73t104.5 26.5t104 -26.5t74 -73.5t27 -104t-27 -103.5t-74 -73t-104 -26.5q-56 0 -103.5 26.5zM689 1289.5q30 30.5 30 73.5q0 44 -30 74.5t-73 30.5t-73 -30.5t-30 -74.5q0 -43 30 -73.5t73 -30.5
t73 30.5zM352 24q-95 56 -148.5 155.5t-53.5 223.5v671h224v-677q0 -59 26.5 -111t77.5 -83.5t119 -31.5q76 0 135.5 37.5t92 102.5t32.5 144v619h224v-1075h-205v120h-8q-47 -68 -126 -109.5t-176 -41.5q-119 0 -214 56z" />
    <glyph glyph-name="utilde" unicode="&#x169;" horiz-adv-x="1246" 
d="M675 1241.5q-34 15.5 -76 44.5q-38 24 -61.5 35.5t-51.5 11.5q-35 0 -65.5 -24.5t-46.5 -60.5l-104 92q29 73 84.5 116.5t124.5 43.5q43 0 76 -15t78 -44q36 -25 60.5 -36.5t52.5 -11.5q35 0 66 24t47 61l103 -92q-28 -72 -84 -116t-125 -44q-44 0 -78 15.5zM352 24
q-95 56 -148.5 155.5t-53.5 223.5v671h224v-677q0 -59 26.5 -111t77.5 -83.5t119 -31.5q76 0 135.5 37.5t92 102.5t32.5 144v619h224v-1075h-205v120h-8q-47 -68 -126 -109.5t-176 -41.5q-119 0 -214 56z" />
    <glyph glyph-name="v" unicode="v" horiz-adv-x="1072" 
d="M661 0h-251l-392 1075h247l270 -809l271 809h247z" />
    <glyph glyph-name="w" unicode="w" horiz-adv-x="1656" 
d="M622 0h-212l-392 1075h241l271 -813l200 528l-89 285h214l270 -809l271 809h241l-392 -1075h-212l-205 547z" />
    <glyph glyph-name="wacute" unicode="&#x1e83;" horiz-adv-x="1656" 
d="M1112 1492l-311 -294l-116 58l283 347zM622 0h-212l-392 1075h241l271 -813l200 528l-89 285h214l270 -809l271 809h241l-392 -1075h-212l-205 547z" />
    <glyph glyph-name="wcircumflex" unicode="&#x175;" horiz-adv-x="1656" 
d="M828 1391l-210 -211l-117 58l233 296h188l233 -296l-116 -58zM622 0h-212l-392 1075h241l271 -813l200 528l-89 285h214l270 -809l271 809h241l-392 -1075h-212l-205 547z" />
    <glyph glyph-name="wdieresis" unicode="&#x1e85;" horiz-adv-x="1656" 
d="M533 1289q-36 36 -36 92t36 92t92 36q57 0 93 -36t36 -92t-36 -92t-93 -36q-56 0 -92 36zM938.5 1289q-36.5 36 -36.5 92t36.5 92t92.5 36q57 0 92.5 -36t35.5 -92t-35.5 -92t-92.5 -36q-56 0 -92.5 36zM622 0h-212l-392 1075h241l271 -813l200 528l-89 285h214l270 -809
l271 809h241l-392 -1075h-212l-205 547z" />
    <glyph glyph-name="uni1E89" unicode="&#x1e89;" horiz-adv-x="1656" 
d="M622 0h-212l-392 1075h241l271 -813l200 528l-89 285h214l270 -809l271 809h241l-392 -1075h-212l-205 547zM733.5 -343q-36.5 34 -36.5 87q0 54 36.5 88.5t94.5 34.5q57 0 93.5 -34.5t36.5 -88.5q0 -53 -36.5 -87t-93.5 -34q-58 0 -94.5 34z" />
    <glyph glyph-name="wgrave" unicode="&#x1e81;" horiz-adv-x="1656" 
d="M970 1256l-117 -58l-310 294l144 111zM622 0h-212l-392 1075h241l271 -813l200 528l-89 285h214l270 -809l271 809h241l-392 -1075h-212l-205 547z" />
    <glyph glyph-name="x" unicode="x" horiz-adv-x="1129" 
d="M267 0h-272l423 585l-358 490h272l232 -324l233 324h271l-358 -490l423 -585h-271l-298 414z" />
    <glyph glyph-name="y" unicode="y" horiz-adv-x="1103" 
d="M70 -269q263 2 351 229l28 74l-431 1041h254l287 -759l277 759h248l-454 -1182q-49 -126 -123 -204t-181 -114.5t-256 -36.5v193z" />
    <glyph glyph-name="yacute" unicode="&#xfd;" horiz-adv-x="1103" 
d="M841 1492l-311 -294l-116 58l284 347zM70 -269q263 2 351 229l28 74l-431 1041h254l287 -759l277 759h248l-454 -1182q-49 -126 -123 -204t-181 -114.5t-256 -36.5v193z" />
    <glyph glyph-name="ycircumflex" unicode="&#x177;" horiz-adv-x="1103" 
d="M556 1391l-209 -211l-117 58l232 296h188l234 -296l-116 -58zM70 -269q263 2 351 229l28 74l-431 1041h254l287 -759l277 759h248l-454 -1182q-49 -126 -123 -204t-181 -114.5t-256 -36.5v193z" />
    <glyph glyph-name="ydieresis" unicode="&#xff;" horiz-adv-x="1103" 
d="M261.5 1289q-36.5 36 -36.5 92t36.5 92t92.5 36q57 0 93 -36t36 -92t-36 -92t-93 -36q-56 0 -92.5 36zM667 1289q-36 36 -36 92t36 92t92 36q57 0 93 -36t36 -92t-36 -92t-93 -36q-56 0 -92 36zM70 -269q263 2 351 229l28 74l-431 1041h254l287 -759l277 759h248
l-454 -1182q-49 -126 -123 -204t-181 -114.5t-256 -36.5v193z" />
    <glyph glyph-name="uni1EF5" unicode="&#x1ef5;" horiz-adv-x="1103" 
d="M70 -269q263 2 351 229l28 74l-431 1041h254l287 -759l277 759h248l-454 -1182q-49 -126 -123 -204t-181 -114.5t-256 -36.5v193zM789.5 -343q-36.5 34 -36.5 87q0 54 36.5 88.5t94.5 34.5q56 0 92.5 -34.5t36.5 -88.5q0 -53 -36.5 -87t-92.5 -34q-58 0 -94.5 34z" />
    <glyph glyph-name="ygrave" unicode="&#x1ef3;" horiz-adv-x="1103" 
d="M699 1256l-116 -58l-311 294l144 111zM70 -269q263 2 351 229l28 74l-431 1041h254l287 -759l277 759h248l-454 -1182q-49 -126 -123 -204t-181 -114.5t-256 -36.5v193z" />
    <glyph glyph-name="uni0233" unicode="&#x233;" horiz-adv-x="1103" 
d="M866 1313h-619v137h619v-137zM70 -269q263 2 351 229l28 74l-431 1041h254l287 -759l277 759h248l-454 -1182q-49 -126 -123 -204t-181 -114.5t-256 -36.5v193z" />
    <glyph glyph-name="z" unicode="z" horiz-adv-x="1028" 
d="M986 0h-920v117l573 770h-544v188h862v-114l-572 -774h601v-187z" />
    <glyph glyph-name="zacute" unicode="&#x17a;" horiz-adv-x="1028" 
d="M811 1492l-311 -294l-116 58l283 347zM986 0h-920v117l573 770h-544v188h862v-114l-572 -774h601v-187z" />
    <glyph glyph-name="zcaron" unicode="&#x17e;" horiz-adv-x="1028" 
d="M621 1180h-188l-233 296l117 58l210 -211l210 211l117 -58zM986 0h-920v117l573 770h-544v188h862v-114l-572 -774h601v-187z" />
    <glyph glyph-name="zdotaccent" unicode="&#x17c;" horiz-adv-x="1028" 
d="M429 1289q-38 36 -38 92t38 92t98 36q59 0 97.5 -36t38.5 -92t-38.5 -92t-97.5 -36q-60 0 -98 36zM986 0h-920v117l573 770h-544v188h862v-114l-572 -774h601v-187z" />
    <glyph glyph-name="uni1E93" unicode="&#x1e93;" horiz-adv-x="1028" 
d="M986 0h-920v117l573 770h-544v188h862v-114l-572 -774h601v-187zM432.5 -343q-36.5 34 -36.5 87q0 54 36.5 88.5t94.5 34.5q56 0 92.5 -34.5t36.5 -88.5q0 -53 -36.5 -87t-92.5 -34q-58 0 -94.5 34z" />
    <glyph glyph-name="a.ss04" horiz-adv-x="1368" 
d="M347.5 41q-125.5 73 -197.5 203t-72 293t72 293t197.5 203t278.5 73q115 0 203.5 -42t148.5 -107v118h225v-1075h-206v129h-7q-58 -71 -151.5 -116t-212.5 -45q-153 0 -278.5 73zM819 220q78 46 122 128.5t44 188.5t-44 188t-122 128t-175 46t-175 -46t-122 -128
t-44 -188t44 -188.5t122 -128.5t175 -46t175 46z" />
    <glyph glyph-name="aacute.ss04" horiz-adv-x="1368" 
d="M902 1492l-311 -294l-116 58l284 347zM347.5 41q-125.5 73 -197.5 203t-72 293t72 293t197.5 203t278.5 73q115 0 203.5 -42t148.5 -107v118h225v-1075h-206v129h-7q-58 -71 -151.5 -116t-212.5 -45q-153 0 -278.5 73zM819 220q78 46 122 128.5t44 188.5t-44 188
t-122 128t-175 46t-175 -46t-122 -128t-44 -188t44 -188.5t122 -128.5t175 -46t175 46z" />
    <glyph glyph-name="abreve.ss04" horiz-adv-x="1368" 
d="M485 1237.5q-73 43.5 -116 118.5t-43 165h136q0 -48 25.5 -88t67.5 -62.5t90 -22.5t90 22.5t67.5 62.5t25.5 88h138q0 -90 -43 -165t-116.5 -118.5t-161.5 -43.5q-87 0 -160 43.5zM347.5 41q-125.5 73 -197.5 203t-72 293t72 293t197.5 203t278.5 73q115 0 203.5 -42
t148.5 -107v118h225v-1075h-206v129h-7q-58 -71 -151.5 -116t-212.5 -45q-153 0 -278.5 73zM819 220q78 46 122 128.5t44 188.5t-44 188t-122 128t-175 46t-175 -46t-122 -128t-44 -188t44 -188.5t122 -128.5t175 -46t175 46z" />
    <glyph glyph-name="acircumflex.ss04" horiz-adv-x="1368" 
d="M651 1391l-210 -211l-117 58l233 296h188l233 -296l-116 -58zM347.5 41q-125.5 73 -197.5 203t-72 293t72 293t197.5 203t278.5 73q115 0 203.5 -42t148.5 -107v118h225v-1075h-206v129h-7q-58 -71 -151.5 -116t-212.5 -45q-153 0 -278.5 73zM819 220q78 46 122 128.5
t44 188.5t-44 188t-122 128t-175 46t-175 -46t-122 -128t-44 -188t44 -188.5t122 -128.5t175 -46t175 46z" />
    <glyph glyph-name="adieresis.ss04" horiz-adv-x="1368" 
d="M359 1289q-36 36 -36 92t36 92t92 36q57 0 92.5 -36t35.5 -92t-35.5 -92t-92.5 -36q-56 0 -92 36zM764 1289q-36 36 -36 92t36 92t92 36t92.5 -36t36.5 -92t-36.5 -92t-92.5 -36t-92 36zM347.5 41q-125.5 73 -197.5 203t-72 293t72 293t197.5 203t278.5 73
q115 0 203.5 -42t148.5 -107v118h225v-1075h-206v129h-7q-58 -71 -151.5 -116t-212.5 -45q-153 0 -278.5 73zM819 220q78 46 122 128.5t44 188.5t-44 188t-122 128t-175 46t-175 -46t-122 -128t-44 -188t44 -188.5t122 -128.5t175 -46t175 46z" />
    <glyph glyph-name="agrave.ss04" horiz-adv-x="1368" 
d="M803 1256l-117 -58l-310 294l144 111zM347.5 41q-125.5 73 -197.5 203t-72 293t72 293t197.5 203t278.5 73q115 0 203.5 -42t148.5 -107v118h225v-1075h-206v129h-7q-58 -71 -151.5 -116t-212.5 -45q-153 0 -278.5 73zM819 220q78 46 122 128.5t44 188.5t-44 188
t-122 128t-175 46t-175 -46t-122 -128t-44 -188t44 -188.5t122 -128.5t175 -46t175 46z" />
    <glyph glyph-name="amacron.ss04" horiz-adv-x="1368" 
d="M961 1313h-620v137h620v-137zM347.5 41q-125.5 73 -197.5 203t-72 293t72 293t197.5 203t278.5 73q115 0 203.5 -42t148.5 -107v118h225v-1075h-206v129h-7q-58 -71 -151.5 -116t-212.5 -45q-153 0 -278.5 73zM819 220q78 46 122 128.5t44 188.5t-44 188t-122 128
t-175 46t-175 -46t-122 -128t-44 -188t44 -188.5t122 -128.5t175 -46t175 46z" />
    <glyph glyph-name="aogonek.ss04" horiz-adv-x="1369" 
d="M897.5 -420q-47.5 42 -47.5 106q0 43 16.5 79t50.5 75l137 160h-57v129h-7q-56 -69 -149.5 -115t-214.5 -46q-156 0 -281 73.5t-196 203.5t-71 292q0 165 72.5 294.5t197.5 202t278 72.5q114 0 202.5 -41t149.5 -108v118h225v-1075h-20l-137 -199q-24 -34 -24 -67
q0 -28 18 -45.5t52 -17.5q53 0 85 28l38 -121q-81 -40 -174 -40q-96 0 -143.5 42zM818.5 219q77.5 45 122 127.5t44.5 190.5t-44.5 190t-122 127t-174.5 45q-96 0 -173.5 -45t-122.5 -127t-45 -190t45 -190.5t122.5 -127.5t173.5 -45q97 0 174.5 45z" />
    <glyph glyph-name="aring.ss04" horiz-adv-x="1368" 
d="M536 1186.5q-47 26.5 -75 73t-28 103.5q0 58 27 104.5t74.5 73t104.5 26.5t104 -26.5t74.5 -73.5t27.5 -104t-27.5 -103.5t-74.5 -73t-104 -26.5q-56 0 -103 26.5zM712 1289.5q30 30.5 30 73.5q0 44 -30 74.5t-73 30.5t-73 -30.5t-30 -74.5q0 -43 30 -73.5t73 -30.5
t73 30.5zM347.5 41q-125.5 73 -197.5 203t-72 293t72 293t197.5 203t278.5 73q115 0 203.5 -42t148.5 -107v118h225v-1075h-206v129h-7q-58 -71 -151.5 -116t-212.5 -45q-153 0 -278.5 73zM819 220q78 46 122 128.5t44 188.5t-44 188t-122 128t-175 46t-175 -46t-122 -128
t-44 -188t44 -188.5t122 -128.5t175 -46t175 46z" />
    <glyph glyph-name="atilde.ss04" horiz-adv-x="1368" 
d="M710.5 1241.5q-33.5 15.5 -77.5 44.5q-36 24 -60 35.5t-52 11.5q-35 0 -65.5 -24.5t-46.5 -60.5l-104 92q29 73 84.5 116.5t124.5 43.5q44 0 78 -15.5t76 -44.5q38 -24 61.5 -35.5t51.5 -11.5q35 0 66.5 24.5t46.5 60.5l103 -92q-28 -72 -84 -116t-124 -44
q-45 0 -78.5 15.5zM347.5 41q-125.5 73 -197.5 203t-72 293t72 293t197.5 203t278.5 73q115 0 203.5 -42t148.5 -107v118h225v-1075h-206v129h-7q-58 -71 -151.5 -116t-212.5 -45q-153 0 -278.5 73zM819 220q78 46 122 128.5t44 188.5t-44 188t-122 128t-175 46t-175 -46
t-122 -128t-44 -188t44 -188.5t122 -128.5t175 -46t175 46z" />
    <glyph glyph-name="ae.ss04" horiz-adv-x="2128" 
d="M344 41q-124 73 -195 203t-71 293t71 293t195 203t277 73q117 0 207 -42t150 -107v117h224v-113q55 67 140.5 106t179.5 39q144 0 264 -64.5t192.5 -189.5t76.5 -297q0 -66 -5 -87l-848 1v-104q35 -94 118.5 -149.5t191.5 -55.5q112 0 193 49t126 135l187 -96
q-65 -131 -190.5 -205.5t-279.5 -74.5q-93 0 -184 38t-157 105h-5v-111h-207v129h-4q-58 -70 -154 -115.5t-216 -45.5q-153 0 -277 73zM1828 627q-6 85 -49.5 151.5t-114 103.5t-154.5 37q-106 0 -189 -56.5t-119 -152.5v-83h626zM819 218q78 47 122 130.5t44 188.5
q0 107 -44 190t-122 129.5t-175 46.5t-175 -46.5t-122.5 -129.5t-44.5 -190q0 -105 44.5 -188.5t122.5 -130.5t175 -47t175 47z" />
    <glyph glyph-name="l.ss05" horiz-adv-x="616" 
d="M232 58q-67 68 -67 190v1274h224v-1230q0 -48 26.5 -76t72.5 -28h90v-187q-70 -11 -156 -11q-123 0 -190 68z" />
    <glyph glyph-name="lacute.ss05" horiz-adv-x="616" 
d="M547 1862l-311 -270l-116 49l282 312zM232 58q-67 68 -67 190v1274h224v-1230q0 -48 26.5 -76t72.5 -28h90v-187q-70 -11 -156 -11q-123 0 -190 68z" />
    <glyph glyph-name="lcaron.ss05" horiz-adv-x="677" 
d="M232 58q-67 68 -67 190v1274h224v-1230q0 -48 26.5 -76t72.5 -28h90v-187q-70 -11 -156 -11q-123 0 -190 68zM620 1225h-126l49 297h200z" />
    <glyph glyph-name="uni013C.ss05" horiz-adv-x="616" 
d="M232 58q-67 68 -67 190v1274h224v-1230q0 -48 26.5 -76t72.5 -28h90v-187q-70 -11 -156 -11q-123 0 -190 68zM367 -462h-126l48 297h200z" />
    <glyph glyph-name="uni1E37.ss05" horiz-adv-x="616" 
d="M232 58q-67 68 -67 190v1274h224v-1230q0 -48 26.5 -76t72.5 -28h90v-187q-70 -11 -156 -11q-123 0 -190 68zM259 -343q-37 34 -37 87q0 54 37 88.5t94 34.5t93.5 -34.5t36.5 -88.5q0 -53 -36.5 -87t-93.5 -34t-94 34z" />
    <glyph glyph-name="uni1E39.ss05" horiz-adv-x="616" 
d="M560 1783h-526v137h526v-137zM232 58q-67 68 -67 190v1274h224v-1230q0 -48 26.5 -76t72.5 -28h90v-187q-70 -11 -156 -11q-123 0 -190 68zM259 -343q-37 34 -37 87q0 54 37 88.5t94 34.5t93.5 -34.5t36.5 -88.5q0 -53 -36.5 -87t-93.5 -34t-94 34z" />
    <glyph glyph-name="uni1E3B.ss05" horiz-adv-x="616" 
d="M232 58q-67 68 -67 190v1274h224v-1230q0 -48 26.5 -76t72.5 -28h90v-187q-70 -11 -156 -11q-123 0 -190 68zM580 -345h-505v137h505v-137z" />
    <glyph glyph-name="lslash.ss05" horiz-adv-x="718" 
d="M312.5 59.5q-65.5 69.5 -65.5 188.5v376l-217 -126l-63 108l280 162v754h224v-624l218 126l62 -109l-280 -162v-461q0 -47 25.5 -75.5t72.5 -28.5h90v-187q-70 -11 -155 -11q-126 0 -191.5 69.5z" />
    <glyph glyph-name="t.ss06" horiz-adv-x="775" 
d="M499 0h-224v885h-233v190h233v331h224v-331h234v-190h-234v-885z" />
    <glyph glyph-name="tbar.ss06" horiz-adv-x="775" 
d="M499 0h-224v450h-182v124h182v311h-233v190h233v331h224v-331h234v-190h-234v-311h184v-124h-184v-450z" />
    <glyph glyph-name="tcaron.ss06" horiz-adv-x="821" 
d="M741 1246h-126l49 299h199zM499 0h-224v885h-233v190h233v331h224v-331h234v-190h-234v-885z" />
    <glyph glyph-name="uni0163.ss06" horiz-adv-x="775" 
d="M160 -424l49 112q43 -28 104 -28q53 0 83.5 25.5t30.5 66.5q0 99 -151 99l63 149h-64v885h-233v190h233v331h224v-331h234v-190h-234v-885h-36l-32 -77q81 -10 126 -55t45 -126q0 -66 -35.5 -112t-94.5 -69t-127 -23q-126 0 -185 38z" />
    <glyph glyph-name="uni021B.ss06" horiz-adv-x="775" 
d="M499 0h-224v885h-233v190h233v331h224v-331h234v-190h-234v-885zM380 -462h-126l48 297h201z" />
    <glyph glyph-name="uni1E6D.ss06" horiz-adv-x="775" 
d="M499 0h-224v885h-233v190h233v331h224v-331h234v-190h-234v-885zM293.5 -343q-36.5 34 -36.5 87q0 54 36.5 88.5t94.5 34.5q57 0 93.5 -34.5t36.5 -88.5q0 -53 -36.5 -87t-93.5 -34q-58 0 -94.5 34z" />
    <glyph glyph-name="u.ss07" horiz-adv-x="1218" 
d="M373 19q-104 51 -163 148t-59 230v678h224v-667q0 -70 31 -123.5t84.5 -83t118.5 -29.5q67 0 120 30t83.5 84t30.5 122v667h225v-678q0 -133 -59 -230t-163.5 -148t-236.5 -51t-236 51z" />
    <glyph glyph-name="uacute.ss07" horiz-adv-x="1218" 
d="M873 1492l-311 -294l-116 58l282 347zM373 19q-104 51 -163 148t-59 230v678h224v-667q0 -70 31 -123.5t84.5 -83t118.5 -29.5q67 0 120 30t83.5 84t30.5 122v667h225v-678q0 -133 -59 -230t-163.5 -148t-236.5 -51t-236 51z" />
    <glyph glyph-name="ubreve.ss07" horiz-adv-x="1218" 
d="M448 1237.5q-73 43.5 -116 118.5t-43 165h136q0 -48 25 -88t67 -62.5t91 -22.5q48 0 90 22.5t67.5 62.5t25.5 88h138q0 -90 -43 -165t-116.5 -118.5t-161.5 -43.5q-87 0 -160 43.5zM373 19q-104 51 -163 148t-59 230v678h224v-667q0 -70 31 -123.5t84.5 -83t118.5 -29.5
q67 0 120 30t83.5 84t30.5 122v667h225v-678q0 -133 -59 -230t-163.5 -148t-236.5 -51t-236 51z" />
    <glyph glyph-name="ucircumflex.ss07" horiz-adv-x="1218" 
d="M609 1391l-210 -211l-117 58l233 296h188l233 -296l-116 -58zM373 19q-104 51 -163 148t-59 230v678h224v-667q0 -70 31 -123.5t84.5 -83t118.5 -29.5q67 0 120 30t83.5 84t30.5 122v667h225v-678q0 -133 -59 -230t-163.5 -148t-236.5 -51t-236 51z" />
    <glyph glyph-name="udieresis.ss07" horiz-adv-x="1218" 
d="M314 1289q-36 36 -36 92t36 92t92 36q57 0 93 -36t36 -92t-36 -92t-93 -36q-56 0 -92 36zM719.5 1289q-36.5 36 -36.5 92t36.5 92t92.5 36q57 0 92.5 -36t35.5 -92t-35.5 -92t-92.5 -36q-56 0 -92.5 36zM373 19q-104 51 -163 148t-59 230v678h224v-667q0 -70 31 -123.5
t84.5 -83t118.5 -29.5q67 0 120 30t83.5 84t30.5 122v667h225v-678q0 -133 -59 -230t-163.5 -148t-236.5 -51t-236 51z" />
    <glyph glyph-name="ugrave.ss07" horiz-adv-x="1218" 
d="M773 1256l-117 -58l-310 294l144 111zM373 19q-104 51 -163 148t-59 230v678h224v-667q0 -70 31 -123.5t84.5 -83t118.5 -29.5q67 0 120 30t83.5 84t30.5 122v667h225v-678q0 -133 -59 -230t-163.5 -148t-236.5 -51t-236 51z" />
    <glyph glyph-name="umacron.ss07" horiz-adv-x="1218" 
d="M919 1313h-619v137h619v-137zM373 19q-104 51 -163 148t-59 230v678h224v-667q0 -70 31 -123.5t84.5 -83t118.5 -29.5q67 0 120 30t83.5 84t30.5 122v667h225v-678q0 -133 -59 -230t-163.5 -148t-236.5 -51t-236 51z" />
    <glyph glyph-name="uogonek.ss07" horiz-adv-x="1218" 
d="M579.5 -420.5q-48.5 41.5 -48.5 106.5q0 46 16.5 82t50.5 72l116 142q-51 -14 -105 -14q-129 0 -232.5 50t-164 146.5t-61.5 232.5v678h224v-667q0 -70 30.5 -123.5t84 -83t119.5 -29.5t119.5 29.5t84 83t30.5 123.5v667h225v-678q0 -117 -46 -204t-127 -142l-169 -250
q-24 -32 -24 -67q0 -28 18.5 -45.5t51.5 -17.5q26 0 46 6.5t39 21.5l38 -121q-35 -20 -81 -30t-93 -10q-93 0 -141.5 41.5z" />
    <glyph glyph-name="uring.ss07" horiz-adv-x="1218" 
d="M505.5 1186.5q-47.5 26.5 -75 73t-27.5 103.5t27.5 104t74.5 73.5t104 26.5t104 -26.5t74.5 -73.5t27.5 -104t-27.5 -103.5t-74.5 -73t-104 -26.5q-56 0 -103.5 26.5zM682 1289.5q30 30.5 30 73.5q0 44 -30 74.5t-73 30.5t-73 -30.5t-30 -74.5q0 -43 30 -73.5t73 -30.5
t73 30.5zM373 19q-104 51 -163 148t-59 230v678h224v-667q0 -70 31 -123.5t84.5 -83t118.5 -29.5q67 0 120 30t83.5 84t30.5 122v667h225v-678q0 -133 -59 -230t-163.5 -148t-236.5 -51t-236 51z" />
    <glyph glyph-name="utilde.ss07" horiz-adv-x="1218" 
d="M668.5 1241.5q-33.5 15.5 -77.5 44.5q-36 24 -60 35.5t-52 11.5q-35 0 -65.5 -24.5t-46.5 -60.5l-104 92q29 73 84.5 116.5t124.5 43.5q44 0 78 -15.5t76 -44.5q38 -24 61.5 -35.5t51.5 -11.5q35 0 66 24t47 61l103 -92q-28 -72 -84 -116t-124 -44q-45 0 -78.5 15.5z
M373 19q-104 51 -163 148t-59 230v678h224v-667q0 -70 31 -123.5t84.5 -83t118.5 -29.5q67 0 120 30t83.5 84t30.5 122v667h225v-678q0 -133 -59 -230t-163.5 -148t-236.5 -51t-236 51z" />
    <glyph glyph-name="w.ss08" horiz-adv-x="1608" 
d="M558 0h-219l-311 1075h237l203 -794l250 794h172l250 -794l202 794h237l-310 -1075h-219l-246 742z" />
    <glyph glyph-name="wacute.ss08" horiz-adv-x="1608" 
d="M1068 1492l-312 -294l-116 58l283 347zM558 0h-219l-311 1075h237l203 -794l250 794h172l250 -794l202 794h237l-310 -1075h-219l-246 742z" />
    <glyph glyph-name="wcircumflex.ss08" horiz-adv-x="1608" 
d="M804 1391l-210 -211l-117 58l233 296h188l233 -296l-117 -58zM558 0h-219l-311 1075h237l203 -794l250 794h172l250 -794l202 794h237l-310 -1075h-219l-246 742z" />
    <glyph glyph-name="wdieresis.ss08" horiz-adv-x="1608" 
d="M508.5 1289q-36.5 36 -36.5 92t36.5 92t92.5 36t92 -36t36 -92t-36 -92t-92 -36t-92.5 36zM914.5 1289q-36.5 36 -36.5 92t36.5 92t92.5 36t92 -36t36 -92t-36 -92t-92 -36t-92.5 36zM558 0h-219l-311 1075h237l203 -794l250 794h172l250 -794l202 794h237l-310 -1075
h-219l-246 742z" />
    <glyph glyph-name="uni1E89.ss08" horiz-adv-x="1608" 
d="M558 0h-219l-311 1075h237l203 -794l250 794h172l250 -794l202 794h237l-310 -1075h-219l-246 742zM709.5 -343q-36.5 34 -36.5 87q0 54 36.5 88.5t94.5 34.5q57 0 93.5 -34.5t36.5 -88.5q0 -53 -36.5 -87t-93.5 -34q-58 0 -94.5 34z" />
    <glyph glyph-name="wgrave.ss08" horiz-adv-x="1608" 
d="M968 1256l-117 -58l-311 294l144 111zM558 0h-219l-311 1075h237l203 -794l250 794h172l250 -794l202 794h237l-310 -1075h-219l-246 742z" />
    <glyph glyph-name="y.ss09" horiz-adv-x="1103" 
d="M506 -430h-234l177 464l-431 1041h254l287 -759l277 759h248z" />
    <glyph glyph-name="yacute.ss09" horiz-adv-x="1103" 
d="M823 1492l-312 -294l-116 58l283 347zM506 -430h-234l177 464l-431 1041h254l287 -759l277 759h248z" />
    <glyph glyph-name="ycircumflex.ss09" horiz-adv-x="1103" 
d="M558 1391l-210 -211l-117 58l233 296h188l233 -296l-116 -58zM506 -430h-234l177 464l-431 1041h254l287 -759l277 759h248z" />
    <glyph glyph-name="ydieresis.ss09" horiz-adv-x="1103" 
d="M263.5 1289q-36.5 36 -36.5 92t36.5 92t92.5 36t92 -36t36 -92t-36 -92t-92 -36t-92.5 36zM669.5 1289q-36.5 36 -36.5 92t36.5 92t92.5 36t92 -36t36 -92t-36 -92t-92 -36t-92.5 36zM506 -430h-234l177 464l-431 1041h254l287 -759l277 759h248z" />
    <glyph glyph-name="uni1EF5.ss09" horiz-adv-x="1103" 
d="M506 -430h-234l177 464l-431 1041h254l287 -759l277 759h248zM762.5 -343q-36.5 34 -36.5 87q0 54 36.5 88.5t94.5 34.5q56 0 93 -34.5t37 -88.5q0 -53 -37 -87t-93 -34q-58 0 -94.5 34z" />
    <glyph glyph-name="ygrave.ss09" horiz-adv-x="1103" 
d="M723 1256l-118 -58l-310 294l144 111zM506 -430h-234l177 464l-431 1041h254l287 -759l277 759h248z" />
    <glyph glyph-name="uni0233.ss09" horiz-adv-x="1103" 
d="M868 1313h-619v137h619v-137zM506 -430h-234l177 464l-431 1041h254l287 -759l277 759h248z" />
    <glyph glyph-name="fl.ss05" horiz-adv-x="1375" 
d="M250 0v885h-189v190h189v134q0 152 90 237t254 85q76 0 157 -10v-186h-132q-64 0 -104.5 -38.5t-40.5 -101.5v-120h277v-190h-277v-885h-224zM991 58q-67 68 -67 190v1274h224v-1230q0 -48 26 -76t72 -28h90v-187q-70 -11 -155 -11q-123 0 -190 68z" />
    <glyph glyph-name="ordfeminine" unicode="&#xaa;" horiz-adv-x="746" 
d="M110 750.5q-52 47.5 -52 125.5q0 144 181 197l210 62v43q0 47 -25.5 74t-73.5 27q-40 0 -69 -28.5t-32 -72.5h-174q5 75 42 134.5t98.5 92.5t137.5 33q140 0 209 -68.5t69 -191.5v-454h-168v82q-30 -46 -88 -74.5t-119 -28.5q-94 0 -146 47.5zM398 875.5q39 30.5 51 77.5
v75l-145 -41q-37 -10 -55.5 -29.5t-18.5 -47.5q0 -30 19 -47.5t56 -17.5q54 0 93 30.5z" />
    <glyph glyph-name="ordmasculine" unicode="&#xba;" horiz-adv-x="866" 
d="M221 750q-83 47 -129.5 130.5t-46.5 190.5q0 106 46.5 189.5t129.5 130.5t188 47q106 0 189 -47t129.5 -130.5t46.5 -189.5q0 -107 -46.5 -190.5t-129.5 -130.5t-189 -47q-105 0 -188 47zM505.5 898.5q42.5 25.5 66 70.5t23.5 102t-23.5 102t-66 70t-96.5 25t-96.5 -25
t-66 -70t-23.5 -102t23.5 -102t66 -70.5t96.5 -25.5t96.5 25.5z" />
    <glyph glyph-name="ordfeminine.ss04" horiz-adv-x="903" 
d="M209 750q-77 47 -120.5 130.5t-43.5 190.5q0 106 43.5 189.5t120.5 130.5t175 47q115 0 204 -77v56h178v-693h-168v61q-39 -34 -94 -58t-120 -24q-98 0 -175 47zM504 896.5q42 25.5 65.5 71t23.5 103.5q0 57 -23.5 102.5t-65.5 71t-96 25.5q-53 0 -95.5 -25.5t-66 -71
t-23.5 -102.5q0 -58 23.5 -103.5t66 -71t95.5 -25.5q54 0 96 25.5z" />
    <glyph glyph-name="pi-grek" unicode="&#x3c0;" horiz-adv-x="1426" 
d="M241 0v886h-183v189h1294v-189h-193v-553q0 -64 41 -104.5t104 -40.5h87v-188h-124q-102 2 -177 43t-115 115t-40 174v554h-470v-886h-224z" />
    <glyph glyph-name="zero" unicode="0" horiz-adv-x="1290" 
d="M360 46q-124 78 -196 242.5t-72 414.5t72 414.5t196 242.5t285 78t285 -78t196 -242.5t72 -414.5t-72 -414.5t-196 -242.5t-285 -78t-285 78zM809.5 239q73.5 54 118 170t44.5 294q0 179 -43.5 295t-117 170t-166.5 54t-166.5 -54t-116.5 -170t-43 -295q0 -178 44.5 -294
t118 -170t163.5 -54q91 0 164.5 54z" />
    <glyph glyph-name="one" unicode="1" horiz-adv-x="738" 
d="M550 0h-226v1196h-309v186l337 24h198v-1406z" />
    <glyph glyph-name="two" unicode="2" horiz-adv-x="1185" 
d="M59 0v129l595 504q94 79 147 156t53 173q0 68 -32 127t-92.5 95t-143.5 36q-82 0 -145 -36.5t-97 -96t-34 -127.5v-65h-227v65q0 140 64 249t178 169t259 60q147 0 261.5 -58.5t179 -167t64.5 -252.5q0 -106 -36 -187t-92 -141.5t-146 -134.5l-341 -292h622v-205h-1037z
" />
    <glyph glyph-name="three" unicode="3" horiz-adv-x="1159" 
d="M320.5 12q-109.5 44 -181.5 126t-93 194l234 32q13 -55 50.5 -100t96.5 -71.5t132 -26.5q80 0 146 33t104 92.5t38 136.5q0 73 -29.5 132.5t-88 94t-143.5 34.5h-204v128l317 384h-599v205h883v-153l-321 -393h41q105 0 191 -51t136.5 -147t50.5 -227q0 -137 -68 -243.5
t-187 -165t-267 -58.5q-129 0 -238.5 44z" />
    <glyph glyph-name="four" unicode="4" horiz-adv-x="1167" 
d="M1009 0h-228v303h-715v160l447 943h259l-429 -899h438v284h228v-284h121v-204h-121v-303z" />
    <glyph glyph-name="five" unicode="5" horiz-adv-x="1213" 
d="M358 11.5q-109 43.5 -180 126t-91 194.5l232 32q14 -55 51.5 -100t96.5 -71.5t132 -26.5q80 0 146 33.5t103.5 93t37.5 135.5q0 73 -28.5 132.5t-87 94t-144.5 34.5h-470v717h890v-205h-663v-317h310q122 0 219 -52.5t153 -154t56 -242.5q0 -138 -67.5 -244
t-186.5 -164.5t-268 -58.5q-132 0 -241 43.5z" />
    <glyph glyph-name="six" unicode="6" horiz-adv-x="1190" 
d="M344 24.5q-119 56.5 -189 166t-70 261.5q0 158 85 297l402 657h264l-337 -534q78 45 178 45q125 0 228.5 -55t164.5 -160.5t61 -249.5q0 -152 -70 -261.5t-189 -166t-264 -56.5t-264 56.5zM755.5 220.5q65.5 34.5 103 96t37.5 141.5t-37.5 142t-103 96t-147.5 34
t-147.5 -34.5t-102.5 -96.5t-37 -142q0 -79 37.5 -140.5t103 -96t146.5 -34.5q82 0 147.5 34.5z" />
    <glyph glyph-name="seven" unicode="7" horiz-adv-x="1010" 
d="M382 0h-265l574 1200l-648 1v205h930v-161z" />
    <glyph glyph-name="eight" unicode="8" horiz-adv-x="1266" 
d="M372 16.5q-119 48.5 -190.5 146t-71.5 238.5q0 124 66 218t177 136q-87 38 -135 117.5t-48 175.5q0 121 58 209t163 134.5t242 46.5t241.5 -46.5t163 -134.5t58.5 -209q0 -96 -48 -175.5t-135 -117.5q111 -42 177 -136t66 -218q0 -141 -71.5 -238.5t-190.5 -146
t-261 -48.5t-261 48.5zM759.5 857q53.5 26 82 72.5t28.5 106.5q0 63 -30.5 109t-84 70.5t-122.5 24.5t-123 -24.5t-84 -71t-30 -109.5q0 -60 28.5 -106t82.5 -72t126 -26q73 0 126.5 26zM765 193q64 27 105.5 81.5t41.5 132.5q0 74 -36 128t-99 82.5t-144 28.5t-144.5 -28
t-99 -81.5t-35.5 -129.5q0 -78 41.5 -132.5t105.5 -81.5t132 -27t132 27z" />
    <glyph glyph-name="nine" unicode="9" horiz-adv-x="1190" 
d="M693 535q-77 -46 -179 -46q-125 0 -228.5 55t-164.5 160.5t-61 250.5q0 152 70 261.5t188.5 165.5t263.5 56t264 -56t189 -165.5t70 -261.5q0 -159 -85 -298l-400 -657h-265zM730.5 710.5q65.5 34.5 102.5 96.5t37 142q0 79 -37.5 141t-103 96t-147.5 34t-147.5 -34
t-103 -96t-37.5 -141q0 -80 37.5 -142t103 -96.5t147.5 -34.5q83 0 148.5 34.5z" />
    <glyph glyph-name="zero.tnum" 
d="M343.5 45.5q-116.5 77.5 -181.5 241.5t-65 416t65 416t181.5 241.5t275.5 77.5t276 -77.5t181.5 -241.5t64.5 -416t-64.5 -416t-181.5 -241.5t-276 -77.5t-275.5 77.5zM835 310.5q79 125.5 79 392.5q0 269 -77 394t-218 125q-140 0 -217.5 -125t-77.5 -394
q0 -266 79.5 -392t215.5 -126q137 0 216 125.5z" />
    <glyph glyph-name="one.tnum" 
d="M1096 0h-954v187h363v1009h-363v186l392 24h198v-1219h364v-187z" />
    <glyph glyph-name="two.tnum" 
d="M96 0v129l595 504q94 79 147.5 156t53.5 173q0 68 -31 127t-91.5 95t-145.5 36t-150.5 -36.5t-101 -96t-35.5 -127.5v-65h-228v65q0 140 65.5 249t182.5 169t265 60q149 0 263.5 -58.5t178 -166.5t63.5 -253q0 -104 -34.5 -184t-89.5 -140t-141 -132l-351 -299h623v-205
h-1038z" />
    <glyph glyph-name="three.tnum" 
d="M375.5 12q-109.5 44 -181.5 126t-92 194l233 32q13 -55 50.5 -100t96.5 -71.5t133 -26.5q79 0 144.5 33t103.5 92.5t38 136.5q0 73 -29 132.5t-88 94t-143 34.5h-203v128l316 384h-599v205h883v-153l-322 -393h42q105 0 191.5 -51t137 -147.5t50.5 -226.5
q0 -137 -68 -243.5t-187 -165t-267 -58.5q-130 0 -239.5 44z" />
    <glyph glyph-name="four.tnum" 
d="M1053 0h-228v303h-717v160l446 943h259l-429 -899h441v284h228v-284h120v-204h-120v-303z" />
    <glyph glyph-name="five.tnum" 
d="M372 11.5q-109 43.5 -179.5 126t-90.5 194.5l232 32q14 -55 51.5 -100t96 -71.5t131.5 -26.5q80 0 146 33.5t104 93t38 135.5q0 73 -28.5 132.5t-87 94t-144.5 34.5h-470v717h890v-205h-663v-317h309q123 0 220 -52.5t153 -153.5t56 -243q0 -138 -67.5 -244
t-186.5 -164.5t-269 -58.5q-132 0 -241 43.5z" />
    <glyph glyph-name="six.tnum" 
d="M355 24.5q-119 56.5 -188.5 166t-69.5 261.5q0 157 84 297l401 657h266l-338 -534q78 45 177 45q125 0 228.5 -55t164.5 -160.5t61 -249.5q0 -152 -70 -261.5t-188.5 -166t-263.5 -56.5t-264 56.5zM766.5 220.5q65.5 34.5 103 96t37.5 141.5t-37.5 142t-103 96t-147.5 34
t-147.5 -34.5t-102.5 -96.5t-37 -142q0 -79 37.5 -140.5t103 -96t146.5 -34.5q82 0 147.5 34.5z" />
    <glyph glyph-name="seven.tnum" 
d="M544 0h-264l573 1200l-745 1v205h1027v-161z" />
    <glyph glyph-name="eight.tnum" 
d="M358 16.5q-119 48.5 -190 146t-71 238.5q0 124 65.5 218t176.5 136q-87 38 -135 118t-48 175q0 121 58 209t163 134.5t242 46.5t242 -46.5t163 -134.5t58 -209q0 -96 -48 -175.5t-135 -117.5q111 -42 176.5 -136t65.5 -218q0 -141 -71 -238.5t-190 -146t-261 -48.5
t-261 48.5zM746 857q54 26 82.5 72.5t28.5 106.5q0 63 -30.5 109t-84.5 70.5t-123 24.5t-123 -24.5t-84 -71t-30 -109.5q0 -60 29 -106t82.5 -72t125.5 -26q73 0 127 26zM751.5 193q64.5 27 105.5 81.5t41 132.5q0 74 -36 128t-99 82.5t-144 28.5t-144 -28t-98.5 -81.5
t-35.5 -129.5q0 -78 41.5 -132.5t105.5 -81.5t131 -27q68 0 132.5 27z" />
    <glyph glyph-name="nine.tnum" 
d="M729 535q-77 -46 -179 -46q-125 0 -228.5 55t-164 160.5t-60.5 250.5q0 152 69.5 261.5t188.5 165.5t264 56t263.5 -56t188.5 -165.5t70 -261.5q0 -158 -84 -298l-401 -657h-265zM766.5 710.5q65.5 34.5 102.5 96.5t37 142t-37.5 141.5t-102.5 95.5t-147 34t-147.5 -34
t-103 -96t-37.5 -141q0 -80 37.5 -142t103 -96.5t147.5 -34.5t147.5 34.5z" />
    <glyph glyph-name="uni2080" unicode="&#x2080;" horiz-adv-x="671" 
d="M126.5 -277q-75.5 90 -75.5 277t75.5 277t209.5 90t209.5 -90t75.5 -277t-75.5 -277t-209.5 -90t-209.5 90zM426.5 -167.5q33.5 53.5 33.5 167.5q0 116 -32 168.5t-92 52.5t-92 -52.5t-32 -168.5q0 -114 33.5 -167.5t90.5 -53.5t90.5 53.5z" />
    <glyph glyph-name="uni2081" unicode="&#x2081;" horiz-adv-x="672" 
d="M459 -351h-162v564h-179v124l201 15h140v-703z" />
    <glyph glyph-name="uni2082" unicode="&#x2082;" horiz-adv-x="672" 
d="M49 -352v82l308 246q43 36 69 70t26 72q0 42 -32.5 72t-85.5 30q-52 0 -85 -30.5t-33 -72.5v-33h-167v33q0 76 37.5 132.5t102.5 87t145 30.5t144.5 -29t102.5 -85.5t38 -135.5q0 -70 -34 -121t-94 -97l-140 -113h262v-138h-564z" />
    <glyph glyph-name="uni2083" unicode="&#x2083;" horiz-adv-x="672" 
d="M203.5 -345q-60.5 22 -100.5 65.5t-50 104.5l166 18q8 -33 39 -55.5t76 -22.5q51 0 84.5 28t33.5 72q0 45 -27.5 73t-78.5 28h-124v83l144 165h-280v137h481v-103l-147 -168h16q48 0 90 -25.5t67.5 -73t25.5 -111.5q0 -72 -38 -126t-103 -82.5t-144 -28.5
q-70 0 -130.5 22z" />
    <glyph glyph-name="uni2084" unicode="&#x2084;" horiz-adv-x="672" 
d="M571 -351h-162v129h-364v106l227 467h183l-214 -435h175v157h155v-157h56v-138h-56v-129z" />
    <glyph glyph-name="uni2085" unicode="&#x2085;" horiz-adv-x="672" 
d="M145 -317q-78 50 -92 142l165 18q9 -33 40 -55t76 -22q52 0 85 27.5t33 72.5q0 44 -27 72.5t-79 28.5h-266v385h499v-138h-337v-118h154q62 0 113 -26t80.5 -76.5t29.5 -122.5q0 -73 -37.5 -127t-102.5 -82.5t-145 -28.5q-111 0 -189 50z" />
    <glyph glyph-name="uni2086" unicode="&#x2086;" horiz-adv-x="672" 
d="M192 -338.5q-65 28.5 -103.5 85t-38.5 136.5q0 84 50 162l196 307h189l-166 -247q30 16 69 16q63 0 116.5 -28t85.5 -82t32 -128q0 -80 -38.5 -136.5t-103.5 -85t-144 -28.5t-144 28.5zM421.5 -190q33.5 30 33.5 77q-1 48 -34 78t-85 30t-85 -30t-34 -78q0 -47 33.5 -77
t85.5 -30t85.5 30z" />
    <glyph glyph-name="uni2087" unicode="&#x2087;" horiz-adv-x="672" 
d="M312 -351h-187l277 565h-333v137h534v-106z" />
    <glyph glyph-name="uni2088" unicode="&#x2088;" horiz-adv-x="672" 
d="M193.5 -343q-64.5 24 -103.5 73.5t-39 123.5q0 58 31 103t82 67q-40 21 -62 58.5t-22 81.5q0 97 71.5 150t184.5 53t184.5 -53t71.5 -150q0 -44 -22 -81.5t-62 -58.5q52 -22 82.5 -67t30.5 -103q0 -74 -39 -123.5t-103.5 -73.5t-142.5 -24t-142.5 24zM405.5 96.5
q25.5 22.5 25.5 58.5t-26.5 58t-68.5 22t-68.5 -22t-26.5 -58t25.5 -58.5t69.5 -22.5t69.5 22.5zM414 -210q33 24 33 69q0 43 -30.5 67.5t-80.5 24.5t-80.5 -24.5t-30.5 -67.5q0 -45 33.5 -69t77.5 -24q45 0 78 24z" />
    <glyph glyph-name="uni2089" unicode="&#x2089;" horiz-adv-x="672" 
d="M354 -104q-28 -16 -70 -16q-63 0 -116.5 28t-85.5 82t-32 128q0 80 38.5 136.5t103.5 85t144 28.5t144 -28.5t103.5 -85t38.5 -136.5q0 -83 -49 -162l-197 -307h-188zM421.5 35.5q33.5 30.5 33.5 78.5q0 47 -33.5 77t-85.5 30t-85 -30t-33 -77q0 -48 33 -78.5t85 -30.5
t85.5 30.5z" />
    <glyph glyph-name="zero.dnom" horiz-adv-x="671" 
d="M126.5 75q-75.5 90 -75.5 277t75.5 277t209.5 90t209.5 -90t75.5 -277t-75.5 -277t-209.5 -90t-209.5 90zM426.5 184.5q33.5 53.5 33.5 167.5q0 116 -32 168.5t-92 52.5t-92 -52.5t-32 -168.5q0 -114 33.5 -167.5t90.5 -53.5t90.5 53.5z" />
    <glyph glyph-name="one.dnom" horiz-adv-x="672" 
d="M459 0h-162v564h-179v124l201 15h140v-703z" />
    <glyph glyph-name="two.dnom" horiz-adv-x="672" 
d="M49 0v83l308 245q43 36 69 70t26 72q0 42 -32.5 72t-85.5 30q-52 0 -85 -30.5t-33 -72.5v-33h-167v33q0 76 37.5 132.5t102.5 87t145 30.5t144.5 -29t102.5 -85.5t38 -135.5q0 -70 -33.5 -120.5t-94.5 -97.5l-140 -113h262v-138h-564z" />
    <glyph glyph-name="three.dnom" horiz-adv-x="672" 
d="M203.5 7q-60.5 22 -100.5 65.5t-50 104.5l166 18q8 -33 39 -55t76 -22q51 0 84.5 27.5t33.5 72.5q0 44 -27.5 72t-78.5 28h-124v83l144 165h-280v137h481v-103l-147 -168h16q48 0 90 -25t67.5 -72.5t25.5 -111.5q0 -72 -38 -126t-103 -83t-144 -29q-70 0 -130.5 22z" />
    <glyph glyph-name="four.dnom" horiz-adv-x="672" 
d="M571 1h-162v129h-364v106l227 467h183l-214 -435h175v157h155v-157h56v-138h-56v-129z" />
    <glyph glyph-name="five.dnom" horiz-adv-x="672" 
d="M145 35q-78 50 -92 142l165 18q9 -33 40 -55t76 -22q51 0 84.5 28t33.5 72t-27 72.5t-79 28.5h-266v385h499v-138h-337v-117h154q62 0 113 -26t80.5 -77t29.5 -122q0 -73 -38 -127t-102.5 -83t-144.5 -29q-111 0 -189 50z" />
    <glyph glyph-name="six.dnom" horiz-adv-x="672" 
d="M192 13.5q-65 28.5 -103.5 85t-38.5 136.5q0 84 50 162l196 307h189l-167 -247q30 16 70 16q63 0 116.5 -28t85.5 -82t32 -128q0 -80 -38.5 -136.5t-103.5 -85t-144 -28.5t-144 28.5zM421.5 162q33.5 30 33.5 78q-1 47 -34 77.5t-85 30.5t-85 -30.5t-34 -77.5
q0 -48 33.5 -78t85.5 -30t85.5 30z" />
    <glyph glyph-name="seven.dnom" horiz-adv-x="672" 
d="M305 0h-187l278 565h-333v137h534v-106z" />
    <glyph glyph-name="eight.dnom" horiz-adv-x="672" 
d="M193.5 9q-64.5 24 -103.5 73.5t-39 123.5q0 59 31 103.5t82 66.5q-40 21 -62 58.5t-22 81.5q0 97 71.5 150t184.5 53t184.5 -53t71.5 -150q0 -44 -22 -81.5t-62 -58.5q52 -21 82.5 -66t30.5 -104q0 -74 -39 -123.5t-103.5 -73.5t-142.5 -24t-142.5 24zM405.5 448.5
q25.5 22.5 25.5 58.5q0 37 -26 58.5t-69 21.5t-69 -21.5t-26 -58.5q0 -36 25.5 -58.5t69.5 -22.5t69.5 22.5zM414 142.5q33 24.5 33 68.5q0 43 -30.5 68t-80.5 25t-80.5 -25t-30.5 -68q0 -44 33.5 -68.5t77.5 -24.5q45 0 78 24.5z" />
    <glyph glyph-name="nine.dnom" horiz-adv-x="672" 
d="M354 248q-29 -17 -70 -17q-63 1 -116.5 28.5t-85.5 81.5t-32 128q0 80 38.5 136.5t103.5 85t144 28.5t144 -28.5t103.5 -85t38.5 -136.5q0 -85 -50 -161l-196 -308h-188zM421.5 387q33.5 30 33.5 78q0 47 -33.5 77t-85.5 30t-85 -30t-33 -77q0 -48 33 -78t85 -30t85.5 30
z" />
    <glyph glyph-name="zero.numr" horiz-adv-x="671" 
d="M126.5 794q-75.5 90 -75.5 277t75.5 277t209.5 90t209.5 -90t75.5 -277t-75.5 -277t-209.5 -90t-209.5 90zM426.5 903.5q33.5 53.5 33.5 167.5q0 116 -32 168.5t-92 52.5t-92 -52.5t-32 -168.5q0 -114 33.5 -167.5t90.5 -53.5t90.5 53.5z" />
    <glyph glyph-name="one.numr" horiz-adv-x="672" 
d="M459 718h-162v564h-179v124l201 15h140v-703z" />
    <glyph glyph-name="two.numr" horiz-adv-x="672" 
d="M49 718v83l308 245q43 36 69 70t26 72q0 42 -32.5 72t-85.5 30q-52 0 -85 -30.5t-33 -72.5v-33h-167v33q0 76 37.5 132.5t102.5 87t145 30.5t144.5 -29t102.5 -85.5t38 -135.5q0 -70 -33.5 -120.5t-94.5 -97.5l-140 -113h262v-138h-564z" />
    <glyph glyph-name="three.numr" horiz-adv-x="672" 
d="M203.5 726q-60.5 22 -100.5 65.5t-50 104.5l166 18q8 -33 39 -55t76 -22q51 0 84.5 27.5t33.5 71.5q0 45 -27.5 73t-78.5 28h-124v83l144 165h-280v137h481v-104l-147 -167h16q48 0 90 -25.5t67.5 -73t25.5 -110.5q0 -73 -38 -127t-103 -82.5t-144 -28.5q-70 0 -130.5 22
z" />
    <glyph glyph-name="four.numr" horiz-adv-x="672" 
d="M571 719h-162v129h-364v106l227 467h183l-214 -435h175v157h155v-157h56v-138h-56v-129z" />
    <glyph glyph-name="five.numr" horiz-adv-x="672" 
d="M145 752.5q-78 50.5 -92 141.5l165 18q9 -33 40 -55t76 -22q51 0 84.5 28t33.5 73q0 43 -27 71.5t-79 28.5h-266v385h499v-137h-337v-118h154q62 0 113 -26t80.5 -76.5t29.5 -122.5q0 -73 -38 -127t-102.5 -83t-144.5 -29q-111 0 -189 50.5z" />
    <glyph glyph-name="six.numr" horiz-adv-x="672" 
d="M192 731.5q-65 28.5 -103.5 85t-38.5 136.5q0 84 50 162l196 307h189l-167 -247q30 16 70 16q63 0 116.5 -28t85.5 -82t32 -128q0 -80 -38.5 -136.5t-103.5 -85t-144 -28.5t-144 28.5zM421.5 880q33.5 30 33.5 78q-1 47 -34 77.5t-85 30.5t-85 -30.5t-34 -77.5
q0 -48 33.5 -78t85.5 -30t85.5 30z" />
    <glyph glyph-name="seven.numr" horiz-adv-x="672" 
d="M305 719h-187l278 565h-333v137h534v-106z" />
    <glyph glyph-name="eight.numr" horiz-adv-x="672" 
d="M193.5 727q-64.5 24 -103.5 73.5t-39 123.5q0 59 31 103.5t82 66.5q-40 21 -62 58.5t-22 81.5q0 97 71.5 150t184.5 53t184.5 -53t71.5 -150q0 -44 -22 -81.5t-62 -58.5q52 -21 82.5 -66t30.5 -104q0 -74 -39 -123.5t-103.5 -73.5t-142.5 -24t-142.5 24zM405.5 1166.5
q25.5 22.5 25.5 58.5q0 37 -26 58.5t-69 21.5t-69 -21.5t-26 -58.5q0 -36 25.5 -58.5t69.5 -22.5t69.5 22.5zM414 860.5q33 24.5 33 68.5q0 43 -30.5 68t-80.5 25t-80.5 -25t-30.5 -68q0 -44 33.5 -68.5t77.5 -24.5q45 0 78 24.5z" />
    <glyph glyph-name="nine.numr" horiz-adv-x="672" 
d="M354 966q-28 -16 -70 -16q-63 0 -116.5 28t-85.5 82t-32 128q0 80 38.5 136.5t103.5 85t144 28.5t144 -28.5t103.5 -85t38.5 -136.5q0 -84 -50 -162l-196 -307h-188zM421.5 1105.5q33.5 30.5 33.5 77.5q0 48 -33.5 78t-85.5 30t-85 -30t-33 -78q0 -47 33 -77.5t85 -30.5
t85.5 30.5z" />
    <glyph glyph-name="uni2070" unicode="&#x2070;" horiz-adv-x="671" 
d="M126.5 1129q-75.5 90 -75.5 277t75.5 277t209.5 90t209.5 -90t75.5 -277t-75.5 -277t-209.5 -90t-209.5 90zM426.5 1238.5q33.5 53.5 33.5 167.5q0 116 -32 168.5t-92 52.5t-92 -52.5t-32 -168.5q0 -114 33.5 -167.5t90.5 -53.5t90.5 53.5z" />
    <glyph glyph-name="uni00B9" unicode="&#xb9;" horiz-adv-x="672" 
d="M459 1054h-162v564h-179v124l201 15h140v-703z" />
    <glyph glyph-name="uni00B2" unicode="&#xb2;" horiz-adv-x="672" 
d="M49 1054v83l308 245q43 36 69 70t26 72q0 42 -32.5 72t-85.5 30q-52 0 -85 -30.5t-33 -72.5v-33h-167v33q0 76 37.5 132.5t102.5 87t145 30.5t144.5 -29t102.5 -85.5t38 -135.5q0 -70 -33.5 -120.5t-94.5 -97.5l-140 -113h262v-138h-564z" />
    <glyph glyph-name="uni00B3" unicode="&#xb3;" horiz-adv-x="672" 
d="M203.5 1061q-60.5 22 -100.5 65.5t-50 104.5l166 18q8 -33 39 -55t76 -22q51 0 84.5 27.5t33.5 71.5q0 45 -27.5 73t-78.5 28h-124v83l144 165h-280v137h481v-104l-147 -167h16q48 0 90 -25.5t67.5 -73t25.5 -110.5q0 -73 -38 -127t-103 -82.5t-144 -28.5
q-70 0 -130.5 22z" />
    <glyph glyph-name="uni2074" unicode="&#x2074;" horiz-adv-x="672" 
d="M571 1055h-162v129h-364v106l227 467h183l-214 -435h175v157h155v-157h56v-138h-56v-129z" />
    <glyph glyph-name="uni2075" unicode="&#x2075;" horiz-adv-x="672" 
d="M145 1088q-78 50 -92 142l165 18q9 -33 40 -55t76 -22q51 0 84.5 28t33.5 72t-27 72.5t-79 28.5h-266v385h499v-138h-337v-118h154q62 0 113 -26t80.5 -76.5t29.5 -121.5q0 -73 -37.5 -127.5t-102.5 -83t-145 -28.5q-111 0 -189 50z" />
    <glyph glyph-name="uni2076" unicode="&#x2076;" horiz-adv-x="672" 
d="M192 1066.5q-65 28.5 -103.5 85t-38.5 136.5q0 84 50 162l196 307h189l-167 -247q30 16 70 16q63 0 116.5 -28t85.5 -82t32 -128q0 -80 -38.5 -136.5t-103.5 -85t-144 -28.5t-144 28.5zM421.5 1215q33.5 30 33.5 77q-1 48 -34 78.5t-85 30.5t-85 -30.5t-34 -78.5
q0 -47 33.5 -77t85.5 -30t85.5 30z" />
    <glyph glyph-name="uni2077" unicode="&#x2077;" horiz-adv-x="672" 
d="M305 1054h-187l278 565h-333v137h534v-106z" />
    <glyph glyph-name="uni2078" unicode="&#x2078;" horiz-adv-x="672" 
d="M193.5 1062q-64.5 24 -103.5 73.5t-39 123.5q0 59 31 103.5t82 66.5q-40 21 -62 58.5t-22 81.5q0 97 71.5 150t184.5 53t184.5 -53t71.5 -150q0 -44 -22 -81.5t-62 -58.5q52 -21 82.5 -66t30.5 -104q0 -74 -39 -123.5t-103.5 -73.5t-142.5 -24t-142.5 24zM405.5 1501.5
q25.5 22.5 25.5 58.5q0 37 -26 58.5t-69 21.5t-69 -21.5t-26 -58.5q0 -36 25.5 -58.5t69.5 -22.5t69.5 22.5zM414 1195.5q33 24.5 33 68.5q0 43 -30.5 68t-80.5 25t-80.5 -25t-30.5 -68q0 -44 33.5 -68.5t77.5 -24.5q45 0 78 24.5z" />
    <glyph glyph-name="uni2079" unicode="&#x2079;" horiz-adv-x="672" 
d="M354 1301q-30 -16 -70 -16q-63 0 -116.5 28t-85.5 82t-32 128q0 80 38.5 136.5t103.5 85t144 28.5t144 -28.5t103.5 -85t38.5 -136.5q0 -84 -50 -162l-196 -307h-188zM421.5 1441q33.5 30 33.5 78q0 47 -33.5 77t-85.5 30t-85 -30t-33 -77q0 -48 33 -78t85 -30t85.5 30z
" />
    <glyph glyph-name="fraction" unicode="&#x2044;" horiz-adv-x="205" 
d="M602 1362l-891 -1415l-108 69l890 1414z" />
    <glyph glyph-name="fraction" unicode="&#x2215;" horiz-adv-x="205" 
d="M602 1362l-891 -1415l-108 69l890 1414z" />
    <glyph glyph-name="onehalf" unicode="&#xbd;" horiz-adv-x="1550" 
d="M1275 1362l-890 -1415l-108 69l889 1414zM459 718h-162v564h-179v124l201 15h140v-703zM926 0v83l308 245q43 36 69 70t26 72q0 42 -32.5 72t-84.5 30t-85 -30.5t-33 -72.5v-33h-168v33q0 76 38 132.5t102.5 87t144.5 30.5t145 -29t102.5 -85.5t37.5 -135.5
q0 -70 -33.5 -120.5t-93.5 -97.5l-140 -113h262v-138h-565z" />
    <glyph glyph-name="uni2153" unicode="&#x2153;" horiz-adv-x="1550" 
d="M1275 1362l-890 -1415l-108 69l889 1414zM459 718h-162v564h-179v124l201 15h140v-703zM1080.5 7.5q-60.5 22.5 -100.5 65.5t-50 104l167 19q8 -33 38.5 -55.5t75.5 -22.5q52 0 85.5 28t33.5 72q0 45 -27.5 73t-79.5 28h-123v82l143 166h-280v137h481v-104l-146 -168h15
q49 0 91 -25t67 -72.5t25 -111.5q0 -72 -38 -126t-103 -83t-144 -29q-70 0 -130.5 22.5z" />
    <glyph glyph-name="uni2154" unicode="&#x2154;" horiz-adv-x="1550" 
d="M49 718v83l308 245q43 36 69 70t26 72q0 42 -32.5 72t-85.5 30q-52 0 -85 -30.5t-33 -72.5v-33h-167v33q0 76 37.5 132.5t102.5 87t145 30.5t144.5 -29t102.5 -85.5t38 -135.5q0 -70 -33.5 -120.5t-94.5 -97.5l-140 -113h262v-138h-564zM1275 1362l-890 -1415l-108 69
l889 1414zM1080.5 7.5q-60.5 22.5 -100.5 65.5t-50 104l167 19q8 -33 38.5 -55.5t75.5 -22.5q52 0 85.5 28t33.5 72q0 45 -27.5 73t-79.5 28h-123v82l143 166h-280v137h481v-104l-146 -168h15q49 0 91 -25t67 -72.5t25 -111.5q0 -72 -38 -126t-103 -83t-144 -29
q-70 0 -130.5 22.5z" />
    <glyph glyph-name="onequarter" unicode="&#xbc;" horiz-adv-x="1550" 
d="M1275 1362l-890 -1415l-108 69l889 1414zM459 718h-162v564h-179v124l201 15h140v-703zM1449 1h-162v129h-364v106l227 467h184l-214 -435h174v157h155v-157h56v-138h-56v-129z" />
    <glyph glyph-name="threequarters" unicode="&#xbe;" horiz-adv-x="1550" 
d="M1275 1362l-890 -1415l-108 69l889 1414zM203.5 726q-60.5 22 -100.5 65t-50 104l166 19q8 -33 39 -55.5t76 -22.5q51 0 84.5 28t33.5 72q0 45 -27.5 73t-78.5 28h-124v82l144 166h-280v137h481v-104l-147 -168h16q48 0 90 -25t67.5 -72.5t25.5 -111.5q0 -72 -38 -126
t-103 -82.5t-144 -28.5q-70 0 -130.5 22zM1449 1h-162v129h-364v106l227 467h184l-214 -435h174v157h155v-157h56v-138h-56v-129z" />
    <glyph glyph-name="period" unicode="." horiz-adv-x="588" 
d="M188.5 8.5q-41.5 40.5 -41.5 103.5q0 64 41 104.5t106 40.5t106 -40.5t41 -104.5q0 -63 -41.5 -103.5t-105.5 -40.5t-105.5 40.5z" />
    <glyph glyph-name="comma" unicode="," horiz-adv-x="588" 
d="M281 -238h-161l65 468h257z" />
    <glyph glyph-name="colon" unicode=":" horiz-adv-x="588" 
d="M188.5 844q-41.5 41 -41.5 104t41.5 103.5t106.5 40.5q64 0 105 -40.5t41 -103.5t-41 -104t-105 -41q-65 0 -106.5 41zM188.5 -6q-41.5 41 -41.5 105q0 63 41.5 103.5t106.5 40.5q64 0 105 -40.5t41 -103.5q0 -64 -41 -105t-105 -41q-65 0 -106.5 41z" />
    <glyph glyph-name="semicolon" unicode=";" horiz-adv-x="588" 
d="M188.5 844q-41.5 41 -41.5 104t41.5 103.5t106.5 40.5q64 0 105 -40.5t41 -103.5t-41 -104t-105 -41q-65 0 -106.5 41zM281 -238h-161l65 468h256z" />
    <glyph glyph-name="semicolon" unicode="&#x37e;" horiz-adv-x="588" 
d="M188.5 844q-41.5 41 -41.5 104t41.5 103.5t106.5 40.5q64 0 105 -40.5t41 -103.5t-41 -104t-105 -41q-65 0 -106.5 41zM281 -238h-161l65 468h256z" />
    <glyph glyph-name="ellipsis" unicode="&#x2026;" horiz-adv-x="2048" 
d="M235.5 8.5q-41.5 40.5 -41.5 103.5q0 64 41 104.5t106 40.5t106.5 -40.5t41.5 -104.5q0 -63 -41.5 -103.5t-106.5 -40.5q-64 0 -105.5 40.5zM918.5 8.5q-41.5 40.5 -41.5 103.5q0 64 41 104.5t106 40.5t106.5 -40.5t41.5 -104.5q0 -63 -41.5 -103.5t-106.5 -40.5
q-64 0 -105.5 40.5zM1601.5 8.5q-41.5 40.5 -41.5 103.5q0 64 41 104.5t106 40.5t106.5 -40.5t41.5 -104.5q0 -63 -41.5 -103.5t-106.5 -40.5q-64 0 -105.5 40.5z" />
    <glyph glyph-name="exclam" unicode="!" horiz-adv-x="588" 
d="M386 407h-184l-21 1031h226zM188 7q-41 39 -41 100q0 60 41.5 99t105.5 39t105.5 -39t41.5 -99q0 -61 -41 -100t-106 -39t-106 39z" />
    <glyph glyph-name="exclamdown" unicode="&#xa1;" horiz-adv-x="588" 
d="M188.5 868q-41.5 39 -41.5 99q0 61 41 100t106 39t106 -39t41 -100q0 -60 -41.5 -99t-105.5 -39t-105.5 39zM407 -364h-226l21 1031h184z" />
    <glyph glyph-name="question" unicode="?" horiz-adv-x="941" 
d="M315 407q0 75 27 139t65 113t100 117q50 54 78.5 89.5t48 76.5t19.5 84q0 86 -52.5 142t-154.5 56q-64 0 -112 -31.5t-75 -86t-30 -121.5l-224 9q6 124 60.5 225t152 160t228.5 59q136 0 233.5 -49t148 -139.5t50.5 -212.5q0 -79 -29 -147t-70 -120t-107 -122
q-51 -54 -79.5 -88.5t-47.5 -73.5t-19 -79h-211zM317 7q-41 39 -41 100q0 60 41.5 99t105.5 39q65 0 106.5 -39t41.5 -99q0 -61 -41.5 -100t-106.5 -39t-106 39z" />
    <glyph glyph-name="questiondown" unicode="&#xbf;" horiz-adv-x="941" 
d="M413 868q-42 39 -42 99q0 61 41.5 100t106.5 39t106.5 -39t41.5 -100q0 -60 -42 -99t-106 -39t-106 39zM263 -315q-97 49 -147.5 139t-50.5 213q0 79 29 147t70.5 121t106.5 122q51 55 79 89t47 72.5t19 78.5h212q0 -75 -27 -139t-65.5 -113.5t-100.5 -116.5
q-50 -54 -78.5 -89.5t-48 -76.5t-19.5 -84q0 -86 53 -142.5t154 -56.5q65 0 113 32t74.5 86.5t29.5 121.5l224 -9q-6 -124 -60 -225t-152 -160t-229 -59q-136 0 -233 49z" />
    <glyph glyph-name="periodcentered" unicode="&#xb7;" horiz-adv-x="588" 
d="M188.5 442.5q-41.5 40.5 -41.5 103.5t41.5 103.5t105.5 40.5t105.5 -40.5t41.5 -103.5t-41.5 -103.5t-105.5 -40.5t-105.5 40.5z" />
    <glyph glyph-name="periodcentered" unicode="&#x2219;" horiz-adv-x="588" 
d="M188.5 442.5q-41.5 40.5 -41.5 103.5t41.5 103.5t105.5 40.5t105.5 -40.5t41.5 -103.5t-41.5 -103.5t-105.5 -40.5t-105.5 40.5z" />
    <glyph glyph-name="bullet" unicode="&#x2022;" horiz-adv-x="740" 
d="M250 487q-53 29 -82.5 81t-29.5 118q0 65 29.5 117t82.5 81t120 29t120 -29t82.5 -81t29.5 -117q0 -66 -29.5 -118t-82.5 -81t-120 -29t-120 29z" />
    <glyph glyph-name="asterisk" unicode="*" horiz-adv-x="730" 
d="M424 714h-134v240l-207 -120l-67 116l209 119l-204 128l66 114l203 -126v239h134v-239l207 119l67 -115l-209 -120l205 -127l-68 -115l-202 126v-239z" />
    <glyph glyph-name="numbersign" unicode="#" 
d="M323 -32h-192l91 389h-134v183h179l75 328h-254v182h299l91 388h192l-91 -388h254l91 388h192l-91 -388h124v-182h-170l-74 -328h244v-183h-289l-92 -389h-192l92 389h-254zM534 868l-75 -328h254l74 328h-253z" />
    <glyph glyph-name="slash" unicode="/" horiz-adv-x="743" 
d="M797 1461l-732 -1571l-119 56l732 1570z" />
    <glyph glyph-name="backslash" unicode="\" horiz-adv-x="743" 
d="M797 -54l-119 -56l-732 1571l119 55z" />
    <glyph glyph-name="parenleft" unicode="(" horiz-adv-x="631" 
d="M503 -305q-154 181 -237.5 434t-83.5 574q0 322 83.5 574.5t237.5 433.5l115 -77q-104 -178 -165 -414t-61 -517t61 -517.5t165 -413.5z" />
    <glyph glyph-name="parenright" unicode=")" horiz-adv-x="631" 
d="M13 -228q103 177 163.5 413t60.5 518t-60 518t-164 413l115 77q154 -181 237.5 -433.5t83.5 -574.5q0 -321 -83.5 -574t-237.5 -434z" />
    <glyph glyph-name="braceleft" unicode="{" horiz-adv-x="631" 
d="M505 -282q-79 0 -142 29t-98.5 84.5t-35.5 131.5v536q0 123 -127 123h-26v163h26q60 1 93.5 28.5t33.5 94.5v535q0 76 35.5 131.5t98.5 84.5t142 29h50v-167h-39q-41 0 -64 -22t-23 -68v-526q0 -68 -33 -125.5t-89 -76.5q56 -19 89 -76.5t33 -125.5v-526q0 -46 23 -68
t64 -22h39v-167h-50z" />
    <glyph glyph-name="braceright" unicode="}" horiz-adv-x="631" 
d="M76 -282v167h40q40 0 63 22t23 68v526q0 68 33.5 125.5t88.5 76.5q-55 19 -88.5 76.5t-33.5 125.5v526q0 46 -23 68t-63 22h-40v167h50q80 0 142.5 -29t98 -84.5t35.5 -131.5v-535q0 -67 34 -94.5t94 -28.5h25v-163h-26q-127 0 -127 -123v-536q0 -76 -35.5 -131.5
t-98 -84.5t-142.5 -29h-50z" />
    <glyph glyph-name="bracketleft" unicode="[" horiz-adv-x="631" 
d="M566 -282h-371v1970h371v-167h-171v-1636h171v-167z" />
    <glyph glyph-name="bracketright" unicode="]" horiz-adv-x="631" 
d="M436 -282h-371v167h171v1636h-171v167h371v-1970z" />
    <glyph glyph-name="hyphenminus" unicode="-" horiz-adv-x="734" 
d="M632 422h-529v201h529v-201z" />
    <glyph glyph-name="hyphenminus" unicode="&#xad;" horiz-adv-x="734" 
d="M632 422h-529v201h529v-201z" />
    <glyph glyph-name="hyphen" unicode="&#x2010;" horiz-adv-x="734" 
d="M632 422h-529v201h529v-201z" />
    <glyph glyph-name="endash" unicode="&#x2013;" 
d="M1142 428h-1047v201h1047v-201z" />
    <glyph glyph-name="emdash" unicode="&#x2014;" horiz-adv-x="2048" 
d="M2049 428h-2048v201h2048v-201z" />
    <glyph glyph-name="figuredash" unicode="&#x2012;" 
d="M1142 617h-1047v201h1047v-201z" />
    <glyph glyph-name="uni2011" unicode="&#x2011;" horiz-adv-x="734" 
d="M632 422h-529v201h529v-201z" />
    <glyph glyph-name="underscore" unicode="_" 
d="M1325 -462h-1412v124h1412v-124z" />
    <glyph glyph-name="quotesinglbase" unicode="&#x201a;" horiz-adv-x="588" 
d="M280 -239h-160l64 469h257z" />
    <glyph glyph-name="quotedblbase" unicode="&#x201e;" horiz-adv-x="945" 
d="M280 -239h-160l64 469h257zM636 -239h-160l64 469h258z" />
    <glyph glyph-name="quotedblleft" unicode="&#x201c;" horiz-adv-x="945" 
d="M405 1036h-258l162 469h159zM761 1036h-257l161 469h160z" />
    <glyph glyph-name="quotedblright" unicode="&#x201d;" horiz-adv-x="945" 
d="M280 1036h-160l65 469h257zM637 1036h-161l65 469h257z" />
    <glyph glyph-name="quoteleft" unicode="&#x2018;" horiz-adv-x="588" 
d="M405 1036h-258l162 469h159z" />
    <glyph glyph-name="quoteright" unicode="&#x2019;" horiz-adv-x="588" 
d="M280 1036h-160l65 469h257z" />
    <glyph glyph-name="guillemotleft" unicode="&#xab;" horiz-adv-x="1226" 
d="M604 85h-205l-268 461l268 461h205l-265 -461zM1049 85h-205l-268 461l268 461h205l-264 -461z" />
    <glyph glyph-name="guillemotright" unicode="&#xbb;" horiz-adv-x="1226" 
d="M382 85h-205l264 461l-264 461h205l268 -461zM827 85h-205l265 461l-265 461h205l268 -461z" />
    <glyph glyph-name="guilsinglleft" unicode="&#x2039;" horiz-adv-x="781" 
d="M603 85h-204l-268 461l268 461h204l-264 -461z" />
    <glyph glyph-name="guilsinglright" unicode="&#x203a;" horiz-adv-x="781" 
d="M382 85h-205l264 461l-264 461h205l267 -461z" />
    <glyph glyph-name="quotedbl" unicode="&#x22;" horiz-adv-x="532" 
d="M203 1043h-129l-7 479h142zM458 1043h-129l-7 479h142z" />
    <glyph glyph-name="quotesingle" unicode="'" horiz-adv-x="276" 
d="M202 1044h-129l-6 479h142z" />
    <glyph glyph-name="cent" unicode="&#xa2;" 
d="M572 147q-149 18 -261 94t-173 196t-61 267q0 146 62 267t174.5 197t258.5 92v146h136v-143q155 -16 273 -107t172 -232l-192 -75q-41 95 -125.5 153.5t-190.5 58.5q-100 0 -178.5 -45.5t-122.5 -127t-44 -184.5t44 -184.5t122.5 -127.5t178.5 -46q108 0 193 60t124 154
l198 -77q-53 -139 -171.5 -228.5t-280.5 -110.5v-144h-136v147z" />
    <glyph glyph-name="currency" unicode="&#xa4;" 
d="M229 214l-99 99l166 166q-69 96 -69 224t69 224l-166 166l99 98l166 -166q95 70 224 70q128 0 224 -70l166 166l98 -98l-165 -166q69 -96 69 -224t-69 -224l165 -166l-98 -99l-166 167q-100 -71 -224 -71q-63 0 -120 18.5t-104 52.5zM731.5 508.5q49.5 28.5 77 79
t27.5 115.5q0 64 -27.5 115t-77 79.5t-112.5 28.5q-62 0 -111.5 -28.5t-77 -79.5t-27.5 -115q0 -65 27.5 -115.5t77 -79t111.5 -28.5q63 0 112.5 28.5z" />
    <glyph glyph-name="dollar" unicode="$" horiz-adv-x="1237" 
d="M562 -41q-132 14 -225.5 70t-143.5 142.5t-56 192.5h223q12 -105 81 -163.5t177 -58.5q78 0 131.5 28.5t80 75.5t26.5 103q-1 74 -42 128t-130 94l-245 109q-133 59 -194.5 142t-61.5 221q0 97 46 178.5t132.5 133.5t203.5 63v132h129v-131q126 -15 213.5 -70.5t131 -138
t46.5 -177.5h-219q-4 57 -31 103t-76 73t-116 27q-70 0 -119 -26t-74 -69.5t-25 -95.5q0 -63 38.5 -107.5t121.5 -83.5l235 -104q99 -45 160 -97.5t91 -125t30 -174.5q0 -104 -50.5 -189.5t-143.5 -139.5t-217 -65v-131h-128v131z" />
    <glyph glyph-name="Euro" unicode="&#x20ac;" 
d="M652 27.5q-142 59.5 -243.5 173t-145.5 269.5h-193l35 129h134q-8 50 -8 104q0 53 8 103h-169l35 129h158q44 157 145.5 270.5t243.5 173t308 59.5q50 0 108.5 -6.5t103.5 -18.5l-51 -190q-64 20 -161 20q-162 0 -284.5 -81t-172.5 -227h541l-35 -128h-557
q-9 -49 -9 -104q0 -54 9 -104h502l-35 -129h-416q33 -97 100 -166t158.5 -105t198.5 -36q95 0 161 19l51 -189q-44 -12 -102.5 -18.5t-109.5 -6.5q-166 0 -308 59.5z" />
    <glyph glyph-name="uni20B9" unicode="&#x20b9;" 
d="M759 0l-365 544h-255v181h305q117 0 195 56.5t91 160.5h-617l34 129h590q-16 100 -88.5 152.5t-199.5 53.5h-336l34 129h987l-35 -129h-302q117 -58 129 -206h208l-35 -129h-163q-7 -153 -93 -245t-229 -121l390 -576h-245z" />
    <glyph glyph-name="sterling" unicode="&#xa3;" 
d="M85 0v192h166v381h-166v132h166v319q0 122 53 216t147.5 146t216.5 52q121 0 213.5 -52t143.5 -146t51 -216h-205q0 60 -26.5 110t-73 79.5t-103.5 29.5t-104 -29.5t-73.5 -80t-26.5 -109.5l-1 -319h455v-132h-455l-1 -381h712v-192h-1089z" />
    <glyph glyph-name="uni20BA" unicode="&#x20ba;" 
d="M289 0v617l-213 -58v134l213 57v213l-213 -56v133l213 57v309h212v-252l474 127v-134l-474 -127v-213l474 127v-134l-474 -126v-480h69q126 0 211.5 51.5t127.5 143.5t43 214h211q0 -180 -63 -315.5t-193 -211.5t-325 -76h-293z" />
    <glyph glyph-name="yen" unicode="&#xa5;" 
d="M725 0h-212v354h-394v131l394 1v178l-24 41h-370v131h303l-328 570h251l274 -512l274 512h251l-328 -570h303v-131h-369l-25 -41v-179h394v-131h-394v-354z" />
    <glyph glyph-name="plus" unicode="+" 
d="M718 204h-198v383h-382v190h382v384h198v-384h381v-190h-381v-383z" />
    <glyph glyph-name="minus" unicode="&#x2212;" 
d="M1004 608h-770v191h770v-191z" />
    <glyph glyph-name="multiply" unicode="&#xd7;" horiz-adv-x="1251" 
d="M625 568l-272 -271l-134 134l271 272l-271 272l134 134l271 -272l273 272l134 -134l-271 -272l271 -272l-134 -134z" />
    <glyph glyph-name="divide" unicode="&#xf7;" horiz-adv-x="1251" 
d="M533 990.5q-36 35.5 -36 90.5t36 90.5t92 35.5t92.5 -35.5t36.5 -90.5t-36.5 -90.5t-92.5 -35.5t-92 35.5zM1081 608h-912v190h912v-190zM533 234.5q-36 35.5 -36 90.5q0 56 36 91.5t92 35.5t92.5 -36t36.5 -91t-36.5 -90.5t-92.5 -35.5t-92 35.5z" />
    <glyph glyph-name="equal" unicode="=" 
d="M1099 810h-961v190h961v-190zM1099 379h-961v189h961v-189z" />
    <glyph glyph-name="notequalto" unicode="&#x2260;" horiz-adv-x="1237" 
d="M484 -32h-133l110 410h-342v191h393l79 295h-472v190h523l103 384h133l-103 -384h342v-190h-393l-78 -295h471v-191h-523z" />
    <glyph glyph-name="greater" unicode="&#x3e;" 
d="M1155 600l-1072 -414v200l800 303l-800 303v199l1072 -413v-178z" />
    <glyph glyph-name="less" unicode="&#x3c;" 
d="M1155 386v-200l-1072 414v178l1072 413v-199l-801 -303z" />
    <glyph glyph-name="greaterthanorequalto" unicode="&#x2265;" 
d="M1155 730l-1072 -414v201l800 302l-800 303v200l1072 -413v-179zM1142 84h-1059v142h1059v-142z" />
    <glyph glyph-name="lessthanorequalto" unicode="&#x2264;" 
d="M1155 517v-201l-1072 414v179l1072 413v-200l-801 -303zM1155 84h-1059v142h1059v-142z" />
    <glyph glyph-name="plusminus" unicode="&#xb1;" 
d="M718 295h-198v371h-381v190h381v383h198v-383h381v-190h-381v-371zM1099 0h-960v141h960v-141z" />
    <glyph glyph-name="almostequalto" unicode="&#x2248;" 
d="M772 791q-56 11 -147 33q-87 22 -146.5 33.5t-108.5 11.5q-71 0 -120 -10.5t-78.5 -25.5t-64.5 -39v190q77 74 256 74q47 0 104.5 -12t144.5 -35q93 -24 150 -35.5t105 -11.5q71 0 120 11.5t76.5 26.5t68.5 42v-191q-39 -34 -100.5 -53.5t-156.5 -19.5q-47 0 -103 11z
M772 360q-56 11 -147 33q-87 22 -146.5 33.5t-108.5 11.5q-71 0 -120 -10.5t-78 -25.5t-65 -39v190q78 73 256 73q47 0 102.5 -11t146.5 -33q93 -23 150 -34t105 -11q71 0 120 10.5t78.5 25.5t66.5 39v-190q-38 -35 -99.5 -54t-157.5 -19q-47 0 -103 11z" />
    <glyph glyph-name="asciitilde" unicode="~" 
d="M698 570q-41 15 -100 46q-49 26 -81 38.5t-67 12.5q-44 0 -84.5 -26.5t-60.5 -64.5l-106 121q46 78 106 116t143 38q51 0 93 -15.5t97 -45.5q49 -26 81.5 -38.5t68.5 -12.5q44 0 84.5 26.5t60.5 65.5l106 -122q-46 -78 -106 -116t-142 -38q-52 0 -93 15z" />
    <glyph glyph-name="logicalnot" unicode="&#xac;" 
d="M1218 465h-197v285h-1022v191h1219v-476z" />
    <glyph glyph-name="asciicircum" unicode="^" 
d="M317 591h-229l429 815h205l428 -815h-229l-303 594z" />
    <glyph glyph-name="infinity" unicode="&#x221e;" horiz-adv-x="1679" 
d="M1077.5 338q-65.5 30 -115.5 74t-122 120l-59 60l-51 -52q-64 -67 -105 -102t-96 -57t-129 -22q-93 0 -171 46.5t-123.5 125.5t-45.5 174q0 93 45.5 171.5t123.5 124.5t171 46q75 0 129.5 -21t95 -55.5t102.5 -98.5l54 -55q21 20 61 62q70 74 120.5 117.5t116 73
t144.5 29.5q108 0 199 -53t144 -143.5t53 -197.5q0 -109 -53 -200t-144 -144t-199 -53q-80 0 -145.5 30zM1342.5 501.5q53.5 31.5 85 85.5t31.5 118t-31.5 117.5t-85 85t-117.5 31.5q-52 0 -100.5 -25.5t-87 -61.5t-91.5 -94q-26 -29 -50 -53q16 -16 48 -52q54 -59 93 -95
t87.5 -62t100.5 -26q64 0 117.5 31.5zM482 539q37 17 66 43t73 73q22 25 47 50l-48 50q-43 47 -72 72.5t-66 42.5t-83 17q-50 0 -91 -24.5t-64.5 -66.5t-23.5 -91q0 -50 23.5 -92t64.5 -66.5t91 -24.5q46 0 83 17z" />
    <glyph glyph-name="integral" unicode="&#x222b;" horiz-adv-x="752" 
d="M140 -273v167h39q41 0 64 22t23 68v1449q0 116 68.5 181t188.5 65h89v-167h-39q-42 0 -65 -22t-23 -68v-1450q0 -116 -68 -180.5t-188 -64.5h-89z" />
    <glyph glyph-name="uni2206" unicode="&#x2206;" horiz-adv-x="1545" 
d="M1460 0h-1376l688 1513zM772 1060l-376 -863h751z" />
    <glyph glyph-name="naryproduct" unicode="&#x220f;" horiz-adv-x="1688" 
d="M419 -430h-219v1952h1288v-1952h-219v1754h-850v-1754z" />
    <glyph glyph-name="narysummation" unicode="&#x2211;" horiz-adv-x="1356" 
d="M1259 -430h-1145v133l619 908l-619 788v123h1145v-198h-838l572 -713l-589 -855h855v-186z" />
    <glyph glyph-name="squareroot" unicode="&#x221a;" horiz-adv-x="1367" 
d="M860 0h-132l-303 920l-335 -89l-51 189l514 139l227 -716l403 1511h202z" />
    <glyph glyph-name="uni00B5" unicode="&#xb5;" horiz-adv-x="1270" 
d="M171 -430v1504h225v-646q0 -70 26 -126.5t76.5 -90t120.5 -33.5q76 0 134 37.5t89 102t31 143.5v613h225v-1074h-202v170q-34 -94 -104.5 -148t-178.5 -54q-85 0 -143 37.5t-95 106.5v-542h-204z" />
    <glyph glyph-name="uni00B5" unicode="&#x3bc;" horiz-adv-x="1270" 
d="M171 -430v1504h225v-646q0 -70 26 -126.5t76.5 -90t120.5 -33.5q76 0 134 37.5t89 102t31 143.5v613h225v-1074h-202v170q-34 -94 -104.5 -148t-178.5 -54q-85 0 -143 37.5t-95 106.5v-542h-204z" />
    <glyph glyph-name="partialdifferential" unicode="&#x2202;" horiz-adv-x="1280" 
d="M297 22q-102 54 -158 150t-56 220q0 163 72.5 285.5t202 188t294.5 65.5q89 0 180 -31t151 -83q3 48 3 67q-1 101 -45.5 183t-132.5 130t-213 48q-83 0 -160 -37l-60 183q111 47 241 47q195 0 325.5 -78.5t193 -212t62.5 -302.5q0 -215 -67.5 -415.5t-217 -331
t-379.5 -130.5q-134 0 -236 54zM768 223q85 71 129.5 179t58.5 228q-62 56 -151 88.5t-176 32.5q-101 0 -175 -42.5t-113.5 -119t-39.5 -176.5q0 -73 30 -132.5t88 -94t138 -34.5q126 0 211 71z" />
    <glyph glyph-name="percent" unicode="%" horiz-adv-x="1868" 
d="M1433 1362l-889 -1415l-109 69l890 1414zM264.5 682q-90.5 51 -141.5 141t-51 205t51 205t141.5 140.5t205.5 50.5t205.5 -50.5t141.5 -140.5t51 -205t-51 -205t-141.5 -141t-205.5 -51t-205.5 51zM584 830.5q50 28.5 78.5 80t28.5 117.5q0 65 -28.5 116.5t-78.5 80.5
t-114 29t-114 -29t-78.5 -80.5t-28.5 -116.5q0 -66 28.5 -117.5t78.5 -80t114 -28.5t114 28.5zM1193.5 4q-90.5 51 -141 141.5t-50.5 205.5t50.5 205t141 140.5t205.5 50.5t205.5 -50.5t141.5 -140.5t51 -205t-51 -205.5t-141.5 -141.5t-205.5 -51t-205.5 51zM1513 153.5
q50 28.5 78 80t28 117.5q0 65 -28 116.5t-78 80.5t-114 29t-114 -29t-78 -80.5t-28 -116.5q0 -66 28 -117.5t78 -80t114 -28.5t114 28.5z" />
    <glyph glyph-name="perthousand" unicode="&#x2030;" horiz-adv-x="2766" 
d="M1433 1362l-889 -1415l-109 69l890 1414zM264.5 682q-90.5 51 -141.5 141t-51 205t51 205t141.5 140.5t205.5 50.5t205.5 -50.5t141.5 -140.5t51 -205t-51 -205t-141.5 -141t-205.5 -51t-205.5 51zM584 830.5q50 28.5 78.5 80t28.5 117.5q0 65 -28.5 116.5t-78.5 80.5
t-114 29t-114 -29t-78.5 -80.5t-28.5 -116.5q0 -66 28.5 -117.5t78.5 -80t114 -28.5t114 28.5zM1193.5 4q-90.5 51 -141 141.5t-50.5 205.5t50.5 205t141 140.5t205.5 50.5t205.5 -50.5t141.5 -140.5t51 -205t-51 -205.5t-141.5 -141.5t-205.5 -51t-205.5 51zM2091 4
q-90 51 -141 141.5t-51 205.5t51 205t141 140.5t205 50.5t205.5 -50.5t141.5 -140.5t51 -205t-51 -205.5t-141.5 -141.5t-205.5 -51t-205 51zM1513 153.5q50 28.5 78 80t28 117.5q0 65 -28 116.5t-78 80.5t-114 29t-114 -29t-78 -80.5t-28 -116.5q0 -66 28 -117.5t78 -80
t114 -28.5t114 28.5zM2410 153.5q50 28.5 78 80t28 117.5q0 65 -28 116.5t-78 80.5t-114 29t-114 -29t-78 -80.5t-28 -116.5q0 -66 28 -117.5t78 -80t114 -28.5t114 28.5z" />
    <glyph glyph-name="arrowup" unicode="&#x2191;" horiz-adv-x="1014" 
d="M572 0h-130v1228l-161 -167l-74 73l300 300l300 -300l-74 -73l-161 167v-1228z" />
    <glyph glyph-name="uni2197" unicode="&#x2197;" horiz-adv-x="1674" 
d="M1267 1055l-867 -870l-94 94l870 867l-233 -4l-1 104h425v-425l-104 1z" />
    <glyph glyph-name="arrowright" unicode="&#x2192;" horiz-adv-x="1674" 
d="M1582 479l-300 -300l-73 74l167 161h-1256v130h1256l-167 161l73 74z" />
    <glyph glyph-name="uni2198" unicode="&#x2198;" horiz-adv-x="1674" 
d="M1367 187h-425l1 104l233 -4l-870 867l94 94l867 -869l-4 232l104 1v-425z" />
    <glyph glyph-name="arrowdown" unicode="&#x2193;" horiz-adv-x="1014" 
d="M807 272l-300 -300l-300 300l74 73l161 -167v1228h130v-1228l161 167z" />
    <glyph glyph-name="uni2199" unicode="&#x2199;" horiz-adv-x="1674" 
d="M732 187h-425v425l104 -1l-4 -232l867 869l94 -94l-869 -867l232 4z" />
    <glyph glyph-name="arrowleft" unicode="&#x2190;" horiz-adv-x="1674" 
d="M465 253l-73 -74l-300 300l300 300l73 -74l-167 -161h1256v-130h-1256z" />
    <glyph glyph-name="uni2196" unicode="&#x2196;" horiz-adv-x="1674" 
d="M1368 279l-94 -94l-867 870l4 -233l-104 -1v425h425l-1 -104l-232 4z" />
    <glyph glyph-name="arrowboth" unicode="&#x2194;" horiz-adv-x="1674" 
d="M465 253l-73 -74l-300 300l300 300l73 -74l-167 -161h1078l-167 161l73 74l300 -300l-300 -300l-73 74l167 161h-1078z" />
    <glyph glyph-name="arrowupdn" unicode="&#x2195;" horiz-adv-x="1014" 
d="M807 272l-300 -300l-300 300l74 73l161 -167v1050l-161 -167l-74 73l300 300l300 -300l-74 -73l-161 167v-1050l161 167z" />
    <glyph glyph-name="lozenge" unicode="&#x25ca;" horiz-adv-x="1099" 
d="M654 -31h-209l-369 734l369 735h209l370 -735zM280 703l270 -568l271 568l-271 569z" />
    <glyph glyph-name="at" unicode="@" horiz-adv-x="2045" 
d="M568 -336.5q-226 125.5 -352 342.5t-126 482q0 264 125 481.5t345.5 343t495.5 125.5q265 0 469 -108.5t316 -298t112 -424.5q0 -146 -39 -269.5t-132.5 -202t-248.5 -78.5q-201 0 -226 158q-56 -79 -140.5 -118.5t-176.5 -39.5q-115 0 -204.5 55t-139.5 153t-50 223
t50 223t139.5 153t204.5 55q83 0 154 -31t119 -84v91h173v-542q0 -67 27.5 -106.5t78.5 -39.5q123 0 176 105.5t53 294.5q0 178 -88.5 329t-251.5 240.5t-375 89.5q-224 0 -402.5 -102t-279.5 -279.5t-101 -396.5t104 -396.5t288 -279.5t414 -102q129 0 250 33.5t220.5 97
t164.5 149.5l112 -132q-128 -149 -324 -234.5t-423 -85.5q-285 0 -511 125.5zM1144 252q57 32 90.5 92.5t33.5 143.5q0 82 -33.5 143t-90.5 93.5t-125 32.5q-73 0 -130 -34.5t-88.5 -96t-31.5 -138.5t31.5 -138t88.5 -95.5t130 -34.5q68 0 125 32z" />
    <glyph glyph-name="ampersand" unicode="&#x26;" horiz-adv-x="1400" 
d="M284.5 22.5q-97.5 54.5 -148 144.5t-50.5 196q0 114 53.5 202t143.5 146l137 93l-96 110q-35 41 -53.5 95t-18.5 110q0 88 45 161t129 115.5t194 42.5t192 -42t126 -114.5t44 -162.5q0 -77 -39 -148.5t-108 -117.5l-119 -81l229 -265l236 295l146 -124l-252 -313
l327 -367h-268l-191 219q-79 -88 -131 -136.5t-125 -80.5t-170 -32q-135 0 -232.5 54.5zM708 992q29 21 46.5 54.5t17.5 69.5q0 41 -20.5 75.5t-56 54.5t-78.5 20q-42 0 -77.5 -20t-56.5 -54.5t-21 -75.5q0 -53 33 -97l93 -108zM642.5 192.5q46.5 22.5 79.5 56.5t78 92
q4 6 14 18l-267 307l-132 -91q-46 -31 -74 -81t-28 -104q0 -59 29.5 -109.5t80.5 -80.5t112 -30t107.5 22.5z" />
    <glyph glyph-name="paragraph" unicode="&#xb6;" horiz-adv-x="1139" 
d="M444 807q-97 0 -179 48t-130 130t-48 179t48 179t130 130.5t179 48.5h556v-1952h-137v1821h-281v-1821h-138v1237z" />
    <glyph glyph-name="section" unicode="&#xa7;" 
d="M377.5 -414.5q-104.5 47.5 -167 143.5t-71.5 238h215q5 -73 41 -125.5t94 -79.5t131 -27q72 0 128 30.5t86.5 80t30.5 105.5q0 72 -40 118.5t-100.5 73.5t-167.5 62q-143 46 -232.5 91t-153 137t-63.5 244q0 151 83 257q-50 81 -50 207q0 115 58 209t166 149t252 55
q135 0 241 -48.5t169 -145t71 -235.5h-216q-5 72 -40 124.5t-93.5 80t-131.5 27.5q-72 0 -128 -30.5t-86.5 -80.5t-30.5 -105q0 -73 40.5 -119.5t101 -73.5t167.5 -62q142 -46 231.5 -91t153 -136.5t63.5 -243.5q0 -149 -82 -258q49 -80 49 -206q0 -115 -58.5 -209
t-166.5 -149t-251 -55q-138 0 -242.5 47.5zM892 415q0 85 -38 137.5t-93 81t-150 61.5q-84 30 -134.5 53.5t-89.5 60.5q-42 -54 -42 -132q0 -85 38 -138.5t93.5 -82t149.5 -60.5q84 -30 134.5 -53.5t89.5 -60.5q42 58 42 133z" />
    <glyph glyph-name="copyright" unicode="&#xa9;" horiz-adv-x="1663" 
d="M454.5 67q-168.5 99 -267.5 267.5t-99 368.5t99 368.5t267.5 267.5t368.5 99t368.5 -99t267.5 -267.5t99 -368.5t-99 -368.5t-267.5 -267.5t-368.5 -99t-368.5 99zM1127.5 178.5q139.5 81.5 221 220.5t81.5 304t-81.5 304.5t-221 221t-304.5 81.5q-164 0 -303.5 -81.5
t-221 -221t-81.5 -304.5t81.5 -304t221 -220.5t303.5 -81.5q165 0 304.5 81.5zM643.5 377q-84.5 48 -132 133t-47.5 193t47.5 193t132 133t190.5 48q121 0 212.5 -61t130.5 -165l-122 -47q-28 69 -87 111.5t-134 42.5q-68 0 -123 -32t-86.5 -90t-31.5 -133q0 -74 31.5 -132
t86.5 -90t123 -32q76 0 134.5 42.5t86.5 112.5l122 -46q-37 -105 -129 -167t-214 -62q-106 0 -190.5 48z" />
    <glyph glyph-name="registered" unicode="&#xae;" horiz-adv-x="1680" 
d="M471.5 67q-168.5 99 -267.5 267.5t-99 368.5t99 368.5t267.5 267.5t368.5 99t368.5 -99t267.5 -267.5t99 -368.5t-99 -368.5t-267.5 -267.5t-368.5 -99t-368.5 99zM1144.5 178.5q139.5 81.5 221 220.5t81.5 304t-81.5 304.5t-221 221t-304.5 81.5q-164 0 -303.5 -81.5
t-221 -221t-81.5 -304.5t81.5 -304t221 -220.5t303.5 -81.5q165 0 304.5 81.5zM616 353v700h227q114 0 174.5 -53.5t60.5 -155.5q0 -66 -35.5 -108t-92.5 -60l239 -323h-147l-207 281h-99v-281h-120zM839 742q53 0 85.5 25.5t32.5 76.5q0 53 -30 77t-88 24h-103v-203h103z
" />
    <glyph glyph-name="trademark" unicode="&#x2122;" horiz-adv-x="1751" 
d="M374 645h-140v635h-249v126h637v-126h-248v-635zM833 645h-141l100 761h146l232 -566l232 566h146l100 -761h-141l-65 527l-223 -527h-98l-223 526z" />
    <glyph glyph-name="degree" unicode="&#xb0;" horiz-adv-x="732" 
d="M218 1007.5q-67 38.5 -105.5 105.5t-38.5 149q0 81 38.5 148t105.5 105.5t148 38.5q82 0 148.5 -38.5t105 -105.5t38.5 -148q0 -82 -38.5 -149t-105 -105.5t-148.5 -38.5q-81 0 -148 38.5zM438.5 1134q33.5 20 53 54t19.5 74t-19.5 74t-53 54t-72.5 20t-72.5 -20t-53 -54
t-19.5 -74t19.5 -74t53 -54t72.5 -20t72.5 20z" />
    <glyph glyph-name="bar" unicode="|" horiz-adv-x="512" 
d="M325 -462h-138v2016h138v-2016z" />
    <glyph glyph-name="brokenbar" unicode="&#xa6;" horiz-adv-x="512" 
d="M325 670h-138v884h138v-884zM325 -462h-138v883h138v-883z" />
    <glyph glyph-name="uni2113" unicode="&#x2113;" horiz-adv-x="857" 
d="M343 -2q-44 30 -63 90.5t-19 157.5v320l-96 -72l-47 63l143 106v524q1 174 66 262t188 88q61 0 111.5 -34.5t80.5 -106.5t30 -179q0 -133 -42 -229.5t-102.5 -158.5t-147.5 -127l-45 -33v-421q0 -60 8.5 -94t30 -49.5t60.5 -15.5q45 0 89.5 31.5t97.5 92.5l52 -59
q-79 -93 -142 -139.5t-132 -46.5q-77 0 -121 30zM440 796q85 64 147 162t62 241q0 95 -34 155.5t-91 60.5t-90.5 -60t-33.5 -164v-424z" />
    <glyph glyph-name="dagger" unicode="&#x2020;" 
d="M689 0h-141v933h-332v141h332v332h141v-332h333v-141h-333v-933z" />
    <glyph glyph-name="daggerdbl" unicode="&#x2021;" 
d="M689 0h-141v332h-332v141h332v460h-332v141h332v332h141v-332h333v-141h-333v-460h333v-141h-333v-332z" />
    <glyph glyph-name="estimated" unicode="&#x212e;" horiz-adv-x="1752" 
d="M502.5 66.5q-171.5 98.5 -272 267.5t-100.5 369t100.5 369t272 267.5t373.5 98.5t373.5 -98.5t272 -267t100.5 -369.5v-45h-1265v-338q89 -126 225.5 -197t293.5 -71q174 0 323.5 87t239.5 239l81 -47q-66 -110 -165 -191.5t-222 -126.5t-257 -45q-202 0 -373.5 98.5z
M357 741h1037v346q-88 125 -224 196t-294 71q-157 0 -293.5 -71t-225.5 -196v-346z" />
    <glyph glyph-name="ampersand.ss03" horiz-adv-x="1412" 
d="M331.5 24q-111.5 56 -175.5 159t-64 238q0 136 56.5 233t151.5 148t213 58l-288 400v146h889v-196h-617l504 -707q23 70 32.5 152.5t9.5 205.5h279v-174h-120q-11 -234 -70 -372l222 -315h-237l-118 165q-151 -197 -419 -197q-137 0 -248.5 56zM769 198q74 40 120 125
l-267 375q-149 -2 -228 -72t-79 -199q0 -77 39.5 -138.5t104 -96t134.5 -34.5q102 0 176 40z" />
    <glyph glyph-name="uni02F7" unicode="&#x2f7;" horiz-adv-x="1024" 
d="M571 -368.5q-34 15.5 -76 44.5q-38 24 -61.5 35.5t-51.5 11.5q-35 0 -66 -24t-47 -61l-103 92q28 73 83.5 116.5t124.5 43.5q44 0 77.5 -15t76.5 -44q36 -25 60.5 -36.5t53.5 -11.5q34 0 65.5 24.5t46.5 60.5l104 -92q-29 -73 -84.5 -116.5t-124.5 -43.5q-44 0 -78 15.5z
" />
    <glyph glyph-name="uni02CA" unicode="&#x2ca;" horiz-adv-x="1024" 
d="M716 1492l-311 -294l-116 58l283 347z" />
    <glyph glyph-name="uni02BC" unicode="&#x2bc;" horiz-adv-x="492" 
d="M260 1164h-126l48 297h201z" />
    <glyph glyph-name="uni02BB" unicode="&#x2bb;" horiz-adv-x="491" 
d="M330 1178h-200l123 298h125z" />
    <glyph glyph-name="uni02CB" unicode="&#x2cb;" horiz-adv-x="1024" 
d="M734 1256l-116 -58l-312 294l145 111z" />
    <glyph glyph-name="uni02CD" unicode="&#x2cd;" horiz-adv-x="1024" 
d="M1031 -345h-1037v137h1037v-137z" />
    <glyph glyph-name="uni02C9" unicode="&#x2c9;" horiz-adv-x="1024" 
d="M821 1313h-619v137h619v-137z" />
    <glyph glyph-name="uni0308" unicode="&#x308;" horiz-adv-x="0" 
d="M-845.5 1289q-36.5 36 -36.5 92t36.5 92t92.5 36t92.5 -36t36.5 -92t-36.5 -92t-92.5 -36t-92.5 36zM-441 1289q-36 36 -36 92t36 92t92 36q57 0 93.5 -36t36.5 -92t-36.5 -92t-93.5 -36q-56 0 -92 36z" />
    <glyph glyph-name="uni0307" unicode="&#x307;" horiz-adv-x="0" 
d="M-648 1289q-38 36 -38 92t38 92t98 36t98.5 -36t38.5 -92t-38.5 -92t-98.5 -36t-98 36z" />
    <glyph glyph-name="gravecomb" unicode="&#x300;" horiz-adv-x="0" 
d="M-322 1256l-117 -58l-311 294l144 111z" />
    <glyph glyph-name="acutecomb" unicode="&#x301;" horiz-adv-x="0" 
d="M-310 1492l-311 -294l-116 58l283 347z" />
    <glyph glyph-name="uni030B" unicode="&#x30b;" horiz-adv-x="0" 
d="M-441 1478l-311 -294l-99 76l266 328zM-78 1474l-311 -294l-99 76l266 328z" />
    <glyph glyph-name="uni0302" unicode="&#x302;" horiz-adv-x="0" 
d="M-506 1391l-210 -211l-116 58l232 296h188l233 -296l-116 -58z" />
    <glyph glyph-name="uni030C" unicode="&#x30c;" horiz-adv-x="0" 
d="M-412 1180h-188l-232 296l116 58l210 -211l211 211l116 -58z" />
    <glyph glyph-name="uni0306" unicode="&#x306;" horiz-adv-x="0" 
d="M-628.5 1237.5q-73.5 43.5 -116.5 118.5t-43 165h136q0 -48 25.5 -88t67.5 -62.5t91 -22.5q48 0 90 22.5t67 62.5t25 88h139q0 -90 -43 -165t-117 -118.5t-161 -43.5t-160.5 43.5z" />
    <glyph glyph-name="uni030A" unicode="&#x30a;" horiz-adv-x="0" 
d="M-590.5 1186.5q-47.5 26.5 -75 73t-27.5 103.5q0 58 27 104.5t74.5 73t104.5 26.5t104 -26.5t74 -73.5t27 -104t-27 -103.5t-74 -73t-104 -26.5q-56 0 -103.5 26.5zM-414.5 1289q29.5 30 29.5 74t-29.5 74.5t-72.5 30.5t-73 -30.5t-30 -74.5t30 -74t73 -30t72.5 30z" />
    <glyph glyph-name="tildecomb" unicode="&#x303;" horiz-adv-x="0" 
d="M-416 1241q-33 15 -78 44q-36 25 -60.5 36.5t-52.5 11.5q-35 0 -66 -24t-47 -61l-102 92q28 73 83.5 116.5t124.5 43.5q44 0 78 -15.5t76 -44.5q38 -24 61.5 -35.5t51.5 -11.5q35 0 66.5 24.5t46.5 60.5l103 -92q-29 -73 -84.5 -116.5t-124.5 -43.5q-43 0 -76 15z" />
    <glyph glyph-name="uni0304" unicode="&#x304;" horiz-adv-x="0" 
d="M-148 1313h-618v137h618v-137z" />
    <glyph glyph-name="uni0305" unicode="&#x305;" horiz-adv-x="0" 
d="M2623 1486h-1411v124h1411v-124z" />
    <glyph glyph-name="uni0310" unicode="&#x310;" horiz-adv-x="0" 
d="M-833 1537q-34 36 -34 92t34 92t87 36t87 -36t34 -92t-34 -92t-87 -36t-87 36zM-907 1217.5q-73 43.5 -116 118.5t-43 165h136q0 -48 25 -88t67 -62.5t91 -22.5q48 0 90 22.5t67.5 62.5t25.5 88h138q0 -90 -43 -165t-116.5 -118.5t-161.5 -43.5q-87 0 -160 43.5z" />
    <glyph glyph-name="uni0315" unicode="&#x315;" horiz-adv-x="0" 
d="M-81 1210h-126l48 298h201z" />
    <glyph glyph-name="dotbelowcomb" unicode="&#x323;" horiz-adv-x="0" 
d="M-565.5 -343q-36.5 34 -36.5 87q0 54 36.5 88.5t94.5 34.5q57 0 93.5 -34.5t36.5 -88.5q0 -53 -36.5 -87t-93.5 -34q-58 0 -94.5 34z" />
    <glyph glyph-name="uni0324" unicode="&#x324;" horiz-adv-x="0" 
d="M-775.5 -339q-36.5 36 -36.5 93q0 56 36.5 92t92.5 36t92.5 -36t36.5 -92q0 -57 -36.5 -93t-92.5 -36t-92.5 36zM-371 -339q-36 36 -36 93q0 56 36 92t92 36q57 0 93.5 -36t36.5 -92q0 -57 -36.5 -93t-93.5 -36q-56 0 -92 36z" />
    <glyph glyph-name="uni0325" unicode="&#x325;" horiz-adv-x="0" 
d="M-510.5 -435.5q-47.5 26.5 -75 73t-27.5 103.5q0 58 27 104.5t74.5 73t104.5 26.5t104 -26.5t74 -73.5t27 -104t-27 -103.5t-74 -73t-104 -26.5q-56 0 -103.5 26.5zM-334.5 -333q29.5 30 29.5 74t-29.5 75t-72.5 31t-73 -31t-30 -75t30 -74t73 -30t72.5 30z" />
    <glyph glyph-name="uni0326" unicode="&#x326;" horiz-adv-x="0" 
d="M-426 -462h-125l48 297h200z" />
    <glyph glyph-name="dieresis" unicode="&#xa8;" horiz-adv-x="1024" 
d="M217 1289q-36 36 -36 92t36 92t92 36t92.5 -36t36.5 -92t-36.5 -92t-92.5 -36t-92 36zM622 1289q-36 36 -36 92t36 92t92 36q57 0 93 -36t36 -92t-36 -92t-93 -36q-56 0 -92 36z" />
    <glyph glyph-name="dotaccentmod" unicode="&#x2d9;" horiz-adv-x="1024" 
d="M414 1289q-38 36 -38 92t38 92t98 36q59 0 97.5 -36t38.5 -92t-38.5 -92t-97.5 -36q-60 0 -98 36z" />
    <glyph glyph-name="grave" unicode="`" horiz-adv-x="1024" 
d="M734 1256l-116 -58l-312 294l145 111z" />
    <glyph glyph-name="acute" unicode="&#xb4;" horiz-adv-x="1024" 
d="M716 1492l-311 -294l-116 58l283 347z" />
    <glyph glyph-name="doubleacutemod" unicode="&#x2dd;" horiz-adv-x="1024" 
d="M538 1478l-311 -294l-99 76l266 328zM901 1474l-311 -294l-99 76l266 328z" />
    <glyph glyph-name="circumflexmod" unicode="&#x2c6;" horiz-adv-x="1024" 
d="M512 1391l-210 -211l-117 58l233 296h188l233 -296l-117 -58z" />
    <glyph glyph-name="caronmod" unicode="&#x2c7;" horiz-adv-x="1024" 
d="M606 1180h-188l-233 296l117 58l210 -211l210 211l117 -58z" />
    <glyph glyph-name="brevemod" unicode="&#x2d8;" horiz-adv-x="1024" 
d="M351 1237.5q-73 43.5 -116 118.5t-43 165h135q0 -48 25.5 -88t67.5 -62.5t91 -22.5q48 0 90 22.5t67.5 62.5t25.5 88h138q0 -90 -43 -165t-116.5 -118.5t-161.5 -43.5q-87 0 -160 43.5z" />
    <glyph glyph-name="ringmod" unicode="&#x2da;" horiz-adv-x="1024" 
d="M408.5 1186.5q-47.5 26.5 -75 73t-27.5 103.5t27.5 104t74.5 73.5t104 26.5t104 -26.5t74 -73.5t27 -104t-27 -103.5t-74 -73t-104 -26.5q-56 0 -103.5 26.5zM585 1289.5q30 30.5 30 73.5q0 44 -30 74.5t-73 30.5t-73 -30.5t-30 -74.5q0 -43 30 -73.5t73 -30.5t73 30.5z
" />
    <glyph glyph-name="tildemod" unicode="&#x2dc;" horiz-adv-x="1024" 
d="M571 1241.5q-34 15.5 -76 44.5q-38 24 -61.5 35.5t-51.5 11.5q-35 0 -66 -24t-47 -61l-103 92q28 73 83.5 116.5t124.5 43.5q44 0 77.5 -15t76.5 -44q36 -25 60.5 -36.5t53.5 -11.5q34 0 65.5 24.5t46.5 60.5l104 -92q-29 -73 -84.5 -116.5t-124.5 -43.5q-44 0 -78 15.5z
" />
    <glyph glyph-name="macron" unicode="&#xaf;" horiz-adv-x="1024" 
d="M1031 1613h-1037v137h1037v-137z" />
    <glyph glyph-name="cedilla" unicode="&#xb8;" horiz-adv-x="1024" 
d="M291 -424l48 112q25 -16 49 -22t56 -6q51 0 82.5 25t31.5 67q0 49 -38 74t-113 25l63 149h124l-32 -77q81 -10 125.5 -56t44.5 -125q0 -63 -34.5 -109t-93 -70.5t-129.5 -24.5q-125 0 -184 38z" />
    <glyph glyph-name="ogonekmod" unicode="&#x2db;" horiz-adv-x="1024" 
d="M379.5 -421q-49.5 41 -49.5 107q0 45 17 81t50 73l137 160h128l-137 -199q-24 -34 -24 -67q0 -28 19 -45.5t51 -17.5q26 0 45 6.5t40 21.5l38 -121q-34 -20 -79.5 -30t-94.5 -10q-91 0 -140.5 41z" />
    <glyph glyph-name="lmiddledot.ss05" horiz-adv-x="746" 
d="M232 58q-67 68 -67 190v1274h224v-1230q0 -48 26.5 -76t72.5 -28h90v-187q-70 -11 -156 -11q-123 0 -190 68zM544.5 682.5q-33.5 32.5 -33.5 83.5q0 52 33.5 85t85.5 33t85.5 -33t33.5 -85q0 -51 -33.5 -83.5t-85.5 -32.5t-85.5 32.5z" />
    <glyph glyph-name="udoubleacute.ss07" horiz-adv-x="1218" 
d="M710 1478l-312 -294l-98 76l266 328zM1073 1474l-311 -294l-99 76l265 328zM373 19q-104 51 -163 148t-59 230v678h224v-667q0 -70 31 -123.5t84.5 -83t118.5 -29.5q67 0 120 30t83.5 84t30.5 122v667h225v-678q0 -133 -59 -230t-163.5 -148t-236.5 -51t-236 51z" />
    <glyph glyph-name="ffl.ss05" horiz-adv-x="2059" 
d="M250 0v885h-189v190h189v134q0 150 88.5 236t255.5 86q77 0 157 -10v-186h-132q-64 0 -104.5 -37.5t-40.5 -102.5v-120h460v134q0 150 88.5 236t255.5 86q77 0 157 -10v-186h-131q-65 0 -105 -37t-40 -103v-120h276v-190h-276v-885h-225v885h-460v-885h-224zM1674 58
q-67 68 -67 190v1274h224v-1230q0 -48 26.5 -76t72.5 -28h90v-187q-70 -11 -156 -11q-123 0 -190 68z" />
    </font>
</defs>
</svg>
