<?xml version="1.0" standalone="no"?>
<!DOCTYPE svg PUBLIC "-//W3C//DTD SVG 1.1//EN" "http://www.w3.org/Graphics/SVG/1.1/DTD/svg11.dtd" >
<svg>
<metadata>
Created by FontForge 20120731 at Wed Jun  5 12:29:07 2024
 By fw_worker
2021 Wahyu &#38; Sani Co. All Rights Reserved.
</metadata>
<defs>
<font id="Geliat-Regular" horiz-adv-x="1238" >
  <font-face 
    font-family="Geliat"
    font-weight="400"
    font-stretch="normal"
    units-per-em="2048"
    panose-1="0 0 5 0 0 0 0 0 0 0"
    ascent="1638"
    descent="-410"
    x-height="1070"
    cap-height="1406"
    bbox="-1066 -462 2700 1954"
    underline-thickness="75"
    underline-position="-26"
    unicode-range="U+0020-FB04"
  />
<missing-glyph horiz-adv-x="1024" 
d="M907 -430h-790v1952h790v-1952zM681 772h31v141h-31l-12 -42l-107 35l-142 48l254 85l7 -26h31v148h-31l-14 -42l-106 -36l-141 48l254 84l7 -25h31v149h-31l-14 -43l-358 -119v-53l186 -62l-186 -62v-52l352 -118zM483.5 502q23.5 18 44.5 55l37 72q13 24 25.5 36.5
t33.5 12.5q52 -3 52 -58q0 -31 -10.5 -49.5t-32.5 -27.5l-50 -15v-31h129v31l-24 8q29 34 29 84q0 63 -28 102t-88 39q-39 0 -63.5 -18.5t-44.5 -55.5l-37 -72q-25 -47 -59 -47q-26 0 -39 18.5t-13 45.5q0 43 16 65t57 34l20 7v31h-129v-31l33 -10q-38 -35 -38 -96
q0 -65 27.5 -106.5t88.5 -41.5q40 0 63.5 18zM425 164q-34 3 -57 27.5t-23 72.5q0 40 27 63.5t61 23.5h157q36 0 62.5 -21t26.5 -61q0 -32 -11 -56.5t-34 -32.5l-50 -16v-30h131v30l-30 9q16 18 25.5 43.5t9.5 56.5q0 51 -22.5 88t-60 56t-81.5 19h-88q-44 0 -81.5 -19
t-60 -56t-22.5 -88q0 -61 34 -97.5t87 -41.5v30zM598 -172q60 0 89.5 38.5t29.5 102.5q0 50 -34.5 84.5t-84.5 34.5h-61q-49 0 -84 -34.5t-35 -84.5v-22q0 -50 34.5 -84.5t84.5 -34.5h61zM501 -94q-20 0 -33.5 13t-13.5 33q0 58 47 58h134q19 0 32.5 -13.5t13.5 -32.5v-12
q0 -20 -13 -33t-33 -13h-134zM378.5 -73q12.5 13 12.5 31t-13 31t-31 13t-30.5 -13t-12.5 -31t12.5 -31t30.5 -13q19 0 31.5 13z" />
    <glyph glyph-name="ff" unicode="ff" horiz-adv-x="1438" 
d="M260 0v919h-202v152h202v153q0 93 37.5 162t111 106.5t176.5 37.5q67 0 143 -9v-148h-124q-73 0 -119 -42t-46 -117v-143h489v153q0 93 37.5 162t111 106.5t176.5 37.5q67 0 143 -9v-148h-124q-73 0 -119 -42t-46 -117v-143h289v-152h-289v-919h-179v919h-489v-919h-179z
" />
    <glyph glyph-name="ffi" unicode="ffi" horiz-adv-x="1935" 
d="M260 0v919h-202v152h202v153q0 145 86.5 225.5t238.5 80.5q67 0 143 -9v-148h-124q-75 0 -120 -42.5t-45 -116.5v-143h489v153q0 145 86.5 225.5t238.5 80.5q67 0 143 -9v-148h-124q-75 0 -120 -42.5t-45 -116.5v-143h661v-1071h-180v919h-481v-919h-179v919h-489v-919
h-179zM1586.5 1294.5q-34.5 31.5 -34.5 87.5t35.5 88t90.5 32q57 0 91.5 -32t34.5 -88q0 -55 -36 -87t-90 -32q-57 0 -91.5 31.5z" />
    <glyph glyph-name="ffl" unicode="ffl" horiz-adv-x="1933" 
d="M260 0v919h-202v152h202v153q0 93 37.5 162t111 106.5t176.5 37.5q67 0 143 -9v-148h-124q-73 0 -119 -42t-46 -117v-143h489v153q0 93 37.5 162t111 106.5t176.5 37.5q67 0 143 -9v-148h-124q-73 0 -119 -42t-46 -117v-143h289v-152h-289v-919h-179v919h-489v-919h-179z
M1757 0h-179v1523h179v-1523z" />
    <glyph glyph-name="fi" unicode="fi" horiz-adv-x="1268" 
d="M260 0v919h-202v152h202v153q0 93 37.5 162t111 106.5t176.5 37.5q67 0 143 -9v-148h-124q-73 0 -119 -42t-46 -117v-143h652v-1071h-180v919h-472v-919h-179zM910.5 1294.5q-35.5 31.5 -35.5 87.5q0 57 35.5 88.5t90.5 31.5q54 0 90 -32t36 -88t-36 -87.5t-90 -31.5
q-55 0 -90.5 31.5z" />
    <glyph glyph-name="fl" unicode="fl" horiz-adv-x="1266" 
d="M260 0v919h-202v152h202v153q0 95 38.5 163.5t112 105.5t174.5 37q65 0 143 -9v-148h-124q-73 0 -119 -43.5t-46 -115.5v-143h289v-152h-289v-919h-179zM1090 0h-179v1522h179v-1522z" />
    <glyph glyph-name=".notdef" horiz-adv-x="1024" 
d="M907 -430h-790v1952h790v-1952zM681 772h31v141h-31l-12 -42l-107 35l-142 48l254 85l7 -26h31v148h-31l-14 -42l-106 -36l-141 48l254 84l7 -25h31v149h-31l-14 -43l-358 -119v-53l186 -62l-186 -62v-52l352 -118zM483.5 502q23.5 18 44.5 55l37 72q13 24 25.5 36.5
t33.5 12.5q52 -3 52 -58q0 -31 -10.5 -49.5t-32.5 -27.5l-50 -15v-31h129v31l-24 8q29 34 29 84q0 63 -28 102t-88 39q-39 0 -63.5 -18.5t-44.5 -55.5l-37 -72q-25 -47 -59 -47q-26 0 -39 18.5t-13 45.5q0 43 16 65t57 34l20 7v31h-129v-31l33 -10q-38 -35 -38 -96
q0 -65 27.5 -106.5t88.5 -41.5q40 0 63.5 18zM425 164q-34 3 -57 27.5t-23 72.5q0 40 27 63.5t61 23.5h157q36 0 62.5 -21t26.5 -61q0 -32 -11 -56.5t-34 -32.5l-50 -16v-30h131v30l-30 9q16 18 25.5 43.5t9.5 56.5q0 51 -22.5 88t-60 56t-81.5 19h-88q-44 0 -81.5 -19
t-60 -56t-22.5 -88q0 -61 34 -97.5t87 -41.5v30zM598 -172q60 0 89.5 38.5t29.5 102.5q0 50 -34.5 84.5t-84.5 34.5h-61q-49 0 -84 -34.5t-35 -84.5v-22q0 -50 34.5 -84.5t84.5 -34.5h61zM501 -94q-20 0 -33.5 13t-13.5 33q0 58 47 58h134q19 0 32.5 -13.5t13.5 -32.5v-12
q0 -20 -13 -33t-33 -13h-134zM378.5 -73q12.5 13 12.5 31t-13 31t-31 13t-30.5 -13t-12.5 -31t12.5 -31t30.5 -13q19 0 31.5 13z" />
    <glyph glyph-name=".null" horiz-adv-x="0" 
 />
    <glyph glyph-name="space" unicode=" " horiz-adv-x="384" 
 />
    <glyph glyph-name="space" unicode="&#xa0;" horiz-adv-x="384" 
 />
    <glyph glyph-name="A" unicode="A" horiz-adv-x="1346" 
d="M213 0h-207l564 1406h206l564 -1406h-206l-139 350h-644zM673 1186l-272 -680h544z" />
    <glyph glyph-name="Aacute" unicode="&#xc1;" horiz-adv-x="1346" 
d="M938 1825l-304 -299l-94 49l281 340zM213 0h-207l564 1406h206l564 -1406h-206l-139 350h-644zM673 1186l-272 -680h544z" />
    <glyph glyph-name="Abreve" unicode="&#x102;" horiz-adv-x="1346" 
d="M515.5 1581.5q-71.5 42.5 -113.5 115.5t-42 161h110q0 -53 27.5 -97.5t73.5 -70t100 -25.5t100.5 25.5t74 70t27.5 97.5h112q0 -88 -42 -161t-114 -115.5t-158 -42.5q-84 0 -155.5 42.5zM213 0h-207l564 1406h206l564 -1406h-206l-139 350h-644zM673 1186l-272 -680h544z
" />
    <glyph glyph-name="Acircumflex" unicode="&#xc2;" horiz-adv-x="1346" 
d="M673 1755l-222 -229l-94 49l238 296h156l238 -296l-94 -49zM213 0h-207l564 1406h206l564 -1406h-206l-139 350h-644zM673 1186l-272 -680h544z" />
    <glyph glyph-name="Adieresis" unicode="&#xc4;" horiz-adv-x="1346" 
d="M401 1647q-31 31 -31 80t31 80t80 31t80.5 -31t31.5 -80t-31.5 -80t-80.5 -31t-80 31zM784 1647q-31 31 -31 80t31 80t80 31t80.5 -31t31.5 -80t-31.5 -80t-80.5 -31t-80 31zM213 0h-207l564 1406h206l564 -1406h-206l-139 350h-644zM673 1186l-272 -680h544z" />
    <glyph glyph-name="Agrave" unicode="&#xc0;" horiz-adv-x="1346" 
d="M805 1575l-94 -49l-304 299l117 90zM213 0h-207l564 1406h206l564 -1406h-206l-139 350h-644zM673 1186l-272 -680h544z" />
    <glyph glyph-name="Amacron" unicode="&#x100;" horiz-adv-x="1346" 
d="M975 1671h-605v113h605v-113zM213 0h-207l564 1406h206l564 -1406h-206l-139 350h-644zM673 1186l-272 -680h544z" />
    <glyph glyph-name="Aogonek" unicode="&#x104;" horiz-adv-x="1346" 
d="M1059 -421.5q-46 40.5 -46 104.5q0 44 16 79t47 69l140 169h-82l-139 350h-644l-138 -350h-207l564 1406h206l564 -1406h-19l-143 -206q-26 -38 -26 -75q0 -31 20.5 -51.5t57.5 -20.5q27 0 48 7.5t42 23.5l32 -100q-32 -20 -74 -30t-86 -10q-87 0 -133 40.5zM673 1186
l-272 -680h544z" />
    <glyph glyph-name="Aring" unicode="&#xc5;" horiz-adv-x="1346" 
d="M571.5 1531.5q-46.5 26.5 -74 72.5t-27.5 102t27 102t73.5 72.5t102.5 26.5t102 -26.5t73 -72.5t27 -102t-27 -102t-73 -72.5t-102 -26.5q-55 0 -101.5 26.5zM754.5 1623q33.5 34 33.5 83t-33.5 83t-81.5 34t-81.5 -34t-33.5 -83t33.5 -83t81.5 -34t81.5 34zM213 0h-207
l564 1406h206l564 -1406h-206l-139 350h-644zM673 1186l-272 -680h544z" />
    <glyph glyph-name="Atilde" unicode="&#xc3;" horiz-adv-x="1346" 
d="M733.5 1599q-33.5 15 -76.5 44q-37 25 -61.5 37t-53.5 12q-36 0 -66.5 -24t-47.5 -61l-85 74q27 66 78.5 106t114.5 40q43 0 75.5 -15t76.5 -44q37 -25 62 -37t54 -12q35 0 66 24t47 61l86 -74q-28 -67 -79.5 -106.5t-114.5 -39.5q-42 0 -75.5 15zM213 0h-207l564 1406
h206l564 -1406h-206l-139 350h-644zM673 1186l-272 -680h544z" />
    <glyph glyph-name="AE" unicode="&#xc6;" horiz-adv-x="1668" 
d="M156 0h-207l772 1406h868v-170h-598v-423h561v-169h-561v-474h598v-170h-787v349h-445zM802 1182l-380 -677h380v677z" />
    <glyph glyph-name="B" unicode="B" horiz-adv-x="1202" 
d="M177 0v1406h453q213 0 329 -97t116 -282q0 -102 -52.5 -181t-145.5 -117q72 -24 126 -73.5t82.5 -115.5t28.5 -139q0 -129 -54.5 -219t-155.5 -136t-239 -46h-488zM612 807q81 0 143.5 28t96.5 78t34 112q0 108 -70.5 160t-203.5 52h-245v-430h245zM645 170
q131 0 205 62.5t74 174.5q0 64 -36 118t-101 86.5t-149 32.5h-271v-474h278z" />
    <glyph glyph-name="C" unicode="C" horiz-adv-x="1530" 
d="M445 62q-164 94 -256.5 261.5t-92.5 379.5t92.5 379.5t256.5 261.5t371 94q152 0 282.5 -52t227.5 -148t150 -224l-180 -73q-40 99 -111.5 171t-166 110.5t-202.5 38.5q-150 0 -269.5 -70.5t-187.5 -197.5t-68 -290q0 -161 68 -287.5t187.5 -197t269.5 -70.5
q109 0 204.5 39t167 111.5t109.5 170.5l181 -72q-51 -128 -148 -225t-229.5 -150.5t-284.5 -53.5q-207 0 -371 94z" />
    <glyph glyph-name="Cacute" unicode="&#x106;" horiz-adv-x="1530" 
d="M1095 1825l-304 -299l-94 49l281 340zM445 62q-164 94 -256.5 261.5t-92.5 379.5t92.5 379.5t256.5 261.5t371 94q152 0 282.5 -52t227.5 -148t150 -224l-180 -73q-40 99 -111.5 171t-166 110.5t-202.5 38.5q-150 0 -269.5 -70.5t-187.5 -197.5t-68 -290
q0 -161 68 -287.5t187.5 -197t269.5 -70.5q109 0 204.5 39t167 111.5t109.5 170.5l181 -72q-51 -128 -148 -225t-229.5 -150.5t-284.5 -53.5q-207 0 -371 94z" />
    <glyph glyph-name="Ccaron" unicode="&#x10c;" horiz-adv-x="1530" 
d="M908 1526h-156l-238 296l94 49l222 -230l222 230l94 -49zM445 62q-164 94 -256.5 261.5t-92.5 379.5t92.5 379.5t256.5 261.5t371 94q152 0 282.5 -52t227.5 -148t150 -224l-180 -73q-40 99 -111.5 171t-166 110.5t-202.5 38.5q-150 0 -269.5 -70.5t-187.5 -197.5
t-68 -290q0 -161 68 -287.5t187.5 -197t269.5 -70.5q109 0 204.5 39t167 111.5t109.5 170.5l181 -72q-51 -128 -148 -225t-229.5 -150.5t-284.5 -53.5q-207 0 -371 94z" />
    <glyph glyph-name="Ccedilla" unicode="&#xc7;" horiz-adv-x="1530" 
d="M585 -423l40 94q26 -17 53.5 -24.5t60.5 -7.5q55 0 90.5 28t35.5 76q0 112 -163 112l49 115q-193 14 -342 112.5t-231 260t-82 360.5q0 215 93 382t257 260t370 93q158 0 288.5 -53.5t224.5 -149t147 -221.5l-180 -73q-63 154 -191 237t-289 83q-152 0 -271.5 -71
t-186.5 -198t-67 -289t68 -288.5t188 -196.5t269 -70q164 0 292 85.5t189 235.5l181 -72q-49 -123 -141 -218t-216.5 -149.5t-268.5 -60.5l-23 -53q83 -9 129.5 -53.5t46.5 -126.5q0 -61 -32 -106t-87.5 -68.5t-122.5 -23.5q-121 0 -178 39z" />
    <glyph glyph-name="Ccircumflex" unicode="&#x108;" horiz-adv-x="1530" 
d="M830 1755l-222 -229l-94 49l238 296h156l238 -296l-94 -49zM445 62q-164 94 -256.5 261.5t-92.5 379.5t92.5 379.5t256.5 261.5t371 94q152 0 282.5 -52t227.5 -148t150 -224l-180 -73q-40 99 -111.5 171t-166 110.5t-202.5 38.5q-150 0 -269.5 -70.5t-187.5 -197.5
t-68 -290q0 -161 68 -287.5t187.5 -197t269.5 -70.5q109 0 204.5 39t167 111.5t109.5 170.5l181 -72q-51 -128 -148 -225t-229.5 -150.5t-284.5 -53.5q-207 0 -371 94z" />
    <glyph glyph-name="Cdotaccent" unicode="&#x10a;" horiz-adv-x="1530" 
d="M745.5 1647q-32.5 31 -32.5 80t32.5 80t84.5 31q51 0 84 -31t33 -80t-33 -80t-84 -31q-52 0 -84.5 31zM445 62q-164 94 -256.5 261.5t-92.5 379.5t92.5 379.5t256.5 261.5t371 94q152 0 282.5 -52t227.5 -148t150 -224l-180 -73q-40 99 -111.5 171t-166 110.5
t-202.5 38.5q-150 0 -269.5 -70.5t-187.5 -197.5t-68 -290q0 -161 68 -287.5t187.5 -197t269.5 -70.5q109 0 204.5 39t167 111.5t109.5 170.5l181 -72q-51 -128 -148 -225t-229.5 -150.5t-284.5 -53.5q-207 0 -371 94z" />
    <glyph glyph-name="D" unicode="D" horiz-adv-x="1494" 
d="M177 0v1406h514q208 0 368.5 -88.5t249.5 -247.5t89 -365t-89 -366t-249.5 -249.5t-368.5 -89.5h-514zM684 170q151 0 268.5 68.5t183.5 190t66 276.5t-66 276t-183.5 188.5t-268.5 67.5h-318v-1067h318z" />
    <glyph glyph-name="Eth" unicode="&#xd0;" horiz-adv-x="1494" 
d="M178 0v651h-155v104h155v652h514q208 0 368.5 -89t249 -249t88.5 -366t-88.5 -366t-249 -248.5t-368.5 -88.5h-514zM685 169q151 0 269 68t184 189.5t66 276.5t-66 276.5t-184 190t-269 68.5h-318v-483h343v-104h-343v-482h318z" />
    <glyph glyph-name="Dcaron" unicode="&#x10e;" horiz-adv-x="1494" 
d="M787 1526h-156l-238 296l94 49l222 -230l222 230l94 -49zM177 0v1406h514q208 0 368.5 -88.5t249.5 -247.5t89 -365t-89 -366t-249.5 -249.5t-368.5 -89.5h-514zM684 170q151 0 268.5 68.5t183.5 190t66 276.5t-66 276t-183.5 188.5t-268.5 67.5h-318v-1067h318z" />
    <glyph glyph-name="Dcroat" unicode="&#x110;" horiz-adv-x="1494" 
d="M178 0v651h-155v104h155v652h514q208 0 368.5 -89t249 -249t88.5 -366t-88.5 -366t-249 -248.5t-368.5 -88.5h-514zM685 169q151 0 269 68t184 189.5t66 276.5t-66 276.5t-184 190t-269 68.5h-318v-483h343v-104h-343v-482h318z" />
    <glyph glyph-name="uni1E0C" unicode="&#x1e0c;" horiz-adv-x="1494" 
d="M177 0v1406h514q208 0 368.5 -88.5t249.5 -247.5t89 -365t-89 -366t-249.5 -249.5t-368.5 -89.5h-514zM684 170q151 0 268.5 68.5t183.5 190t66 276.5t-66 276t-183.5 188.5t-268.5 67.5h-318v-1067h318zM658.5 -330q-31.5 30 -31.5 76q0 47 31.5 77t81.5 30t81.5 -30
t31.5 -77q0 -46 -31.5 -76t-81.5 -30t-81.5 30z" />
    <glyph glyph-name="E" unicode="E" horiz-adv-x="1044" 
d="M965 0h-788v1406h788v-170h-598v-423h561v-169h-561v-474h598v-170z" />
    <glyph glyph-name="Eacute" unicode="&#xc9;" horiz-adv-x="1044" 
d="M835 1825l-304 -299l-94 49l281 340zM965 0h-788v1406h788v-170h-598v-423h561v-169h-561v-474h598v-170z" />
    <glyph glyph-name="Ebreve" unicode="&#x114;" horiz-adv-x="1044" 
d="M412 1581.5q-72 42.5 -114 115.5t-42 161h111q0 -53 27.5 -97.5t73.5 -70t100 -25.5t100 25.5t73.5 70t27.5 97.5h113q0 -88 -42 -161t-114 -115.5t-158 -42.5q-84 0 -156 42.5zM965 0h-788v1406h788v-170h-598v-423h561v-169h-561v-474h598v-170z" />
    <glyph glyph-name="Ecaron" unicode="&#x11a;" horiz-adv-x="1044" 
d="M648 1526h-156l-238 296l94 49l222 -230l222 230l94 -49zM965 0h-788v1406h788v-170h-598v-423h561v-169h-561v-474h598v-170z" />
    <glyph glyph-name="Ecircumflex" unicode="&#xca;" horiz-adv-x="1044" 
d="M570 1755l-222 -229l-94 49l238 296h156l238 -296l-94 -49zM965 0h-788v1406h788v-170h-598v-423h561v-169h-561v-474h598v-170z" />
    <glyph glyph-name="Edieresis" unicode="&#xcb;" horiz-adv-x="1044" 
d="M298 1647q-31 31 -31 80t31 80t80 31t80.5 -31t31.5 -80t-31.5 -80t-80.5 -31t-80 31zM681 1647q-31 31 -31 80t31 80t80 31t80.5 -31t31.5 -80t-31.5 -80t-80.5 -31t-80 31zM965 0h-788v1406h788v-170h-598v-423h561v-169h-561v-474h598v-170z" />
    <glyph glyph-name="Edotaccent" unicode="&#x116;" horiz-adv-x="1044" 
d="M485.5 1647q-32.5 31 -32.5 80t32.5 80t84.5 31q51 0 84 -31t33 -80t-33 -80t-84 -31q-52 0 -84.5 31zM965 0h-788v1406h788v-170h-598v-423h561v-169h-561v-474h598v-170z" />
    <glyph glyph-name="Egrave" unicode="&#xc8;" horiz-adv-x="1044" 
d="M702 1575l-94 -49l-304 299l117 90zM965 0h-788v1406h788v-170h-598v-423h561v-169h-561v-474h598v-170z" />
    <glyph glyph-name="Emacron" unicode="&#x112;" horiz-adv-x="1044" 
d="M872 1671h-605v113h605v-113zM965 0h-788v1406h788v-170h-598v-423h561v-169h-561v-474h598v-170z" />
    <glyph glyph-name="Eogonek" unicode="&#x118;" horiz-adv-x="1044" 
d="M699.5 -420.5q-44.5 41.5 -44.5 103.5q0 42 16 75.5t48 72.5l140 169h-682v1406h788v-169h-598v-424h561v-169h-561v-475h598v-169l-144 -206q-27 -39 -27 -75q0 -31 20 -51.5t58 -20.5q57 0 91 31l31 -100q-70 -40 -160 -40t-134.5 41.5z" />
    <glyph glyph-name="uni1EBC" unicode="&#x1ebc;" horiz-adv-x="1044" 
d="M630.5 1599q-33.5 15 -76.5 44q-37 25 -61.5 37t-53.5 12q-36 0 -66.5 -24t-47.5 -61l-85 74q27 66 78.5 106t114.5 40q43 0 75.5 -15t76.5 -44q37 -25 62 -37t54 -12q35 0 66 24t47 61l86 -74q-28 -67 -79.5 -106.5t-114.5 -39.5q-42 0 -75.5 15zM965 0h-788v1406h788
v-169h-598v-424h561v-169h-561v-475h598v-169z" />
    <glyph glyph-name="F" unicode="F" horiz-adv-x="1020" 
d="M367 0h-190v1406h788v-169h-598v-424h561v-169h-561v-644z" />
    <glyph glyph-name="G" unicode="G" horiz-adv-x="1589" 
d="M445 62q-164 94 -256.5 261.5t-92.5 379.5t92.5 379.5t256.5 261.5t371 94q153 0 284 -52t227.5 -148t147.5 -225l-186 -52q-61 140 -187 220t-286 80q-151 0 -270.5 -70.5t-187 -197.5t-67.5 -290t67.5 -289t187 -196t271.5 -70q140 0 249.5 52t172 142.5t66.5 201.5
h-498v155h709q0 -232 -87 -396.5t-244.5 -249.5t-368.5 -85q-207 0 -371 94z" />
    <glyph glyph-name="Gbreve" unicode="&#x11e;" horiz-adv-x="1589" 
d="M649 1581.5q-72 42.5 -114 115.5t-42 161h111q0 -53 27.5 -97.5t73.5 -70t100 -25.5t100 25.5t73.5 70t27.5 97.5h113q0 -88 -42 -161t-114 -115.5t-158 -42.5q-84 0 -156 42.5zM445 62q-164 94 -256.5 261.5t-92.5 379.5t92.5 379.5t256.5 261.5t371 94q153 0 284 -52
t227.5 -148t147.5 -225l-186 -52q-61 140 -187 220t-286 80q-151 0 -270.5 -70.5t-187 -197.5t-67.5 -290t67.5 -289t187 -196t271.5 -70q140 0 249.5 52t172 142.5t66.5 201.5h-498v155h709q0 -232 -87 -396.5t-244.5 -249.5t-368.5 -85q-207 0 -371 94z" />
    <glyph glyph-name="uni0122" unicode="&#x122;" horiz-adv-x="1589" 
d="M445 62q-164 94 -256.5 261.5t-92.5 379.5t92.5 379.5t256.5 261.5t371 94q153 0 284 -52t227.5 -148t147.5 -225l-186 -52q-61 140 -187 220t-286 80q-151 0 -270.5 -70.5t-187 -197.5t-67.5 -290t67.5 -289t187 -196t271.5 -70q140 0 249.5 52t172 142.5t66.5 201.5
h-498v155h709q0 -232 -87 -396.5t-244.5 -249.5t-368.5 -85q-207 0 -371 94zM812 -462h-101l46 277h168z" />
    <glyph glyph-name="Gcircumflex" unicode="&#x11c;" horiz-adv-x="1589" 
d="M807 1755l-222 -229l-94 49l238 296h156l238 -296l-94 -49zM445 62q-164 94 -256.5 261.5t-92.5 379.5t92.5 379.5t256.5 261.5t371 94q153 0 284 -52t227.5 -148t147.5 -225l-186 -52q-61 140 -187 220t-286 80q-151 0 -270.5 -70.5t-187 -197.5t-67.5 -290t67.5 -289
t187 -196t271.5 -70q140 0 249.5 52t172 142.5t66.5 201.5h-498v155h709q0 -232 -87 -396.5t-244.5 -249.5t-368.5 -85q-207 0 -371 94z" />
    <glyph glyph-name="Gdotaccent" unicode="&#x120;" horiz-adv-x="1589" 
d="M722.5 1647q-32.5 31 -32.5 80t32.5 80t84.5 31q51 0 84 -31t33 -80t-33 -80t-84 -31q-52 0 -84.5 31zM445 62q-164 94 -256.5 261.5t-92.5 379.5t92.5 379.5t256.5 261.5t371 94q153 0 284 -52t227.5 -148t147.5 -225l-186 -52q-61 140 -187 220t-286 80
q-151 0 -270.5 -70.5t-187 -197.5t-67.5 -290t67.5 -289t187 -196t271.5 -70q140 0 249.5 52t172 142.5t66.5 201.5h-498v155h709q0 -232 -87 -396.5t-244.5 -249.5t-368.5 -85q-207 0 -371 94z" />
    <glyph glyph-name="H" unicode="H" horiz-adv-x="1555" 
d="M366 0h-189v1406h189v-592h822v592h190v-1406h-190v644h-822v-644z" />
    <glyph glyph-name="Hbar" unicode="&#x126;" horiz-adv-x="1554" 
d="M366 0h-189v1219h-104v103h104v84h189v-84h822v84h190v-84h103v-103h-103v-1219h-190v644h-822v-644zM366 1219v-405h822v405h-822z" />
    <glyph glyph-name="Hcircumflex" unicode="&#x124;" horiz-adv-x="1555" 
d="M777 1755l-222 -229l-94 49l238 296h156l238 -296l-93 -49zM366 0h-189v1406h189v-592h822v592h190v-1406h-190v644h-822v-644z" />
    <glyph glyph-name="uni1E24" unicode="&#x1e24;" horiz-adv-x="1555" 
d="M366 0h-189v1406h189v-592h822v592h190v-1406h-190v644h-822v-644zM695.5 -330q-31.5 30 -31.5 76q0 47 31.5 77t81.5 30t81.5 -30t31.5 -77q0 -46 -31.5 -76t-81.5 -30t-81.5 30z" />
    <glyph glyph-name="I" unicode="I" horiz-adv-x="543" 
d="M366 0h-189v1406h189v-1406z" />
    <glyph glyph-name="Iacute" unicode="&#xcd;" horiz-adv-x="543" 
d="M536 1825l-304 -299l-93 49l281 340zM366 0h-189v1406h189v-1406z" />
    <glyph glyph-name="Ibreve" unicode="&#x12c;" horiz-adv-x="543" 
d="M114.5 1581.5q-71.5 42.5 -113.5 115.5t-42 161h111q0 -53 27.5 -97.5t73.5 -70t100 -25.5q53 0 99.5 25.5t74 70t27.5 97.5h113q0 -88 -42 -161t-114 -115.5t-158 -42.5q-85 0 -156.5 42.5zM367 0h-189v1406h189v-1406z" />
    <glyph glyph-name="Icircumflex" unicode="&#xce;" horiz-adv-x="543" 
d="M272 1755l-221 -229l-95 49l238 296h156l239 -296l-94 -49zM367 0h-189v1406h189v-1406z" />
    <glyph glyph-name="Idieresis" unicode="&#xcf;" horiz-adv-x="543" 
d="M28 1647q-31 31 -31 80t31 80t80 31t80.5 -31t31.5 -80t-31.5 -80t-80.5 -31t-80 31zM356.5 1647q-31.5 31 -31.5 80t31.5 80t80.5 31t80 -31t31 -80t-31 -80t-80 -31t-80.5 31zM367 0h-189v1406h189v-1406z" />
    <glyph glyph-name="Idotaccent" unicode="&#x130;" horiz-adv-x="543" 
d="M187 1647q-33 31 -33 80t33 80t84 31q52 0 85 -31t33 -80t-33 -80t-85 -31q-51 0 -84 31zM366 0h-189v1406h189v-1406z" />
    <glyph glyph-name="Igrave" unicode="&#xcc;" horiz-adv-x="543" 
d="M405 1575l-94 -49l-304 299l117 90zM367 0h-189v1406h189v-1406z" />
    <glyph glyph-name="Imacron" unicode="&#x12a;" horiz-adv-x="543" 
d="M525 1671h-507v113h507v-113zM366 0h-189v1406h189v-1406z" />
    <glyph glyph-name="Iogonek" unicode="&#x12e;" horiz-adv-x="543" 
d="M89 -421.5q-46 40.5 -46 104.5q0 44 16 79t47 69l140 169h-69v1406h189v-1406h-15l-143 -206q-26 -38 -26 -75q0 -31 20.5 -51.5t57.5 -20.5q28 0 48.5 7.5t42.5 23.5l31 -100q-32 -20 -73.5 -30t-86.5 -10q-87 0 -133 40.5z" />
    <glyph glyph-name="Itilde" unicode="&#x128;" horiz-adv-x="543" 
d="M332.5 1599q-33.5 15 -76.5 44q-35 24 -60.5 36.5t-54.5 12.5q-36 0 -66.5 -24t-46.5 -61l-86 74q28 67 79.5 106.5t114.5 39.5q42 0 75.5 -15t76.5 -44q37 -25 61.5 -37t53.5 -12q36 0 67 24t47 61l86 -74q-27 -66 -79 -106t-115 -40q-43 0 -76.5 15zM367 0h-189v1406
h189v-1406z" />
    <glyph glyph-name="J" unicode="J" horiz-adv-x="593" 
d="M-75 -292q143 0 223 73.5t80 227.5v1397h189v-1409q0 -236 -126 -347.5t-366 -111.5v170z" />
    <glyph glyph-name="Jcircumflex" unicode="&#x134;" horiz-adv-x="593" 
d="M322 1755l-221 -229l-95 49l238 296h156l239 -296l-94 -49zM-75 -292q143 0 223 73.5t80 227.5v1397h189v-1409q0 -236 -126 -347.5t-366 -111.5v170z" />
    <glyph glyph-name="K" unicode="K" horiz-adv-x="1176" 
d="M366 0h-189v1406h189v-605l521 605h237l-570 -655l670 -751h-256l-602 675v-675z" />
    <glyph glyph-name="uni0136" unicode="&#x136;" horiz-adv-x="1176" 
d="M366 0h-189v1406h189v-605l521 605h237l-570 -655l670 -751h-256l-602 675v-675zM650 -462h-101l46 277h168z" />
    <glyph glyph-name="uni1E32" unicode="&#x1e32;" horiz-adv-x="1176" 
d="M366 0h-189v1406h189v-605l521 605h237l-570 -655l670 -751h-256l-602 675v-675zM566.5 -330q-31.5 30 -31.5 76q0 47 31.5 77t81.5 30q49 0 80.5 -30t31.5 -77q0 -46 -31.5 -76t-80.5 -30q-50 0 -81.5 30z" />
    <glyph glyph-name="L" unicode="L" horiz-adv-x="955" 
d="M963 0h-786v1406h189v-1236h597v-170z" />
    <glyph glyph-name="Lacute" unicode="&#x139;" horiz-adv-x="955" 
d="M536 1825l-304 -299l-93 49l281 340zM963 0h-786v1406h189v-1236h597v-170z" />
    <glyph glyph-name="Lcaron" unicode="&#x13d;" horiz-adv-x="955" 
d="M963 0h-786v1406h189v-1236h597v-170zM749 1129h-102l47 277h167z" />
    <glyph glyph-name="uni013B" unicode="&#x13b;" horiz-adv-x="955" 
d="M963 0h-786v1406h189v-1236h597v-170zM576 -462h-101l46 277h168z" />
    <glyph glyph-name="uni1E36" unicode="&#x1e36;" horiz-adv-x="955" 
d="M963 0h-786v1406h189v-1236h597v-170zM488.5 -330q-31.5 30 -31.5 76q0 47 31.5 77t81.5 30t81.5 -30t31.5 -77q0 -46 -31.5 -76t-81.5 -30t-81.5 30z" />
    <glyph glyph-name="uni1E38" unicode="&#x1e38;" horiz-adv-x="955" 
d="M556 1671h-530v113h530v-113zM963 0h-786v1406h189v-1236h597v-170zM488.5 -330q-31.5 30 -31.5 76q0 47 31.5 77t81.5 30t81.5 -30t31.5 -77q0 -46 -31.5 -76t-81.5 -30t-81.5 30z" />
    <glyph glyph-name="uni1E3A" unicode="&#x1e3a;" horiz-adv-x="955" 
d="M963 0h-786v1406h189v-1236h597v-170zM916 -333h-692v112h692v-112z" />
    <glyph glyph-name="Lmiddledot" unicode="&#x13f;" horiz-adv-x="955" 
d="M963 0h-786v1406h189v-1236h597v-170zM677 629.5q-29 28.5 -29 73.5t29 74t75 29t75 -29t29 -74t-29 -73.5t-75 -28.5t-75 28.5z" />
    <glyph glyph-name="Lslash" unicode="&#x141;" horiz-adv-x="955" 
d="M964 0h-786v564l-136 -78l-51 90l187 108l-1 722h190v-613l342 197l52 -90l-394 -227v-503h597v-170z" />
    <glyph glyph-name="M" unicode="M" horiz-adv-x="1897" 
d="M284 0h-190l179 1406h200l475 -1136l476 1136h200l179 -1406h-189l-135 1094l-465 -1094h-130l-466 1094z" />
    <glyph glyph-name="uni1E40" unicode="&#x1e40;" horiz-adv-x="1897" 
d="M864 1647q-33 31 -33 80t33 80t84 31q52 0 85 -31t33 -80t-33 -80t-85 -31q-51 0 -84 31zM284 0h-190l179 1406h200l475 -1136l476 1136h200l179 -1406h-189l-135 1094l-465 -1094h-130l-466 1094z" />
    <glyph glyph-name="uni1E42" unicode="&#x1e42;" horiz-adv-x="1897" 
d="M284 0h-190l179 1406h200l475 -1136l476 1136h200l179 -1406h-189l-135 1094l-465 -1094h-130l-466 1094zM866.5 -330q-31.5 30 -31.5 76q0 47 31.5 77t81.5 30t81.5 -30t31.5 -77q0 -46 -31.5 -76t-81.5 -30t-81.5 30z" />
    <glyph glyph-name="N" unicode="N" horiz-adv-x="1604" 
d="M365 0h-188v1406h188l872 -1103v1103h190v-1406h-190l-872 1104v-1104z" />
    <glyph glyph-name="Nacute" unicode="&#x143;" horiz-adv-x="1604" 
d="M1067 1825l-304 -299l-94 49l281 340zM365 0h-188v1406h188l872 -1103v1103h190v-1406h-190l-872 1104v-1104z" />
    <glyph glyph-name="Ncaron" unicode="&#x147;" horiz-adv-x="1604" 
d="M880 1526h-156l-238 296l94 49l222 -230l222 230l94 -49zM365 0h-188v1406h188l872 -1103v1103h190v-1406h-190l-872 1104v-1104z" />
    <glyph glyph-name="uni0145" unicode="&#x145;" horiz-adv-x="1604" 
d="M365 0h-188v1406h188l872 -1103v1103h190v-1406h-190l-872 1104v-1104zM807 -462h-101l46 277h168z" />
    <glyph glyph-name="uni1E44" unicode="&#x1e44;" horiz-adv-x="1604" 
d="M717.5 1647q-32.5 31 -32.5 80t32.5 80t84.5 31q51 0 84 -31t33 -80t-33 -80t-84 -31q-52 0 -84.5 31zM365 0h-188v1406h188l872 -1103v1103h190v-1406h-190l-872 1104v-1104z" />
    <glyph glyph-name="uni1E46" unicode="&#x1e46;" horiz-adv-x="1604" 
d="M365 0h-188v1406h188l872 -1103v1103h190v-1406h-190l-872 1104v-1104zM720.5 -330q-31.5 30 -31.5 76q0 47 31.5 77t81.5 30q49 0 80.5 -30t31.5 -77q0 -46 -31.5 -76t-80.5 -30q-50 0 -81.5 30z" />
    <glyph glyph-name="Eng" unicode="&#x14a;" horiz-adv-x="1604" 
d="M1066 -307q54 0 95.5 23t63.5 62t22 86v137l-882 1103v-1104h-188v1406h188l872 -1092v1092h190v-1568q-1 -153 -94.5 -226.5t-266.5 -73.5v155z" />
    <glyph glyph-name="uni1E48" unicode="&#x1e48;" horiz-adv-x="1604" 
d="M365 0h-188v1406h188l872 -1103v1103h190v-1406h-190l-872 1104v-1104zM1217 -333h-831v112h831v-112z" />
    <glyph glyph-name="Ntilde" unicode="&#xd1;" horiz-adv-x="1604" 
d="M862.5 1599q-33.5 15 -76.5 44q-37 25 -61.5 37t-53.5 12q-36 0 -66.5 -24t-47.5 -61l-85 74q27 66 78.5 106t114.5 40q43 0 75.5 -15t76.5 -44q37 -25 62 -37t54 -12q35 0 66 24t47 61l86 -74q-28 -67 -79.5 -106.5t-114.5 -39.5q-42 0 -75.5 15zM365 0h-188v1406h188
l872 -1103v1103h190v-1406h-190l-872 1104v-1104z" />
    <glyph glyph-name="O" unicode="O" horiz-adv-x="1633" 
d="M445.5 62q-164.5 94 -257 261.5t-92.5 379.5t92.5 379.5t257 261.5t371.5 94t371 -94t256.5 -261.5t92.5 -379.5t-92.5 -379.5t-256.5 -261.5t-371 -94t-371.5 94zM1087.5 220q119.5 71 187 197t67.5 286t-67.5 286.5t-187 197.5t-270.5 71t-271 -71t-187.5 -197.5
t-67.5 -286.5t67.5 -286t187.5 -197t271 -71t270.5 71z" />
    <glyph glyph-name="Oacute" unicode="&#xd3;" horiz-adv-x="1633" 
d="M1082 1825l-304 -299l-94 49l281 340zM445.5 62q-164.5 94 -257 261.5t-92.5 379.5t92.5 379.5t257 261.5t371.5 94t371 -94t256.5 -261.5t92.5 -379.5t-92.5 -379.5t-256.5 -261.5t-371 -94t-371.5 94zM1087.5 220q119.5 71 187 197t67.5 286t-67.5 286.5t-187 197.5
t-270.5 71t-271 -71t-187.5 -197.5t-67.5 -286.5t67.5 -286t187.5 -197t271 -71t270.5 71z" />
    <glyph glyph-name="Obreve" unicode="&#x14e;" horiz-adv-x="1633" 
d="M659 1581.5q-72 42.5 -114 115.5t-42 161h111q0 -53 27.5 -97.5t73.5 -70t100 -25.5t100 25.5t73.5 70t27.5 97.5h113q0 -88 -42 -161t-114 -115.5t-158 -42.5q-84 0 -156 42.5zM445.5 62q-164.5 94 -257 261.5t-92.5 379.5t92.5 379.5t257 261.5t371.5 94t371 -94
t256.5 -261.5t92.5 -379.5t-92.5 -379.5t-256.5 -261.5t-371 -94t-371.5 94zM1087.5 220q119.5 71 187 197t67.5 286t-67.5 286.5t-187 197.5t-270.5 71t-271 -71t-187.5 -197.5t-67.5 -286.5t67.5 -286t187.5 -197t271 -71t270.5 71z" />
    <glyph glyph-name="Ocircumflex" unicode="&#xd4;" horiz-adv-x="1633" 
d="M817 1755l-222 -229l-94 49l238 296h156l238 -296l-94 -49zM445.5 62q-164.5 94 -257 261.5t-92.5 379.5t92.5 379.5t257 261.5t371.5 94t371 -94t256.5 -261.5t92.5 -379.5t-92.5 -379.5t-256.5 -261.5t-371 -94t-371.5 94zM1087.5 220q119.5 71 187 197t67.5 286
t-67.5 286.5t-187 197.5t-270.5 71t-271 -71t-187.5 -197.5t-67.5 -286.5t67.5 -286t187.5 -197t271 -71t270.5 71z" />
    <glyph glyph-name="Odieresis" unicode="&#xd6;" horiz-adv-x="1633" 
d="M545 1647q-31 31 -31 80t31 80t80 31t80.5 -31t31.5 -80t-31.5 -80t-80.5 -31t-80 31zM928 1647q-31 31 -31 80t31 80t80 31t80.5 -31t31.5 -80t-31.5 -80t-80.5 -31t-80 31zM445.5 62q-164.5 94 -257 261.5t-92.5 379.5t92.5 379.5t257 261.5t371.5 94t371 -94
t256.5 -261.5t92.5 -379.5t-92.5 -379.5t-256.5 -261.5t-371 -94t-371.5 94zM1087.5 220q119.5 71 187 197t67.5 286t-67.5 286.5t-187 197.5t-270.5 71t-271 -71t-187.5 -197.5t-67.5 -286.5t67.5 -286t187.5 -197t271 -71t270.5 71z" />
    <glyph glyph-name="Odoubleacute" unicode="&#x150;" horiz-adv-x="1633" 
d="M937 1804l-303 -299l-81 62l268 326zM1278 1801l-303 -299l-81 62l268 326zM445.5 62q-164.5 94 -257 261.5t-92.5 379.5t92.5 379.5t257 261.5t371.5 94t371 -94t256.5 -261.5t92.5 -379.5t-92.5 -379.5t-256.5 -261.5t-371 -94t-371.5 94zM1087.5 220q119.5 71 187 197
t67.5 286t-67.5 286.5t-187 197.5t-270.5 71t-271 -71t-187.5 -197.5t-67.5 -286.5t67.5 -286t187.5 -197t271 -71t270.5 71z" />
    <glyph glyph-name="Ograve" unicode="&#xd2;" horiz-adv-x="1633" 
d="M949 1575l-94 -49l-304 299l117 90zM445.5 62q-164.5 94 -257 261.5t-92.5 379.5t92.5 379.5t257 261.5t371.5 94t371 -94t256.5 -261.5t92.5 -379.5t-92.5 -379.5t-256.5 -261.5t-371 -94t-371.5 94zM1087.5 220q119.5 71 187 197t67.5 286t-67.5 286.5t-187 197.5
t-270.5 71t-271 -71t-187.5 -197.5t-67.5 -286.5t67.5 -286t187.5 -197t271 -71t270.5 71z" />
    <glyph glyph-name="Omacron" unicode="&#x14c;" horiz-adv-x="1633" 
d="M1119 1671h-605v113h605v-113zM445.5 62q-164.5 94 -257 261.5t-92.5 379.5t92.5 379.5t257 261.5t371.5 94t371 -94t256.5 -261.5t92.5 -379.5t-92.5 -379.5t-256.5 -261.5t-371 -94t-371.5 94zM1087.5 220q119.5 71 187 197t67.5 286t-67.5 286.5t-187 197.5t-270.5 71
t-271 -71t-187.5 -197.5t-67.5 -286.5t67.5 -286t187.5 -197t271 -71t270.5 71z" />
    <glyph glyph-name="Oslash" unicode="&#xd8;" horiz-adv-x="1633" 
d="M346 -32l-84 64l77 107q-115 99 -179 244.5t-64 319.5q0 212 92.5 379.5t256.5 261.5t371 94q219 0 393 -108l78 108l84 -65l-77 -106q115 -99 179 -244.5t64 -319.5q0 -212 -92.5 -379.5t-257 -261.5t-371.5 -94q-110 0 -209.5 27.5t-182.5 80.5zM1093 1181
q-122 80 -277 80q-151 0 -270.5 -72t-187 -199t-67.5 -287q0 -126 44.5 -231t125.5 -177zM1087 216.5q120 71.5 187.5 199t67.5 287.5q0 126 -44.5 231t-125.5 176l-632 -885q122 -80 276 -80q151 0 271 71.5z" />
    <glyph glyph-name="Otilde" unicode="&#xd5;" horiz-adv-x="1633" 
d="M877.5 1599q-33.5 15 -76.5 44q-37 25 -61.5 37t-53.5 12q-36 0 -66.5 -24t-47.5 -61l-85 74q27 66 78.5 106t114.5 40q43 0 75.5 -15t76.5 -44q37 -25 62 -37t54 -12q35 0 66 24t47 61l86 -74q-28 -67 -79.5 -106.5t-114.5 -39.5q-42 0 -75.5 15zM445.5 62
q-164.5 94 -257 261.5t-92.5 379.5t92.5 379.5t257 261.5t371.5 94t371 -94t256.5 -261.5t92.5 -379.5t-92.5 -379.5t-256.5 -261.5t-371 -94t-371.5 94zM1087.5 220q119.5 71 187 197t67.5 286t-67.5 286.5t-187 197.5t-270.5 71t-271 -71t-187.5 -197.5t-67.5 -286.5
t67.5 -286t187.5 -197t271 -71t270.5 71z" />
    <glyph glyph-name="OE" unicode="&#x152;" horiz-adv-x="1907" 
d="M445 62q-164 94 -256.5 261.5t-92.5 379.5t92.5 379.5t256.5 261.5t371 94q119 0 226 -32h786v-169h-597v-424h561v-169h-561v-475h597v-169h-786q-107 -32 -226 -32q-207 0 -371 94zM1042 201v1004q-50 27 -104.5 40t-118.5 13q-150 0 -270.5 -71t-189 -197.5
t-68.5 -286.5t68.5 -286t189 -197t270.5 -71q133 0 223 52z" />
    <glyph glyph-name="P" unicode="P" horiz-adv-x="1144" 
d="M177 0v1406h437q222 0 341 -103t119 -305q0 -137 -60.5 -229t-164.5 -136.5t-235 -44.5h-247v-588h-190zM611 757q78 0 139.5 26.5t98 80.5t36.5 134q0 239 -274 239h-244v-480h244z" />
    <glyph glyph-name="Thorn" unicode="&#xde;" horiz-adv-x="1154" 
d="M177 0v1406h190v-295h247q222 0 341 -103t119 -305q0 -137 -60.5 -229.5t-164.5 -137t-235 -44.5h-247v-292h-190zM611 462q78 0 139.5 26t98 80.5t36.5 134.5q0 238 -274 238h-244v-479h244z" />
    <glyph glyph-name="Q" unicode="Q" horiz-adv-x="1633" 
d="M815 -32q-207 0 -370.5 94t-256 261.5t-92.5 379.5t92.5 379.5t256.5 261.5t371 94t371 -94t256.5 -261.5t92.5 -379.5q0 -165 -59 -303t-166 -232.5t-247 -132.5l611 -320l-71 -156zM1086.5 216.5q119.5 71.5 187 198.5t67.5 288t-67.5 288t-187 198.5t-270.5 71.5
t-270.5 -71.5t-187 -198.5t-67.5 -288t67.5 -288t187 -198.5t270.5 -71.5t270.5 71.5z" />
    <glyph glyph-name="R" unicode="R" horiz-adv-x="1278" 
d="M177 0v1406h436q217 0 339 -100.5t122 -306.5q0 -146 -75.5 -241.5t-198.5 -138.5l495 -619h-242l-468 588h-219v-588h-189zM610 757q121 0 198 61t77 181q0 237 -275 237h-244v-479h244z" />
    <glyph glyph-name="Racute" unicode="&#x154;" horiz-adv-x="1278" 
d="M887 1825l-304 -299l-94 49l281 340zM177 0v1406h436q217 0 339 -100.5t122 -306.5q0 -146 -75.5 -241.5t-198.5 -138.5l495 -619h-242l-468 588h-219v-588h-189zM610 757q121 0 198 61t77 181q0 237 -275 237h-244v-479h244z" />
    <glyph glyph-name="Rcaron" unicode="&#x158;" horiz-adv-x="1278" 
d="M700 1526h-156l-238 296l94 49l222 -230l223 230l93 -49zM177 0v1406h436q217 0 339 -100.5t122 -306.5q0 -146 -75.5 -241.5t-198.5 -138.5l495 -619h-242l-468 588h-219v-588h-189zM610 757q121 0 198 61t77 181q0 237 -275 237h-244v-479h244z" />
    <glyph glyph-name="uni0156" unicode="&#x156;" horiz-adv-x="1278" 
d="M177 0v1406h436q217 0 339 -100.5t122 -306.5q0 -146 -75.5 -241.5t-198.5 -138.5l495 -619h-242l-468 588h-219v-588h-189zM610 757q121 0 198 61t77 181q0 237 -275 237h-244v-479h244zM706 -462h-101l46 277h168z" />
    <glyph glyph-name="uni1E58" unicode="&#x1e58;" horiz-adv-x="1278" 
d="M538 1647q-33 31 -33 80t33 80t84 31q52 0 84.5 -31t32.5 -80t-32.5 -80t-84.5 -31q-51 0 -84 31zM177 0v1406h436q217 0 339 -100.5t122 -306.5q0 -146 -75.5 -241.5t-198.5 -138.5l495 -619h-242l-468 588h-219v-588h-189zM610 757q121 0 198 61t77 181q0 237 -275 237
h-244v-479h244z" />
    <glyph glyph-name="uni1E5A" unicode="&#x1e5a;" horiz-adv-x="1278" 
d="M177 0v1406h436q217 0 339 -100.5t122 -306.5q0 -146 -75.5 -241.5t-198.5 -138.5l495 -619h-242l-468 588h-219v-588h-189zM610 757q121 0 198 61t77 181q0 237 -275 237h-244v-479h244zM622.5 -330q-31.5 30 -31.5 76q0 47 31.5 77t81.5 30t81.5 -30t31.5 -77
q0 -46 -31.5 -76t-81.5 -30t-81.5 30z" />
    <glyph glyph-name="uni1E5C" unicode="&#x1e5c;" horiz-adv-x="1278" 
d="M924 1671h-605v113h605v-113zM177 0v1406h436q217 0 339 -100.5t122 -306.5q0 -146 -75.5 -241.5t-198.5 -138.5l495 -619h-242l-468 588h-219v-588h-189zM610 757q121 0 198 61t77 181q0 237 -275 237h-244v-479h244zM622.5 -330q-31.5 30 -31.5 76q0 47 31.5 77
t81.5 30t81.5 -30t31.5 -77q0 -46 -31.5 -76t-81.5 -30t-81.5 30z" />
    <glyph glyph-name="uni1E5E" unicode="&#x1e5e;" horiz-adv-x="1278" 
d="M177 0v1406h436q217 0 339 -100.5t122 -306.5q0 -146 -75.5 -241.5t-198.5 -138.5l495 -619h-242l-468 588h-219v-588h-189zM610 757q121 0 198 61t77 181q0 237 -275 237h-244v-479h244zM1066 -333h-691v112h691v-112z" />
    <glyph glyph-name="S" unicode="S" horiz-adv-x="1075" 
d="M312 23.5q-102 46.5 -165 132.5t-80 203l172 32q12 -80 57.5 -136.5t111 -85.5t136.5 -29q79 0 137.5 28.5t89.5 78t31 109.5q-1 80 -38 137.5t-126 100.5l-257 132q-123 62 -188 142t-65 204q0 99 49.5 180t144.5 129t225 48q115 0 202.5 -42.5t140 -119t65.5 -178.5
l-172 -32q-16 97 -78 153t-158 56q-73 0 -124.5 -25t-77.5 -68t-26 -97q0 -66 37 -108t127 -87l252 -130q131 -67 194 -159t63 -232q0 -111 -52.5 -197.5t-153.5 -136t-241 -49.5q-131 0 -233 46.5z" />
    <glyph glyph-name="Sacute" unicode="&#x15a;" horiz-adv-x="1075" 
d="M791 1825l-304 -299l-93 49l281 340zM312 23.5q-102 46.5 -165 132.5t-80 203l172 32q12 -80 57.5 -136.5t111 -85.5t136.5 -29q79 0 137.5 28.5t89.5 78t31 109.5q-1 80 -38 137.5t-126 100.5l-257 132q-123 62 -188 142t-65 204q0 99 49.5 180t144.5 129t225 48
q115 0 202.5 -42.5t140 -119t65.5 -178.5l-172 -32q-16 97 -78 153t-158 56q-73 0 -124.5 -25t-77.5 -68t-26 -97q0 -66 37 -108t127 -87l252 -130q131 -67 194 -159t63 -232q0 -111 -52.5 -197.5t-153.5 -136t-241 -49.5q-131 0 -233 46.5z" />
    <glyph glyph-name="Scaron" unicode="&#x160;" horiz-adv-x="1075" 
d="M604 1526h-156l-238 296l95 49l221 -230l223 230l94 -49zM312 23.5q-102 46.5 -165 132.5t-80 203l172 32q12 -80 57.5 -136.5t111 -85.5t136.5 -29q79 0 137.5 28.5t89.5 78t31 109.5q-1 80 -38 137.5t-126 100.5l-257 132q-123 62 -188 142t-65 204q0 99 49.5 180
t144.5 129t225 48q115 0 202.5 -42.5t140 -119t65.5 -178.5l-172 -32q-16 97 -78 153t-158 56q-73 0 -124.5 -25t-77.5 -68t-26 -97q0 -66 37 -108t127 -87l252 -130q131 -67 194 -159t63 -232q0 -111 -52.5 -197.5t-153.5 -136t-241 -49.5q-131 0 -233 46.5z" />
    <glyph glyph-name="Scedilla" unicode="&#x15e;" horiz-adv-x="1075" 
d="M316 -423l40 94q49 -32 114 -32q58 0 91.5 29t33.5 75q0 112 -163 112l53 124q-170 15 -281 114.5t-137 265.5l172 32q14 -83 60.5 -139.5t110.5 -84t134 -27.5q80 0 138.5 28.5t89 77.5t30.5 110q0 81 -39 138.5t-125 99.5l-257 132q-125 62 -189 142t-64 204
q0 99 49 180t144 129t226 48q120 0 207.5 -43t137.5 -120t63 -177l-172 -32q-17 96 -77.5 152.5t-158.5 56.5q-73 0 -124.5 -25t-77.5 -68t-26 -97q0 -64 36.5 -108t127.5 -87l252 -130q132 -67 194.5 -160t62.5 -231q0 -105 -47.5 -189t-139 -135t-219.5 -58l-26 -62
q83 -9 129.5 -53.5t46.5 -126.5q0 -63 -33.5 -107.5t-89 -67.5t-119.5 -23q-121 0 -178 39z" />
    <glyph glyph-name="Scircumflex" unicode="&#x15c;" horiz-adv-x="1075" 
d="M536 1755l-221 -229l-95 49l238 296h156l239 -296l-94 -49zM312 23.5q-102 46.5 -165 132.5t-80 203l172 32q12 -80 57.5 -136.5t111 -85.5t136.5 -29q79 0 137.5 28.5t89.5 78t31 109.5q-1 80 -38 137.5t-126 100.5l-257 132q-123 62 -188 142t-65 204q0 99 49.5 180
t144.5 129t225 48q115 0 202.5 -42.5t140 -119t65.5 -178.5l-172 -32q-16 97 -78 153t-158 56q-73 0 -124.5 -25t-77.5 -68t-26 -97q0 -66 37 -108t127 -87l252 -130q131 -67 194 -159t63 -232q0 -111 -52.5 -197.5t-153.5 -136t-241 -49.5q-131 0 -233 46.5z" />
    <glyph glyph-name="uni0218" unicode="&#x218;" horiz-adv-x="1075" 
d="M312 23.5q-102 46.5 -165 132.5t-80 203l172 32q12 -80 57.5 -136.5t111 -85.5t136.5 -29q79 0 137.5 28.5t89.5 78t31 109.5q-1 80 -38 137.5t-126 100.5l-257 132q-123 62 -188 142t-65 204q0 99 49.5 180t144.5 129t225 48q115 0 202.5 -42.5t140 -119t65.5 -178.5
l-172 -32q-16 97 -78 153t-158 56q-73 0 -124.5 -25t-77.5 -68t-26 -97q0 -66 37 -108t127 -87l252 -130q131 -67 194 -159t63 -232q0 -111 -52.5 -197.5t-153.5 -136t-241 -49.5q-131 0 -233 46.5zM532 -462h-101l46 277h168z" />
    <glyph glyph-name="uni1E62" unicode="&#x1e62;" horiz-adv-x="1075" 
d="M312 23.5q-102 46.5 -165 132.5t-80 203l172 32q12 -80 57.5 -136.5t111 -85.5t136.5 -29q79 0 137.5 28.5t89.5 78t31 109.5q-1 80 -38 137.5t-126 100.5l-257 132q-123 62 -188 142t-65 204q0 99 49.5 180t144.5 129t225 48q115 0 202.5 -42.5t140 -119t65.5 -178.5
l-172 -32q-16 97 -78 153t-158 56q-73 0 -124.5 -25t-77.5 -68t-26 -97q0 -66 37 -108t127 -87l252 -130q131 -67 194 -159t63 -232q0 -111 -52.5 -197.5t-153.5 -136t-241 -49.5q-131 0 -233 46.5zM444.5 -330q-31.5 30 -31.5 76q0 47 31.5 77t81.5 30t81.5 -30t31.5 -77
q0 -46 -31.5 -76t-81.5 -30t-81.5 30z" />
    <glyph glyph-name="uni1E9E" unicode="&#x1e9e;" horiz-adv-x="1311" 
d="M616 -11.5q-49 3.5 -111 11.5v151h231q85 0 155 32.5t111 94.5t41 146q0 79 -38 139t-108 92.5t-165 32.5h-178v133l329 416h-289q-74 0 -129.5 -30.5t-85.5 -85.5t-31 -128v-993h-189v994q0 122 53.5 215.5t152 145t229.5 51.5h521v-113l-373 -466h74q111 0 205.5 -44
t152.5 -133.5t58 -220.5q0 -134 -63 -234.5t-175.5 -155t-258.5 -54.5q-70 0 -119 3.5z" />
    <glyph glyph-name="T" unicode="T" horiz-adv-x="1139" 
d="M664 0h-189v1237h-485v169h1159v-169h-485v-1237z" />
    <glyph glyph-name="Tbar" unicode="&#x166;" horiz-adv-x="1139" 
d="M664 0h-189v609h-290v103h290v525h-485v169h1159v-169h-485v-525h290v-103h-290v-609z" />
    <glyph glyph-name="Tcaron" unicode="&#x164;" horiz-adv-x="1139" 
d="M648 1526h-156l-238 296l94 49l222 -230l222 230l94 -49zM664 0h-189v1237h-485v169h1159v-169h-485v-1237z" />
    <glyph glyph-name="uni0162" unicode="&#x162;" horiz-adv-x="1139" 
d="M353 -423l39 94q27 -18 53.5 -25t61.5 -7q56 0 90.5 28.5t34.5 75.5q0 56 -42.5 84t-120.5 28l61 145h-55v1237h-485v169h1159v-169h-485v-1237h-32l-35 -84q83 -9 129.5 -54.5t46.5 -125.5q0 -61 -32.5 -106t-88 -68.5t-122.5 -23.5q-117 0 -177 39z" />
    <glyph glyph-name="uni021A" unicode="&#x21a;" horiz-adv-x="1139" 
d="M664 0h-189v1237h-485v169h1159v-169h-485v-1237zM568 -462h-101l46 277h168z" />
    <glyph glyph-name="uni1E6C" unicode="&#x1e6c;" horiz-adv-x="1139" 
d="M664 0h-189v1237h-485v169h1159v-169h-485v-1237zM488.5 -330q-31.5 30 -31.5 76q0 47 31.5 77t81.5 30q49 0 80.5 -30t31.5 -77q0 -46 -31.5 -76t-80.5 -30q-50 0 -81.5 30z" />
    <glyph glyph-name="U" unicode="U" horiz-adv-x="1516" 
d="M444 37.5q-133 69.5 -204 192t-71 279.5v897h189v-899q0 -106 49 -190t139.5 -131.5t211.5 -47.5t211 47.5t139 131.5t49 190v899h190v-897q0 -157 -71 -279.5t-204.5 -192t-313.5 -69.5q-181 0 -314 69.5z" />
    <glyph glyph-name="Uacute" unicode="&#xda;" horiz-adv-x="1516" 
d="M1023 1825l-304 -299l-94 49l281 340zM444 37.5q-133 69.5 -204 192t-71 279.5v897h189v-899q0 -106 49 -190t139.5 -131.5t211.5 -47.5t211 47.5t139 131.5t49 190v899h190v-897q0 -157 -71 -279.5t-204.5 -192t-313.5 -69.5q-181 0 -314 69.5z" />
    <glyph glyph-name="Ubreve" unicode="&#x16c;" horiz-adv-x="1516" 
d="M600.5 1581.5q-71.5 42.5 -113.5 115.5t-42 161h110q0 -53 27.5 -97.5t74 -70t100.5 -25.5q53 0 99.5 25.5t74 70t27.5 97.5h113q0 -88 -42 -161t-114 -115.5t-158 -42.5q-85 0 -156.5 42.5zM444 37.5q-133 69.5 -204 192t-71 279.5v897h189v-899q0 -106 49 -190
t139.5 -131.5t211.5 -47.5t211 47.5t139 131.5t49 190v899h190v-897q0 -157 -71 -279.5t-204.5 -192t-313.5 -69.5q-181 0 -314 69.5z" />
    <glyph glyph-name="Ucircumflex" unicode="&#xdb;" horiz-adv-x="1516" 
d="M758 1755l-222 -229l-94 49l238 296h156l238 -296l-93 -49zM444 37.5q-133 69.5 -204 192t-71 279.5v897h189v-899q0 -106 49 -190t139.5 -131.5t211.5 -47.5t211 47.5t139 131.5t49 190v899h190v-897q0 -157 -71 -279.5t-204.5 -192t-313.5 -69.5q-181 0 -314 69.5z" />
    <glyph glyph-name="Udieresis" unicode="&#xdc;" horiz-adv-x="1516" 
d="M486 1647q-31 31 -31 80t31 80t80 31t80.5 -31t31.5 -80t-31.5 -80t-80.5 -31t-80 31zM869.5 1647q-31.5 31 -31.5 80t31.5 80t80.5 31t80 -31t31 -80t-31 -80t-80 -31t-80.5 31zM444 37.5q-133 69.5 -204 192t-71 279.5v897h189v-899q0 -106 49 -190t139.5 -131.5
t211.5 -47.5t211 47.5t139 131.5t49 190v899h190v-897q0 -157 -71 -279.5t-204.5 -192t-313.5 -69.5q-181 0 -314 69.5z" />
    <glyph glyph-name="Udoubleacute" unicode="&#x170;" horiz-adv-x="1516" 
d="M874 1804l-303 -299l-81 62l267 326zM1215 1801l-304 -299l-81 62l269 326zM444 37.5q-133 69.5 -204 192t-71 279.5v897h189v-899q0 -106 49 -190t139.5 -131.5t211.5 -47.5t211 47.5t139 131.5t49 190v899h190v-897q0 -157 -71 -279.5t-204.5 -192t-313.5 -69.5
q-181 0 -314 69.5z" />
    <glyph glyph-name="Ugrave" unicode="&#xd9;" horiz-adv-x="1516" 
d="M890 1575l-94 -49l-303 299l117 90zM444 37.5q-133 69.5 -204 192t-71 279.5v897h189v-899q0 -106 49 -190t139.5 -131.5t211.5 -47.5t211 47.5t139 131.5t49 190v899h190v-897q0 -157 -71 -279.5t-204.5 -192t-313.5 -69.5q-181 0 -314 69.5z" />
    <glyph glyph-name="Umacron" unicode="&#x16a;" horiz-adv-x="1516" 
d="M1060 1671h-605v113h605v-113zM444 37.5q-133 69.5 -204 192t-71 279.5v897h189v-899q0 -106 49 -190t139.5 -131.5t211.5 -47.5t211 47.5t139 131.5t49 190v899h190v-897q0 -157 -71 -279.5t-204.5 -192t-313.5 -69.5q-181 0 -314 69.5z" />
    <glyph glyph-name="Uogonek" unicode="&#x172;" horiz-adv-x="1516" 
d="M794 -421.5q-46 40.5 -46 104.5q0 44 16.5 79t47.5 66l158 172q-98 -32 -212 -32q-182 0 -315 69.5t-203.5 192.5t-70.5 279v897h189v-899q0 -107 49 -191t139.5 -131t211.5 -47q122 0 212.5 48t138.5 132t48 189v899h190v-897q0 -129 -51.5 -234t-144.5 -174l-237 -310
q-27 -34 -27 -72q0 -31 20.5 -51.5t57.5 -20.5q27 0 48 7.5t42 23.5l32 -100q-32 -20 -74 -30t-86 -10q-87 0 -133 40.5z" />
    <glyph glyph-name="Uring" unicode="&#x16e;" horiz-adv-x="1516" 
d="M656.5 1531.5q-46.5 26.5 -73.5 72.5t-27 102t27 102t73 72.5t102 26.5t102 -26.5t73 -72.5t27 -102t-27 -102t-73 -72.5t-102 -26.5q-55 0 -101.5 26.5zM839.5 1623q33.5 34 33.5 83t-33.5 83t-81.5 34t-81.5 -34t-33.5 -83t33.5 -83t81.5 -34t81.5 34zM444 37.5
q-133 69.5 -204 192t-71 279.5v897h189v-899q0 -106 49 -190t139.5 -131.5t211.5 -47.5t211 47.5t139 131.5t49 190v899h190v-897q0 -157 -71 -279.5t-204.5 -192t-313.5 -69.5q-181 0 -314 69.5z" />
    <glyph glyph-name="Utilde" unicode="&#x168;" horiz-adv-x="1516" 
d="M818.5 1599q-33.5 15 -76.5 44q-37 25 -61.5 37t-53.5 12q-36 0 -66.5 -24t-46.5 -61l-86 74q28 67 79.5 106.5t114.5 39.5q42 0 75.5 -15t76.5 -44q37 -25 61.5 -37t53.5 -12q36 0 66.5 24t47.5 61l85 -74q-27 -66 -78.5 -106t-115.5 -40q-42 0 -75.5 15zM444 37.5
q-133 69.5 -204 192t-71 279.5v897h189v-899q0 -106 49 -190t139.5 -131.5t211.5 -47.5t211 47.5t139 131.5t49 190v899h190v-897q0 -157 -71 -279.5t-204.5 -192t-313.5 -69.5q-181 0 -314 69.5z" />
    <glyph glyph-name="V" unicode="V" horiz-adv-x="1322" 
d="M764 0h-206l-564 1406h207l460 -1181l460 1181h207z" />
    <glyph glyph-name="W" unicode="W" horiz-adv-x="2033" 
d="M736 0h-215l-520 1406h204l436 -1190l290 780l-139 410h199l404 -1179l433 1179h204l-520 -1406h-215l-280 746z" />
    <glyph glyph-name="Wacute" unicode="&#x1e82;" horiz-adv-x="2033" 
d="M1281 1825l-304 -299l-93 49l281 340zM736 0h-215l-520 1406h204l436 -1190l290 780l-139 410h199l404 -1179l433 1179h204l-520 -1406h-215l-280 746z" />
    <glyph glyph-name="Wcircumflex" unicode="&#x174;" horiz-adv-x="2033" 
d="M1016 1755l-221 -229l-95 49l238 296h156l239 -296l-94 -49zM736 0h-215l-520 1406h204l436 -1190l290 780l-139 410h199l404 -1179l433 1179h204l-520 -1406h-215l-280 746z" />
    <glyph glyph-name="Wdieresis" unicode="&#x1e84;" horiz-adv-x="2033" 
d="M744.5 1647q-31.5 31 -31.5 80t31.5 80t80.5 31t80 -31t31 -80t-31 -80t-80 -31t-80.5 31zM1128 1647q-31 31 -31 80t31 80t80 31t80.5 -31t31.5 -80t-31.5 -80t-80.5 -31t-80 31zM736 0h-215l-520 1406h204l436 -1190l290 780l-139 410h199l404 -1179l433 1179h204
l-520 -1406h-215l-280 746z" />
    <glyph glyph-name="uni1E88" unicode="&#x1e88;" horiz-adv-x="2033" 
d="M736 0h-215l-520 1406h204l436 -1190l290 780l-139 410h199l404 -1179l433 1179h204l-520 -1406h-215l-280 746zM934.5 -330q-31.5 30 -31.5 76q0 47 31.5 77t81.5 30t81.5 -30t31.5 -77q0 -46 -31.5 -76t-81.5 -30t-81.5 30z" />
    <glyph glyph-name="Wgrave" unicode="&#x1e80;" horiz-adv-x="2033" 
d="M1149 1575l-94 -49l-304 299l117 90zM736 0h-215l-520 1406h204l436 -1190l290 780l-139 410h199l404 -1179l433 1179h204l-520 -1406h-215l-280 746z" />
    <glyph glyph-name="X" unicode="X" horiz-adv-x="1258" 
d="M630 576l-392 -576l-225 1l505 740l-452 666h222l342 -501l341 501h222l-451 -666l504 -740h-225z" />
    <glyph glyph-name="Y" unicode="Y" horiz-adv-x="1121" 
d="M655 0h-190v577l-491 829h222l364 -643l364 643h223l-492 -829v-577z" />
    <glyph glyph-name="Yacute" unicode="&#xdd;" horiz-adv-x="1121" 
d="M825 1825l-304 -299l-93 49l281 340zM655 0h-190v577l-491 829h222l364 -643l364 643h223l-492 -829v-577z" />
    <glyph glyph-name="Ycircumflex" unicode="&#x176;" horiz-adv-x="1121" 
d="M560 1755l-221 -229l-95 49l238 296h156l239 -296l-94 -49zM655 0h-190v577l-491 829h222l364 -643l364 643h223l-492 -829v-577z" />
    <glyph glyph-name="Ydieresis" unicode="&#x178;" horiz-adv-x="1121" 
d="M288.5 1647q-31.5 31 -31.5 80t31.5 80t80.5 31t80 -31t31 -80t-31 -80t-80 -31t-80.5 31zM672 1647q-31 31 -31 80t31 80t80 31t80.5 -31t31.5 -80t-31.5 -80t-80.5 -31t-80 31zM655 0h-190v577l-491 829h222l364 -643l364 643h223l-492 -829v-577z" />
    <glyph glyph-name="uni1EF4" unicode="&#x1ef4;" horiz-adv-x="1121" 
d="M655 0h-190v577l-491 829h222l364 -643l364 643h223l-492 -829v-577zM478.5 -330q-31.5 30 -31.5 76q0 47 31.5 77t81.5 30t81.5 -30t31.5 -77q0 -46 -31.5 -76t-81.5 -30t-81.5 30z" />
    <glyph glyph-name="Ygrave" unicode="&#x1ef2;" horiz-adv-x="1121" 
d="M693 1575l-94 -49l-304 299l117 90zM655 0h-190v577l-491 829h222l364 -643l364 643h223l-492 -829v-577z" />
    <glyph glyph-name="uni0232" unicode="&#x232;" horiz-adv-x="1121" 
d="M863 1671h-606v113h606v-113zM655 0h-190v577l-491 829h222l364 -643l364 643h223l-492 -829v-577z" />
    <glyph glyph-name="Z" unicode="Z" horiz-adv-x="1055" 
d="M1024 0h-942v112l665 1125h-629v169h871v-111l-664 -1125h699v-170z" />
    <glyph glyph-name="Zacute" unicode="&#x179;" horiz-adv-x="1055" 
d="M819 1825l-304 -299l-94 49l281 340zM1024 0h-942v112l665 1125h-629v169h871v-111l-664 -1125h699v-170z" />
    <glyph glyph-name="Zcaron" unicode="&#x17d;" horiz-adv-x="1055" 
d="M632 1526h-156l-238 296l94 49l222 -230l222 230l94 -49zM1024 0h-942v112l665 1125h-629v169h871v-111l-664 -1125h699v-170z" />
    <glyph glyph-name="Zdotaccent" unicode="&#x17b;" horiz-adv-x="1055" 
d="M469.5 1647q-32.5 31 -32.5 80t32.5 80t84.5 31q51 0 84 -31t33 -80t-33 -80t-84 -31q-52 0 -84.5 31zM1024 0h-942v112l665 1125h-629v169h871v-111l-664 -1125h699v-170z" />
    <glyph glyph-name="uni1E92" unicode="&#x1e92;" horiz-adv-x="1055" 
d="M1024 0h-942v112l665 1125h-629v169h871v-111l-664 -1125h699v-170zM472.5 -330q-31.5 30 -31.5 76q0 47 31.5 77t81.5 30q49 0 80.5 -30t31.5 -77q0 -46 -31.5 -76t-80.5 -30q-50 0 -81.5 30z" />
    <glyph glyph-name="J.ss01" horiz-adv-x="1150" 
d="M293 18.5q-98 50.5 -155 143t-69 216.5l185 15q13 -121 83 -188t184 -67q128 0 199 81t71 229v958h190v-952q0 -159 -55.5 -268t-158.5 -163.5t-244 -54.5q-132 0 -230 50.5z" />
    <glyph glyph-name="Jcircumflex.ss01" horiz-adv-x="1150" 
d="M879 1755l-222 -229l-94 49l238 296h156l238 -296l-93 -49zM293 18.5q-98 50.5 -155 143t-69 216.5l185 15q13 -121 83 -188t184 -67q128 0 199 81t71 229v958h190v-952q0 -159 -55.5 -268t-158.5 -163.5t-244 -54.5q-132 0 -230 50.5z" />
    <glyph glyph-name="W.ss02" horiz-adv-x="1983" 
d="M639 0h-201l-437 1406h204l346 -1150l364 1150h153l365 -1150l345 1150h204l-436 -1406h-201l-353 1082z" />
    <glyph glyph-name="Wacute.ss02" horiz-adv-x="1983" 
d="M1255 1825l-303 -299l-94 49l281 340zM639 0h-201l-437 1406h204l346 -1150l364 1150h153l365 -1150l345 1150h204l-436 -1406h-201l-353 1082z" />
    <glyph glyph-name="Wcircumflex.ss02" horiz-adv-x="1983" 
d="M992 1755l-223 -229l-93 49l238 296h156l238 -296l-94 -49zM639 0h-201l-437 1406h204l346 -1150l364 1150h153l365 -1150l345 1150h204l-436 -1406h-201l-353 1082z" />
    <glyph glyph-name="Wdieresis.ss02" horiz-adv-x="1983" 
d="M720 1647q-31 31 -31 80t31 80t80 31t80.5 -31t31.5 -80t-31.5 -80t-80.5 -31t-80 31zM1103 1647q-31 31 -31 80t31 80t80 31t80.5 -31t31.5 -80t-31.5 -80t-80.5 -31t-80 31zM639 0h-201l-437 1406h204l346 -1150l364 1150h153l365 -1150l345 1150h204l-436 -1406h-201
l-353 1082z" />
    <glyph glyph-name="uni1E88.ss02" horiz-adv-x="1983" 
d="M639 0h-201l-437 1406h204l346 -1150l364 1150h153l365 -1150l345 1150h204l-436 -1406h-201l-353 1082zM910.5 -330q-31.5 30 -31.5 76q0 47 31.5 77t81.5 30q49 0 80.5 -30t31.5 -77q0 -46 -31.5 -76t-80.5 -30q-50 0 -81.5 30z" />
    <glyph glyph-name="Wgrave.ss02" horiz-adv-x="1983" 
d="M1125 1575l-94 -49l-304 299l117 90zM639 0h-201l-437 1406h204l346 -1150l364 1150h153l365 -1150l345 1150h204l-436 -1406h-201l-353 1082z" />
    <glyph glyph-name="a" unicode="a" horiz-adv-x="1068" 
d="M222 0q-66 32 -100 90t-34 135q0 109 71 193.5t198 120.5l367 101v78q0 105 -56.5 164.5t-160.5 59.5q-54 0 -101 -26.5t-78.5 -77t-40.5 -119.5l-170 25q16 108 71.5 189t139 125t182.5 44q197 0 297 -100.5t100 -283.5v-718h-165v147h-5q-61 -85 -154.5 -132
t-200.5 -47q-94 0 -160 32zM573.5 175.5q67.5 38.5 109 98.5t41.5 119v107l-294 -78q-78 -20 -119 -63t-41 -102q0 -55 41.5 -87.5t121.5 -32.5q73 0 140.5 38.5z" />
    <glyph glyph-name="aacute" unicode="&#xe1;" horiz-adv-x="1068" 
d="M785 1499l-304 -299l-94 49l281 340zM222 0q-66 32 -100 90t-34 135q0 109 71 193.5t198 120.5l367 101v78q0 105 -56.5 164.5t-160.5 59.5q-54 0 -101 -26.5t-78.5 -77t-40.5 -119.5l-170 25q16 108 71.5 189t139 125t182.5 44q197 0 297 -100.5t100 -283.5v-718h-165
v147h-5q-61 -85 -154.5 -132t-200.5 -47q-94 0 -160 32zM573.5 175.5q67.5 38.5 109 98.5t41.5 119v107l-294 -78q-78 -20 -119 -63t-41 -102q0 -55 41.5 -87.5t121.5 -32.5q73 0 140.5 38.5z" />
    <glyph glyph-name="abreve" unicode="&#x103;" horiz-adv-x="1068" 
d="M362 1234.5q-72 42.5 -114 115.5t-42 161h111q0 -53 27.5 -97.5t73.5 -70t100 -25.5t100 25.5t73.5 70t27.5 97.5h113q0 -88 -42 -161t-114 -115.5t-158 -42.5q-84 0 -156 42.5zM222 0q-66 32 -100 90t-34 135q0 109 71 193.5t198 120.5l367 101v78q0 105 -56.5 164.5
t-160.5 59.5q-54 0 -101 -26.5t-78.5 -77t-40.5 -119.5l-170 25q16 108 71.5 189t139 125t182.5 44q197 0 297 -100.5t100 -283.5v-718h-165v147h-5q-61 -85 -154.5 -132t-200.5 -47q-94 0 -160 32zM573.5 175.5q67.5 38.5 109 98.5t41.5 119v107l-294 -78q-78 -20 -119 -63
t-41 -102q0 -55 41.5 -87.5t121.5 -32.5q73 0 140.5 38.5z" />
    <glyph glyph-name="acircumflex" unicode="&#xe2;" horiz-adv-x="1068" 
d="M520 1408l-222 -229l-94 49l238 296h156l238 -296l-94 -49zM222 0q-66 32 -100 90t-34 135q0 109 71 193.5t198 120.5l367 101v78q0 105 -56.5 164.5t-160.5 59.5q-54 0 -101 -26.5t-78.5 -77t-40.5 -119.5l-170 25q16 108 71.5 189t139 125t182.5 44q197 0 297 -100.5
t100 -283.5v-718h-165v147h-5q-61 -85 -154.5 -132t-200.5 -47q-94 0 -160 32zM573.5 175.5q67.5 38.5 109 98.5t41.5 119v107l-294 -78q-78 -20 -119 -63t-41 -102q0 -55 41.5 -87.5t121.5 -32.5q73 0 140.5 38.5z" />
    <glyph glyph-name="adieresis" unicode="&#xe4;" horiz-adv-x="1068" 
d="M248 1300q-31 31 -31 80t31 80t80 31t80.5 -31t31.5 -80t-31.5 -80t-80.5 -31t-80 31zM631 1300q-31 31 -31 80t31 80t80 31t80.5 -31t31.5 -80t-31.5 -80t-80.5 -31t-80 31zM222 0q-66 32 -100 90t-34 135q0 109 71 193.5t198 120.5l367 101v78q0 105 -56.5 164.5
t-160.5 59.5q-54 0 -101 -26.5t-78.5 -77t-40.5 -119.5l-170 25q16 108 71.5 189t139 125t182.5 44q197 0 297 -100.5t100 -283.5v-718h-165v147h-5q-61 -85 -154.5 -132t-200.5 -47q-94 0 -160 32zM573.5 175.5q67.5 38.5 109 98.5t41.5 119v107l-294 -78q-78 -20 -119 -63
t-41 -102q0 -55 41.5 -87.5t121.5 -32.5q73 0 140.5 38.5z" />
    <glyph glyph-name="agrave" unicode="&#xe0;" horiz-adv-x="1068" 
d="M652 1249l-94 -49l-304 299l117 90zM222 0q-66 32 -100 90t-34 135q0 109 71 193.5t198 120.5l367 101v78q0 105 -56.5 164.5t-160.5 59.5q-54 0 -101 -26.5t-78.5 -77t-40.5 -119.5l-170 25q16 108 71.5 189t139 125t182.5 44q197 0 297 -100.5t100 -283.5v-718h-165
v147h-5q-61 -85 -154.5 -132t-200.5 -47q-94 0 -160 32zM573.5 175.5q67.5 38.5 109 98.5t41.5 119v107l-294 -78q-78 -20 -119 -63t-41 -102q0 -55 41.5 -87.5t121.5 -32.5q73 0 140.5 38.5z" />
    <glyph glyph-name="amacron" unicode="&#x101;" horiz-adv-x="1068" 
d="M822 1324h-605v113h605v-113zM222 0q-66 32 -100 90t-34 135q0 109 71 193.5t198 120.5l367 101v78q0 105 -56.5 164.5t-160.5 59.5q-54 0 -101 -26.5t-78.5 -77t-40.5 -119.5l-170 25q16 108 71.5 189t139 125t182.5 44q197 0 297 -100.5t100 -283.5v-718h-165v147h-5
q-61 -85 -154.5 -132t-200.5 -47q-94 0 -160 32zM573.5 175.5q67.5 38.5 109 98.5t41.5 119v107l-294 -78q-78 -20 -119 -63t-41 -102q0 -55 41.5 -87.5t121.5 -32.5q73 0 140.5 38.5z" />
    <glyph glyph-name="aogonek" unicode="&#x105;" horiz-adv-x="1068" 
d="M628.5 -420.5q-44.5 41.5 -44.5 103.5q0 43 16 78t48 70l139 169h-45v147h-5q-63 -86 -156.5 -132.5t-198.5 -46.5q-145 0 -219.5 70.5t-74.5 186.5q0 107 69.5 191.5t199.5 122.5l367 101v78q0 103 -55 163.5t-162 60.5q-52 0 -98.5 -25.5t-79 -75.5t-42.5 -122l-170 25
q18 114 74.5 194.5t139.5 122t179 41.5q202 0 299.5 -102.5t97.5 -281.5v-718h-14l-143 -206q-27 -32 -27 -75q0 -31 20 -51.5t58 -20.5q57 0 91 31l31 -100q-73 -40 -160 -40q-90 0 -134.5 41.5zM574.5 175.5q67.5 38.5 108.5 98.5t41 119v107l-294 -78q-79 -21 -119.5 -64
t-40.5 -101q0 -54 40.5 -87t122.5 -33q74 0 141.5 38.5z" />
    <glyph glyph-name="aring" unicode="&#xe5;" horiz-adv-x="1068" 
d="M418.5 1184.5q-46.5 26.5 -74 72.5t-27.5 102t27 102t73.5 72.5t102.5 26.5t102 -26.5t72.5 -72.5t26.5 -102t-26.5 -102t-72.5 -72.5t-102 -26.5q-55 0 -101.5 26.5zM601 1276q34 34 34 83t-34 83t-81 34q-48 0 -82 -34t-34 -83t34 -83t82 -34q47 0 81 34zM222 0
q-66 32 -100 90t-34 135q0 109 71 193.5t198 120.5l367 101v78q0 105 -56.5 164.5t-160.5 59.5q-54 0 -101 -26.5t-78.5 -77t-40.5 -119.5l-170 25q16 108 71.5 189t139 125t182.5 44q197 0 297 -100.5t100 -283.5v-718h-165v147h-5q-61 -85 -154.5 -132t-200.5 -47
q-94 0 -160 32zM573.5 175.5q67.5 38.5 109 98.5t41.5 119v107l-294 -78q-78 -20 -119 -63t-41 -102q0 -55 41.5 -87.5t121.5 -32.5q73 0 140.5 38.5z" />
    <glyph glyph-name="atilde" unicode="&#xe3;" horiz-adv-x="1068" 
d="M580.5 1252q-33.5 15 -76.5 44q-37 25 -61.5 37t-53.5 12q-36 0 -66.5 -24t-47.5 -61l-85 74q27 66 78.5 106t114.5 40q43 0 75.5 -15t76.5 -44q37 -25 62 -37t54 -12q35 0 66 24t47 61l86 -74q-28 -67 -79.5 -106.5t-114.5 -39.5q-42 0 -75.5 15zM222 0q-66 32 -100 90
t-34 135q0 109 71 193.5t198 120.5l367 101v78q0 105 -56.5 164.5t-160.5 59.5q-54 0 -101 -26.5t-78.5 -77t-40.5 -119.5l-170 25q16 108 71.5 189t139 125t182.5 44q197 0 297 -100.5t100 -283.5v-718h-165v147h-5q-61 -85 -154.5 -132t-200.5 -47q-94 0 -160 32z
M573.5 175.5q67.5 38.5 109 98.5t41.5 119v107l-294 -78q-78 -20 -119 -63t-41 -102q0 -55 41.5 -87.5t121.5 -32.5q73 0 140.5 38.5z" />
    <glyph glyph-name="ae" unicode="&#xe6;" horiz-adv-x="1875" 
d="M222.5 0q-66.5 32 -100.5 90t-34 135q0 109 71.5 193.5t198.5 120.5l367 101v78q0 105 -56.5 164.5t-160.5 59.5q-53 0 -100.5 -26.5t-80 -77t-40.5 -119.5l-170 25q17 109 72 190t138.5 124.5t183.5 43.5q124 0 211.5 -48.5t133.5 -136.5q74 93 176.5 139t225.5 46
q147 0 267.5 -64t193.5 -187t78 -293q0 -58 -4 -79h-885v-109q37 -114 131.5 -181t220.5 -67q129 0 219 55.5t143 155.5l144 -85q-43 -85 -120.5 -148.5t-177 -97.5t-205.5 -34q-101 0 -190.5 32.5t-157 92t-104.5 136.5q-65 -127 -167 -194t-261 -67q-94 0 -160.5 32z
M1615 617q-7 98 -55 174t-127 118.5t-175 42.5q-123 0 -217.5 -68t-132.5 -182v-85h707zM574 175.5q68 38.5 110 98.5t42 119v107l-295 -78q-79 -20 -120 -63t-41 -102q0 -54 42 -87t122 -33q72 0 140 38.5z" />
    <glyph glyph-name="b" unicode="b" horiz-adv-x="1372" 
d="M509 19q-101 51 -162 128h-5v-147h-165v1522h179v-588q63 73 159.5 120.5t224.5 47.5q153 0 278.5 -72.5t197.5 -202t72 -292.5t-72 -292.5t-197.5 -202t-278.5 -72.5q-130 0 -231 51zM924.5 185.5q86.5 51.5 135.5 142.5t49 207t-49 207.5t-135.5 143t-194.5 51.5
t-194.5 -51.5t-135.5 -143t-49 -207.5t49 -207t135.5 -142.5t194.5 -51.5t194.5 51.5z" />
    <glyph glyph-name="c" unicode="c" horiz-adv-x="1204" 
d="M357.5 40.5q-128.5 72.5 -201.5 202t-73 292.5t73 292.5t201.5 202t288.5 72.5q116 0 218 -40.5t177.5 -114.5t115.5 -172l-166 -69q-45 111 -137.5 171t-207.5 60q-107 0 -194.5 -51t-138.5 -142.5t-51 -208.5t51 -208.5t138.5 -142.5t194.5 -51q115 0 207.5 60
t137.5 171l166 -69q-40 -98 -115.5 -172t-177.5 -114.5t-218 -40.5q-160 0 -288.5 72.5z" />
    <glyph glyph-name="cacute" unicode="&#x107;" horiz-adv-x="1204" 
d="M924 1499l-304 -299l-94 49l281 340zM356.5 40.5q-128.5 72.5 -201.5 202t-73 292.5t73 292.5t201.5 202t288.5 72.5q116 0 218 -40.5t177.5 -114.5t115.5 -172l-166 -69q-45 111 -137.5 171t-207.5 60q-107 0 -194.5 -51t-138.5 -142.5t-51 -208.5t51 -208.5
t138.5 -142.5t194.5 -51q115 0 207.5 60t137.5 171l166 -69q-40 -98 -115.5 -172t-177.5 -114.5t-218 -40.5q-160 0 -288.5 72.5z" />
    <glyph glyph-name="ccaron" unicode="&#x10d;" horiz-adv-x="1204" 
d="M724 1179h-156l-238 296l94 49l222 -230l222 230l94 -49zM356.5 40.5q-128.5 72.5 -201.5 202t-73 292.5t73 292.5t201.5 202t288.5 72.5q116 0 218 -40.5t177.5 -114.5t115.5 -172l-166 -69q-45 111 -137.5 171t-207.5 60q-107 0 -194.5 -51t-138.5 -142.5t-51 -208.5
t51 -208.5t138.5 -142.5t194.5 -51q115 0 207.5 60t137.5 171l166 -69q-40 -98 -115.5 -172t-177.5 -114.5t-218 -40.5q-160 0 -288.5 72.5z" />
    <glyph glyph-name="ccedilla" unicode="&#xe7;" horiz-adv-x="1204" 
d="M420 -423l40 94q26 -18 53.5 -25t61.5 -7q57 0 91 29t34 75q0 112 -163 112l48 116q-147 13 -261.5 88.5t-178 199.5t-63.5 276q0 166 73 295t201.5 200.5t288.5 71.5q119 0 220.5 -41t175.5 -115t115 -171l-166 -69q-48 115 -140.5 173t-204.5 58q-108 0 -195.5 -51
t-138 -143t-50.5 -208q0 -120 51.5 -211.5t139.5 -141t193 -49.5q112 0 204.5 58t140.5 173l166 -69q-61 -145 -187 -230.5t-283 -95.5l-22 -53q83 -9 130 -53.5t47 -126.5q0 -62 -32.5 -106.5t-88.5 -68t-123 -23.5q-121 0 -177 39z" />
    <glyph glyph-name="ccircumflex" unicode="&#x109;" horiz-adv-x="1204" 
d="M659 1408l-222 -229l-94 49l238 296h156l238 -296l-93 -49zM356.5 40.5q-128.5 72.5 -201.5 202t-73 292.5t73 292.5t201.5 202t288.5 72.5q116 0 218 -40.5t177.5 -114.5t115.5 -172l-166 -69q-45 111 -137.5 171t-207.5 60q-107 0 -194.5 -51t-138.5 -142.5t-51 -208.5
t51 -208.5t138.5 -142.5t194.5 -51q115 0 207.5 60t137.5 171l166 -69q-40 -98 -115.5 -172t-177.5 -114.5t-218 -40.5q-160 0 -288.5 72.5z" />
    <glyph glyph-name="cdotaccent" unicode="&#x10b;" horiz-adv-x="1204" 
d="M575 1300q-33 31 -33 80t33 80t84 31q52 0 84.5 -31t32.5 -80t-32.5 -80t-84.5 -31q-51 0 -84 31zM356.5 40.5q-128.5 72.5 -201.5 202t-73 292.5t73 292.5t201.5 202t288.5 72.5q116 0 218 -40.5t177.5 -114.5t115.5 -172l-166 -69q-45 111 -137.5 171t-207.5 60
q-107 0 -194.5 -51t-138.5 -142.5t-51 -208.5t51 -208.5t138.5 -142.5t194.5 -51q115 0 207.5 60t137.5 171l166 -69q-40 -98 -115.5 -172t-177.5 -114.5t-218 -40.5q-160 0 -288.5 72.5z" />
    <glyph glyph-name="d" unicode="d" horiz-adv-x="1372" 
d="M353.5 40.5q-125.5 72.5 -197.5 202t-72 292.5t72 292.5t197.5 202t278.5 72.5q128 0 224.5 -47.5t159.5 -120.5v588h179v-1522h-165v147h-5q-61 -77 -162 -128t-231 -51q-153 0 -278.5 72.5zM836.5 185.5q86.5 51.5 135.5 142.5t49 207t-49 207.5t-135.5 143
t-194.5 51.5t-194.5 -51.5t-135.5 -143t-49 -207.5t49 -207t135.5 -142.5t194.5 -51.5t194.5 51.5z" />
    <glyph glyph-name="eth" unicode="&#xf0;" horiz-adv-x="1295" 
d="M354 40.5q-127 72.5 -198.5 201.5t-71.5 293q0 162 71 289t194.5 198t273.5 71q140 0 242 -88q-91 169 -229 310l-377 -100l-27 100l332 89q-70 69 -122 113l153 46q60 -55 122 -118l304 81l26 -100l-257 -69q129 -145 219.5 -295.5t149.5 -317.5q36 -99 36 -209
q0 -164 -71 -293t-197.5 -201.5t-286.5 -72.5q-159 0 -286 72.5zM833.5 189.5q85.5 50.5 134 141t48.5 204.5t-48.5 204.5t-134 141t-193.5 50.5q-107 0 -193 -50.5t-134.5 -141t-48.5 -204.5t48.5 -204.5t134.5 -141t193 -50.5q108 0 193.5 50.5z" />
    <glyph glyph-name="dcaron" unicode="&#x10f;" horiz-adv-x="1372" 
d="M353.5 40.5q-125.5 72.5 -197.5 202t-72 292.5t72 292.5t197.5 202t278.5 72.5q128 0 224.5 -47.5t159.5 -120.5v588h179v-1522h-165v147h-5q-61 -77 -162 -128t-231 -51q-153 0 -278.5 72.5zM1364 1245h-102l47 277h168zM836.5 185.5q86.5 51.5 135.5 142.5t49 207
t-49 207.5t-135.5 143t-194.5 51.5t-194.5 -51.5t-135.5 -143t-49 -207.5t49 -207t135.5 -142.5t194.5 -51.5t194.5 51.5z" />
    <glyph glyph-name="dcroat" unicode="&#x111;" horiz-adv-x="1372" 
d="M350 41q-125 73 -195.5 202.5t-70.5 291.5q0 165 72 294t197.5 201t278.5 72q127 0 224 -47.5t160 -120.5v303h-454v103h454v182h179v-182h137v-103h-137v-1237h-165v147h-5q-57 -75 -158.5 -127t-234.5 -52q-157 0 -282 73zM836.5 184.5q86.5 50.5 135.5 142t49 208.5
t-49 208.5t-135.5 142.5t-194.5 51q-107 0 -193.5 -51t-136 -142.5t-49.5 -208.5q0 -118 50 -209t136.5 -141.5t192.5 -50.5q108 0 194.5 50.5z" />
    <glyph glyph-name="uni1E0D" unicode="&#x1e0d;" horiz-adv-x="1372" 
d="M353.5 40.5q-125.5 72.5 -197.5 202t-72 292.5t72 292.5t197.5 202t278.5 72.5q128 0 224.5 -47.5t159.5 -120.5v588h179v-1522h-165v147h-5q-61 -77 -162 -128t-231 -51q-153 0 -278.5 72.5zM836.5 185.5q86.5 51.5 135.5 142.5t49 207t-49 207.5t-135.5 143
t-194.5 51.5t-194.5 -51.5t-135.5 -143t-49 -207.5t49 -207t135.5 -142.5t194.5 -51.5t194.5 51.5zM556.5 -330q-31.5 30 -31.5 76q0 47 31.5 77t81.5 30t81.5 -30t31.5 -77q0 -46 -31.5 -76t-81.5 -30t-81.5 30z" />
    <glyph glyph-name="e" unicode="e" horiz-adv-x="1236" 
d="M361.5 39.5q-128.5 71.5 -203.5 200.5t-75 295q0 167 72.5 296t199 200t282.5 71q146 0 262.5 -64t185 -187t73.5 -293q0 -58 -4 -79h-886q4 -104 55.5 -185t136.5 -126.5t187 -45.5q115 0 204 56.5t141 154.5l144 -85q-43 -86 -117.5 -149t-170.5 -97t-202 -34
q-156 0 -284.5 71.5zM976 617q-6 99 -50.5 175t-119 118t-169.5 42q-96 0 -176 -42.5t-130.5 -118.5t-60.5 -174h706z" />
    <glyph glyph-name="eacute" unicode="&#xe9;" horiz-adv-x="1236" 
d="M905 1499l-304 -299l-94 49l281 340zM361.5 39.5q-128.5 71.5 -203.5 200.5t-75 295q0 167 72.5 296t199 200t282.5 71q146 0 262.5 -64t185 -187t73.5 -293q0 -58 -4 -79h-886q4 -104 55.5 -185t136.5 -126.5t187 -45.5q115 0 204 56.5t141 154.5l144 -85
q-43 -86 -117.5 -149t-170.5 -97t-202 -34q-156 0 -284.5 71.5zM976 617q-6 99 -50.5 175t-119 118t-169.5 42q-96 0 -176 -42.5t-130.5 -118.5t-60.5 -174h706z" />
    <glyph glyph-name="ebreve" unicode="&#x115;" horiz-adv-x="1236" 
d="M495.5 1234.5q-71.5 42.5 -113.5 115.5t-42 161h111q0 -53 27.5 -97.5t73.5 -70t100 -25.5q53 0 99.5 25.5t74 70t27.5 97.5h113q0 -88 -42 -161t-114 -115.5t-158 -42.5q-85 0 -156.5 42.5zM361.5 39.5q-128.5 71.5 -203.5 200.5t-75 295q0 167 72.5 296t199 200
t282.5 71q146 0 262.5 -64t185 -187t73.5 -293q0 -58 -4 -79h-886q4 -104 55.5 -185t136.5 -126.5t187 -45.5q115 0 204 56.5t141 154.5l144 -85q-43 -86 -117.5 -149t-170.5 -97t-202 -34q-156 0 -284.5 71.5zM976 617q-6 99 -50.5 175t-119 118t-169.5 42
q-96 0 -176 -42.5t-130.5 -118.5t-60.5 -174h706z" />
    <glyph glyph-name="ecaron" unicode="&#x11b;" horiz-adv-x="1236" 
d="M731 1179h-156l-238 296l95 49l221 -230l223 230l94 -49zM361.5 39.5q-128.5 71.5 -203.5 200.5t-75 295q0 167 72.5 296t199 200t282.5 71q146 0 262.5 -64t185 -187t73.5 -293q0 -58 -4 -79h-886q4 -104 55.5 -185t136.5 -126.5t187 -45.5q115 0 204 56.5t141 154.5
l144 -85q-43 -86 -117.5 -149t-170.5 -97t-202 -34q-156 0 -284.5 71.5zM976 617q-6 99 -50.5 175t-119 118t-169.5 42q-96 0 -176 -42.5t-130.5 -118.5t-60.5 -174h706z" />
    <glyph glyph-name="ecircumflex" unicode="&#xea;" horiz-adv-x="1236" 
d="M640 1408l-222 -229l-94 49l238 296h156l238 -296l-93 -49zM361.5 39.5q-128.5 71.5 -203.5 200.5t-75 295q0 167 72.5 296t199 200t282.5 71q146 0 262.5 -64t185 -187t73.5 -293q0 -58 -4 -79h-886q4 -104 55.5 -185t136.5 -126.5t187 -45.5q115 0 204 56.5t141 154.5
l144 -85q-43 -86 -117.5 -149t-170.5 -97t-202 -34q-156 0 -284.5 71.5zM976 617q-6 99 -50.5 175t-119 118t-169.5 42q-96 0 -176 -42.5t-130.5 -118.5t-60.5 -174h706z" />
    <glyph glyph-name="edieresis" unicode="&#xeb;" horiz-adv-x="1236" 
d="M368 1300q-31 31 -31 80t31 80t80 31t80.5 -31t31.5 -80t-31.5 -80t-80.5 -31t-80 31zM751.5 1300q-31.5 31 -31.5 80t31.5 80t80.5 31t80 -31t31 -80t-31 -80t-80 -31t-80.5 31zM361.5 39.5q-128.5 71.5 -203.5 200.5t-75 295q0 167 72.5 296t199 200t282.5 71
q146 0 262.5 -64t185 -187t73.5 -293q0 -58 -4 -79h-886q4 -104 55.5 -185t136.5 -126.5t187 -45.5q115 0 204 56.5t141 154.5l144 -85q-43 -86 -117.5 -149t-170.5 -97t-202 -34q-156 0 -284.5 71.5zM976 617q-6 99 -50.5 175t-119 118t-169.5 42q-96 0 -176 -42.5
t-130.5 -118.5t-60.5 -174h706z" />
    <glyph glyph-name="edotaccent" unicode="&#x117;" horiz-adv-x="1236" 
d="M569 1300q-33 31 -33 80t33 80t84 31q52 0 85 -31t33 -80t-33 -80t-85 -31q-51 0 -84 31zM361.5 39.5q-128.5 71.5 -203.5 200.5t-75 295q0 167 72.5 296t199 200t282.5 71q146 0 262.5 -64t185 -187t73.5 -293q0 -58 -4 -79h-886q4 -104 55.5 -185t136.5 -126.5
t187 -45.5q115 0 204 56.5t141 154.5l144 -85q-43 -86 -117.5 -149t-170.5 -97t-202 -34q-156 0 -284.5 71.5zM976 617q-6 99 -50.5 175t-119 118t-169.5 42q-96 0 -176 -42.5t-130.5 -118.5t-60.5 -174h706z" />
    <glyph glyph-name="egrave" unicode="&#xe8;" horiz-adv-x="1236" 
d="M772 1249l-94 -49l-303 299l117 90zM361.5 39.5q-128.5 71.5 -203.5 200.5t-75 295q0 167 72.5 296t199 200t282.5 71q146 0 262.5 -64t185 -187t73.5 -293q0 -58 -4 -79h-886q4 -104 55.5 -185t136.5 -126.5t187 -45.5q115 0 204 56.5t141 154.5l144 -85
q-43 -86 -117.5 -149t-170.5 -97t-202 -34q-156 0 -284.5 71.5zM976 617q-6 99 -50.5 175t-119 118t-169.5 42q-96 0 -176 -42.5t-130.5 -118.5t-60.5 -174h706z" />
    <glyph glyph-name="emacron" unicode="&#x113;" horiz-adv-x="1236" 
d="M956 1324h-606v113h606v-113zM361.5 39.5q-128.5 71.5 -203.5 200.5t-75 295q0 167 72.5 296t199 200t282.5 71q146 0 262.5 -64t185 -187t73.5 -293q0 -58 -4 -79h-886q4 -104 55.5 -185t136.5 -126.5t187 -45.5q115 0 204 56.5t141 154.5l144 -85q-43 -86 -117.5 -149
t-170.5 -97t-202 -34q-156 0 -284.5 71.5zM976 617q-6 99 -50.5 175t-119 118t-169.5 42q-96 0 -176 -42.5t-130.5 -118.5t-60.5 -174h706z" />
    <glyph glyph-name="eogonek" unicode="&#x119;" horiz-adv-x="1236" 
d="M705.5 -420.5q-44.5 41.5 -44.5 103.5q0 41 16 74t48 74l135 175q-100 -38 -214 -38q-159 0 -287.5 71.5t-202 201t-73.5 294.5q0 168 73 297t199.5 199.5t281.5 70.5q143 0 261 -61t189 -183.5t71 -299.5q0 -54 -4 -79h-886q7 -109 59.5 -190t136.5 -124t183 -43
q119 0 206.5 56.5t138.5 154.5l144 -85q-26 -50 -63 -95l-247 -359q-26 -36 -26 -75q0 -31 20.5 -51.5t57.5 -20.5q57 0 91 31l31 -100q-70 -40 -160 -40t-134.5 41.5zM976 617q-8 98 -50 174t-116 118.5t-173 42.5q-94 0 -173 -40t-130.5 -116t-63.5 -179h706z" />
    <glyph glyph-name="uni1EBD" unicode="&#x1ebd;" horiz-adv-x="1236" 
d="M700.5 1252q-33.5 15 -76.5 44q-37 25 -61.5 37t-53.5 12q-36 0 -66.5 -24t-46.5 -61l-86 74q28 67 79.5 106.5t114.5 39.5q42 0 75.5 -15t76.5 -44q37 -25 61.5 -37t53.5 -12q36 0 66.5 24t47.5 61l85 -74q-27 -66 -78.5 -106t-115.5 -40q-42 0 -75.5 15zM361.5 39.5
q-128.5 71.5 -203.5 200.5t-75 295q0 167 72.5 296t199 200t282.5 71q146 0 262.5 -64t185 -187t73.5 -293q0 -58 -4 -79h-886q4 -104 55.5 -185t136.5 -126.5t187 -45.5q115 0 204 56.5t141 154.5l144 -85q-43 -86 -117.5 -149t-170.5 -97t-202 -34q-156 0 -284.5 71.5z
M976 617q-6 99 -50.5 175t-119 118t-169.5 42q-96 0 -176 -42.5t-130.5 -118.5t-60.5 -174h706z" />
    <glyph glyph-name="f" unicode="f" horiz-adv-x="770" 
d="M260 0v919h-202v152h202v153q0 95 38.5 163.5t112 105.5t174.5 37q65 0 143 -9v-148h-124q-73 0 -119 -43.5t-46 -115.5v-143h289v-152h-289v-919h-179z" />
    <glyph glyph-name="g" unicode="g" horiz-adv-x="1372" 
d="M418 -428.5q-106 33.5 -183 91.5t-114 131l168 77q37 -80 135.5 -122t218.5 -42q106 0 191.5 40.5t133.5 107t48 142.5v139q-63 -73 -159.5 -120.5t-224.5 -47.5q-153 0 -278.5 72.5t-197.5 202t-72 292.5t72 292.5t197.5 202t278.5 72.5q130 0 231 -51t162 -128h5v147
h165v-1077q0 -128 -68.5 -232t-194 -163.5t-288.5 -59.5q-120 0 -226 33.5zM836.5 185.5q86.5 51.5 135.5 142.5t49 207t-49 207.5t-135.5 143t-194.5 51.5t-194.5 -51.5t-135.5 -143t-49 -207.5t49 -207t135.5 -142.5t194.5 -51.5t194.5 51.5z" />
    <glyph glyph-name="gbreve" unicode="&#x11f;" horiz-adv-x="1372" 
d="M480.5 1234.5q-71.5 42.5 -113.5 115.5t-42 161h111q0 -53 27.5 -97.5t73.5 -70t100 -25.5q53 0 99.5 25.5t74 70t27.5 97.5h113q0 -88 -42 -161t-114 -115.5t-158 -42.5q-85 0 -156.5 42.5zM418 -428.5q-106 33.5 -183 91.5t-114 131l168 77q37 -80 135.5 -122
t218.5 -42q106 0 191.5 40.5t133.5 107t48 142.5v139q-63 -73 -159.5 -120.5t-224.5 -47.5q-153 0 -278.5 72.5t-197.5 202t-72 292.5t72 292.5t197.5 202t278.5 72.5q130 0 231 -51t162 -128h5v147h165v-1077q0 -128 -68.5 -232t-194 -163.5t-288.5 -59.5q-120 0 -226 33.5
zM836.5 185.5q86.5 51.5 135.5 142.5t49 207t-49 207.5t-135.5 143t-194.5 51.5t-194.5 -51.5t-135.5 -143t-49 -207.5t49 -207t135.5 -142.5t194.5 -51.5t194.5 51.5z" />
    <glyph glyph-name="uni0123" unicode="&#x123;" horiz-adv-x="1374" 
d="M701 1183h-168l113 277h101zM420 -428.5q-106 33.5 -183 91.5t-114 131l168 77q37 -80 135.5 -122t218.5 -42q106 0 191.5 40.5t133.5 107t48 142.5v139q-63 -73 -159.5 -120.5t-224.5 -47.5q-153 0 -278.5 72.5t-197.5 202t-72 292.5t72 292.5t197.5 202t278.5 72.5
q130 0 231 -51t162 -128h5v147h165v-1077q0 -128 -68.5 -232t-194 -163.5t-288.5 -59.5q-120 0 -226 33.5zM838.5 185.5q86.5 51.5 135.5 142.5t49 207t-49 207.5t-135.5 143t-194.5 51.5t-194.5 -51.5t-135.5 -143t-49 -207.5t49 -207t135.5 -142.5t194.5 -51.5t194.5 51.5
z" />
    <glyph glyph-name="gcircumflex" unicode="&#x11d;" horiz-adv-x="1372" 
d="M638 1408l-221 -229l-95 49l238 296h156l239 -296l-94 -49zM418 -428.5q-106 33.5 -183 91.5t-114 131l168 77q37 -80 135.5 -122t218.5 -42q106 0 191.5 40.5t133.5 107t48 142.5v139q-63 -73 -159.5 -120.5t-224.5 -47.5q-153 0 -278.5 72.5t-197.5 202t-72 292.5
t72 292.5t197.5 202t278.5 72.5q130 0 231 -51t162 -128h5v147h165v-1077q0 -128 -68.5 -232t-194 -163.5t-288.5 -59.5q-120 0 -226 33.5zM836.5 185.5q86.5 51.5 135.5 142.5t49 207t-49 207.5t-135.5 143t-194.5 51.5t-194.5 -51.5t-135.5 -143t-49 -207.5t49 -207
t135.5 -142.5t194.5 -51.5t194.5 51.5z" />
    <glyph glyph-name="gdotaccent" unicode="&#x121;" horiz-adv-x="1372" 
d="M554 1300q-33 31 -33 80t33 80t84 31q52 0 85 -31t33 -80t-33 -80t-85 -31q-51 0 -84 31zM418 -428.5q-106 33.5 -183 91.5t-114 131l168 77q37 -80 135.5 -122t218.5 -42q106 0 191.5 40.5t133.5 107t48 142.5v139q-63 -73 -159.5 -120.5t-224.5 -47.5
q-153 0 -278.5 72.5t-197.5 202t-72 292.5t72 292.5t197.5 202t278.5 72.5q130 0 231 -51t162 -128h5v147h165v-1077q0 -128 -68.5 -232t-194 -163.5t-288.5 -59.5q-120 0 -226 33.5zM836.5 185.5q86.5 51.5 135.5 142.5t49 207t-49 207.5t-135.5 143t-194.5 51.5
t-194.5 -51.5t-135.5 -143t-49 -207.5t49 -207t135.5 -142.5t194.5 -51.5t194.5 51.5z" />
    <glyph glyph-name="h" unicode="h" horiz-adv-x="1239" 
d="M177 0v1522h179v-586q49 75 132 120.5t186 45.5q116 0 208 -55t144 -151.5t52 -215.5v-680h-179v684q0 72 -29.5 133t-86.5 98t-134 37q-87 0 -153.5 -42.5t-103 -117t-36.5 -168.5v-624h-179z" />
    <glyph glyph-name="hbar" unicode="&#x127;" horiz-adv-x="1239" 
d="M177 0v1242h-137v103h137v177h179v-177h454v-103h-454v-306q48 75 129.5 120.5t188.5 45.5q119 0 211 -55t142.5 -151.5t50.5 -215.5v-680h-179v684q0 72 -29.5 133.5t-86 98t-134.5 36.5q-90 0 -155.5 -43t-100.5 -117.5t-37 -167.5v-624h-179z" />
    <glyph glyph-name="hcircumflex" unicode="&#x125;" horiz-adv-x="1239" 
d="M267 1838l-221 -229l-95 49l238 296h156l239 -296l-94 -49zM177 0v1522h179v-586q49 75 132 120.5t186 45.5q116 0 208 -55t144 -151.5t52 -215.5v-680h-179v684q0 72 -29.5 133t-86.5 98t-134 37q-87 0 -153.5 -42.5t-103 -117t-36.5 -168.5v-624h-179z" />
    <glyph glyph-name="uni1E25" unicode="&#x1e25;" horiz-adv-x="1239" 
d="M177 0v1522h179v-586q49 75 132 120.5t186 45.5q116 0 208 -55t144 -151.5t52 -215.5v-680h-179v684q0 72 -29.5 133t-86.5 98t-134 37q-87 0 -153.5 -42.5t-103 -117t-36.5 -168.5v-624h-179zM545.5 -330q-31.5 30 -31.5 76q0 47 31.5 77t81.5 30t81.5 -30t31.5 -77
q0 -46 -31.5 -76t-81.5 -30t-81.5 30z" />
    <glyph glyph-name="i" unicode="i" horiz-adv-x="533" 
d="M176 1295.5q-35 32.5 -35 86.5t35 87t90 33q56 0 91 -33t35 -87t-35 -86.5t-91 -32.5q-55 0 -90 32.5zM356 0h-179v1071h179v-1071z" />
    <glyph glyph-name="dotlessi" unicode="&#x131;" horiz-adv-x="533" 
d="M356 0h-179v1071h179v-1071z" />
    <glyph glyph-name="iacute" unicode="&#xed;" horiz-adv-x="533" 
d="M531 1499l-304 -299l-93 49l281 340zM356 0h-179v1071h179v-1071z" />
    <glyph glyph-name="ibreve" unicode="&#x12d;" horiz-adv-x="533" 
d="M109.5 1234.5q-71.5 42.5 -113.5 115.5t-42 161h111q0 -53 27.5 -97.5t73.5 -70t100 -25.5q53 0 99.5 25.5t74 70t27.5 97.5h113q0 -88 -42 -161t-114 -115.5t-158 -42.5q-85 0 -156.5 42.5zM357 0h-179v1071h179v-1071z" />
    <glyph glyph-name="icircumflex" unicode="&#xee;" horiz-adv-x="533" 
d="M267 1408l-221 -229l-95 49l238 296h156l239 -296l-94 -49zM357 0h-179v1071h179v-1071z" />
    <glyph glyph-name="idieresis" unicode="&#xef;" horiz-adv-x="533" 
d="M32 1300q-31 31 -31 80t31 80t80 31t80.5 -31t31.5 -80t-31.5 -80t-80.5 -31t-80 31zM342 1300q-31 31 -31 80t31 80t80 31t80.5 -31t31.5 -80t-31.5 -80t-80.5 -31t-80 31zM357 0h-179v1071h179v-1071z" />
    <glyph glyph-name="igrave" unicode="&#xec;" horiz-adv-x="533" 
d="M405 1249l-94 -49l-304 299l117 90zM357 0h-179v1071h179v-1071z" />
    <glyph glyph-name="imacron" unicode="&#x12b;" horiz-adv-x="533" 
d="M525 1324h-507v113h507v-113zM356 0h-179v1071h179v-1071z" />
    <glyph glyph-name="iogonek" unicode="&#x12f;" horiz-adv-x="533" 
d="M176 1295.5q-35 32.5 -35 86.5q0 55 35 87.5t90 32.5q56 0 91 -32.5t35 -87.5q0 -54 -35 -86.5t-91 -32.5q-55 0 -90 32.5zM81.5 -421.5q-45.5 40.5 -45.5 104.5q0 44 16 79t47 69l140 169h-62v1071h179v-1071h-12l-143 -206q-27 -37 -27 -75q0 -31 21 -51.5t58 -20.5
q28 0 48.5 7.5t41.5 23.5l31 -100q-31 -20 -73 -30t-87 -10q-87 0 -132.5 40.5z" />
    <glyph glyph-name="itilde" unicode="&#x129;" horiz-adv-x="533" 
d="M332.5 1252q-33.5 15 -76.5 44q-35 24 -60.5 36.5t-54.5 12.5q-36 0 -66.5 -24t-46.5 -61l-86 74q28 67 79.5 106.5t114.5 39.5q42 0 75.5 -15t76.5 -44q37 -25 61.5 -37t53.5 -12q36 0 67 24t47 61l86 -74q-27 -66 -79 -106t-115 -40q-43 0 -76.5 15zM357 0h-179v1071
h179v-1071z" />
    <glyph glyph-name="j" unicode="j" horiz-adv-x="533" 
d="M175.5 1296q-35.5 33 -35.5 86q0 54 35.5 87t90.5 33t90.5 -33t35.5 -87q0 -53 -35.5 -86t-90.5 -33t-90.5 33zM-4 -307q53 0 94 22.5t63.5 61.5t22.5 87v1207h180v-1233q-1 -152 -94.5 -226t-265.5 -74v155z" />
    <glyph glyph-name="uni0237" unicode="&#x237;" horiz-adv-x="533" 
d="M-4 -307q53 0 94 22.5t63.5 61.5t22.5 87v1207h180v-1233q-1 -152 -94.5 -226t-265.5 -74v155z" />
    <glyph glyph-name="jcircumflex" unicode="&#x135;" horiz-adv-x="533" 
d="M266 1408l-222 -229l-94 49l238 296h156l238 -296l-93 -49zM-4 -307q53 0 94 22.5t63.5 61.5t22.5 87v1207h180v-1233q-1 -152 -94.5 -226t-265.5 -74v155z" />
    <glyph glyph-name="k" unicode="k" horiz-adv-x="1014" 
d="M356 0h-179v1522h179v-881l402 430h211l-461 -501l519 -570h-222l-449 482v-482z" />
    <glyph glyph-name="uni0137" unicode="&#x137;" horiz-adv-x="1014" 
d="M356 0h-179v1522h179v-881l402 430h211l-461 -501l519 -570h-222l-449 482v-482zM579 -462h-101l46 277h168z" />
    <glyph glyph-name="uni1E33" unicode="&#x1e33;" horiz-adv-x="1014" 
d="M356 0h-179v1522h179v-881l402 430h211l-461 -501l519 -570h-222l-449 482v-482zM503.5 -330q-31.5 30 -31.5 76q0 47 31.5 77t81.5 30t81.5 -30t31.5 -77q0 -46 -31.5 -76t-81.5 -30t-81.5 30z" />
    <glyph glyph-name="kra" unicode="&#x138;" horiz-adv-x="1014" 
d="M356 0h-179v1071h179v-430l402 430h211l-461 -501l519 -570h-222l-449 482v-482z" />
    <glyph glyph-name="l" unicode="l" horiz-adv-x="532" 
d="M356 0h-179v1522h179v-1522z" />
    <glyph glyph-name="lacute" unicode="&#x13a;" horiz-adv-x="532" 
d="M521 1878l-305 -281l-93 42l281 314zM356 0h-179v1522h179v-1522z" />
    <glyph glyph-name="lcaron" unicode="&#x13e;" horiz-adv-x="532" 
d="M524 1245h-102l47 278h168zM356 0h-179v1522h179v-1522z" />
    <glyph glyph-name="uni013C" unicode="&#x13c;" horiz-adv-x="532" 
d="M356 0h-179v1522h179v-1522zM254 -462h-101l46 277h168z" />
    <glyph glyph-name="uni1E37" unicode="&#x1e37;" horiz-adv-x="532" 
d="M356 0h-179v1522h179v-1522zM184.5 -330q-31.5 30 -31.5 76q0 47 31.5 77t81.5 30t81.5 -30t31.5 -77q0 -46 -31.5 -76t-81.5 -30t-81.5 30z" />
    <glyph glyph-name="uni1E39" unicode="&#x1e39;" horiz-adv-x="532" 
d="M521 1779h-508v113h508v-113zM357 0h-179v1522h179v-1522zM185.5 -330q-31.5 30 -31.5 76q0 47 31.5 77t81.5 30t81.5 -30t31.5 -77q0 -46 -31.5 -76t-81.5 -30t-81.5 30z" />
    <glyph glyph-name="uni1E3B" unicode="&#x1e3b;" horiz-adv-x="532" 
d="M356 0h-179v1522h179v-1522zM508 -333h-484v112h484v-112z" />
    <glyph glyph-name="lmiddledot" unicode="&#x140;" horiz-adv-x="668" 
d="M356 0h-179v1522h179v-1522zM517 698q-29 29 -29 74q0 44 29 73t75 29t75 -29t29 -73q0 -45 -29 -74t-75 -29t-75 29z" />
    <glyph glyph-name="lslash" unicode="&#x142;" horiz-adv-x="690" 
d="M435 0h-180v649l-237 -137l-52 89l289 168v753h180v-650l237 138l52 -90l-289 -167v-753z" />
    <glyph glyph-name="m" unicode="m" horiz-adv-x="1936" 
d="M177 0v1071h165v-135h4q48 74 135.5 120t191.5 46q108 0 191.5 -48.5t136.5 -135.5q53 84 150.5 134t218.5 50q116 0 208.5 -55t144.5 -151.5t52 -215.5v-680h-180v684q0 67 -27 125.5t-80.5 94t-129.5 35.5q-86 0 -152.5 -41.5t-103 -113.5t-36.5 -161v-623h-180v684
q0 67 -27 125.5t-80.5 94t-130.5 35.5q-86 0 -152.5 -41.5t-103 -113.5t-36.5 -161v-623h-179z" />
    <glyph glyph-name="uni1E41" unicode="&#x1e41;" horiz-adv-x="1936" 
d="M891.5 1300q-32.5 31 -32.5 80t32.5 80t84.5 31q51 0 84 -31t33 -80t-33 -80t-84 -31q-52 0 -84.5 31zM177 0v1071h165v-135h4q48 74 135.5 120t191.5 46q108 0 191.5 -48.5t136.5 -135.5q53 84 150.5 134t218.5 50q116 0 208.5 -55t144.5 -151.5t52 -215.5v-680h-180
v684q0 67 -27 125.5t-80.5 94t-129.5 35.5q-86 0 -152.5 -41.5t-103 -113.5t-36.5 -161v-623h-180v684q0 67 -27 125.5t-80.5 94t-130.5 35.5q-86 0 -152.5 -41.5t-103 -113.5t-36.5 -161v-623h-179z" />
    <glyph glyph-name="uni1E43" unicode="&#x1e43;" horiz-adv-x="1936" 
d="M177 0v1071h165v-135h4q48 74 135.5 120t191.5 46q108 0 191.5 -48.5t136.5 -135.5q53 84 150.5 134t218.5 50q116 0 208.5 -55t144.5 -151.5t52 -215.5v-680h-180v684q0 67 -27 125.5t-80.5 94t-129.5 35.5q-86 0 -152.5 -41.5t-103 -113.5t-36.5 -161v-623h-180v684
q0 67 -27 125.5t-80.5 94t-130.5 35.5q-86 0 -152.5 -41.5t-103 -113.5t-36.5 -161v-623h-179zM894.5 -330q-31.5 30 -31.5 76q0 47 31.5 77t81.5 30q49 0 80.5 -30t31.5 -77q0 -46 -31.5 -76t-80.5 -30q-50 0 -81.5 30z" />
    <glyph glyph-name="n" unicode="n" 
d="M177 0v1071h166v-135h4q49 75 130 120.5t184 45.5q116 0 211.5 -55t150 -151.5t54.5 -215.5v-680h-179v684q0 66 -30 124.5t-86.5 94.5t-132.5 36q-87 0 -153 -41.5t-102.5 -113.5t-36.5 -161v-623h-180z" />
    <glyph glyph-name="nacute" unicode="&#x144;" 
d="M892 1499l-304 -299l-94 49l281 340zM177 0v1071h166v-135h4q49 75 130 120.5t184 45.5q116 0 211.5 -55t150 -151.5t54.5 -215.5v-680h-179v684q0 66 -30 124.5t-86.5 94.5t-132.5 36q-87 0 -153 -41.5t-102.5 -113.5t-36.5 -161v-623h-180z" />
    <glyph glyph-name="napostrophe" unicode="&#x149;" 
d="M143 1172h-102l47 277h168zM177 0v1071h165v-135h5q48 75 129 120.5t184 45.5q116 0 211.5 -55t150.5 -151.5t55 -215.5v-680h-179v684q0 66 -30 124.5t-86.5 94.5t-133.5 36q-86 0 -152.5 -41.5t-103 -113.5t-36.5 -161v-623h-179z" />
    <glyph glyph-name="ncaron" unicode="&#x148;" 
d="M705 1179h-156l-238 296l94 49l222 -230l223 230l93 -49zM177 0v1071h166v-135h4q49 75 130 120.5t184 45.5q116 0 211.5 -55t150 -151.5t54.5 -215.5v-680h-179v684q0 66 -30 124.5t-86.5 94.5t-132.5 36q-87 0 -153 -41.5t-102.5 -113.5t-36.5 -161v-623h-180z" />
    <glyph glyph-name="uni0146" unicode="&#x146;" 
d="M177 0v1071h166v-135h4q49 75 130 120.5t184 45.5q116 0 211.5 -55t150 -151.5t54.5 -215.5v-680h-179v684q0 66 -30 124.5t-86.5 94.5t-132.5 36q-87 0 -153 -41.5t-102.5 -113.5t-36.5 -161v-623h-180zM621 -462h-101l46 277h168z" />
    <glyph glyph-name="uni1E45" unicode="&#x1e45;" 
d="M543 1300q-33 31 -33 80t33 80t84 31q52 0 84.5 -31t32.5 -80t-32.5 -80t-84.5 -31q-51 0 -84 31zM177 0v1071h166v-135h4q49 75 130 120.5t184 45.5q116 0 211.5 -55t150 -151.5t54.5 -215.5v-680h-179v684q0 66 -30 124.5t-86.5 94.5t-132.5 36q-87 0 -153 -41.5
t-102.5 -113.5t-36.5 -161v-623h-180z" />
    <glyph glyph-name="uni1E47" unicode="&#x1e47;" 
d="M177 0v1071h166v-135h4q49 75 130 120.5t184 45.5q116 0 211.5 -55t150 -151.5t54.5 -215.5v-680h-179v684q0 66 -30 124.5t-86.5 94.5t-132.5 36q-87 0 -153 -41.5t-102.5 -113.5t-36.5 -161v-623h-180zM545.5 -330q-31.5 30 -31.5 76q0 47 31.5 77t81.5 30t81.5 -30
t31.5 -77q0 -46 -31.5 -76t-81.5 -30t-81.5 30z" />
    <glyph glyph-name="eng" unicode="&#x14b;" 
d="M717 -307q56 0 97 23.5t62.5 62.5t21.5 85v820q0 66 -29 124.5t-85.5 94.5t-134.5 36q-87 0 -153.5 -41.5t-102.5 -113.5t-36 -161v-623h-180v1071h166v-135h4q49 76 128.5 121t185.5 45q118 0 213 -55.5t149 -152t54 -214.5v-842q-2 -155 -95.5 -227.5t-264.5 -72.5v155
z" />
    <glyph glyph-name="uni1E49" unicode="&#x1e49;" 
d="M177 0v1071h166v-135h4q49 75 130 120.5t184 45.5q116 0 211.5 -55t150 -151.5t54.5 -215.5v-680h-179v684q0 66 -30 124.5t-86.5 94.5t-132.5 36q-87 0 -153 -41.5t-102.5 -113.5t-36.5 -161v-623h-180zM973 -333h-692v112h692v-112z" />
    <glyph glyph-name="ntilde" unicode="&#xf1;" 
d="M687.5 1252q-33.5 15 -76.5 44q-37 25 -61.5 37t-53.5 12q-36 0 -66.5 -24t-46.5 -61l-86 74q28 67 79.5 106.5t114.5 39.5q42 0 75.5 -15t76.5 -44q37 -25 61.5 -37t53.5 -12q36 0 66.5 24t47.5 61l85 -74q-27 -66 -78.5 -106t-115.5 -40q-42 0 -75.5 15zM177 0v1071
h166v-135h4q49 75 130 120.5t184 45.5q116 0 211.5 -55t150 -151.5t54.5 -215.5v-680h-179v684q0 66 -30 124.5t-86.5 94.5t-132.5 36q-87 0 -153 -41.5t-102.5 -113.5t-36.5 -161v-623h-180z" />
    <glyph glyph-name="o" unicode="o" horiz-adv-x="1304" 
d="M362 40.5q-130 72.5 -204.5 201.5t-74.5 293t74.5 293t204.5 201.5t290 72.5t289.5 -72.5t204 -201.5t74.5 -293t-74.5 -293t-204 -201.5t-289.5 -72.5t-290 72.5zM849 184.5q89 51.5 140.5 143.5t51.5 207t-51.5 207t-140.5 143.5t-197 51.5t-197 -51.5t-140.5 -143.5
t-51.5 -207t51.5 -207t140.5 -143.5t197 -51.5t197 51.5z" />
    <glyph glyph-name="oacute" unicode="&#xf3;" horiz-adv-x="1304" 
d="M917 1499l-304 -299l-93 49l281 340zM362 40.5q-130 72.5 -204.5 201.5t-74.5 293t74.5 293t204.5 201.5t290 72.5t289.5 -72.5t204 -201.5t74.5 -293t-74.5 -293t-204 -201.5t-289.5 -72.5t-290 72.5zM849 184.5q89 51.5 140.5 143.5t51.5 207t-51.5 207t-140.5 143.5
t-197 51.5t-197 -51.5t-140.5 -143.5t-51.5 -207t51.5 -207t140.5 -143.5t197 -51.5t197 51.5z" />
    <glyph glyph-name="obreve" unicode="&#x14f;" horiz-adv-x="1304" 
d="M494.5 1234.5q-71.5 42.5 -113.5 115.5t-42 161h111q0 -53 27.5 -97.5t73.5 -70t100 -25.5q53 0 99.5 25.5t74 70t27.5 97.5h113q0 -88 -42 -161t-114 -115.5t-158 -42.5q-85 0 -156.5 42.5zM362 40.5q-130 72.5 -204.5 201.5t-74.5 293t74.5 293t204.5 201.5t290 72.5
t289.5 -72.5t204 -201.5t74.5 -293t-74.5 -293t-204 -201.5t-289.5 -72.5t-290 72.5zM849 184.5q89 51.5 140.5 143.5t51.5 207t-51.5 207t-140.5 143.5t-197 51.5t-197 -51.5t-140.5 -143.5t-51.5 -207t51.5 -207t140.5 -143.5t197 -51.5t197 51.5z" />
    <glyph glyph-name="ocircumflex" unicode="&#xf4;" horiz-adv-x="1304" 
d="M652 1408l-221 -229l-95 49l238 296h156l239 -296l-94 -49zM362 40.5q-130 72.5 -204.5 201.5t-74.5 293t74.5 293t204.5 201.5t290 72.5t289.5 -72.5t204 -201.5t74.5 -293t-74.5 -293t-204 -201.5t-289.5 -72.5t-290 72.5zM849 184.5q89 51.5 140.5 143.5t51.5 207
t-51.5 207t-140.5 143.5t-197 51.5t-197 -51.5t-140.5 -143.5t-51.5 -207t51.5 -207t140.5 -143.5t197 -51.5t197 51.5z" />
    <glyph glyph-name="odieresis" unicode="&#xf6;" horiz-adv-x="1304" 
d="M380.5 1300q-31.5 31 -31.5 80t31.5 80t80.5 31t80 -31t31 -80t-31 -80t-80 -31t-80.5 31zM764 1300q-31 31 -31 80t31 80t80 31t80.5 -31t31.5 -80t-31.5 -80t-80.5 -31t-80 31zM362 40.5q-130 72.5 -204.5 201.5t-74.5 293t74.5 293t204.5 201.5t290 72.5t289.5 -72.5
t204 -201.5t74.5 -293t-74.5 -293t-204 -201.5t-289.5 -72.5t-290 72.5zM849 184.5q89 51.5 140.5 143.5t51.5 207t-51.5 207t-140.5 143.5t-197 51.5t-197 -51.5t-140.5 -143.5t-51.5 -207t51.5 -207t140.5 -143.5t197 -51.5t197 51.5z" />
    <glyph glyph-name="odoubleacute" unicode="&#x151;" horiz-adv-x="1304" 
d="M765 1481l-303 -299l-81 62l267 326zM1106 1478l-304 -299l-81 62l269 326zM362 40.5q-130 72.5 -204.5 201.5t-74.5 293t74.5 293t204.5 201.5t290 72.5t289.5 -72.5t204 -201.5t74.5 -293t-74.5 -293t-204 -201.5t-289.5 -72.5t-290 72.5zM849 184.5
q89 51.5 140.5 143.5t51.5 207t-51.5 207t-140.5 143.5t-197 51.5t-197 -51.5t-140.5 -143.5t-51.5 -207t51.5 -207t140.5 -143.5t197 -51.5t197 51.5z" />
    <glyph glyph-name="ograve" unicode="&#xf2;" horiz-adv-x="1304" 
d="M785 1249l-94 -49l-304 299l117 90zM362 40.5q-130 72.5 -204.5 201.5t-74.5 293t74.5 293t204.5 201.5t290 72.5t289.5 -72.5t204 -201.5t74.5 -293t-74.5 -293t-204 -201.5t-289.5 -72.5t-290 72.5zM849 184.5q89 51.5 140.5 143.5t51.5 207t-51.5 207t-140.5 143.5
t-197 51.5t-197 -51.5t-140.5 -143.5t-51.5 -207t51.5 -207t140.5 -143.5t197 -51.5t197 51.5z" />
    <glyph glyph-name="omacron" unicode="&#x14d;" horiz-adv-x="1304" 
d="M955 1324h-606v113h606v-113zM362 40.5q-130 72.5 -204.5 201.5t-74.5 293t74.5 293t204.5 201.5t290 72.5t289.5 -72.5t204 -201.5t74.5 -293t-74.5 -293t-204 -201.5t-289.5 -72.5t-290 72.5zM849 184.5q89 51.5 140.5 143.5t51.5 207t-51.5 207t-140.5 143.5
t-197 51.5t-197 -51.5t-140.5 -143.5t-51.5 -207t51.5 -207t140.5 -143.5t197 -51.5t197 51.5z" />
    <glyph glyph-name="oslash" unicode="&#xf8;" horiz-adv-x="1304" 
d="M347 49l-58 -76l-86 73l54 70q-82 77 -128 182.5t-46 236.5q0 164 74.5 293.5t204.5 201.5t290 72q168 0 304 -81l58 76l86 -73l-54 -70q82 -77 128 -182.5t46 -236.5q0 -165 -74.5 -294t-204.5 -201t-289 -72q-169 0 -305 81zM850 885q-88 52 -198 52
q-112 0 -200.5 -52.5t-138.5 -144t-50 -205.5q0 -165 102 -279zM851 185q89 52 139.5 144t50.5 206q0 166 -103 279l-485 -629q89 -52 199 -52t199 52z" />
    <glyph glyph-name="otilde" unicode="&#xf5;" horiz-adv-x="1304" 
d="M712.5 1252q-33.5 15 -76.5 44q-35 24 -60.5 36.5t-54.5 12.5q-36 0 -66.5 -24t-46.5 -61l-86 74q28 67 79.5 106.5t114.5 39.5q42 0 75.5 -15t76.5 -44q37 -25 61.5 -37t53.5 -12q36 0 67 24t47 61l86 -74q-27 -66 -79 -106t-115 -40q-43 0 -76.5 15zM362 40.5
q-130 72.5 -204.5 201.5t-74.5 293t74.5 293t204.5 201.5t290 72.5t289.5 -72.5t204 -201.5t74.5 -293t-74.5 -293t-204 -201.5t-289.5 -72.5t-290 72.5zM849 184.5q89 51.5 140.5 143.5t51.5 207t-51.5 207t-140.5 143.5t-197 51.5t-197 -51.5t-140.5 -143.5t-51.5 -207
t51.5 -207t140.5 -143.5t197 -51.5t197 51.5z" />
    <glyph glyph-name="oe" unicode="&#x153;" horiz-adv-x="2168" 
d="M352.5 40.5q-126.5 72.5 -198 201.5t-71.5 293t71.5 293t198 201.5t286.5 72.5q151 0 272 -69t194 -196q73 128 190 196.5t266 68.5q146 0 264 -64t189 -187t76 -293q0 -58 -4 -79h-885q4 -104 53 -185t131.5 -126.5t185.5 -45.5q115 0 203.5 56.5t140.5 154.5l144 -85
q-43 -86 -117.5 -149t-170.5 -97t-202 -34q-149 0 -270 69t-194 196q-73 -127 -194 -196t-272 -69q-160 0 -286.5 72.5zM1908 617q-6 98 -52.5 174.5t-123.5 118.5t-172 42q-96 0 -173.5 -42t-126 -118t-58.5 -175h706zM832.5 189.5q85.5 50.5 134 141t48.5 204.5
q0 110 -47 200.5t-132.5 143t-196.5 52.5q-108 0 -194 -50.5t-134.5 -141t-48.5 -204.5t48.5 -204.5t134.5 -141t194 -50.5t193.5 50.5z" />
    <glyph glyph-name="p" unicode="p" horiz-adv-x="1372" 
d="M177 -430v1501h165v-148h5q61 77 162 128t231 51q153 0 278.5 -72.5t197.5 -202t72 -292.5t-72 -292.5t-197.5 -202t-278.5 -72.5q-128 0 -224.5 47.5t-159.5 120.5v-566h-179zM924.5 185.5q86.5 51.5 135.5 142.5t49 207t-49 207.5t-135.5 143t-194.5 51.5t-194.5 -51.5
t-135.5 -143t-49 -207.5t49 -207t135.5 -142.5t194.5 -51.5t194.5 51.5z" />
    <glyph glyph-name="thorn" unicode="&#xfe;" horiz-adv-x="1372" 
d="M177 -430v1952h165v-599h5q59 77 161 128t232 51q157 0 282 -73t195.5 -202.5t70.5 -291.5q0 -165 -72 -294t-197.5 -201t-278.5 -72q-126 0 -223.5 47.5t-160.5 120.5v-566h-179zM922.5 184.5q86.5 50.5 136.5 141.5t50 209q0 117 -49.5 208.5t-136 142.5t-193.5 51
q-108 0 -194.5 -51t-135.5 -142.5t-49 -208.5t49 -208.5t135.5 -142t194.5 -50.5q106 0 192.5 50.5z" />
    <glyph glyph-name="q" unicode="q" horiz-adv-x="1372" 
d="M1016 136q-63 -73 -159.5 -120.5t-224.5 -47.5q-153 0 -278.5 72.5t-197.5 202t-72 292.5t72 292.5t197.5 202t278.5 72.5q130 0 231.5 -51t161.5 -128h5v148h165v-1501h-179v566zM836.5 185.5q86.5 51.5 135.5 142.5t49 207t-49 207.5t-135.5 143t-194.5 51.5
t-194.5 -51.5t-135.5 -143t-49 -207.5t49 -207t135.5 -142.5t194.5 -51.5t194.5 51.5z" />
    <glyph glyph-name="r" unicode="r" horiz-adv-x="775" 
d="M177 0v1074h165l1 -147h4q47 73 127.5 115t185.5 42q51 0 94 -10v-152h-106q-86 0 -152.5 -41t-103 -113.5t-36.5 -163.5v-604h-179z" />
    <glyph glyph-name="racute" unicode="&#x155;" horiz-adv-x="775" 
d="M733 1499l-304 -299l-93 49l281 340zM177 0v1074h165l1 -147h4q47 73 127.5 115t185.5 42q51 0 94 -10v-152h-106q-86 0 -152.5 -41t-103 -113.5t-36.5 -163.5v-604h-179z" />
    <glyph glyph-name="rcaron" unicode="&#x159;" horiz-adv-x="775" 
d="M546 1179h-156l-238 296l95 49l221 -230l223 230l94 -49zM177 0v1074h165l1 -147h4q47 73 127.5 115t185.5 42q51 0 94 -10v-152h-106q-86 0 -152.5 -41t-103 -113.5t-36.5 -163.5v-604h-179z" />
    <glyph glyph-name="uni0157" unicode="&#x157;" horiz-adv-x="775" 
d="M177 0v1074h165l1 -147h4q47 73 127.5 115t185.5 42q51 0 94 -10v-152h-106q-86 0 -152.5 -41t-103 -113.5t-36.5 -163.5v-604h-179zM263 -462h-101l46 277h168z" />
    <glyph glyph-name="uni1E59" unicode="&#x1e59;" horiz-adv-x="775" 
d="M384 1300q-33 31 -33 80t33 80t84 31q52 0 85 -31t33 -80t-33 -80t-85 -31q-51 0 -84 31zM177 0v1074h165l1 -147h4q47 73 127.5 115t185.5 42q51 0 94 -10v-152h-106q-86 0 -152.5 -41t-103 -113.5t-36.5 -163.5v-604h-179z" />
    <glyph glyph-name="uni1E5B" unicode="&#x1e5b;" horiz-adv-x="775" 
d="M177 0v1074h165l1 -147h4q47 73 127.5 115t185.5 42q51 0 94 -10v-152h-106q-86 0 -152.5 -41t-103 -113.5t-36.5 -163.5v-604h-179zM184.5 -330q-31.5 30 -31.5 76q0 47 31.5 77t81.5 30t81.5 -30t31.5 -77q0 -46 -31.5 -76t-81.5 -30t-81.5 30z" />
    <glyph glyph-name="uni1E5D" unicode="&#x1e5d;" horiz-adv-x="775" 
d="M748 1324h-559v113h559v-113zM177 0v1074h165l1 -147h4q47 73 127.5 115t185.5 42q51 0 94 -10v-152h-106q-86 0 -152.5 -41t-103 -113.5t-36.5 -163.5v-604h-179zM184.5 -330q-31.5 30 -31.5 76q0 47 31.5 77t81.5 30t81.5 -30t31.5 -77q0 -46 -31.5 -76t-81.5 -30
t-81.5 30z" />
    <glyph glyph-name="uni1E5F" unicode="&#x1e5f;" horiz-adv-x="775" 
d="M177 0v1074h165l1 -147h4q47 73 127.5 115t185.5 42q51 0 94 -10v-152h-106q-86 0 -152.5 -41t-103 -113.5t-36.5 -163.5v-604h-179zM561 -333h-484v112h484v-112z" />
    <glyph glyph-name="s" unicode="s" horiz-adv-x="880" 
d="M185.5 55q-96.5 81 -112.5 221l161 17q13 -77 70 -125t141 -48q96 0 146 43t50 110q-1 63 -29 100.5t-101 69.5l-189 87q-114 48 -167.5 113.5t-53.5 160.5q0 83 40.5 149.5t118 105t184.5 38.5q101 0 178 -34t122.5 -95.5t55.5 -140.5l-161 -16q-8 63 -61.5 103.5
t-128.5 40.5q-82 0 -127.5 -37.5t-45.5 -95.5q0 -48 24.5 -78t93.5 -61l188 -87q119 -50 176 -123.5t57 -186.5q0 -90 -42.5 -160.5t-125.5 -111t-200 -40.5q-165 0 -261.5 81z" />
    <glyph glyph-name="sacute" unicode="&#x15b;" horiz-adv-x="880" 
d="M707 1499l-304 -299l-94 49l281 340zM185.5 55q-96.5 81 -112.5 221l161 17q13 -77 70 -125t141 -48q96 0 146 43t50 110q-1 63 -29 100.5t-101 69.5l-189 87q-114 48 -167.5 113.5t-53.5 160.5q0 83 40.5 149.5t118 105t184.5 38.5q101 0 178 -34t122.5 -95.5
t55.5 -140.5l-161 -16q-8 63 -61.5 103.5t-128.5 40.5q-82 0 -127.5 -37.5t-45.5 -95.5q0 -48 24.5 -78t93.5 -61l188 -87q119 -50 176 -123.5t57 -186.5q0 -90 -42.5 -160.5t-125.5 -111t-200 -40.5q-165 0 -261.5 81z" />
    <glyph glyph-name="scaron" unicode="&#x161;" horiz-adv-x="880" 
d="M533 1179h-156l-238 296l94 49l222 -230l223 230l94 -49zM185.5 55q-96.5 81 -112.5 221l161 17q13 -77 70 -125t141 -48q96 0 146 43t50 110q-1 63 -29 100.5t-101 69.5l-189 87q-114 48 -167.5 113.5t-53.5 160.5q0 83 40.5 149.5t118 105t184.5 38.5q101 0 178 -34
t122.5 -95.5t55.5 -140.5l-161 -16q-8 63 -61.5 103.5t-128.5 40.5q-82 0 -127.5 -37.5t-45.5 -95.5q0 -48 24.5 -78t93.5 -61l188 -87q119 -50 176 -123.5t57 -186.5q0 -90 -42.5 -160.5t-125.5 -111t-200 -40.5q-165 0 -261.5 81z" />
    <glyph glyph-name="scedilla" unicode="&#x15f;" horiz-adv-x="880" 
d="M235 -423l40 94q49 -32 114 -32q58 0 91.5 29t33.5 75q0 112 -162 112l54 129q-144 10 -230.5 85t-102.5 207l161 17q13 -77 68 -125t143 -48q98 0 147 43t49 110q0 61 -29.5 100t-100.5 70l-189 87q-115 53 -168 117.5t-53 156.5q0 83 39.5 149.5t117 105t186.5 38.5
q104 0 181 -35t121 -96t54 -139l-161 -16q-10 63 -62.5 103.5t-127.5 40.5q-84 0 -128.5 -37.5t-44.5 -95.5q0 -49 26.5 -79.5t91.5 -59.5l188 -87q121 -56 177 -128.5t56 -181.5q0 -124 -78 -206t-228 -95l-29 -69q82 -10 129 -53.5t47 -126.5q0 -63 -33.5 -107.5
t-89 -67.5t-120.5 -23q-121 0 -178 39z" />
    <glyph glyph-name="scircumflex" unicode="&#x15d;" horiz-adv-x="880" 
d="M455 1408l-222 -229l-94 49l238 296h156l239 -296l-94 -49zM185.5 55q-96.5 81 -112.5 221l161 17q13 -77 70 -125t141 -48q96 0 146 43t50 110q-1 63 -29 100.5t-101 69.5l-189 87q-114 48 -167.5 113.5t-53.5 160.5q0 83 40.5 149.5t118 105t184.5 38.5q101 0 178 -34
t122.5 -95.5t55.5 -140.5l-161 -16q-8 63 -61.5 103.5t-128.5 40.5q-82 0 -127.5 -37.5t-45.5 -95.5q0 -48 24.5 -78t93.5 -61l188 -87q119 -50 176 -123.5t57 -186.5q0 -90 -42.5 -160.5t-125.5 -111t-200 -40.5q-165 0 -261.5 81z" />
    <glyph glyph-name="uni0219" unicode="&#x219;" horiz-adv-x="880" 
d="M185.5 55q-96.5 81 -112.5 221l161 17q13 -77 70 -125t141 -48q96 0 146 43t50 110q-1 63 -29 100.5t-101 69.5l-189 87q-114 48 -167.5 113.5t-53.5 160.5q0 83 40.5 149.5t118 105t184.5 38.5q101 0 178 -34t122.5 -95.5t55.5 -140.5l-161 -16q-8 63 -61.5 103.5
t-128.5 40.5q-82 0 -127.5 -37.5t-45.5 -95.5q0 -48 24.5 -78t93.5 -61l188 -87q119 -50 176 -123.5t57 -186.5q0 -90 -42.5 -160.5t-125.5 -111t-200 -40.5q-165 0 -261.5 81zM449 -462h-101l46 277h168z" />
    <glyph glyph-name="uni1E63" unicode="&#x1e63;" horiz-adv-x="880" 
d="M185.5 55q-96.5 81 -112.5 221l161 17q13 -77 70 -125t141 -48q96 0 146 43t50 110q-1 63 -29 100.5t-101 69.5l-189 87q-114 48 -167.5 113.5t-53.5 160.5q0 83 40.5 149.5t118 105t184.5 38.5q101 0 178 -34t122.5 -95.5t55.5 -140.5l-161 -16q-8 63 -61.5 103.5
t-128.5 40.5q-82 0 -127.5 -37.5t-45.5 -95.5q0 -48 24.5 -78t93.5 -61l188 -87q119 -50 176 -123.5t57 -186.5q0 -90 -42.5 -160.5t-125.5 -111t-200 -40.5q-165 0 -261.5 81zM373.5 -330q-31.5 30 -31.5 76q0 47 31.5 77t81.5 30t81.5 -30t31.5 -77q0 -46 -31.5 -76
t-81.5 -30t-81.5 30z" />
    <glyph glyph-name="germandbls" unicode="&#xdf;" horiz-adv-x="1308" 
d="M510 0v137h222q86 0 159.5 41t117.5 113t44 163q0 86 -39.5 156t-112.5 111t-169 41h-172v152h66q61 0 114.5 33t85.5 88.5t32 119.5q0 71 -30.5 127t-84.5 88t-121 32q-85 0 -146 -36.5t-93.5 -103.5t-32.5 -156v-1106h-179v1105q0 143 54 243.5t156 153t242 52.5
q116 0 210.5 -45.5t149 -132t54.5 -204.5q0 -94 -45 -172t-117 -119q99 -14 180 -69.5t128.5 -147t47.5 -210.5q0 -139 -61.5 -245.5t-174 -165t-260.5 -58.5q-112 0 -225 15z" />
    <glyph glyph-name="t" unicode="t" horiz-adv-x="787" 
d="M395.5 27q-73.5 36 -113 105t-39.5 165v622h-202v152h206v285l175 50v-335h289v-152h-289v-612q0 -72 46 -115.5t119 -43.5h124v-148q-70 -9 -143 -9q-99 0 -172.5 36z" />
    <glyph glyph-name="tbar" unicode="&#x167;" horiz-adv-x="787" 
d="M399 25.5q-73 34.5 -114.5 103.5t-41.5 168v208h-152v103h152v311h-202v152h206v285l175 50v-335h289v-152h-289v-311h239v-103h-239v-198q1 -74 47 -116.5t118 -42.5h124v-148q-72 -9 -143 -9q-96 0 -169 34.5z" />
    <glyph glyph-name="tcaron" unicode="&#x165;" horiz-adv-x="787" 
d="M695 1261h-102l47 277h168zM395.5 27q-73.5 36 -113 105t-39.5 165v622h-202v152h206v285l175 50v-335h289v-152h-289v-612q0 -72 46 -115.5t119 -43.5h124v-148q-70 -9 -143 -9q-99 0 -172.5 36z" />
    <glyph glyph-name="uni0163" unicode="&#x163;" horiz-adv-x="787" 
d="M192 -423l40 94q49 -32 114 -32q57 0 91 29t34 75q0 112 -163 112l75 179q-140 79 -140 263v622h-202v152h206v285l175 50v-335h289v-152h-289v-612q1 -74 47 -116.5t118 -42.5h124v-148q-72 -9 -143 -9q-54 0 -97 10l-35 -85q83 -9 129.5 -53.5t46.5 -126.5
q0 -61 -32 -106t-87.5 -68.5t-122.5 -23.5q-121 0 -178 39z" />
    <glyph glyph-name="uni021B" unicode="&#x21b;" horiz-adv-x="787" 
d="M395.5 27q-73.5 36 -113 105t-39.5 165v622h-202v152h206v285l175 50v-335h289v-152h-289v-612q0 -72 46 -115.5t119 -43.5h124v-148q-70 -9 -143 -9q-99 0 -172.5 36zM413 -462h-101l46 277h168z" />
    <glyph glyph-name="uni1E6D" unicode="&#x1e6d;" horiz-adv-x="787" 
d="M395.5 27q-73.5 36 -113 105t-39.5 165v622h-202v152h206v285l175 50v-335h289v-152h-289v-612q0 -72 46 -115.5t119 -43.5h124v-148q-70 -9 -143 -9q-99 0 -172.5 36zM370.5 -330q-31.5 30 -31.5 76q0 47 31.5 77t81.5 30t81.5 -30t31.5 -77q0 -46 -31.5 -76t-81.5 -30
t-81.5 30z" />
    <glyph glyph-name="u" unicode="u" 
d="M366.5 23q-95.5 55 -150.5 151.5t-55 215.5v680h179v-684q0 -66 30 -124.5t86.5 -94.5t133.5 -36q86 0 152.5 41.5t103 113.5t36.5 161v623h179v-1071h-165v135h-5q-48 -75 -129 -120.5t-184 -45.5q-116 0 -211.5 55z" />
    <glyph glyph-name="uacute" unicode="&#xfa;" 
d="M876 1499l-304 -299l-94 49l281 340zM366.5 23q-95.5 55 -150.5 151.5t-55 215.5v680h179v-684q0 -66 30 -124.5t86.5 -94.5t133.5 -36q86 0 152.5 41.5t103 113.5t36.5 161v623h179v-1071h-165v135h-5q-48 -75 -129 -120.5t-184 -45.5q-116 0 -211.5 55z" />
    <glyph glyph-name="ubreve" unicode="&#x16d;" 
d="M453.5 1234.5q-71.5 42.5 -113.5 115.5t-42 161h110q0 -53 27.5 -97.5t74 -70t100.5 -25.5q53 0 99.5 25.5t74 70t27.5 97.5h113q0 -88 -42 -161t-114 -115.5t-158 -42.5q-85 0 -156.5 42.5zM366.5 23q-95.5 55 -150.5 151.5t-55 215.5v680h179v-684q0 -66 30 -124.5
t86.5 -94.5t133.5 -36q86 0 152.5 41.5t103 113.5t36.5 161v623h179v-1071h-165v135h-5q-48 -75 -129 -120.5t-184 -45.5q-116 0 -211.5 55z" />
    <glyph glyph-name="ucircumflex" unicode="&#xfb;" 
d="M611 1408l-222 -229l-94 49l238 296h156l238 -296l-93 -49zM366.5 23q-95.5 55 -150.5 151.5t-55 215.5v680h179v-684q0 -66 30 -124.5t86.5 -94.5t133.5 -36q86 0 152.5 41.5t103 113.5t36.5 161v623h179v-1071h-165v135h-5q-48 -75 -129 -120.5t-184 -45.5
q-116 0 -211.5 55z" />
    <glyph glyph-name="udieresis" unicode="&#xfc;" 
d="M339 1300q-31 31 -31 80t31 80t80 31t80.5 -31t31.5 -80t-31.5 -80t-80.5 -31t-80 31zM722.5 1300q-31.5 31 -31.5 80t31.5 80t80.5 31t80 -31t31 -80t-31 -80t-80 -31t-80.5 31zM366.5 23q-95.5 55 -150.5 151.5t-55 215.5v680h179v-684q0 -66 30 -124.5t86.5 -94.5
t133.5 -36q86 0 152.5 41.5t103 113.5t36.5 161v623h179v-1071h-165v135h-5q-48 -75 -129 -120.5t-184 -45.5q-116 0 -211.5 55z" />
    <glyph glyph-name="udoubleacute" unicode="&#x171;" 
d="M720 1481l-303 -299l-81 62l268 326zM1061 1478l-303 -299l-81 62l268 326zM366.5 23q-95.5 55 -150.5 151.5t-55 215.5v680h179v-684q0 -66 30 -124.5t86.5 -94.5t133.5 -36q86 0 152.5 41.5t103 113.5t36.5 161v623h179v-1071h-165v135h-5q-48 -75 -129 -120.5
t-184 -45.5q-116 0 -211.5 55z" />
    <glyph glyph-name="ugrave" unicode="&#xf9;" 
d="M743 1249l-94 -49l-303 299l117 90zM366.5 23q-95.5 55 -150.5 151.5t-55 215.5v680h179v-684q0 -66 30 -124.5t86.5 -94.5t133.5 -36q86 0 152.5 41.5t103 113.5t36.5 161v623h179v-1071h-165v135h-5q-48 -75 -129 -120.5t-184 -45.5q-116 0 -211.5 55z" />
    <glyph glyph-name="umacron" unicode="&#x16b;" 
d="M913 1324h-605v113h605v-113zM366.5 23q-95.5 55 -150.5 151.5t-55 215.5v680h179v-684q0 -66 30 -124.5t86.5 -94.5t133.5 -36q86 0 152.5 41.5t103 113.5t36.5 161v623h179v-1071h-165v135h-5q-48 -75 -129 -120.5t-184 -45.5q-116 0 -211.5 55z" />
    <glyph glyph-name="uogonek" unicode="&#x173;" 
d="M782 -420.5q-45 41.5 -45 103.5q0 42 16 75.5t48 72.5l139 168h-44l-1 135h-4q-47 -75 -127 -120.5t-186 -45.5q-119 0 -214 56t-149 152.5t-54 213.5v680h179v-684q0 -66 29 -124.5t85.5 -94.5t135.5 -36q87 0 152.5 41.5t102 113t37.5 161.5v624h179v-1072h-16
l-142 -205q-27 -40 -27 -75q0 -31 21 -51.5t58 -20.5q56 0 90 31l32 -100q-73 -40 -160 -40q-90 0 -135 41.5z" />
    <glyph glyph-name="uring" unicode="&#x16f;" 
d="M509.5 1184.5q-46.5 26.5 -73.5 72.5t-27 102t27 102t73 72.5t102 26.5t102 -26.5t73 -72.5t27 -102t-27 -102t-73 -72.5t-102 -26.5q-55 0 -101.5 26.5zM692.5 1276q33.5 34 33.5 83t-33.5 83t-81.5 34t-81.5 -34t-33.5 -83t33.5 -83t81.5 -34t81.5 34zM366.5 23
q-95.5 55 -150.5 151.5t-55 215.5v680h179v-684q0 -66 30 -124.5t86.5 -94.5t133.5 -36q86 0 152.5 41.5t103 113.5t36.5 161v623h179v-1071h-165v135h-5q-48 -75 -129 -120.5t-184 -45.5q-116 0 -211.5 55z" />
    <glyph glyph-name="utilde" unicode="&#x169;" 
d="M671.5 1252q-33.5 15 -76.5 44q-37 25 -61.5 37t-53.5 12q-36 0 -66.5 -24t-46.5 -61l-86 74q28 67 79.5 106.5t114.5 39.5q42 0 75.5 -15t76.5 -44q37 -25 61.5 -37t53.5 -12q36 0 66.5 24t47.5 61l85 -74q-27 -66 -78.5 -106t-115.5 -40q-42 0 -75.5 15zM366.5 23
q-95.5 55 -150.5 151.5t-55 215.5v680h179v-684q0 -66 30 -124.5t86.5 -94.5t133.5 -36q86 0 152.5 41.5t103 113.5t36.5 161v623h179v-1071h-165v135h-5q-48 -75 -129 -120.5t-184 -45.5q-116 0 -211.5 55z" />
    <glyph glyph-name="v" unicode="v" horiz-adv-x="1049" 
d="M624 0h-200l-399 1071h197l302 -857l302 857h197z" />
    <glyph glyph-name="w" unicode="w" horiz-adv-x="1639" 
d="M595 0h-171l-399 1071h193l302 -860l220 572l-96 288h173l301 -857l302 857h193l-399 -1071h-171l-224 586z" />
    <glyph glyph-name="wacute" unicode="&#x1e83;" horiz-adv-x="1639" 
d="M1084 1499l-304 -299l-94 49l281 340zM595 0h-171l-399 1071h193l302 -860l220 572l-96 288h173l301 -857l302 857h193l-399 -1071h-171l-224 586z" />
    <glyph glyph-name="wcircumflex" unicode="&#x175;" horiz-adv-x="1639" 
d="M819 1408l-222 -229l-94 49l238 296h156l238 -296l-93 -49zM595 0h-171l-399 1071h193l302 -860l220 572l-96 288h173l301 -857l302 857h193l-399 -1071h-171l-224 586z" />
    <glyph glyph-name="wdieresis" unicode="&#x1e85;" horiz-adv-x="1639" 
d="M547 1300q-31 31 -31 80t31 80t80 31t80.5 -31t31.5 -80t-31.5 -80t-80.5 -31t-80 31zM930.5 1300q-31.5 31 -31.5 80t31.5 80t80.5 31t80 -31t31 -80t-31 -80t-80 -31t-80.5 31zM595 0h-171l-399 1071h193l302 -860l220 572l-96 288h173l301 -857l302 857h193
l-399 -1071h-171l-224 586z" />
    <glyph glyph-name="uni1E89" unicode="&#x1e89;" horiz-adv-x="1639" 
d="M595 0h-171l-399 1071h193l302 -860l220 572l-96 288h173l301 -857l302 857h193l-399 -1071h-171l-224 586zM737.5 -330q-31.5 30 -31.5 76q0 47 31.5 77t81.5 30t81.5 -30t31.5 -77q0 -46 -31.5 -76t-81.5 -30t-81.5 30z" />
    <glyph glyph-name="wgrave" unicode="&#x1e81;" horiz-adv-x="1639" 
d="M951 1249l-94 -49l-303 299l117 90zM595 0h-171l-399 1071h193l302 -860l220 572l-96 288h173l301 -857l302 857h193l-399 -1071h-171l-224 586z" />
    <glyph glyph-name="x" unicode="x" horiz-adv-x="1093" 
d="M217 0h-218l438 582l-369 489h219l259 -345l260 345h218l-369 -489l439 -582h-218l-330 437z" />
    <glyph glyph-name="y" unicode="y" horiz-adv-x="1078" 
d="M65 -307q263 0 360 250l33 84l-433 1044h203l318 -819l308 819h199l-461 -1181q-73 -187 -198.5 -269.5t-328.5 -82.5v155z" />
    <glyph glyph-name="yacute" unicode="&#xfd;" horiz-adv-x="1078" 
d="M810 1499l-304 -299l-93 49l281 340zM65 -307q263 0 360 250l33 84l-433 1044h203l318 -819l308 819h199l-461 -1181q-73 -187 -198.5 -269.5t-328.5 -82.5v155z" />
    <glyph glyph-name="ycircumflex" unicode="&#x177;" horiz-adv-x="1078" 
d="M545 1408l-221 -229l-95 49l238 296h156l239 -296l-94 -49zM65 -307q263 0 360 250l33 84l-433 1044h203l318 -819l308 819h199l-461 -1181q-73 -187 -198.5 -269.5t-328.5 -82.5v155z" />
    <glyph glyph-name="ydieresis" unicode="&#xff;" horiz-adv-x="1078" 
d="M273.5 1300q-31.5 31 -31.5 80t31.5 80t80.5 31t80 -31t31 -80t-31 -80t-80 -31t-80.5 31zM657 1300q-31 31 -31 80t31 80t80 31t80.5 -31t31.5 -80t-31.5 -80t-80.5 -31t-80 31zM65 -307q263 0 360 250l33 84l-433 1044h203l318 -819l308 819h199l-461 -1181
q-73 -187 -198.5 -269.5t-328.5 -82.5v155z" />
    <glyph glyph-name="uni1EF5" unicode="&#x1ef5;" horiz-adv-x="1078" 
d="M65 -307q263 0 360 250l33 84l-433 1044h203l318 -819l308 819h199l-461 -1181q-73 -187 -198.5 -269.5t-328.5 -82.5v155zM769.5 -330q-31.5 30 -31.5 76q0 47 31.5 77t81.5 30q49 0 80.5 -30t31.5 -77q0 -46 -31.5 -76t-80.5 -30q-50 0 -81.5 30z" />
    <glyph glyph-name="ygrave" unicode="&#x1ef3;" horiz-adv-x="1078" 
d="M678 1249l-94 -49l-304 299l117 90zM65 -307q263 0 360 250l33 84l-433 1044h203l318 -819l308 819h199l-461 -1181q-73 -187 -198.5 -269.5t-328.5 -82.5v155z" />
    <glyph glyph-name="uni0233" unicode="&#x233;" horiz-adv-x="1078" 
d="M848 1324h-606v113h606v-113zM65 -307q263 0 360 250l33 84l-433 1044h203l318 -819l308 819h199l-461 -1181q-73 -187 -198.5 -269.5t-328.5 -82.5v155z" />
    <glyph glyph-name="z" unicode="z" horiz-adv-x="998" 
d="M959 0h-895v94l614 826h-584v151h837v-92l-613 -829h641v-150z" />
    <glyph glyph-name="zacute" unicode="&#x17a;" horiz-adv-x="998" 
d="M777 1499l-304 -299l-94 49l281 340zM959 0h-895v94l614 826h-584v151h837v-92l-613 -829h641v-150z" />
    <glyph glyph-name="zcaron" unicode="&#x17e;" horiz-adv-x="998" 
d="M590 1179h-156l-238 296l94 49l222 -230l222 230l94 -49zM959 0h-895v94l614 826h-584v151h837v-92l-613 -829h641v-150z" />
    <glyph glyph-name="zdotaccent" unicode="&#x17c;" horiz-adv-x="998" 
d="M427.5 1300q-32.5 31 -32.5 80t32.5 80t84.5 31q51 0 84 -31t33 -80t-33 -80t-84 -31q-52 0 -84.5 31zM959 0h-895v94l614 826h-584v151h837v-92l-613 -829h641v-150z" />
    <glyph glyph-name="uni1E93" unicode="&#x1e93;" horiz-adv-x="998" 
d="M959 0h-895v94l614 826h-584v151h837v-92l-613 -829h641v-150zM430.5 -330q-31.5 30 -31.5 76q0 47 31.5 77t81.5 30q49 0 80.5 -30t31.5 -77q0 -46 -31.5 -76t-80.5 -30q-50 0 -81.5 30z" />
    <glyph glyph-name="a.ss04" horiz-adv-x="1372" 
d="M353.5 40.5q-125.5 72.5 -197.5 202t-72 292.5t72 292.5t197.5 202t278.5 72.5q128 0 224.5 -47.5t159.5 -120.5v137h179v-1071h-165v147h-5q-61 -77 -162 -128t-231 -51q-153 0 -278.5 72.5zM836.5 184.5q86.5 51.5 135.5 143t49 207.5t-49 207.5t-135.5 143
t-194.5 51.5t-194.5 -51.5t-135.5 -143t-49 -207.5t49 -207.5t135.5 -143t194.5 -51.5t194.5 51.5z" />
    <glyph glyph-name="aacute.ss04" horiz-adv-x="1372" 
d="M887 1499l-304 -299l-94 49l282 340zM353.5 40.5q-125.5 72.5 -197.5 202t-72 292.5t72 292.5t197.5 202t278.5 72.5q128 0 224.5 -47.5t159.5 -120.5v137h179v-1071h-165v147h-5q-61 -77 -162 -128t-231 -51q-153 0 -278.5 72.5zM836.5 184.5q86.5 51.5 135.5 143
t49 207.5t-49 207.5t-135.5 143t-194.5 51.5t-194.5 -51.5t-135.5 -143t-49 -207.5t49 -207.5t135.5 -143t194.5 -51.5t194.5 51.5z" />
    <glyph glyph-name="abreve.ss04" horiz-adv-x="1372" 
d="M480.5 1234.5q-71.5 42.5 -113.5 115.5t-42 161h111q0 -53 27.5 -97.5t74 -70t99.5 -25.5t99.5 25.5t74 70t27.5 97.5h113q0 -88 -42 -161t-114 -115.5t-158 -42.5q-85 0 -156.5 42.5zM353.5 40.5q-125.5 72.5 -197.5 202t-72 292.5t72 292.5t197.5 202t278.5 72.5
q128 0 224.5 -47.5t159.5 -120.5v137h179v-1071h-165v147h-5q-61 -77 -162 -128t-231 -51q-153 0 -278.5 72.5zM836.5 184.5q86.5 51.5 135.5 143t49 207.5t-49 207.5t-135.5 143t-194.5 51.5t-194.5 -51.5t-135.5 -143t-49 -207.5t49 -207.5t135.5 -143t194.5 -51.5
t194.5 51.5z" />
    <glyph glyph-name="acircumflex.ss04" horiz-adv-x="1372" 
d="M638 1408l-222 -229l-94 49l238 296h156l238 -296l-93 -49zM353.5 40.5q-125.5 72.5 -197.5 202t-72 292.5t72 292.5t197.5 202t278.5 72.5q128 0 224.5 -47.5t159.5 -120.5v137h179v-1071h-165v147h-5q-61 -77 -162 -128t-231 -51q-153 0 -278.5 72.5zM836.5 184.5
q86.5 51.5 135.5 143t49 207.5t-49 207.5t-135.5 143t-194.5 51.5t-194.5 -51.5t-135.5 -143t-49 -207.5t49 -207.5t135.5 -143t194.5 -51.5t194.5 51.5z" />
    <glyph glyph-name="adieresis.ss04" horiz-adv-x="1372" 
d="M366 1300q-31 31 -31 80t31 80t80 31t80 -31t31 -80t-31 -80t-80 -31t-80 31zM750 1300q-31 31 -31 80t31 80t80 31t80 -31t31 -80t-31 -80t-80 -31t-80 31zM353.5 40.5q-125.5 72.5 -197.5 202t-72 292.5t72 292.5t197.5 202t278.5 72.5q128 0 224.5 -47.5t159.5 -120.5
v137h179v-1071h-165v147h-5q-61 -77 -162 -128t-231 -51q-153 0 -278.5 72.5zM836.5 184.5q86.5 51.5 135.5 143t49 207.5t-49 207.5t-135.5 143t-194.5 51.5t-194.5 -51.5t-135.5 -143t-49 -207.5t49 -207.5t135.5 -143t194.5 -51.5t194.5 51.5z" />
    <glyph glyph-name="agrave.ss04" horiz-adv-x="1372" 
d="M788 1249l-95 -49l-303 299l117 90zM353.5 40.5q-125.5 72.5 -197.5 202t-72 292.5t72 292.5t197.5 202t278.5 72.5q128 0 224.5 -47.5t159.5 -120.5v137h179v-1071h-165v147h-5q-61 -77 -162 -128t-231 -51q-153 0 -278.5 72.5zM836.5 184.5q86.5 51.5 135.5 143
t49 207.5t-49 207.5t-135.5 143t-194.5 51.5t-194.5 -51.5t-135.5 -143t-49 -207.5t49 -207.5t135.5 -143t194.5 -51.5t194.5 51.5z" />
    <glyph glyph-name="amacron.ss04" horiz-adv-x="1372" 
d="M941 1324h-606v113h606v-113zM353.5 40.5q-125.5 72.5 -197.5 202t-72 292.5t72 292.5t197.5 202t278.5 72.5q128 0 224.5 -47.5t159.5 -120.5v137h179v-1071h-165v147h-5q-61 -77 -162 -128t-231 -51q-153 0 -278.5 72.5zM836.5 184.5q86.5 51.5 135.5 143t49 207.5
t-49 207.5t-135.5 143t-194.5 51.5t-194.5 -51.5t-135.5 -143t-49 -207.5t49 -207.5t135.5 -143t194.5 -51.5t194.5 51.5z" />
    <glyph glyph-name="aogonek.ss04" horiz-adv-x="1372" 
d="M915.5 -420.5q-44.5 41.5 -44.5 103.5q0 42 15.5 76t47.5 72l140 169h-44v147h-5q-57 -75 -158.5 -127t-234.5 -52q-157 0 -282 73t-195.5 202.5t-70.5 291.5q0 165 72 294t197.5 201t278.5 72q127 0 224 -47.5t160 -120.5v137h179v-1071h-15l-143 -206q-27 -39 -27 -75
q0 -31 20 -51.5t58 -20.5q57 0 91 31l31 -100q-73 -40 -160 -40q-90 0 -134.5 41.5zM836.5 184q86.5 51 135.5 142.5t49 208.5t-49 208.5t-135.5 142.5t-194.5 51q-107 0 -193.5 -51t-136 -142.5t-49.5 -208.5t49.5 -208.5t136 -142.5t193.5 -51q108 0 194.5 51z" />
    <glyph glyph-name="aring.ss04" horiz-adv-x="1372" 
d="M536.5 1184.5q-46.5 26.5 -73.5 72.5t-27 102t27 102t73 72.5t102 26.5t102.5 -26.5t73.5 -72.5t27 -102t-27 -102t-73.5 -72.5t-102.5 -26.5q-55 0 -101.5 26.5zM720 1276q34 34 34 83t-34 83t-82 34q-47 0 -81 -34t-34 -83t34 -83t81 -34q48 0 82 34zM353.5 40.5
q-125.5 72.5 -197.5 202t-72 292.5t72 292.5t197.5 202t278.5 72.5q128 0 224.5 -47.5t159.5 -120.5v137h179v-1071h-165v147h-5q-61 -77 -162 -128t-231 -51q-153 0 -278.5 72.5zM836.5 184.5q86.5 51.5 135.5 143t49 207.5t-49 207.5t-135.5 143t-194.5 51.5t-194.5 -51.5
t-135.5 -143t-49 -207.5t49 -207.5t135.5 -143t194.5 -51.5t194.5 51.5z" />
    <glyph glyph-name="atilde.ss04" horiz-adv-x="1372" 
d="M698.5 1252q-33.5 15 -76.5 44q-35 24 -60.5 36.5t-54.5 12.5q-36 0 -66.5 -24t-46.5 -61l-86 74q28 67 79.5 106.5t114.5 39.5q42 0 75.5 -15t76.5 -44q37 -25 61.5 -37t53.5 -12q36 0 67 24t47 61l85 -74q-27 -66 -78.5 -106t-114.5 -40q-43 0 -76.5 15zM353.5 40.5
q-125.5 72.5 -197.5 202t-72 292.5t72 292.5t197.5 202t278.5 72.5q128 0 224.5 -47.5t159.5 -120.5v137h179v-1071h-165v147h-5q-61 -77 -162 -128t-231 -51q-153 0 -278.5 72.5zM836.5 184.5q86.5 51.5 135.5 143t49 207.5t-49 207.5t-135.5 143t-194.5 51.5t-194.5 -51.5
t-135.5 -143t-49 -207.5t49 -207.5t135.5 -143t194.5 -51.5t194.5 51.5z" />
    <glyph glyph-name="ae.ss04" horiz-adv-x="2158" 
d="M350.5 40.5q-124.5 72.5 -195.5 202t-71 292.5t71 292.5t195.5 202t277.5 72.5q128 0 226.5 -48t161.5 -120v136h179v-131q56 75 150 119t197 44q146 0 266.5 -64t193.5 -187.5t78 -292.5q0 -58 -4 -79h-881v-119q38 -109 131.5 -173.5t216.5 -64.5q127 0 218.5 56
t143.5 155l144 -85q-65 -130 -195.5 -205t-289.5 -75q-101 0 -196 42t-168 115h-5v-125h-165v147h-4q-60 -77 -164 -128t-234 -51q-153 0 -277.5 72.5zM1898 617q-6 98 -54.5 174t-127.5 118.5t-175 42.5q-120 0 -213.5 -65t-132.5 -176v-94h703zM836.5 180
q86.5 52 135.5 145t49 210t-49 210t-135.5 145t-194.5 52t-194.5 -52t-135.5 -145t-49 -210t49 -210t135.5 -145t194.5 -52t194.5 52z" />
    <glyph glyph-name="l.ss05" horiz-adv-x="595" 
d="M240 55q-63 64 -63 177v1290h179v-1257q0 -54 29 -85t80 -31h93v-149q-59 -9 -141 -9q-114 0 -177 64z" />
    <glyph glyph-name="lacute.ss05" horiz-adv-x="595" 
d="M520 1878l-304 -281l-93 42l280 314zM240 55q-63 64 -63 177v1290h179v-1257q0 -54 29 -85t80 -31h93v-149q-59 -9 -141 -9q-114 0 -177 64z" />
    <glyph glyph-name="lcaron.ss05" horiz-adv-x="595" 
d="M240 55q-63 64 -63 177v1290h179v-1257q0 -54 29 -85t80 -31h93v-149q-59 -9 -141 -9q-114 0 -177 64zM557 1245h-102l47 277h168z" />
    <glyph glyph-name="uni013C.ss05" horiz-adv-x="595" 
d="M240 55q-63 64 -63 177v1290h179v-1257q0 -54 29 -85t80 -31h93v-149q-59 -9 -141 -9q-114 0 -177 64zM348 -462h-102l47 277h168z" />
    <glyph glyph-name="uni1E37.ss05" horiz-adv-x="595" 
d="M240 55q-63 64 -63 177v1290h179v-1257q0 -54 29 -85t80 -31h93v-149q-59 -9 -141 -9q-114 0 -177 64zM264.5 -330q-31.5 30 -31.5 76q0 47 31.5 77t81.5 30t81.5 -30t31.5 -77q0 -46 -31.5 -76t-81.5 -30t-81.5 30z" />
    <glyph glyph-name="uni1E39.ss05" horiz-adv-x="595" 
d="M540 1800h-507v113h507v-113zM240 55q-63 64 -63 177v1290h179v-1257q0 -54 29 -85t80 -31h93v-149q-59 -9 -141 -9q-114 0 -177 64zM264.5 -330q-31.5 30 -31.5 76q0 47 31.5 77t81.5 30t81.5 -30t31.5 -77q0 -46 -31.5 -76t-81.5 -30t-81.5 30z" />
    <glyph glyph-name="uni1E3B.ss05" horiz-adv-x="595" 
d="M240 55q-63 64 -63 177v1290h179v-1257q0 -54 29 -85t80 -31h93v-149q-59 -9 -141 -9q-114 0 -177 64zM559 -333h-483v112h483v-112z" />
    <glyph glyph-name="lslash.ss05" horiz-adv-x="690" 
d="M316.5 56q-61.5 65 -61.5 176v417l-237 -137l-52 89l289 167v754h179v-650l238 138l52 -90l-290 -168v-487q0 -52 28 -84t81 -32h93v-149q-60 -9 -141 -9q-117 0 -178.5 65z" />
    <glyph glyph-name="t.ss06" horiz-adv-x="752" 
d="M465 0h-179v919h-246v152h246v335h179v-335h246v-152h-246v-919z" />
    <glyph glyph-name="tbar.ss06" horiz-adv-x="752" 
d="M465 0h-179v472h-195v103h195v344h-246v152h246v335h179v-335h246v-152h-246v-344h196v-103h-196v-472z" />
    <glyph glyph-name="tcaron.ss06" horiz-adv-x="752" 
d="M687 1261h-102l47 278h167zM465 0h-179v919h-246v152h246v335h179v-335h246v-152h-246v-919z" />
    <glyph glyph-name="uni0163.ss06" horiz-adv-x="752" 
d="M158 -423l40 94q49 -32 114 -32q57 0 91 29t34 75q0 112 -163 112l61 145h-49v919h-246v152h246v335h179v-335h246v-152h-246v-919h-28l-35 -84q83 -9 129.5 -53.5t46.5 -126.5q0 -63 -33.5 -107.5t-89 -67.5t-119.5 -23q-121 0 -178 39z" />
    <glyph glyph-name="uni021B.ss06" horiz-adv-x="752" 
d="M465 0h-179v919h-246v152h246v335h179v-335h246v-152h-246v-919zM361 -462h-102l47 277h168z" />
    <glyph glyph-name="uni1E6D.ss06" horiz-adv-x="752" 
d="M465 0h-179v919h-246v152h246v335h179v-335h246v-152h-246v-919zM294.5 -330q-31.5 30 -31.5 76q0 47 31.5 77t81.5 30t81.5 -30t31.5 -77q0 -46 -31.5 -76t-81.5 -30t-81.5 30z" />
    <glyph glyph-name="u.ss07" horiz-adv-x="1210" 
d="M377.5 19q-100.5 51 -158 146.5t-57.5 224.5v681h179v-672q0 -78 35 -139t95.5 -94.5t133.5 -33.5q75 0 135.5 34.5t94.5 95.5t34 137v672h180v-681q0 -129 -58 -224.5t-158.5 -146.5t-227.5 -51t-227.5 51z" />
    <glyph glyph-name="uacute.ss07" horiz-adv-x="1210" 
d="M854 1499l-304 -299l-93 49l280 340zM377.5 19q-100.5 51 -158 146.5t-57.5 224.5v681h179v-672q0 -78 35 -139t95.5 -94.5t133.5 -33.5q75 0 135.5 34.5t94.5 95.5t34 137v672h180v-681q0 -129 -58 -224.5t-158.5 -146.5t-227.5 -51t-227.5 51z" />
    <glyph glyph-name="ubreve.ss07" horiz-adv-x="1210" 
d="M447.5 1234.5q-71.5 42.5 -113.5 115.5t-42 161h111q0 -53 27.5 -97.5t73.5 -70t100 -25.5q53 0 99.5 25.5t74 70t27.5 97.5h113q0 -88 -42 -161t-114 -115.5t-158 -42.5q-85 0 -156.5 42.5zM377.5 19q-100.5 51 -158 146.5t-57.5 224.5v681h179v-672q0 -78 35 -139
t95.5 -94.5t133.5 -33.5q75 0 135.5 34.5t94.5 95.5t34 137v672h180v-681q0 -129 -58 -224.5t-158.5 -146.5t-227.5 -51t-227.5 51z" />
    <glyph glyph-name="ucircumflex.ss07" horiz-adv-x="1210" 
d="M605 1408l-222 -229l-94 49l238 296h156l238 -296l-93 -49zM377.5 19q-100.5 51 -158 146.5t-57.5 224.5v681h179v-672q0 -78 35 -139t95.5 -94.5t133.5 -33.5q75 0 135.5 34.5t94.5 95.5t34 137v672h180v-681q0 -129 -58 -224.5t-158.5 -146.5t-227.5 -51t-227.5 51z
" />
    <glyph glyph-name="udieresis.ss07" horiz-adv-x="1210" 
d="M333 1300q-31 31 -31 80t31 80t80 31t80.5 -31t31.5 -80t-31.5 -80t-80.5 -31t-80 31zM716.5 1300q-31.5 31 -31.5 80t31.5 80t80.5 31t80 -31t31 -80t-31 -80t-80 -31t-80.5 31zM377.5 19q-100.5 51 -158 146.5t-57.5 224.5v681h179v-672q0 -78 35 -139t95.5 -94.5
t133.5 -33.5q75 0 135.5 34.5t94.5 95.5t34 137v672h180v-681q0 -129 -58 -224.5t-158.5 -146.5t-227.5 -51t-227.5 51z" />
    <glyph glyph-name="ugrave.ss07" horiz-adv-x="1210" 
d="M754 1249l-94 -49l-303 299l116 90zM377.5 19q-100.5 51 -158 146.5t-57.5 224.5v681h179v-672q0 -78 35 -139t95.5 -94.5t133.5 -33.5q75 0 135.5 34.5t94.5 95.5t34 137v672h180v-681q0 -129 -58 -224.5t-158.5 -146.5t-227.5 -51t-227.5 51z" />
    <glyph glyph-name="umacron.ss07" horiz-adv-x="1210" 
d="M908 1324h-605v113h605v-113zM377.5 19q-100.5 51 -158 146.5t-57.5 224.5v681h179v-672q0 -78 35 -139t95.5 -94.5t133.5 -33.5q75 0 135.5 34.5t94.5 95.5t34 137v672h180v-681q0 -129 -58 -224.5t-158.5 -146.5t-227.5 -51t-227.5 51z" />
    <glyph glyph-name="uogonek.ss07" horiz-adv-x="1210" 
d="M579.5 -421.5q-45.5 40.5 -45.5 104.5q0 44 16 79t47 69l122 153q-58 -16 -114 -16q-124 0 -224.5 50t-159 145.5t-59.5 226.5v681h179v-672q0 -78 34.5 -139t94.5 -94.5t135 -33.5t135 34t94.5 94.5t34.5 138.5v672h180v-681q0 -118 -48 -205.5t-131 -141.5l-171 -249
q-27 -37 -27 -75q0 -31 21 -51.5t58 -20.5q28 0 48.5 7.5t41.5 23.5l31 -100q-31 -20 -73 -30t-87 -10q-87 0 -132.5 40.5z" />
    <glyph glyph-name="uring.ss07" horiz-adv-x="1210" 
d="M503.5 1184.5q-46.5 26.5 -73.5 72.5t-27 102t27 102t73 72.5t102 26.5t102 -26.5t73 -72.5t27 -102t-27 -102t-73 -72.5t-102 -26.5q-55 0 -101.5 26.5zM686.5 1276q33.5 34 33.5 83t-33.5 83t-81.5 34t-81.5 -34t-33.5 -83t33.5 -83t81.5 -34t81.5 34zM377.5 19
q-100.5 51 -158 146.5t-57.5 224.5v681h179v-672q0 -78 35 -139t95.5 -94.5t133.5 -33.5q75 0 135.5 34.5t94.5 95.5t34 137v672h180v-681q0 -129 -58 -224.5t-158.5 -146.5t-227.5 -51t-227.5 51z" />
    <glyph glyph-name="utilde.ss07" horiz-adv-x="1210" 
d="M665.5 1252q-33.5 15 -76.5 44q-35 24 -60.5 36.5t-54.5 12.5q-36 0 -66.5 -24t-46.5 -61l-86 74q28 67 79.5 106.5t114.5 39.5q42 0 75.5 -15t76.5 -44q37 -25 61.5 -37t53.5 -12q36 0 66.5 24t47.5 61l85 -74q-27 -66 -78.5 -106t-114.5 -40q-43 0 -76.5 15zM377.5 19
q-100.5 51 -158 146.5t-57.5 224.5v681h179v-672q0 -78 35 -139t95.5 -94.5t133.5 -33.5q75 0 135.5 34.5t94.5 95.5t34 137v672h180v-681q0 -129 -58 -224.5t-158.5 -146.5t-227.5 -51t-227.5 51z" />
    <glyph glyph-name="w.ss08" horiz-adv-x="1586" 
d="M523 0h-176l-312 1071h190l225 -844l274 844h139l273 -844l225 844h190l-312 -1071h-176l-270 804z" />
    <glyph glyph-name="wacute.ss08" horiz-adv-x="1586" 
d="M1042 1499l-304 -299l-94 49l281 340zM523 0h-176l-312 1071h190l225 -844l274 844h139l273 -844l225 844h190l-312 -1071h-176l-270 804z" />
    <glyph glyph-name="wcircumflex.ss08" horiz-adv-x="1586" 
d="M793 1408l-222 -229l-94 49l238 296h156l238 -296l-94 -49zM523 0h-176l-312 1071h190l225 -844l274 844h139l273 -844l225 844h190l-312 -1071h-176l-270 804z" />
    <glyph glyph-name="wdieresis.ss08" horiz-adv-x="1586" 
d="M520.5 1300q-31.5 31 -31.5 80t31.5 80t80.5 31t80 -31t31 -80t-31 -80t-80 -31t-80.5 31zM904.5 1300q-31.5 31 -31.5 80t31.5 80t80.5 31t80 -31t31 -80t-31 -80t-80 -31t-80.5 31zM523 0h-176l-312 1071h190l225 -844l274 844h139l273 -844l225 844h190l-312 -1071
h-176l-270 804z" />
    <glyph glyph-name="uni1E89.ss08" horiz-adv-x="1586" 
d="M523 0h-176l-312 1071h190l225 -844l274 844h139l273 -844l225 844h190l-312 -1071h-176l-270 804zM711.5 -330q-31.5 30 -31.5 76q0 47 31.5 77t81.5 30t81.5 -30t31.5 -77q0 -46 -31.5 -76t-81.5 -30t-81.5 30z" />
    <glyph glyph-name="wgrave.ss08" horiz-adv-x="1586" 
d="M942 1249l-94 -49l-304 299l117 90zM523 0h-176l-312 1071h190l225 -844l274 844h139l273 -844l225 844h190l-312 -1071h-176l-270 804z" />
    <glyph glyph-name="y.ss09" horiz-adv-x="1078" 
d="M467 -430h-186l177 457l-433 1044h203l318 -819l308 819h199z" />
    <glyph glyph-name="yacute.ss09" horiz-adv-x="1078" 
d="M797 1499l-305 -299l-93 49l281 340zM467 -430h-186l177 457l-433 1044h203l318 -819l308 819h199z" />
    <glyph glyph-name="ycircumflex.ss09" horiz-adv-x="1078" 
d="M547 1408l-222 -229l-94 49l238 296h156l238 -296l-93 -49zM467 -430h-186l177 457l-433 1044h203l318 -819l308 819h199z" />
    <glyph glyph-name="ydieresis.ss09" horiz-adv-x="1078" 
d="M275.5 1300q-31.5 31 -31.5 80t31.5 80t80.5 31t80 -31t31 -80t-31 -80t-80 -31t-80.5 31zM659.5 1300q-31.5 31 -31.5 80t31.5 80t80.5 31t80 -31t31 -80t-31 -80t-80 -31t-80.5 31zM467 -430h-186l177 457l-433 1044h203l318 -819l308 819h199z" />
    <glyph glyph-name="uni1EF5.ss09" horiz-adv-x="1078" 
d="M467 -430h-186l177 457l-433 1044h203l318 -819l308 819h199zM737.5 -330.5q-31.5 29.5 -31.5 76.5t31.5 77t81.5 30q49 0 80.5 -30t31.5 -77q0 -46 -31.5 -76t-80.5 -30q-50 0 -81.5 29.5z" />
    <glyph glyph-name="ygrave.ss09" horiz-adv-x="1078" 
d="M697 1249l-95 -49l-303 299l116 90zM467 -430h-186l177 457l-433 1044h203l318 -819l308 819h199z" />
    <glyph glyph-name="uni0233.ss09" horiz-adv-x="1078" 
d="M850 1324h-605v113h605v-113zM467 -430h-186l177 457l-433 1044h203l318 -819l308 819h199z" />
    <glyph glyph-name="fl.ss05" horiz-adv-x="1329" 
d="M260 0v919h-202v152h202v153q0 95 38.5 163.5t112 105.5t174.5 37q65 0 143 -9v-148h-124q-73 0 -119 -43.5t-46 -115.5v-143h289v-152h-289v-919h-179zM974 55q-63 64 -63 177v1290h179v-1257q0 -54 29 -85t80 -31h93v-149q-59 -9 -141 -9q-114 0 -177 64z" />
    <glyph glyph-name="ordfeminine" unicode="&#xaa;" horiz-adv-x="739" 
d="M114.5 749q-50.5 46 -50.5 123q0 71 46 119.5t131 73.5l226 64v55q0 59 -32 92.5t-90 33.5q-50 0 -86 -35.5t-40 -90.5h-139q4 74 40 132t95.5 90t131.5 32q133 0 199.5 -66.5t66.5 -187.5v-460h-135v94q-30 -51 -92 -83t-128 -32q-93 0 -143.5 46zM407.5 854
q47.5 36 59.5 91v95l-173 -47q-45 -12 -68.5 -36.5t-23.5 -58.5q0 -37 23.5 -58.5t69.5 -21.5q65 0 112.5 36z" />
    <glyph glyph-name="ordmasculine" unicode="&#xba;" horiz-adv-x="871" 
d="M223 750q-82 47 -128 130.5t-46 190.5q0 106 46 189.5t128 130.5t186 47t186 -47t128 -130.5t46 -189.5q0 -107 -46 -190.5t-128 -130.5t-186 -47t-186 47zM521.5 868.5q49.5 29.5 77 82.5t27.5 120t-27.5 119.5t-77 82t-112.5 29.5t-112.5 -29.5t-77 -82t-27.5 -119.5
t27.5 -120t77 -82.5t112.5 -29.5t112.5 29.5z" />
    <glyph glyph-name="ordfeminine.ss04" horiz-adv-x="912" 
d="M216.5 750q-78.5 47 -123 131t-44.5 190t44.5 189.5t123 130.5t176.5 47q132 0 227 -85v64h143v-693h-135v71q-43 -38 -102.5 -65t-132.5 -27q-98 0 -176.5 47zM520 867.5q49 29.5 76.5 82.5t27.5 121q0 67 -27.5 120t-76.5 82.5t-112 29.5t-112 -29.5t-76.5 -82.5
t-27.5 -120q0 -68 27.5 -121t76.5 -82.5t112 -29.5t112 29.5z" />
    <glyph glyph-name="pi-grek" unicode="&#x3c0;" horiz-adv-x="1401" 
d="M245 0v919h-185v152h1257v-152h-193v-602q0 -48 21 -86t59 -59t85 -21h78v-151h-106q-96 1 -167.5 40.5t-110 110.5t-38.5 165v603h-521v-919h-179z" />
    <glyph glyph-name="zero" unicode="0" horiz-adv-x="1277" 
d="M360 46q-122 78 -193 242.5t-71 414.5t71 414.5t193 242.5t278 78t278.5 -78t193.5 -242.5t71 -414.5t-71 -414.5t-193.5 -242.5t-278.5 -78t-278 78zM820 199q82 59 131 185t49 319t-48 319.5t-129.5 185t-184.5 58.5q-102 0 -183.5 -58.5t-129.5 -185t-48 -319.5
t49 -319t130.5 -185t181.5 -59t182 59z" />
    <glyph glyph-name="one" unicode="1" horiz-adv-x="703" 
d="M505 0h-181v1236h-309v150l330 20h160v-1406z" />
    <glyph glyph-name="two" unicode="2" horiz-adv-x="1162" 
d="M64 0v108l599 510q67 57 112.5 108t74 113t28.5 135q0 76 -35.5 142.5t-103.5 107t-161 40.5q-92 0 -162 -41t-107.5 -107.5t-37.5 -142.5v-66h-182v66q0 134 61.5 240t172.5 165.5t254 59.5q144 0 255 -58.5t172 -164t61 -242.5q0 -105 -35.5 -186.5t-91.5 -142.5
t-146 -136l-401 -344h681v-164h-1008z" />
    <glyph glyph-name="three" unicode="3" horiz-adv-x="1137" 
d="M315 11.5q-106 43.5 -175.5 123t-90.5 186.5l186 27q15 -61 57.5 -111.5t108 -80t147.5 -29.5q89 0 162.5 37.5t116.5 105.5t43 154q0 83 -33 150t-99.5 106.5t-162.5 39.5h-183v107l339 415h-634v164h863v-122l-345 -425h48q111 0 201 -51.5t141.5 -149t51.5 -229.5
t-65 -237.5t-181 -164.5t-263 -59q-127 0 -233 43.5z" />
    <glyph glyph-name="four" unicode="4" horiz-adv-x="1138" 
d="M976 0h-182v327h-726v130l453 949h207l-440 -915h506v297h182v-297h128v-164h-128v-327z" />
    <glyph glyph-name="five" unicode="5" horiz-adv-x="1197" 
d="M358.5 11q-105.5 43 -174 123t-89.5 187l185 27q16 -61 58.5 -111.5t107.5 -80t147 -29.5q89 0 162.5 38t116.5 105.5t43 153.5q0 83 -32 150t-98 106.5t-163 39.5h-461v686h867v-164h-686v-365h330q124 0 221.5 -52.5t153 -153.5t55.5 -242q0 -133 -65 -238t-181 -164
t-263 -59q-129 0 -234.5 43z" />
    <glyph glyph-name="six" unicode="6" horiz-adv-x="1178" 
d="M344 24q-116 56 -183.5 163t-67.5 255q0 152 79 282l416 682h211l-349 -558q88 54 204 54q127 0 231.5 -55t165.5 -159t61 -246q0 -148 -67.5 -255t-183.5 -163t-259 -56q-142 0 -258 56zM766.5 180q73.5 38 116 107.5t42.5 158.5q0 90 -42.5 159.5t-115.5 107.5t-165 38
t-165 -38t-114.5 -107.5t-41.5 -159.5q0 -89 42 -158.5t115 -107.5t164 -38t164.5 38z" />
    <glyph glyph-name="seven" unicode="7" horiz-adv-x="981" 
d="M334 0h-211l597 1241l-675 1v164h899v-131z" />
    <glyph glyph-name="eight" unicode="8" horiz-adv-x="1255" 
d="M373 16.5q-116 48.5 -185.5 145t-69.5 233.5q0 128 70 225t187 136q-93 37 -144.5 120t-51.5 182q0 116 55 202t156.5 132t236.5 46t236.5 -46t156.5 -132t55 -202q0 -100 -51 -182.5t-144 -119.5q117 -39 187 -136t70 -225q0 -137 -69.5 -233.5t-186 -145t-254.5 -48.5
t-254 48.5zM769.5 847q60.5 29 93 81.5t32.5 120.5q0 71 -34.5 123t-95 79.5t-138.5 27.5t-138.5 -27.5t-94.5 -80t-34 -123.5q0 -67 32.5 -119.5t93 -81.5t141.5 -29q82 0 142.5 29zM776 157q73 30 120 91.5t47 150.5q0 84 -40.5 145t-112 93t-163.5 32t-163 -31
t-111.5 -92t-40.5 -147q0 -89 47 -150.5t119.5 -91.5t148.5 -30t149 30z" />
    <glyph glyph-name="nine" unicode="9" horiz-adv-x="1178" 
d="M729 558q-88 -54 -205 -54q-127 0 -231.5 55t-165.5 159.5t-61 246.5q0 148 67.5 255t183.5 162.5t258 55.5q143 0 259 -55.5t183.5 -162.5t67.5 -255q0 -153 -79 -283l-415 -682h-211zM740.5 693.5q73.5 38.5 115.5 108t42 158.5q0 90 -42 159t-116 107t-165 38
t-164.5 -38t-115.5 -107t-42 -159t42 -159t115.5 -107.5t164.5 -38.5q92 0 165.5 38.5z" />
    <glyph glyph-name="zero.tnum" 
d="M351 45.5q-114 77.5 -177.5 241.5t-63.5 416t63.5 416t177.5 241.5t268 77.5t268 -77.5t177.5 -241.5t63.5 -416t-63.5 -416t-177.5 -241.5t-268 -77.5t-268 77.5zM859 277q88 137 88 426q0 290 -86.5 426.5t-241.5 136.5q-154 0 -241 -136.5t-87 -426.5
q0 -289 88.5 -426t239.5 -137q152 0 240 137z" />
    <glyph glyph-name="one.tnum" 
d="M1085 0h-932v151h375v1085h-375v150l396 20h160v-1255h376v-151z" />
    <glyph glyph-name="two.tnum" 
d="M110 0v108l599 510q67 57 113 108t74.5 113t28.5 135q0 77 -34.5 143t-102.5 106.5t-163 40.5t-168.5 -41t-113 -107.5t-39.5 -142.5v-66h-182v66q0 134 63.5 240t177.5 165.5t261 59.5t257.5 -58.5t170.5 -163.5t60 -243q0 -104 -35 -184.5t-90 -141.5t-142 -134
l-408 -349h681v-164h-1008z" />
    <glyph glyph-name="three.tnum" 
d="M380 11.5q-106 43.5 -175 123t-90 186.5l186 27q15 -61 57.5 -111.5t108 -80t147.5 -29.5q88 0 161.5 37.5t116.5 105.5t43 154q0 83 -33 150t-99 106.5t-162 39.5h-183v107l339 415h-634v164h862v-122l-345 -425h49q111 0 200.5 -51.5t141.5 -149t52 -229.5t-65 -237.5
t-181 -164.5t-263 -59q-128 0 -234 43.5z" />
    <glyph glyph-name="four.tnum" 
d="M1036 0h-182v327h-726v130l453 949h207l-440 -915h506v297h182v-297h128v-164h-128v-327z" />
    <glyph glyph-name="five.tnum" 
d="M378.5 11q-105.5 43 -174 123t-89.5 187l185 27q16 -61 58.5 -111.5t107.5 -80t147 -29.5q89 0 162.5 38t116.5 105.5t43 153.5q0 83 -32 150t-98 106.5t-163 39.5h-461v686h867v-164h-686v-365h330q124 0 221.5 -52.5t153 -153.5t55.5 -242q0 -133 -65 -238t-181 -164
t-263 -59q-129 0 -234.5 43z" />
    <glyph glyph-name="six.tnum" 
d="M361 24q-116 56 -183.5 163t-67.5 255q0 152 79 282l415 682h212l-349 -558q88 54 203 54q127 0 231.5 -55t165.5 -159t61 -246q0 -148 -67.5 -255t-183.5 -163t-258 -56t-258 56zM783.5 180q73.5 38 115.5 107.5t42 158.5q0 90 -42 159.5t-115 107.5t-165 38
q-91 0 -164.5 -38t-115.5 -107.5t-42 -159.5q0 -89 42 -158.5t115.5 -107.5t164.5 -38t164.5 38z" />
    <glyph glyph-name="seven.tnum" 
d="M517 0h-211l596 1241l-785 1v164h1010v-131z" />
    <glyph glyph-name="eight.tnum" 
d="M365 16.5q-116 48.5 -185.5 145t-69.5 233.5q0 128 69.5 225t186.5 136q-93 37 -144 120t-51 182q0 116 55 202t156.5 132t236.5 46t236.5 -46t156.5 -132t55 -202q0 -99 -51 -182t-144 -120q117 -39 186.5 -136t69.5 -225q0 -137 -69.5 -233.5t-185.5 -145t-254 -48.5
t-254 48.5zM761.5 847q60.5 29 93 81.5t32.5 120.5q0 71 -34.5 123t-95 79.5t-138.5 27.5t-138.5 -27.5t-95 -80t-34.5 -123.5q0 -67 33 -119.5t93.5 -81.5t141.5 -29q82 0 142.5 29zM768 157q73 30 120 91.5t47 150.5q0 84 -41 145t-112.5 93t-162.5 32q-92 0 -163 -31
t-111.5 -92t-40.5 -147q0 -89 47 -150.5t119.5 -91.5t148.5 -30t149 30z" />
    <glyph glyph-name="nine.tnum" 
d="M772 558q-88 -54 -205 -54q-127 0 -231.5 55t-165 159.5t-60.5 246.5q0 148 67.5 255t183 162.5t258.5 55.5q142 0 258 -55.5t183.5 -162.5t67.5 -255q0 -153 -79 -283l-415 -682h-211zM783.5 693.5q73.5 38.5 115.5 108t42 158.5q0 90 -42 159t-115.5 107t-164.5 38
t-165 -38t-116 -107t-42 -159t42.5 -159.5t116 -107.5t164.5 -38t164.5 38.5z" />
    <glyph glyph-name="uni2080" unicode="&#x2080;" horiz-adv-x="671" 
d="M134.5 -277q-73.5 90 -73.5 277t73.5 277t201.5 90t201.5 -90t73.5 -277t-73.5 -277t-201.5 -90t-201.5 90zM442 -188.5q39 60.5 39 188.5q0 249 -145 249t-145 -249q0 -128 39 -188.5t106 -60.5t106 60.5z" />
    <glyph glyph-name="uni2081" unicode="&#x2081;" horiz-adv-x="672" 
d="M444 -351h-131v589h-186v101l203 13h114v-703z" />
    <glyph glyph-name="uni2082" unicode="&#x2082;" horiz-adv-x="672" 
d="M58 -352v69l309 250q50 42 78 78t28 81q0 32 -17 60t-49 45t-74 17q-41 0 -73 -17t-49.5 -45.5t-17.5 -60.5v-33h-135v33q0 72 35.5 127t98.5 85t141 30t140.5 -29.5t98.5 -84t36 -128.5q0 -70 -34.5 -121t-98.5 -101l-175 -143h302v-112h-544z" />
    <glyph glyph-name="uni2083" unicode="&#x2083;" horiz-adv-x="672" 
d="M153.5 -318q-75.5 49 -90.5 135l134 16q10 -40 46.5 -66t89.5 -26q60 0 100.5 34t40.5 88t-33 88.5t-95 34.5h-110v69l158 185h-302v111h465v-84l-161 -188h19q53 0 97 -25.5t70 -73.5t26 -113q0 -70 -36 -123t-98.5 -82t-140.5 -29q-104 0 -179.5 49z" />
    <glyph glyph-name="uni2084" unicode="&#x2084;" horiz-adv-x="672" 
d="M555 -351h-131v145h-369v87l230 470h148l-220 -445h211v174h131v-174h61v-112h-61v-145z" />
    <glyph glyph-name="uni2085" unicode="&#x2085;" horiz-adv-x="672" 
d="M152 -318q-74 49 -89 135l133 16q10 -39 47 -65.5t90 -26.5q60 0 100.5 34.5t40.5 88.5q0 53 -32.5 88t-95.5 35h-257v365h480v-112h-349v-148h165q63 0 114 -26t80.5 -76.5t29.5 -121.5q0 -70 -36 -123.5t-99 -82.5t-141 -29q-107 0 -181 49z" />
    <glyph glyph-name="uni2086" unicode="&#x2086;" horiz-adv-x="672" 
d="M196.5 -339q-62.5 28 -99.5 83.5t-37 132.5q0 79 46 152l205 323h152l-172 -262q36 21 86 21q65 0 118.5 -27.5t85 -80.5t31.5 -126q0 -77 -37 -132.5t-99.5 -83.5t-139.5 -28t-139.5 28zM437 -212.5q40 35.5 40 92.5t-40 93t-101 36t-101 -36t-40 -93t40 -92.5
t101 -35.5t101 35.5z" />
    <glyph glyph-name="uni2087" unicode="&#x2087;" horiz-adv-x="672" 
d="M290 -351h-151l291 591h-351v111h513v-87z" />
    <glyph glyph-name="uni2088" unicode="&#x2088;" horiz-adv-x="672" 
d="M198.5 -343q-62.5 24 -100 73t-37.5 120q0 61 33 107.5t89 67.5q-43 20 -67.5 59t-24.5 86q0 93 67.5 145t177.5 52t177.5 -52t67.5 -145q0 -47 -24.5 -86t-67.5 -59q56 -21 89 -67.5t33 -107.5q0 -71 -37.5 -120t-100 -73t-137.5 -24t-137.5 24zM420 93q31 27 31 70
q0 44 -32 70t-83 26t-83 -26t-32 -70q0 -43 31 -70t84 -27t84 27zM430 -229.5q41 29.5 41 83.5q0 52 -37.5 82t-97.5 30t-97.5 -29.5t-37.5 -82.5q0 -54 41 -83.5t94 -29.5t94 29.5z" />
    <glyph glyph-name="uni2089" unicode="&#x2089;" horiz-adv-x="672" 
d="M382 -89q-36 -21 -86 -21q-65 0 -118.5 27.5t-85.5 80.5t-32 126q0 77 37 132.5t99.5 83.5t139.5 28t139.5 -28t99.5 -83.5t37 -132.5q0 -81 -45 -152l-206 -323h-152zM437 28q40 36 40 93t-40 92.5t-101 35.5t-101 -35.5t-40 -92.5t40 -93t101 -36t101 36z" />
    <glyph glyph-name="zero.dnom" horiz-adv-x="671" 
d="M134.5 75q-73.5 90 -73.5 277t73.5 277t201.5 90t201.5 -90t73.5 -277t-73.5 -277t-201.5 -90t-201.5 90zM442 163.5q39 60.5 39 188.5q0 249 -145 249t-145 -249q0 -128 39 -188.5t106 -60.5t106 60.5z" />
    <glyph glyph-name="one.dnom" horiz-adv-x="672" 
d="M444 0h-131v589h-186v101l203 13h114v-703z" />
    <glyph glyph-name="two.dnom" horiz-adv-x="672" 
d="M58 0v69l309 250q50 42 78 78t28 81q0 32 -17 60t-49 45t-74 17q-41 0 -73 -17t-49.5 -45.5t-17.5 -60.5v-33h-135v33q0 72 35.5 127t98.5 85t141 30t140.5 -29.5t98.5 -84t36 -128.5q0 -70 -34.5 -121t-98.5 -101l-175 -143h302v-112h-544z" />
    <glyph glyph-name="three.dnom" horiz-adv-x="672" 
d="M153.5 34q-75.5 49 -90.5 135l134 16q10 -40 46.5 -66t89.5 -26q60 0 100.5 34t40.5 88t-33 88.5t-95 34.5h-110v69l158 185h-302v111h465v-84l-161 -188h19q53 0 97 -25.5t70 -73.5t26 -113q0 -70 -36 -123t-98.5 -82t-140.5 -29q-104 0 -179.5 49z" />
    <glyph glyph-name="four.dnom" horiz-adv-x="672" 
d="M555 1h-131v145h-369v87l230 470h148l-220 -445h211v174h131v-174h61v-112h-61v-145z" />
    <glyph glyph-name="five.dnom" horiz-adv-x="672" 
d="M152 34q-74 49 -89 135l133 16q10 -39 47 -65.5t90 -26.5q60 0 100.5 34.5t40.5 88.5q0 53 -32.5 88t-95.5 35h-257v365h480v-112h-349v-148h165q63 0 114 -26t80.5 -76.5t29.5 -121.5q0 -70 -36 -123.5t-99 -82.5t-141 -29q-107 0 -181 49z" />
    <glyph glyph-name="six.dnom" horiz-adv-x="672" 
d="M196.5 13q-62.5 28 -99.5 83.5t-37 132.5q0 82 46 152l205 323h152l-173 -262q36 21 86 21q65 0 119 -27.5t85.5 -80.5t31.5 -126q0 -77 -37 -132.5t-99.5 -83.5t-139.5 -28t-139.5 28zM437 139.5q40 35.5 40 92.5t-40 93t-101 36t-101 -36t-40 -93t40 -92.5t101 -35.5
t101 35.5z" />
    <glyph glyph-name="seven.dnom" horiz-adv-x="672" 
d="M281 0h-151l292 591h-351v111h513v-87z" />
    <glyph glyph-name="eight.dnom" horiz-adv-x="672" 
d="M198.5 9q-62.5 24 -100 73t-37.5 120q0 61 33 107.5t89 67.5q-43 20 -67.5 59t-24.5 86q0 93 67.5 145t177.5 52t177.5 -52t67.5 -145q0 -47 -24.5 -86t-67.5 -59q56 -21 89 -67.5t33 -107.5q0 -71 -37.5 -120t-100 -73t-137.5 -24t-137.5 24zM420 445q31 27 31 70
q0 44 -32 70t-83 26t-83 -26t-32 -70q0 -43 31 -70t84 -27t84 27zM430 122.5q41 29.5 41 83.5q0 52 -37.5 82t-97.5 30t-97.5 -29.5t-37.5 -82.5q0 -54 41 -83.5t94 -29.5t94 29.5z" />
    <glyph glyph-name="nine.dnom" horiz-adv-x="672" 
d="M382 262q-36 -21 -86 -21q-65 0 -119 27.5t-85.5 80.5t-31.5 126q0 77 37 132.5t99.5 83.5t139.5 28t139.5 -28t99.5 -83.5t37 -132.5q0 -82 -46 -152l-205 -323h-152zM437 379q40 36 40 93t-40 92.5t-101 35.5t-101 -35.5t-40 -92.5t40 -93t101 -36t101 36z" />
    <glyph glyph-name="zero.numr" horiz-adv-x="671" 
d="M134.5 794q-73.5 90 -73.5 277t73.5 277t201.5 90t201.5 -90t73.5 -277t-73.5 -277t-201.5 -90t-201.5 90zM442 882.5q39 60.5 39 188.5q0 249 -145 249t-145 -249q0 -128 39 -188.5t106 -60.5t106 60.5z" />
    <glyph glyph-name="one.numr" horiz-adv-x="672" 
d="M444 718h-131v589h-186v101l203 13h114v-703z" />
    <glyph glyph-name="two.numr" horiz-adv-x="672" 
d="M58 718v69l309 250q50 42 78 78t28 81q0 32 -17 60t-49 45t-74 17q-41 0 -73 -17t-49.5 -45.5t-17.5 -60.5v-33h-135v33q0 72 35.5 127t98.5 85t141 30t140.5 -29.5t98.5 -84t36 -128.5q0 -70 -34.5 -121t-98.5 -101l-175 -143h302v-112h-544z" />
    <glyph glyph-name="three.numr" horiz-adv-x="672" 
d="M153.5 753q-75.5 49 -90.5 135l134 16q10 -40 46.5 -66t89.5 -26q60 0 100.5 34t40.5 88t-33 88.5t-95 34.5h-110v69l158 185h-302v111h465v-84l-161 -188h19q53 0 97 -25.5t70 -73.5t26 -113q0 -70 -36 -123t-98.5 -82t-140.5 -29q-104 0 -179.5 49z" />
    <glyph glyph-name="four.numr" horiz-adv-x="672" 
d="M555 719h-131v145h-369v87l230 470h148l-220 -445h211v174h131v-174h61v-112h-61v-145z" />
    <glyph glyph-name="five.numr" horiz-adv-x="672" 
d="M152 751q-74 49 -89 135l133 16q10 -39 47 -65.5t90 -26.5q60 0 100.5 34.5t40.5 88.5q0 53 -32.5 88t-95.5 35h-257v365h480v-112h-349v-148h165q63 0 114 -26t80.5 -76.5t29.5 -121.5q0 -70 -36 -123.5t-99 -82.5t-141 -29q-107 0 -181 49z" />
    <glyph glyph-name="six.numr" horiz-adv-x="672" 
d="M196.5 731q-62.5 28 -99.5 83.5t-37 132.5q0 82 46 152l205 323h152l-173 -262q36 21 86 21q65 0 119 -27.5t85.5 -80.5t31.5 -126q0 -77 -37 -132.5t-99.5 -83.5t-139.5 -28t-139.5 28zM437 857.5q40 35.5 40 92.5t-40 93t-101 36t-101 -36t-40 -93t40 -92.5t101 -35.5
t101 35.5z" />
    <glyph glyph-name="seven.numr" horiz-adv-x="672" 
d="M281 719h-151l292 591h-351v111h513v-87z" />
    <glyph glyph-name="eight.numr" horiz-adv-x="672" 
d="M198.5 727q-62.5 24 -100 73t-37.5 120q0 61 33 107.5t89 67.5q-43 20 -67.5 59t-24.5 86q0 93 67.5 145t177.5 52t177.5 -52t67.5 -145q0 -47 -24.5 -86t-67.5 -59q56 -21 89 -67.5t33 -107.5q0 -71 -37.5 -120t-100 -73t-137.5 -24t-137.5 24zM420 1163q31 27 31 70
q0 44 -32 70t-83 26t-83 -26t-32 -70q0 -43 31 -70t84 -27t84 27zM430 840.5q41 29.5 41 83.5q0 52 -37.5 82t-97.5 30t-97.5 -29.5t-37.5 -82.5q0 -54 41 -83.5t94 -29.5t94 29.5z" />
    <glyph glyph-name="nine.numr" horiz-adv-x="672" 
d="M382 981q-36 -21 -86 -21q-65 0 -119 27.5t-85.5 80.5t-31.5 126q0 77 37 132.5t99.5 83.5t139.5 28t139.5 -28t99.5 -83.5t37 -132.5q0 -82 -46 -152l-205 -323h-152zM437 1098q40 36 40 93t-40 92.5t-101 35.5t-101 -35.5t-40 -92.5t40 -93t101 -36t101 36z" />
    <glyph glyph-name="uni2070" unicode="&#x2070;" horiz-adv-x="671" 
d="M134.5 1129q-73.5 90 -73.5 277t73.5 277t201.5 90t201.5 -90t73.5 -277t-73.5 -277t-201.5 -90t-201.5 90zM442 1217.5q39 60.5 39 188.5q0 249 -145 249t-145 -249q0 -128 39 -188.5t106 -60.5t106 60.5z" />
    <glyph glyph-name="uni00B9" unicode="&#xb9;" horiz-adv-x="672" 
d="M444 1054h-131v589h-186v101l203 13h114v-703z" />
    <glyph glyph-name="uni00B2" unicode="&#xb2;" horiz-adv-x="672" 
d="M58 1054v69l309 250q50 42 78 78t28 81q0 32 -17 60t-49 45t-74 17q-41 0 -73 -17t-49.5 -45.5t-17.5 -60.5v-33h-135v33q0 72 35.5 127t98.5 85t141 30t140.5 -29.5t98.5 -84t36 -128.5q0 -70 -34.5 -121t-98.5 -101l-175 -143h302v-112h-544z" />
    <glyph glyph-name="uni00B3" unicode="&#xb3;" horiz-adv-x="672" 
d="M153.5 1088q-75.5 49 -90.5 135l134 16q10 -40 46.5 -66t89.5 -26q60 0 100.5 34t40.5 88t-33 88.5t-95 34.5h-110v69l158 185h-302v111h465v-84l-161 -188h19q53 0 97 -25.5t70 -73.5t26 -113q0 -70 -36 -123t-98.5 -82t-140.5 -29q-104 0 -179.5 49z" />
    <glyph glyph-name="uni2074" unicode="&#x2074;" horiz-adv-x="672" 
d="M555 1055h-131v145h-369v87l230 470h148l-220 -445h211v174h131v-174h61v-112h-61v-145z" />
    <glyph glyph-name="uni2075" unicode="&#x2075;" horiz-adv-x="672" 
d="M152 1087q-74 49 -89 135l133 16q10 -39 47 -65.5t90 -26.5q60 0 100.5 34.5t40.5 88.5q0 53 -32.5 88t-95.5 35h-257v365h480v-112h-349v-148h165q63 0 114 -26t80.5 -76.5t29.5 -121.5q0 -70 -36 -123.5t-99 -82.5t-141 -29q-107 0 -181 49z" />
    <glyph glyph-name="uni2076" unicode="&#x2076;" horiz-adv-x="672" 
d="M196.5 1066q-62.5 28 -99.5 83.5t-37 132.5q0 82 46 152l205 323h152l-173 -262q36 21 86 21q65 0 119 -27.5t85.5 -80.5t31.5 -126q0 -77 -37 -132.5t-99.5 -83.5t-139.5 -28t-139.5 28zM437 1192.5q40 35.5 40 92.5t-40 93t-101 36t-101 -36t-40 -93t40 -92.5
t101 -35.5t101 35.5z" />
    <glyph glyph-name="uni2077" unicode="&#x2077;" horiz-adv-x="672" 
d="M281 1054h-151l292 591h-351v111h513v-87z" />
    <glyph glyph-name="uni2078" unicode="&#x2078;" horiz-adv-x="672" 
d="M198.5 1062q-62.5 24 -100 73t-37.5 120q0 61 33 107.5t89 67.5q-43 20 -67.5 59t-24.5 86q0 93 67.5 145t177.5 52t177.5 -52t67.5 -145q0 -47 -24.5 -86t-67.5 -59q56 -21 89 -67.5t33 -107.5q0 -71 -37.5 -120t-100 -73t-137.5 -24t-137.5 24zM420 1498q31 27 31 70
q0 44 -32 70t-83 26t-83 -26t-32 -70q0 -43 31 -70t84 -27t84 27zM430 1175.5q41 29.5 41 83.5q0 52 -37.5 82t-97.5 30t-97.5 -29.5t-37.5 -82.5q0 -54 41 -83.5t94 -29.5t94 29.5z" />
    <glyph glyph-name="uni2079" unicode="&#x2079;" horiz-adv-x="672" 
d="M382 1316q-36 -21 -86 -21q-65 0 -119 27.5t-85.5 80.5t-31.5 126q0 77 37 132.5t99.5 83.5t139.5 28t139.5 -28t99.5 -83.5t37 -132.5q0 -82 -46 -152l-205 -323h-152zM437 1433q40 36 40 93t-40 92.5t-101 35.5t-101 -35.5t-40 -92.5t40 -93t101 -36t101 36z" />
    <glyph glyph-name="fraction" unicode="&#x2044;" horiz-adv-x="191" 
d="M587 1375l-893 -1423l-90 58l892 1422z" />
    <glyph glyph-name="fraction" unicode="&#x2215;" horiz-adv-x="191" 
d="M587 1375l-893 -1423l-90 58l892 1422z" />
    <glyph glyph-name="onehalf" unicode="&#xbd;" horiz-adv-x="1536" 
d="M1260 1375l-893 -1423l-90 58l892 1422zM444 718h-131v589h-186v101l203 13h114v-703zM922 0v69l309 250q50 42 78 78t28 81q0 32 -17 60t-49 45t-74 17q-41 0 -73 -17t-49.5 -45.5t-17.5 -60.5v-33h-135v33q0 72 35.5 127t98.5 85t141 30t140.5 -29.5t98.5 -84
t36 -128.5q0 -70 -34.5 -121t-98.5 -101l-175 -143h302v-112h-544z" />
    <glyph glyph-name="uni2153" unicode="&#x2153;" horiz-adv-x="1536" 
d="M1260 1375l-893 -1423l-90 58l892 1422zM444 718h-131v589h-186v101l203 13h114v-703zM1017.5 34q-75.5 49 -90.5 135l134 16q10 -40 46.5 -66t89.5 -26q60 0 100.5 34t40.5 88t-33 88.5t-95 34.5h-110v69l158 185h-302v111h465v-84l-161 -188h19q53 0 97 -25.5t70 -73.5
t26 -113q0 -70 -36 -123t-98.5 -82t-140.5 -29q-104 0 -179.5 49z" />
    <glyph glyph-name="uni2154" unicode="&#x2154;" horiz-adv-x="1536" 
d="M58 718v69l309 250q50 42 78 78t28 81q0 32 -17 60t-49 45t-74 17q-41 0 -73 -17t-49.5 -45.5t-17.5 -60.5v-33h-135v33q0 72 35.5 127t98.5 85t141 30t140.5 -29.5t98.5 -84t36 -128.5q0 -70 -34.5 -121t-98.5 -101l-175 -143h302v-112h-544zM1260 1375l-893 -1423
l-90 58l892 1422zM1017.5 34q-75.5 49 -90.5 135l134 16q10 -40 46.5 -66t89.5 -26q60 0 100.5 34t40.5 88t-33 88.5t-95 34.5h-110v69l158 185h-302v111h465v-84l-161 -188h19q53 0 97 -25.5t70 -73.5t26 -113q0 -70 -36 -123t-98.5 -82t-140.5 -29q-104 0 -179.5 49z" />
    <glyph glyph-name="onequarter" unicode="&#xbc;" horiz-adv-x="1536" 
d="M1260 1375l-893 -1423l-90 58l892 1422zM444 718h-131v589h-186v101l203 13h114v-703zM1420 1h-131v145h-369v87l230 470h148l-220 -445h211v174h131v-174h61v-112h-61v-145z" />
    <glyph glyph-name="threequarters" unicode="&#xbe;" horiz-adv-x="1536" 
d="M1260 1375l-893 -1423l-90 58l892 1422zM153.5 753q-75.5 49 -90.5 135l134 16q10 -40 46.5 -66t89.5 -26q60 0 100.5 34t40.5 88t-33 88.5t-95 34.5h-110v69l158 185h-302v111h465v-84l-161 -188h19q53 0 97 -25.5t70 -73.5t26 -113q0 -70 -36 -123t-98.5 -82
t-140.5 -29q-104 0 -179.5 49zM1420 1h-131v145h-369v87l230 470h148l-220 -445h211v174h131v-174h61v-112h-61v-145z" />
    <glyph glyph-name="period" unicode="." horiz-adv-x="569" 
d="M194 2.5q-35 34.5 -35 88.5t35 89t90 35t90.5 -35t35.5 -89t-35.5 -88.5t-90.5 -34.5t-90 34.5z" />
    <glyph glyph-name="comma" unicode="," horiz-adv-x="569" 
d="M260 -239h-131l63 428h218z" />
    <glyph glyph-name="colon" unicode=":" horiz-adv-x="569" 
d="M194.5 880q-35.5 35 -35.5 89t35.5 88.5t90.5 34.5t90 -34.5t35 -88.5t-35 -89t-90 -35t-90.5 35zM194.5 -8q-35.5 35 -35.5 89t35.5 88.5t90.5 34.5t90 -34.5t35 -88.5t-35 -89t-90 -35t-90.5 35z" />
    <glyph glyph-name="semicolon" unicode=";" horiz-adv-x="569" 
d="M194.5 880q-35.5 35 -35.5 89t35.5 88.5t90.5 34.5t90 -34.5t35 -88.5t-35 -89t-90 -35t-90.5 35zM260 -239h-131l63 428h218z" />
    <glyph glyph-name="semicolon" unicode="&#x37e;" horiz-adv-x="569" 
d="M194.5 880q-35.5 35 -35.5 89t35.5 88.5t90.5 34.5t90 -34.5t35 -88.5t-35 -89t-90 -35t-90.5 35zM260 -239h-131l63 428h218z" />
    <glyph glyph-name="ellipsis" unicode="&#x2026;" horiz-adv-x="2048" 
d="M251 2.5q-35 34.5 -35 88.5t35 89t90 35t90.5 -35t35.5 -89t-35.5 -88.5t-90.5 -34.5t-90 34.5zM934 2.5q-35 34.5 -35 88.5t35 89t90 35t90.5 -35t35.5 -89t-35.5 -88.5t-90.5 -34.5t-90 34.5zM1617 2.5q-35 34.5 -35 88.5t35 89t90 35t90.5 -35t35.5 -89t-35.5 -88.5
t-90.5 -34.5t-90 34.5z" />
    <glyph glyph-name="exclam" unicode="!" horiz-adv-x="569" 
d="M358 387h-147l-17 1051h181zM194 1.5q-35 33.5 -35 85.5t35 85.5t90 33.5t90.5 -33.5t35.5 -85.5t-35 -85.5t-91 -33.5q-55 0 -90 33.5z" />
    <glyph glyph-name="exclamdown" unicode="&#xa1;" horiz-adv-x="569" 
d="M194.5 897.5q-35.5 33.5 -35.5 85.5t35 85.5t91 33.5q55 0 90 -33.5t35 -85.5t-35 -85.5t-90 -33.5t-90.5 33.5zM375 -368h-181l17 1051h147z" />
    <glyph glyph-name="question" unicode="?" horiz-adv-x="919" 
d="M322 387q0 74 27 138.5t65 115t101 119.5q54 61 84 99.5t51 84.5t21 95q0 64 -26 115.5t-79.5 82t-131.5 30.5q-74 0 -129 -36t-85.5 -97.5t-34.5 -136.5l-179 8q6 120 58.5 218.5t147.5 156.5t222 58q132 0 226 -48.5t142.5 -137t48.5 -205.5q0 -78 -28.5 -146
t-69.5 -121.5t-107 -125.5q-53 -59 -83.5 -97t-51 -81.5t-20.5 -88.5h-169zM318 1.5q-35 33.5 -35 85.5t35 85.5t90 33.5t90.5 -33.5t35.5 -85.5t-35 -85.5t-91 -33.5q-55 0 -90 33.5z" />
    <glyph glyph-name="questiondown" unicode="&#xbf;" horiz-adv-x="919" 
d="M421.5 897.5q-35.5 33.5 -35.5 85.5t35.5 85.5t90.5 33.5t90.5 -33.5t35.5 -85.5t-35.5 -85.5t-90.5 -33.5t-90.5 33.5zM260.5 -319.5q-93.5 48.5 -142 137t-48.5 205.5q0 78 28.5 146t69 121t106.5 127q53 59 83.5 97t51 81t20.5 88h170q0 -74 -27 -138.5t-65 -115
t-101 -119.5q-54 -60 -84.5 -99t-51.5 -85t-21 -95q0 -64 26 -115.5t79.5 -82t131.5 -30.5q74 0 129.5 36t86 97.5t33.5 136.5l179 -8q-6 -120 -58.5 -218.5t-147.5 -156.5t-222 -58q-132 0 -225.5 48.5z" />
    <glyph glyph-name="periodcentered" unicode="&#xb7;" horiz-adv-x="569" 
d="M194 457.5q-35 34.5 -35 88.5t35 88.5t90 34.5t90.5 -34.5t35.5 -88.5t-35.5 -88.5t-90.5 -34.5t-90 34.5z" />
    <glyph glyph-name="periodcentered" unicode="&#x2219;" horiz-adv-x="569" 
d="M194 457.5q-35 34.5 -35 88.5t35 88.5t90 34.5t90.5 -34.5t35.5 -88.5t-35.5 -88.5t-90.5 -34.5t-90 34.5z" />
    <glyph glyph-name="bullet" unicode="&#x2022;" horiz-adv-x="683" 
d="M235.5 506.5q-46.5 25.5 -72.5 71.5t-26 104t26 103.5t72.5 71t105.5 25.5t105.5 -25.5t72.5 -71t26 -103.5t-26 -104t-72.5 -71.5t-105.5 -25.5t-105.5 25.5z" />
    <glyph glyph-name="asterisk" unicode="*" horiz-adv-x="705" 
d="M398 734h-108v254l-219 -127l-54 94l220 126l-215 136l54 92l214 -134v252h108v-252l219 126l54 -94l-220 -126l216 -135l-56 -94l-213 134v-252z" />
    <glyph glyph-name="numbersign" unicode="#" 
d="M310 -32h-154l93 401h-146v147h182l85 375h-267v147h303l93 400h154l-93 -400h285l93 400h154l-93 -400h135v-147h-171l-85 -375h256v-147h-292l-93 -401h-154l93 401h-285zM524 891l-85 -375h285l85 375h-285z" />
    <glyph glyph-name="slash" unicode="/" horiz-adv-x="729" 
d="M780 1465l-732 -1570l-99 47l732 1569z" />
    <glyph glyph-name="backslash" unicode="\" horiz-adv-x="729" 
d="M780 -58l-99 -47l-732 1570l99 46z" />
    <glyph glyph-name="parenleft" unicode="(" horiz-adv-x="601" 
d="M493 -305q-143 182 -223 434.5t-80 573.5q0 322 80 574t223 434l95 -63q-105 -179 -167.5 -417.5t-62.5 -527.5q0 -288 62.5 -527t167.5 -418z" />
    <glyph glyph-name="parenright" unicode=")" horiz-adv-x="601" 
d="M13 -242q105 178 167 417t62 528t-62 528t-167 417l95 63q144 -181 223.5 -433.5t79.5 -574.5t-79.5 -574.5t-223.5 -433.5z" />
    <glyph glyph-name="braceleft" unicode="{" horiz-adv-x="601" 
d="M475 -282q-69 0 -123.5 25.5t-85.5 75t-31 117.5v572q0 72 -35 100.5t-98 28.5h-22v132h22q64 1 98.5 28.5t34.5 100.5v571q0 69 31 118.5t85.5 75t123.5 25.5h46v-135h-37q-89 0 -89 -93v-565q0 -68 -31.5 -122t-86.5 -70q54 -16 86 -70.5t32 -121.5v-565q0 -93 89 -93
h37v-135h-46z" />
    <glyph glyph-name="braceright" unicode="}" horiz-adv-x="601" 
d="M80 -282v135h38q41 0 64.5 22.5t23.5 70.5v565q0 67 32 121.5t86 70.5q-54 16 -86 70.5t-32 121.5v565q0 48 -23.5 70.5t-64.5 22.5h-38v135h46q69 0 123.5 -25.5t85.5 -75t31 -118.5v-571q0 -72 35 -100t99 -29h21v-132h-22q-63 0 -98 -28.5t-35 -100.5v-572
q0 -68 -31 -117.5t-85.5 -75t-123.5 -25.5h-46z" />
    <glyph glyph-name="bracketleft" unicode="[" horiz-adv-x="601" 
d="M531 -282h-328v1970h328v-135h-168v-1700h168v-135z" />
    <glyph glyph-name="bracketright" unicode="]" horiz-adv-x="601" 
d="M398 -282h-328v135h168v1700h-168v135h328v-1970z" />
    <glyph glyph-name="hyphenminus" unicode="-" horiz-adv-x="721" 
d="M615 444h-508v161h508v-161z" />
    <glyph glyph-name="hyphenminus" unicode="&#xad;" horiz-adv-x="721" 
d="M615 444h-508v161h508v-161z" />
    <glyph glyph-name="hyphen" unicode="&#x2010;" horiz-adv-x="721" 
d="M615 444h-508v161h508v-161z" />
    <glyph glyph-name="endash" unicode="&#x2013;" 
d="M1139 444h-1041v161h1041v-161z" />
    <glyph glyph-name="emdash" unicode="&#x2014;" horiz-adv-x="2048" 
d="M2049 444h-2048v161h2048v-161z" />
    <glyph glyph-name="figuredash" unicode="&#x2012;" 
d="M1139 633h-1041v161h1041v-161z" />
    <glyph glyph-name="uni2011" unicode="&#x2011;" horiz-adv-x="721" 
d="M615 444h-508v161h508v-161z" />
    <glyph glyph-name="underscore" unicode="_" 
d="M1318 -462h-1398v103h1398v-103z" />
    <glyph glyph-name="quotesinglbase" unicode="&#x201a;" horiz-adv-x="569" 
d="M259 -240h-130l62 429h219z" />
    <glyph glyph-name="quotedblbase" unicode="&#x201e;" horiz-adv-x="893" 
d="M259 -240h-130l62 429h219zM582 -240h-130l63 429h219z" />
    <glyph glyph-name="quotedblleft" unicode="&#x201c;" horiz-adv-x="893" 
d="M378 1072h-219l151 429h130zM701 1072h-218l151 429h130z" />
    <glyph glyph-name="quotedblright" unicode="&#x201d;" horiz-adv-x="893" 
d="M259 1072h-130l63 429h218zM583 1072h-131l63 429h219z" />
    <glyph glyph-name="quoteleft" unicode="&#x2018;" horiz-adv-x="569" 
d="M378 1072h-219l151 429h130z" />
    <glyph glyph-name="quoteright" unicode="&#x2019;" horiz-adv-x="569" 
d="M259 1072h-130l63 429h218z" />
    <glyph glyph-name="guillemotleft" unicode="&#xab;" horiz-adv-x="1175" 
d="M568 88h-166l-265 458l265 457h166l-264 -457zM991 88h-166l-265 458l265 457h166l-263 -457z" />
    <glyph glyph-name="guillemotright" unicode="&#xbb;" horiz-adv-x="1175" 
d="M350 88h-166l263 458l-263 457h166l265 -457zM773 88h-165l263 458l-263 457h165l266 -457z" />
    <glyph glyph-name="guilsinglleft" unicode="&#x2039;" horiz-adv-x="752" 
d="M567 88h-165l-265 458l265 457h165l-263 -457z" />
    <glyph glyph-name="guilsinglright" unicode="&#x203a;" horiz-adv-x="752" 
d="M350 88h-166l263 458l-263 457h166l265 -457z" />
    <glyph glyph-name="quotedbl" unicode="&#x22;" horiz-adv-x="502" 
d="M186 1052h-107l-5 470h116zM423 1052h-107l-5 470h116z" />
    <glyph glyph-name="quotesingle" unicode="'" horiz-adv-x="264" 
d="M185 1053h-107l-4 470h116z" />
    <glyph glyph-name="cent" unicode="&#xa2;" 
d="M586 146q-150 15 -264.5 90t-177 196.5t-62.5 271.5q0 149 63 271t177.5 197.5t263.5 88.5v145h112v-143q155 -13 273 -100t175 -224l-150 -68q-46 103 -140 166.5t-210 63.5q-112 0 -199.5 -51t-136.5 -141t-49 -205t49 -205.5t136.5 -141.5t199.5 -51q118 0 212 64.5
t139 167.5l157 -70q-56 -136 -175.5 -222t-280.5 -102v-144h-112v146z" />
    <glyph glyph-name="currency" unicode="&#xa4;" 
d="M225 227l-82 82l167 167q-35 46 -53.5 104t-18.5 123t18.5 123t53.5 104l-167 167l82 81l167 -167q46 36 104 55t123 19q129 0 227 -74l167 167l81 -81l-166 -167q34 -46 52.5 -104t18.5 -123t-18.5 -123t-52.5 -104l166 -167l-81 -82l-167 168q-99 -75 -227 -75
q-65 0 -122.5 19.5t-104.5 55.5zM742 489q54 31 84.5 87t30.5 127t-30.5 126.5t-84.5 87t-123 31.5t-123 -31.5t-84.5 -87t-30.5 -126.5t30.5 -127t84.5 -87t123 -31t123 31z" />
    <glyph glyph-name="dollar" unicode="$" horiz-adv-x="1237" 
d="M574 -38q-129 11 -221 65t-142.5 139t-57.5 190h178q13 -118 91 -183t199 -65q89 0 149.5 32.5t90 86t29.5 117.5q-1 83 -44.5 143t-140.5 105l-248 113q-131 59 -192.5 140.5t-61.5 213.5q0 94 45 173.5t130 130.5t200 60v128h107v-127q122 -13 207.5 -66t129.5 -133.5
t47 -174.5h-175q-5 63 -35 114.5t-85 82t-131 30.5q-79 0 -135 -29.5t-84 -79t-28 -107.5q0 -70 41 -120t131 -93l239 -109q98 -45 158 -97.5t90 -123.5t30 -171q0 -102 -49.5 -186.5t-141 -137t-214.5 -61.5v-128h-106v128z" />
    <glyph glyph-name="Euro" unicode="&#x20ac;" 
d="M644 28.5q-143 60.5 -244 175.5t-144 274h-189l29 107h140q-9 54 -9 118q0 63 9 117h-169l29 107h160q43 159 144 274.5t244 176t310 60.5q50 0 107.5 -6.5t102.5 -18.5l-41 -152q-72 21 -169 21q-120 0 -223 -41.5t-177 -121.5t-108 -192h587l-29 -106h-598
q-10 -53 -10 -118t10 -118h536l-29 -107h-467q34 -112 108 -191.5t177 -121t223 -41.5q95 0 169 20l41 -151q-44 -12 -101.5 -18.5t-108.5 -6.5q-167 0 -310 60.5z" />
    <glyph glyph-name="uni20B9" unicode="&#x20b9;" 
d="M796 0l-380 566h-280v145h316q134 0 220 64.5t97 182.5h-655l28 107h632q-14 115 -94 174t-224 60h-342l28 107h989l-29 -107h-325q137 -64 149 -234h205l-29 -107h-168q-7 -159 -98 -251.5t-243 -116.5l400 -590h-197z" />
    <glyph glyph-name="sterling" unicode="&#xa3;" 
d="M85 0v154h171v424h-171v110h171v347q0 116 51 208t143 143.5t211 51.5t209.5 -51.5t139.5 -143t49 -208.5h-165q0 66 -30.5 122.5t-84 90t-118.5 33.5t-119 -33.5t-84.5 -90t-30.5 -122.5l-1 -347h469v-110h-469l-2 -424h745v-154h-1084z" />
    <glyph glyph-name="uni20BA" unicode="&#x20ba;" 
d="M301 0v628l-224 -61v111l224 60v242l-224 -59v110l224 60v315h169v-269l506 135v-111l-506 -136v-242l506 136v-111l-506 -135v-518h80q145 0 243 56.5t146 157.5t49 235h169q0 -181 -65 -316.5t-198.5 -211.5t-333.5 -76h-259z" />
    <glyph glyph-name="yen" unicode="&#xa5;" 
d="M704 0h-170v366h-406v109l406 1v210l-25 40h-381v110h324l-339 570h203l303 -536l303 536h203l-339 -570h324v-110h-381l-25 -40v-211h406v-109h-406v-366z" />
    <glyph glyph-name="plus" unicode="+" 
d="M698 213h-158v398h-398v152h398v399h158v-399h397v-152h-397v-398z" />
    <glyph glyph-name="minus" unicode="&#x2212;" 
d="M996 627h-754v153h754v-153z" />
    <glyph glyph-name="multiply" unicode="&#xd7;" horiz-adv-x="1253" 
d="M626 595l-282 -282l-108 108l282 282l-282 282l108 108l281 -283l283 283l108 -108l-282 -282l282 -282l-108 -108z" />
    <glyph glyph-name="divide" unicode="&#xf7;" horiz-adv-x="1253" 
d="M546 989q-31 31 -31 79t31 78.5t80 30.5t80.5 -30.5t31.5 -78.5t-31.5 -79t-80.5 -31t-80 31zM1073 627h-894v152h894v-152zM546 258.5q-31 30.5 -31 79.5q0 48 31 79t80 31t80.5 -31t31.5 -79q0 -49 -31.5 -79.5t-80.5 -30.5t-80 30.5z" />
    <glyph glyph-name="equal" unicode="=" 
d="M1095 822h-953v152h953v-152zM1095 411h-953v152h953v-152z" />
    <glyph glyph-name="notequalto" unicode="&#x2260;" horiz-adv-x="1237" 
d="M473 -32h-109l115 430h-360v153h401l86 323h-487v152h528l111 412h109l-110 -412h360v-152h-401l-86 -323h487v-153h-529z" />
    <glyph glyph-name="greater" unicode="&#x3e;" 
d="M1157 621l-1077 -419v161l859 329l-859 330v160l1077 -418v-143z" />
    <glyph glyph-name="less" unicode="&#x3c;" 
d="M1157 363v-161l-1077 419v143l1077 418v-160l-859 -330z" />
    <glyph glyph-name="greaterthanorequalto" unicode="&#x2265;" 
d="M1157 743l-1076 -418v161l858 329l-858 329v161l1076 -418v-144zM1142 101h-1061v116h1061v-116z" />
    <glyph glyph-name="lessthanorequalto" unicode="&#x2264;" 
d="M1157 486v-161l-1076 418v144l1076 418v-161l-859 -329zM1157 101h-1061v116h1061v-116z" />
    <glyph glyph-name="plusminus" unicode="&#xb1;" 
d="M698 296h-158v389h-397v152h397v398h158v-398h397v-152h-397v-389zM1095 0h-952v116h952v-116z" />
    <glyph glyph-name="almostequalto" unicode="&#x2248;" 
d="M765 800.5q-59 11.5 -143 33.5q-91 22 -147 33t-104 11q-70 0 -118.5 -11t-77 -25t-66.5 -39v152q40 35 101.5 54.5t155.5 19.5q47 0 103.5 -11.5t145.5 -34.5q87 -23 145 -35t106 -12q70 0 119 11.5t76 26t68 41.5v-154q-41 -34 -102.5 -53t-154.5 -19q-48 0 -107 11.5z
M765 389.5q-59 11.5 -143 33.5q-91 22 -147 33t-104 11q-70 0 -118.5 -11t-77 -25t-66.5 -39v152q40 34 101.5 53.5t155.5 19.5q47 0 103.5 -11t145.5 -33q87 -22 145 -33.5t106 -11.5q70 0 119 11t78 25.5t66 38.5v-153q-41 -34 -102 -53t-155 -19q-48 0 -107 11.5z" />
    <glyph glyph-name="asciitilde" unicode="~" 
d="M696.5 588.5q-41.5 15.5 -96.5 45.5q-48 26 -80 38.5t-69 12.5q-45 0 -85 -25.5t-61 -64.5l-88 96q83 142 232 142q50 0 91 -15t96 -45q47 -26 80.5 -39t70.5 -13q45 0 85 25.5t61 64.5l88 -96q-82 -142 -232 -142q-51 0 -92.5 15.5z" />
    <glyph glyph-name="logicalnot" unicode="&#xac;" 
d="M1206 480h-158v293h-1041v153h1199v-446z" />
    <glyph glyph-name="asciicircum" unicode="^" 
d="M290 591h-182l429 815h164l429 -815h-182l-330 640z" />
    <glyph glyph-name="infinity" unicode="&#x221e;" horiz-adv-x="1633" 
d="M1054 357.5q-64 30.5 -113 74t-121 119.5l-60 63q-22 -22 -58 -60q-59 -64 -99.5 -98.5t-93.5 -56.5t-125 -22q-88 0 -162 44t-117 119t-43 165q0 87 43 161.5t117 118.5t162 44q72 0 125.5 -21.5t92.5 -55t98 -95.5l60 -62l62 64q69 73 118.5 116.5t113.5 73.5t141 30
q103 0 189 -50t136.5 -136t50.5 -188q0 -103 -50.5 -190t-136.5 -137.5t-189 -50.5q-77 0 -141 30.5zM1320 493q56 33 88.5 89t32.5 123q0 66 -32.5 122t-88.5 89t-123 33q-55 0 -105.5 -27t-91 -64.5t-96.5 -98.5q-25 -28 -51 -54l50 -53q55 -61 96.5 -99.5t92 -65.5
t105.5 -27q67 0 123 33zM471.5 528q39.5 18 70 45.5t75.5 76.5q32 36 51 55q-28 28 -52 55q-45 49 -75 76t-69.5 45t-89.5 18q-52 0 -95.5 -26.5t-69 -71t-25.5 -96.5q0 -53 25.5 -97.5t69 -71t95.5 -26.5q50 0 89.5 18z" />
    <glyph glyph-name="integral" unicode="&#x222b;" horiz-adv-x="718" 
d="M146 -273v135h37q89 0 89 93v1505q0 104 60.5 161.5t164.5 57.5h75v-135h-37q-89 0 -89 -93v-1506q0 -104 -60 -161t-165 -57h-75z" />
    <glyph glyph-name="uni2206" unicode="&#x2206;" horiz-adv-x="1533" 
d="M1445 0h-1357l678 1505zM766 1141l-428 -984h856z" />
    <glyph glyph-name="naryproduct" unicode="&#x220f;" horiz-adv-x="1677" 
d="M383 -430h-175v1952h1261v-1952h-175v1794h-911v-1794z" />
    <glyph glyph-name="narysummation" unicode="&#x2211;" horiz-adv-x="1353" 
d="M1252 -430h-1133v107l645 932l-645 813v100h1133v-158h-889l611 -755l-623 -890h901v-149z" />
    <glyph glyph-name="squareroot" unicode="&#x221a;" horiz-adv-x="1335" 
d="M820 0h-100l-313 958l-335 -89l-41 152l479 129l249 -784l424 1588h161z" />
    <glyph glyph-name="uni00B5" unicode="&#xb5;" horiz-adv-x="1249" 
d="M177 -430v1500h180v-650q0 -80 29 -144.5t85.5 -102t136.5 -37.5q86 0 150.5 42.5t99 115.5t34.5 162v614h180v-1070h-163v187q-38 -103 -113.5 -161t-192.5 -58q-95 0 -157.5 42t-104.5 120v-560h-164z" />
    <glyph glyph-name="uni00B5" unicode="&#x3bc;" horiz-adv-x="1249" 
d="M177 -430v1500h180v-650q0 -80 29 -144.5t85.5 -102t136.5 -37.5q86 0 150.5 42.5t99 115.5t34.5 162v614h180v-1070h-163v187q-38 -103 -113.5 -161t-192.5 -58q-95 0 -157.5 42t-104.5 120v-560h-164z" />
    <glyph glyph-name="partialdifferential" unicode="&#x2202;" horiz-adv-x="1270" 
d="M294 23q-100 55 -154 152t-54 219q0 163 71 284.5t198 187t292 65.5q97 0 198 -35.5t167 -93.5q3 54 3 76q-1 113 -48 205t-140 146.5t-226 54.5q-99 0 -185 -44l-50 146q117 52 252 52q189 0 316 -78t188 -212t61 -303q0 -215 -66 -415t-213 -331t-376 -131
q-134 0 -234 55zM784 194q95 79 143.5 199.5t63.5 255.5q-68 63 -167.5 100.5t-195.5 37.5q-114 0 -197 -47t-127 -132t-44 -198q0 -82 33.5 -149t98.5 -106.5t155 -39.5q142 0 237 79z" />
    <glyph glyph-name="percent" unicode="%" horiz-adv-x="1871" 
d="M1427 1375l-892 -1423l-91 58l893 1422zM266.5 685q-90.5 51 -141 141t-50.5 205t50.5 205t141 140.5t204.5 50.5q115 0 205 -50.5t140.5 -140.5t50.5 -205t-50.5 -205t-140.5 -141t-205 -51q-114 0 -204.5 51zM601 806q57 33 89.5 91.5t32.5 133.5t-32.5 133.5
t-89.5 91.5t-130 33t-130 -33t-89.5 -91.5t-32.5 -133.5t32.5 -133.5t89.5 -91.5t130 -33t130 33zM1196 8q-90 51 -140.5 141t-50.5 205t50.5 205t140.5 140.5t204 50.5q115 0 205 -50.5t140.5 -140.5t50.5 -205t-50.5 -205t-140.5 -141t-205 -51q-114 0 -204 51z
M1530.5 129q57.5 33 89.5 91.5t32 133.5t-32 133.5t-89.5 91.5t-130.5 33t-130 -33t-89 -91.5t-32 -133.5t32 -133.5t89 -91.5t130 -33t130.5 33z" />
    <glyph glyph-name="perthousand" unicode="&#x2030;" horiz-adv-x="2775" 
d="M1427 1375l-892 -1423l-91 58l893 1422zM266.5 685q-90.5 51 -141 141t-50.5 205t50.5 205t141 140.5t204.5 50.5q115 0 205 -50.5t140.5 -140.5t50.5 -205t-50.5 -205t-140.5 -141t-205 -51q-114 0 -204.5 51zM601 806q57 33 89.5 91.5t32.5 133.5t-32.5 133.5
t-89.5 91.5t-130 33t-130 -33t-89.5 -91.5t-32.5 -133.5t32.5 -133.5t89.5 -91.5t130 -33t130 33zM1196 8q-90 51 -140.5 141t-50.5 205t50.5 205t140.5 140.5t204 50.5q115 0 205 -50.5t140.5 -140.5t50.5 -205t-50.5 -205t-140.5 -141t-205 -51q-114 0 -204 51zM2100 8
q-90 51 -140.5 141t-50.5 205t50.5 205t140.5 140.5t204 50.5q115 0 205 -50.5t140.5 -140.5t50.5 -205t-50.5 -205t-140.5 -141t-205 -51q-114 0 -204 51zM1530.5 129q57.5 33 89.5 91.5t32 133.5t-32 133.5t-89.5 91.5t-130.5 33t-130 -33t-89 -91.5t-32 -133.5t32 -133.5
t89 -91.5t130 -33t130.5 33zM2434.5 129q57.5 33 89.5 91.5t32 133.5t-32 133.5t-89.5 91.5t-130.5 33t-130 -33t-89 -91.5t-32 -133.5t32 -133.5t89 -91.5t130 -33t130.5 33z" />
    <glyph glyph-name="arrowup" unicode="&#x2191;" horiz-adv-x="1014" 
d="M561 0h-108v1261l-172 -178l-63 62l289 289l289 -289l-63 -62l-172 178v-1261z" />
    <glyph glyph-name="uni2197" unicode="&#x2197;" horiz-adv-x="1674" 
d="M1283 1086l-891 -893l-78 78l893 891l-248 -4l-1 88h409v-409l-88 1z" />
    <glyph glyph-name="arrowright" unicode="&#x2192;" horiz-adv-x="1674" 
d="M1582 479l-289 -289l-62 63l178 172h-1289v108h1289l-178 172l62 63z" />
    <glyph glyph-name="uni2198" unicode="&#x2198;" horiz-adv-x="1674" 
d="M1367 187h-409l1 88l248 -4l-893 891l78 78l891 -893l-4 248l88 1v-409z" />
    <glyph glyph-name="arrowdown" unicode="&#x2193;" horiz-adv-x="1014" 
d="M796 261l-289 -289l-289 289l63 62l172 -178v1261h108v-1261l172 178z" />
    <glyph glyph-name="uni2199" unicode="&#x2199;" horiz-adv-x="1674" 
d="M716 187h-409v409l88 -1l-4 -248l891 893l78 -78l-893 -891l248 4z" />
    <glyph glyph-name="arrowleft" unicode="&#x2190;" horiz-adv-x="1674" 
d="M443 253l-62 -63l-289 289l289 289l62 -63l-178 -172h1289v-108h-1289z" />
    <glyph glyph-name="uni2196" unicode="&#x2196;" horiz-adv-x="1674" 
d="M1360 271l-78 -78l-891 893l4 -248l-88 -1v409h409l-1 -88l-248 4z" />
    <glyph glyph-name="arrowboth" unicode="&#x2194;" horiz-adv-x="1674" 
d="M443 253l-62 -63l-289 289l289 289l62 -63l-178 -172h1144l-178 172l62 63l289 -289l-289 -289l-62 63l178 172h-1144z" />
    <glyph glyph-name="arrowupdn" unicode="&#x2195;" horiz-adv-x="1014" 
d="M796 261l-289 -289l-289 289l63 62l172 -178v1116l-172 -178l-63 62l289 289l289 -289l-63 -62l-172 178v-1116l172 178z" />
    <glyph glyph-name="lozenge" unicode="&#x25ca;" horiz-adv-x="1064" 
d="M616 -31h-168l-369 734l369 735h168l369 -735zM243 703l289 -602l290 602l-290 602z" />
    <glyph glyph-name="at" unicode="@" horiz-adv-x="2048" 
d="M569 -336q-224 126 -349.5 343t-125.5 481t124.5 481t345 343t495.5 126q263 0 466.5 -109t315 -298t111.5 -420q0 -147 -37 -271t-128 -203.5t-242 -79.5q-201 0 -220 173q-54 -85 -141.5 -129t-187.5 -44q-115 0 -205.5 55t-140.5 153t-50 223t50 223t140.5 153
t205.5 55q90 0 168 -36t128 -93v105h140v-557q0 -73 31.5 -116.5t88.5 -43.5q135 0 193.5 114t58.5 319q0 186 -92.5 343.5t-262 250.5t-390.5 93q-233 0 -419.5 -106.5t-292 -292t-105.5 -411.5t108.5 -411t299.5 -292.5t427 -107.5q138 0 265.5 37t231 106.5t170.5 164.5
l92 -105q-129 -160 -327 -251t-432 -91q-284 0 -508 126zM1156.5 224.5q63.5 35.5 101.5 103t38 160.5q0 92 -38 160t-101.5 103.5t-138.5 35.5q-81 0 -144.5 -38.5t-98.5 -106.5t-35 -154t35.5 -154t98.5 -106.5t144 -38.5q75 0 138.5 35.5z" />
    <glyph glyph-name="ampersand" unicode="&#x26;" horiz-adv-x="1360" 
d="M280 21.5q-95 53.5 -146 143t-51 194.5q0 109 51 195.5t138 143.5l158 107l-108 124q-35 40 -52 92.5t-17 107.5q0 85 43.5 155.5t122.5 112t181 41.5t180 -41t120.5 -111.5t42.5 -156.5q0 -75 -37 -144.5t-103 -113.5l-135 -92l265 -307l238 306l118 -99l-251 -322
l316 -358h-216l-206 237l-16 -19q-73 -87 -123.5 -136t-122 -81t-167.5 -32q-128 0 -223 53.5zM701 984q34 25 53.5 63t19.5 80q0 47 -23.5 86t-64 62t-88.5 23t-88.5 -23t-64.5 -62t-24 -86q0 -61 38 -112l106 -123zM634.5 155q50.5 25 85.5 62.5t84 101.5l24 32l-296 342
l-154 -106q-52 -36 -83 -91.5t-31 -116.5q0 -67 34 -124.5t92 -91t127 -33.5q67 0 117.5 25z" />
    <glyph glyph-name="paragraph" unicode="&#xb6;" horiz-adv-x="1097" 
d="M442 819q-95 0 -176 47t-128 128t-47 176t47 176t128 128.5t176 47.5h510v-1952h-113v1844h-284v-1844h-113v1249z" />
    <glyph glyph-name="section" unicode="&#xa7;" 
d="M388.5 -416q-101.5 46 -162.5 139t-70 231h173q5 -81 44.5 -139t104.5 -88t144 -30q80 0 142.5 34t96.5 90t34 118q0 82 -43 134t-107.5 82t-176.5 67q-143 48 -231.5 93.5t-151 136.5t-62.5 242q0 148 84 256q-49 78 -49 203q0 110 56.5 201.5t160 145.5t240.5 54
q129 0 231.5 -47.5t164.5 -141t69 -227.5h-173q-5 80 -44 138.5t-103.5 88.5t-144.5 30t-142.5 -34.5t-96.5 -90t-34 -117.5q0 -82 43 -134.5t107.5 -82.5t176.5 -67q143 -48 231.5 -93.5t151 -136.5t62.5 -242q0 -148 -84 -256q49 -78 49 -202q0 -110 -56.5 -202
t-160.5 -145.5t-240 -53.5q-132 0 -233.5 46zM925 397q0 97 -42 157t-103.5 92t-167.5 69q-95 34 -152 61t-98 71q-50 -62 -50 -153q0 -98 42.5 -158t104 -91.5t166.5 -68.5q94 -33 151.5 -60.5t98.5 -71.5q50 66 50 153z" />
    <glyph glyph-name="copyright" unicode="&#xa9;" horiz-adv-x="1671" 
d="M458.5 67q-168.5 99 -267.5 267.5t-99 368.5t99 368.5t267.5 267.5t368.5 99t368.5 -99t267.5 -267.5t99 -368.5t-99 -368.5t-267.5 -267.5t-368.5 -99t-368.5 99zM1142.5 158.5q144.5 84.5 229 229t84.5 315.5t-84.5 315.5t-229 229t-315.5 84.5t-315.5 -84.5t-229 -229
t-84.5 -315.5t84.5 -315.5t229 -229t315.5 -84.5t315.5 84.5zM649 375q-84 48 -131.5 134t-47.5 194t47.5 194t131.5 134t190 48q118 0 209 -59t130 -160l-98 -42q-32 73 -96 118t-145 45q-74 0 -134 -35t-94.5 -98.5t-34.5 -144.5t34.5 -144.5t94.5 -98.5t134 -35
q82 0 146 45.5t95 119.5l99 -41q-39 -102 -130 -162t-210 -60q-106 0 -190 48z" />
    <glyph glyph-name="registered" unicode="&#xae;" horiz-adv-x="1689" 
d="M476.5 67q-168.5 99 -267.5 267.5t-99 368.5t99 368.5t267.5 267.5t368.5 99t368.5 -99t267.5 -267.5t99 -368.5t-99 -368.5t-267.5 -267.5t-368.5 -99t-368.5 99zM1160.5 158.5q144.5 84.5 229 229t84.5 315.5t-84.5 315.5t-229 229t-315.5 84.5t-315.5 -84.5t-229 -229
t-84.5 -315.5t84.5 -315.5t229 -229t315.5 -84.5t315.5 84.5zM628 349v708h221q112 0 172 -51.5t60 -153.5q0 -71 -39.5 -114t-102.5 -59l254 -330h-123l-228 297h-116v-297h-98zM846 735q60 0 98 29t38 88q0 116 -136 116h-120v-233h120z" />
    <glyph glyph-name="trademark" unicode="&#x2122;" horiz-adv-x="1740" 
d="M356 645h-116v656h-257v105h630v-105h-257v-656zM809 645h-118l102 761h120l249 -595l248 595h121l102 -761h-118l-71 566l-242 -566h-80l-242 565z" />
    <glyph glyph-name="degree" unicode="&#xb0;" horiz-adv-x="714" 
d="M215.5 1030q-64.5 37 -101.5 101.5t-37 142.5q0 77 37 141.5t101.5 101.5t141.5 37q78 0 142 -37t101 -101.5t37 -141.5q0 -78 -37 -142.5t-101 -101.5t-142 -37q-77 0 -141.5 37zM437 1133.5q37 21.5 58.5 59t21.5 81.5t-21.5 81t-58.5 59t-80 22t-80 -22t-58.5 -59
t-21.5 -81t21.5 -81.5t58.5 -59t80 -21.5t80 21.5z" />
    <glyph glyph-name="bar" unicode="|" horiz-adv-x="512" 
d="M313 -462h-114v2016h114v-2016z" />
    <glyph glyph-name="brokenbar" unicode="&#xa6;" horiz-adv-x="512" 
d="M313 675h-114v879h114v-879zM313 -462h-114v878h114v-878z" />
    <glyph glyph-name="uni2113" unicode="&#x2113;" horiz-adv-x="828" 
d="M333 -4q-41 28 -58 84.5t-17 147.5v355l-96 -72l-39 53l135 100v535q1 168 61.5 251t173.5 83q58 0 105.5 -34.5t76 -105t28.5 -171.5q0 -139 -44 -239.5t-104 -162t-144 -123.5l-38 -29v-439q0 -61 8.5 -95.5t29.5 -50t61 -15.5q44 0 90 33t99 94l43 -49
q-75 -87 -135 -132.5t-123 -45.5q-72 0 -113 28zM408 775q222 165 222 433q0 64 -16 115.5t-45.5 81t-67.5 29.5q-58 0 -93 -62t-35 -170v-452z" />
    <glyph glyph-name="dagger" unicode="&#x2020;" 
d="M677 0h-117v953h-337v117h337v336h117v-336h337v-117h-337v-953z" />
    <glyph glyph-name="daggerdbl" unicode="&#x2021;" 
d="M677 0h-117v336h-337v117h337v500h-337v117h337v336h117v-336h337v-117h-337v-500h337v-117h-337v-336z" />
    <glyph glyph-name="estimated" unicode="&#x212e;" horiz-adv-x="1752" 
d="M502.5 66.5q-171.5 98.5 -272 267.5t-100.5 369t100.5 369t272 267.5t373.5 98.5t373.5 -98.5t272 -267.5t100.5 -369v-39h-1285v-338q90 -133 232 -209t307 -76q177 0 329 88.5t244 242.5l71 -41q-66 -110 -165 -191.5t-222 -126.5t-257 -45q-202 0 -373.5 98.5z
M337 736h1077v344q-89 133 -231 209t-307 76t-307 -76t-232 -209v-344z" />
    <glyph glyph-name="ampersand.ss03" horiz-adv-x="1374" 
d="M320.5 25.5q-108.5 57.5 -170.5 160t-62 233.5q0 138 58 235.5t157.5 148.5t222.5 56l-309 430v117h871v-158h-651l561 -786q26 77 37 168.5t11 229.5h247v-140h-118q-9 -259 -72 -408l221 -312h-191l-135 188q-147 -220 -436 -220q-133 0 -241.5 57.5zM774.5 168
q83.5 47 134.5 147l-294 413q-169 -2 -259 -80.5t-90 -224.5q0 -86 44 -155t115 -108t147 -39q119 0 202.5 47z" />
    <glyph glyph-name="uni02F7" unicode="&#x2f7;" horiz-adv-x="1024" 
d="M572.5 -354q-33.5 15 -76.5 44q-37 25 -61.5 37t-53.5 12q-36 0 -66.5 -24t-47.5 -61l-85 74q27 66 78.5 106t114.5 40q43 0 75.5 -15t76.5 -44q37 -25 62 -37t54 -12q35 0 66 24t47 61l86 -74q-27 -67 -78.5 -106.5t-115.5 -39.5q-42 0 -75.5 15z" />
    <glyph glyph-name="uni02CA" unicode="&#x2ca;" horiz-adv-x="1024" 
d="M704 1499l-304 -299l-94 49l281 340z" />
    <glyph glyph-name="uni02BC" unicode="&#x2bc;" horiz-adv-x="485" 
d="M246 1172h-102l47 277h168z" />
    <glyph glyph-name="uni02BB" unicode="&#x2bb;" horiz-adv-x="484" 
d="M309 1183h-168l113 277h101z" />
    <glyph glyph-name="uni02CB" unicode="&#x2cb;" horiz-adv-x="1024" 
d="M717 1249l-94 -49l-304 299l117 90z" />
    <glyph glyph-name="uni02CD" unicode="&#x2cd;" horiz-adv-x="1024" 
d="M1032 -333h-1039v112h1039v-112z" />
    <glyph glyph-name="uni02C9" unicode="&#x2c9;" horiz-adv-x="1024" 
d="M814 1324h-605v113h605v-113z" />
    <glyph glyph-name="uni0308" unicode="&#x308;" horiz-adv-x="0" 
d="M-822 1300q-31 31 -31 80t31 80t80 31t80.5 -31t31.5 -80t-31.5 -80t-80.5 -31t-80 31zM-439 1300q-31 31 -31 80t31 80t80 31t80.5 -31t31.5 -80t-31.5 -80t-80.5 -31t-80 31z" />
    <glyph glyph-name="uni0307" unicode="&#x307;" horiz-adv-x="0" 
d="M-633.5 1300q-32.5 31 -32.5 80t32.5 80t84.5 31q51 0 84 -31t33 -80t-33 -80t-84 -31q-52 0 -84.5 31z" />
    <glyph glyph-name="gravecomb" unicode="&#x300;" horiz-adv-x="0" 
d="M-339 1249l-94 -49l-304 299l117 90z" />
    <glyph glyph-name="acutecomb" unicode="&#x301;" horiz-adv-x="0" 
d="M-322 1499l-304 -299l-94 49l281 340z" />
    <glyph glyph-name="uni030B" unicode="&#x30b;" horiz-adv-x="0" 
d="M-443 1481l-304 -299l-81 62l268 326zM-102 1478l-304 -299l-81 62l268 326z" />
    <glyph glyph-name="uni0302" unicode="&#x302;" horiz-adv-x="0" 
d="M-505 1408l-222 -229l-94 49l238 296h156l238 -296l-94 -49z" />
    <glyph glyph-name="uni030C" unicode="&#x30c;" horiz-adv-x="0" 
d="M-427 1179h-156l-238 296l94 49l222 -230l222 230l94 -49z" />
    <glyph glyph-name="uni0306" unicode="&#x306;" horiz-adv-x="0" 
d="M-624.5 1234.5q-71.5 42.5 -113.5 115.5t-42 161h110q0 -53 27.5 -97.5t74 -70t100.5 -25.5q53 0 99.5 25.5t74 70t27.5 97.5h113q0 -88 -42 -161t-114 -115.5t-158 -42.5q-85 0 -156.5 42.5z" />
    <glyph glyph-name="uni030A" unicode="&#x30a;" horiz-adv-x="0" 
d="M-588.5 1184.5q-46.5 26.5 -73.5 72.5t-27 102t27 102t73 72.5t102 26.5t102 -26.5t73 -72.5t27 -102t-27 -102t-73 -72.5t-102 -26.5q-55 0 -101.5 26.5zM-405.5 1276q33.5 34 33.5 83t-33.5 83t-81.5 34t-81.5 -34t-33.5 -83t33.5 -83t81.5 -34t81.5 34z" />
    <glyph glyph-name="tildecomb" unicode="&#x303;" horiz-adv-x="0" 
d="M-415.5 1252q-33.5 15 -76.5 44q-37 25 -61.5 37t-53.5 12q-36 0 -66.5 -24t-47.5 -61l-85 74q27 66 78.5 106t114.5 40q43 0 75.5 -15t76.5 -44q37 -25 62 -37t54 -12q35 0 66 24t47 61l86 -74q-28 -67 -79.5 -106.5t-114.5 -39.5q-42 0 -75.5 15z" />
    <glyph glyph-name="uni0304" unicode="&#x304;" horiz-adv-x="0" 
d="M-154 1324h-605v113h605v-113z" />
    <glyph glyph-name="uni0305" unicode="&#x305;" horiz-adv-x="0" 
d="M2617 1486h-1398v103h1398v-103z" />
    <glyph glyph-name="uni0310" unicode="&#x310;" horiz-adv-x="0" 
d="M-828.5 1527q-29.5 31 -29.5 80t29.5 80t75.5 31q47 0 76.5 -31t29.5 -80t-29.5 -80t-76.5 -31q-46 0 -75.5 31zM-910.5 1219.5q-71.5 42.5 -113.5 115.5t-42 161h111q0 -53 27.5 -97.5t73.5 -70t100 -25.5q53 0 99.5 25.5t74 70t27.5 97.5h113q0 -88 -42 -161
t-114 -115.5t-158 -42.5q-85 0 -156.5 42.5z" />
    <glyph glyph-name="uni0315" unicode="&#x315;" horiz-adv-x="0" 
d="M-71 1227h-102l47 278h168z" />
    <glyph glyph-name="dotbelowcomb" unicode="&#x323;" horiz-adv-x="0" 
d="M-559.5 -330q-31.5 30 -31.5 76q0 47 31.5 77t81.5 30t81.5 -30t31.5 -77q0 -46 -31.5 -76t-81.5 -30t-81.5 30z" />
    <glyph glyph-name="uni0324" unicode="&#x324;" horiz-adv-x="0" 
d="M-752 -327q-31 31 -31 80t31 80t80 31t80.5 -31t31.5 -80t-31.5 -80t-80.5 -31t-80 31zM-369 -327q-31 31 -31 80t31 80t80 31t80.5 -31t31.5 -80t-31 -80t-81 -31q-49 0 -80 31z" />
    <glyph glyph-name="uni0325" unicode="&#x325;" horiz-adv-x="0" 
d="M-508.5 -435.5q-46.5 26.5 -73.5 72.5t-27 102t27 102t73 72.5t102 26.5t102 -26.5t73 -72.5t27 -102t-27 -102t-73 -72.5t-102 -26.5q-55 0 -101.5 26.5zM-325.5 -344q33.5 34 33.5 83t-33.5 83.5t-81.5 34.5t-81.5 -34.5t-33.5 -83.5t33.5 -83t81.5 -34t81.5 34z" />
    <glyph glyph-name="uni0326" unicode="&#x326;" horiz-adv-x="0" 
d="M-444 -462h-101l46 277h168z" />
    <glyph glyph-name="dieresis" unicode="&#xa8;" horiz-adv-x="1024" 
d="M240 1300q-31 31 -31 80t31 80t80 31t80.5 -31t31.5 -80t-31.5 -80t-80.5 -31t-80 31zM623 1300q-31 31 -31 80t31 80t80 31t80.5 -31t31.5 -80t-31.5 -80t-80.5 -31t-80 31z" />
    <glyph glyph-name="dotaccentmod" unicode="&#x2d9;" horiz-adv-x="1024" 
d="M427.5 1300q-32.5 31 -32.5 80t32.5 80t84.5 31q51 0 84 -31t33 -80t-33 -80t-84 -31q-52 0 -84.5 31z" />
    <glyph glyph-name="grave" unicode="`" horiz-adv-x="1024" 
d="M717 1249l-94 -49l-304 299l117 90z" />
    <glyph glyph-name="acute" unicode="&#xb4;" horiz-adv-x="1024" 
d="M704 1499l-304 -299l-94 49l281 340z" />
    <glyph glyph-name="doubleacutemod" unicode="&#x2dd;" horiz-adv-x="1024" 
d="M536 1481l-304 -299l-81 62l268 326zM877 1478l-304 -299l-81 62l268 326z" />
    <glyph glyph-name="circumflexmod" unicode="&#x2c6;" horiz-adv-x="1024" 
d="M512 1408l-222 -229l-94 49l238 296h156l238 -296l-94 -49z" />
    <glyph glyph-name="caronmod" unicode="&#x2c7;" horiz-adv-x="1024" 
d="M590 1179h-156l-238 296l94 49l222 -230l222 230l94 -49z" />
    <glyph glyph-name="brevemod" unicode="&#x2d8;" horiz-adv-x="1024" 
d="M354.5 1234.5q-71.5 42.5 -113.5 115.5t-42 161h110q0 -53 27.5 -97.5t74 -70t100.5 -25.5q53 0 99.5 25.5t74 70t27.5 97.5h113q0 -88 -42 -161t-114 -115.5t-158 -42.5q-85 0 -156.5 42.5z" />
    <glyph glyph-name="ringmod" unicode="&#x2da;" horiz-adv-x="1024" 
d="M410.5 1184.5q-46.5 26.5 -73.5 72.5t-27 102t27 102t73 72.5t102 26.5t102 -26.5t73 -72.5t27 -102t-27 -102t-73 -72.5t-102 -26.5q-55 0 -101.5 26.5zM593.5 1276q33.5 34 33.5 83t-33.5 83t-81.5 34t-81.5 -34t-33.5 -83t33.5 -83t81.5 -34t81.5 34z" />
    <glyph glyph-name="tildemod" unicode="&#x2dc;" horiz-adv-x="1024" 
d="M572.5 1252q-33.5 15 -76.5 44q-37 25 -61.5 37t-53.5 12q-36 0 -66.5 -24t-47.5 -61l-85 74q27 66 78.5 106t114.5 40q43 0 75.5 -15t76.5 -44q37 -25 62 -37t54 -12q35 0 66 24t47 61l86 -74q-28 -67 -79.5 -106.5t-114.5 -39.5q-42 0 -75.5 15z" />
    <glyph glyph-name="macron" unicode="&#xaf;" horiz-adv-x="1024" 
d="M1032 1624h-1039v113h1039v-113z" />
    <glyph glyph-name="cedilla" unicode="&#xb8;" horiz-adv-x="1024" 
d="M302 -423l39 94q28 -18 54 -25t61 -7q56 0 90.5 29t34.5 75q0 55 -41.5 83.5t-121.5 28.5l61 145h102l-35 -84q84 -9 130 -55.5t46 -124.5q0 -60 -32.5 -105t-87.5 -69t-123 -24q-118 0 -177 39z" />
    <glyph glyph-name="ogonekmod" unicode="&#x2db;" horiz-adv-x="1024" 
d="M389.5 -421.5q-46.5 40.5 -46.5 104.5q0 43 16 78t47 70l140 169h105l-143 -206q-27 -40 -27 -75q0 -32 21.5 -52t57.5 -20q27 0 47.5 7t42.5 24l31 -100q-30 -20 -72 -30t-88 -10q-85 0 -131.5 40.5z" />
    <glyph glyph-name="lmiddledot.ss05" horiz-adv-x="692" 
d="M240 55q-63 64 -63 177v1290h179v-1257q0 -54 29 -85t80 -31h93v-149q-59 -9 -141 -9q-114 0 -177 64zM517 695.5q-29 28.5 -29 73.5t29 74t75 29t75 -29t29 -74t-29 -73.5t-75 -28.5t-75 28.5z" />
    <glyph glyph-name="udoubleacute.ss07" horiz-adv-x="1210" 
d="M704 1481l-304 -299l-80 62l268 326zM1045 1478l-304 -299l-80 62l267 326zM377.5 19q-100.5 51 -158 146.5t-57.5 224.5v681h179v-672q0 -78 35 -139t95.5 -94.5t133.5 -33.5q75 0 135.5 34.5t94.5 95.5t34 137v672h180v-681q0 -129 -58 -224.5t-158.5 -146.5
t-227.5 -51t-227.5 51z" />
    <glyph glyph-name="ffl.ss05" horiz-adv-x="1996" 
d="M260 0v919h-202v152h202v153q0 93 37.5 162t111 106.5t176.5 37.5q67 0 143 -9v-148h-124q-73 0 -119 -42t-46 -117v-143h489v153q0 93 37.5 162t111 106.5t176.5 37.5q67 0 143 -9v-148h-124q-73 0 -119 -42t-46 -117v-143h289v-152h-289v-919h-179v919h-489v-919h-179z
M1641 55q-63 64 -63 177v1290h179v-1257q0 -54 29 -85t80 -31h93v-149q-59 -9 -141 -9q-114 0 -177 64z" />
    </font>
</defs>
</svg>
