<?xml version="1.0" standalone="no"?>
<!DOCTYPE svg PUBLIC "-//W3C//DTD SVG 1.1//EN" "http://www.w3.org/Graphics/SVG/1.1/DTD/svg11.dtd" >
<svg>
<metadata>
Created by FontForge 20120731 at Wed Jun  5 12:33:54 2024
 By fw_worker
2021 Wahyu &#38; Sani Co. All Rights Reserved.
</metadata>
<defs>
<font id="Geliat-Bold" horiz-adv-x="1238" >
  <font-face 
    font-family="Geliat"
    font-weight="700"
    font-stretch="normal"
    units-per-em="2048"
    panose-1="0 0 8 0 0 0 0 0 0 0"
    ascent="1638"
    descent="-410"
    x-height="1081"
    cap-height="1406"
    bbox="-1067 -462 2681 1954"
    underline-thickness="75"
    underline-position="-26"
    unicode-range="U+0020-FB04"
  />
<missing-glyph horiz-adv-x="1024" 
d="M907 -430h-790v1952h790v-1952zM681 772h31v141h-31l-12 -42l-107 35l-142 48l254 85l7 -26h31v148h-31l-14 -42l-106 -36l-141 48l254 84l7 -25h31v149h-31l-14 -43l-358 -119v-53l186 -62l-186 -62v-52l352 -118zM483.5 502q23.5 18 44.5 55l37 72q13 24 25.5 36.5
t33.5 12.5q52 -3 52 -58q0 -31 -10.5 -49.5t-32.5 -27.5l-50 -15v-31h129v31l-24 8q29 34 29 84q0 63 -28 102t-88 39q-39 0 -63.5 -18.5t-44.5 -55.5l-37 -72q-25 -47 -59 -47q-26 0 -39 18.5t-13 45.5q0 43 16 65t57 34l20 7v31h-129v-31l33 -10q-38 -35 -38 -96
q0 -65 27.5 -106.5t88.5 -41.5q40 0 63.5 18zM425 164q-34 3 -57 27.5t-23 72.5q0 40 27 63.5t61 23.5h157q36 0 62.5 -21t26.5 -61q0 -32 -11 -56.5t-34 -32.5l-50 -16v-30h131v30l-30 9q16 18 25.5 43.5t9.5 56.5q0 51 -22.5 88t-60 56t-81.5 19h-88q-44 0 -81.5 -19
t-60 -56t-22.5 -88q0 -61 34 -97.5t87 -41.5v30zM598 -172q60 0 89.5 38.5t29.5 102.5q0 50 -34.5 84.5t-84.5 34.5h-61q-49 0 -84 -34.5t-35 -84.5v-22q0 -50 34.5 -84.5t84.5 -34.5h61zM501 -94q-20 0 -33.5 13t-13.5 33q0 58 47 58h134q19 0 32.5 -13.5t13.5 -32.5v-12
q0 -20 -13 -33t-33 -13h-134zM378.5 -73q12.5 13 12.5 31t-13 31t-31 13t-30.5 -13t-12.5 -31t12.5 -31t30.5 -13q19 0 31.5 13z" />
    <glyph glyph-name="ff" unicode="ff" horiz-adv-x="1560" 
d="M230 0v818h-164v264h164v96q0 166 95.5 261t286.5 95q85 0 184 -12v-263h-146q-47 0 -76 -28t-29 -74v-75h402v96q0 166 95.5 261t286.5 95q84 0 184 -12v-263h-146q-47 0 -76 -28t-29 -74v-75h251v-264h-251v-818h-315v818h-402v-818h-315z" />
    <glyph glyph-name="ffi" unicode="ffi" horiz-adv-x="2122" 
d="M1689 1236q-54 46 -54 132t54 132t137 46q84 0 137.5 -46.5t53.5 -131.5q0 -86 -54.5 -132t-136.5 -46q-83 0 -137 46zM230 0v818h-164v264h164v96q0 169 96.5 262.5t285.5 93.5q85 0 184 -12v-263h-146q-48 0 -76.5 -28t-28.5 -74v-75h402v96q0 169 96 262.5t286 93.5
q84 0 184 -12v-263h-146q-48 0 -76.5 -28t-28.5 -74v-75h721v-1082h-315v818h-406v-818h-315v818h-402v-818h-315z" />
    <glyph glyph-name="ffl" unicode="ffl" horiz-adv-x="2121" 
d="M230 0v818h-164v264h164v96q0 166 95.5 261t286.5 95q85 0 184 -12v-263h-146q-47 0 -76 -28t-29 -74v-75h402v96q0 166 95.5 261t286.5 95q84 0 184 -12v-263h-146q-47 0 -76 -28t-29 -74v-75h251v-264h-251v-818h-315v818h-402v-818h-315zM1980 0h-314v1522h314v-1522z
" />
    <glyph glyph-name="fi" unicode="fi" horiz-adv-x="1405" 
d="M969 1236.5q-54 46.5 -54 131.5t54 131.5t137 46.5t137.5 -46.5t54.5 -131.5t-54.5 -131.5t-137.5 -46.5t-137 46.5zM230 0v818h-164v264h164v96q0 166 95.5 261t286.5 95q85 0 184 -12v-263h-146q-47 0 -76 -28t-29 -74v-75h719v-1082h-315v818h-404v-818h-315z" />
    <glyph glyph-name="fl" unicode="fl" horiz-adv-x="1404" 
d="M230 0v818h-164v264h164v96q0 169 98 262.5t284 93.5q69 0 184 -12v-263h-146q-47 0 -76 -28t-29 -74v-75h251v-264h-251v-818h-315zM1263 0h-314v1521h314v-1521z" />
    <glyph glyph-name=".notdef" horiz-adv-x="1024" 
d="M907 -430h-790v1952h790v-1952zM681 772h31v141h-31l-12 -42l-107 35l-142 48l254 85l7 -26h31v148h-31l-14 -42l-106 -36l-141 48l254 84l7 -25h31v149h-31l-14 -43l-358 -119v-53l186 -62l-186 -62v-52l352 -118zM483.5 502q23.5 18 44.5 55l37 72q13 24 25.5 36.5
t33.5 12.5q52 -3 52 -58q0 -31 -10.5 -49.5t-32.5 -27.5l-50 -15v-31h129v31l-24 8q29 34 29 84q0 63 -28 102t-88 39q-39 0 -63.5 -18.5t-44.5 -55.5l-37 -72q-25 -47 -59 -47q-26 0 -39 18.5t-13 45.5q0 43 16 65t57 34l20 7v31h-129v-31l33 -10q-38 -35 -38 -96
q0 -65 27.5 -106.5t88.5 -41.5q40 0 63.5 18zM425 164q-34 3 -57 27.5t-23 72.5q0 40 27 63.5t61 23.5h157q36 0 62.5 -21t26.5 -61q0 -32 -11 -56.5t-34 -32.5l-50 -16v-30h131v30l-30 9q16 18 25.5 43.5t9.5 56.5q0 51 -22.5 88t-60 56t-81.5 19h-88q-44 0 -81.5 -19
t-60 -56t-22.5 -88q0 -61 34 -97.5t87 -41.5v30zM598 -172q60 0 89.5 38.5t29.5 102.5q0 50 -34.5 84.5t-84.5 34.5h-61q-49 0 -84 -34.5t-35 -84.5v-22q0 -50 34.5 -84.5t84.5 -34.5h61zM501 -94q-20 0 -33.5 13t-13.5 33q0 58 47 58h134q19 0 32.5 -13.5t13.5 -32.5v-12
q0 -20 -13 -33t-33 -13h-134zM378.5 -73q12.5 13 12.5 31t-13 31t-31 13t-30.5 -13t-12.5 -31t12.5 -31t30.5 -13q19 0 31.5 13z" />
    <glyph glyph-name=".null" horiz-adv-x="0" 
 />
    <glyph glyph-name="space" unicode=" " horiz-adv-x="384" 
 />
    <glyph glyph-name="space" unicode="&#xa0;" horiz-adv-x="384" 
 />
    <glyph glyph-name="A" unicode="A" horiz-adv-x="1420" 
d="M353 0h-363l539 1406h362l538 -1406h-362l-97 270h-520zM710 1019l-175 -475h349z" />
    <glyph glyph-name="Aacute" unicode="&#xc1;" horiz-adv-x="1420" 
d="M1033 1782l-325 -284l-161 76l288 361zM353 0h-363l539 1406h362l538 -1406h-362l-97 270h-520zM710 1019l-175 -475h349z" />
    <glyph glyph-name="Abreve" unicode="&#x102;" horiz-adv-x="1420" 
d="M541.5 1589.5q-76.5 45.5 -121 124t-44.5 173.5h186q0 -37 20.5 -67t54.5 -47t72 -17t72 17t54.5 47t20.5 67h188q0 -95 -45 -173.5t-121.5 -124t-168.5 -45.5q-91 0 -167.5 45.5zM353 0h-363l539 1406h362l538 -1406h-362l-97 270h-520zM710 1019l-175 -475h349z" />
    <glyph glyph-name="Acircumflex" unicode="&#xc2;" horiz-adv-x="1420" 
d="M710 1703l-187 -174l-161 77l222 296h252l222 -296l-161 -77zM353 0h-363l539 1406h362l538 -1406h-362l-97 270h-520zM710 1019l-175 -475h349z" />
    <glyph glyph-name="Adieresis" unicode="&#xc4;" horiz-adv-x="1420" 
d="M368.5 1612.5q-45.5 45.5 -45.5 116.5t45.5 116.5t116.5 45.5q72 0 118 -45.5t46 -116.5t-46 -116.5t-118 -45.5q-71 0 -116.5 45.5zM817 1612.5q-46 45.5 -46 116.5t46 116.5t117 45.5q72 0 117.5 -45.5t45.5 -116.5t-45.5 -116.5t-117.5 -45.5q-71 0 -117 45.5zM353 0
h-363l539 1406h362l538 -1406h-362l-97 270h-520zM710 1019l-175 -475h349z" />
    <glyph glyph-name="Agrave" unicode="&#xc0;" horiz-adv-x="1420" 
d="M871 1574l-161 -76l-325 284l198 153zM353 0h-363l539 1406h362l538 -1406h-362l-97 270h-520zM710 1019l-175 -475h349z" />
    <glyph glyph-name="Amacron" unicode="&#x100;" horiz-adv-x="1420" 
d="M1032 1637h-645v185h645v-185zM353 0h-363l539 1406h362l538 -1406h-362l-97 270h-520zM710 1019l-175 -475h349z" />
    <glyph glyph-name="Aogonek" unicode="&#x104;" horiz-adv-x="1420" 
d="M1072 -419q-54 43 -54 112q0 49 18.5 87.5t57.5 78.5l131 141h-158l-97 270h-520l-97 -270h-363l539 1406h362l538 -1406h-31l-125 -184q-17 -29 -17 -52q0 -21 13.5 -33.5t39.5 -12.5q41 0 75 22l51 -163q-43 -19 -97 -29t-105 -10q-107 0 -161 43zM710 1019l-175 -475
h349z" />
    <glyph glyph-name="Aring" unicode="&#xc5;" horiz-adv-x="1420" 
d="M602 1537q-49 27 -77.5 75t-28.5 107t28 106.5t77 74.5t109 27q59 0 107.5 -27t76.5 -74.5t28 -106.5t-28 -107t-76.5 -75t-107.5 -27t-108 27zM765.5 1662q22.5 23 22.5 57t-22.5 57t-55.5 23t-55.5 -23t-22.5 -57t22.5 -57t55.5 -23t55.5 23zM353 0h-363l539 1406h362
l538 -1406h-362l-97 270h-520zM710 1019l-175 -475h349z" />
    <glyph glyph-name="Atilde" unicode="&#xc3;" horiz-adv-x="1420" 
d="M769.5 1566.5q-33.5 14.5 -79.5 43.5q-35 23 -58 34t-50 11q-33 0 -64.5 -25t-46.5 -60l-138 130q31 85 94.5 135.5t143.5 50.5q45 0 79.5 -15t79.5 -45q35 -23 58 -34t50 -11q33 0 64.5 25t46.5 60l138 -128q-31 -85 -95 -135.5t-144 -50.5q-45 0 -78.5 14.5zM353 0
h-363l539 1406h362l538 -1406h-362l-97 270h-520zM710 1019l-175 -475h349z" />
    <glyph glyph-name="AE" unicode="&#xc6;" horiz-adv-x="1724" 
d="M306 0h-362l696 1406h999v-300h-513v-249h486v-289h-486v-268h513v-300h-848v269h-342zM791 1027l-238 -484h238v484z" />
    <glyph glyph-name="B" unicode="B" horiz-adv-x="1225" 
d="M141 0v1406h515q150 0 255.5 -49.5t160 -142.5t54.5 -222q0 -87 -37.5 -156t-107.5 -111q87 -45 135 -124.5t48 -175.5q0 -138 -59 -233t-165.5 -143.5t-248.5 -48.5h-550zM625 838q76 0 122 38t46 101q0 65 -43.5 96.5t-124.5 31.5h-148v-267h148zM657 301
q78 0 124.5 41.5t46.5 110.5q0 65 -48 104.5t-127 39.5h-176v-296h180z" />
    <glyph glyph-name="C" unicode="C" horiz-adv-x="1543" 
d="M429.5 62q-168.5 94 -263 261.5t-94.5 379.5t94.5 379.5t263 261.5t380.5 94q167 0 308.5 -59.5t242 -168t146.5 -251.5l-330 -104q-41 124 -139 196t-228 72q-110 0 -199.5 -52.5t-140.5 -148t-51 -219.5t51 -219t140.5 -147.5t199.5 -52.5q86 0 160.5 33.5t128 94.5
t78.5 141l331 -103q-45 -143 -145.5 -252t-243 -169.5t-309.5 -60.5q-212 0 -380.5 94z" />
    <glyph glyph-name="Cacute" unicode="&#x106;" horiz-adv-x="1543" 
d="M1142 1782l-325 -284l-162 76l288 361zM429.5 62q-168.5 94 -263 261.5t-94.5 379.5t94.5 379.5t263 261.5t380.5 94q167 0 308.5 -59.5t242 -168t146.5 -251.5l-330 -104q-41 124 -139 196t-228 72q-110 0 -199.5 -52.5t-140.5 -148t-51 -219.5t51 -219t140.5 -147.5
t199.5 -52.5q86 0 160.5 33.5t128 94.5t78.5 141l331 -103q-45 -143 -145.5 -252t-243 -169.5t-309.5 -60.5q-212 0 -380.5 94z" />
    <glyph glyph-name="Ccaron" unicode="&#x10c;" horiz-adv-x="1543" 
d="M943 1529h-252l-221 297l161 76l186 -173l188 173l161 -76zM429.5 62q-168.5 94 -263 261.5t-94.5 379.5t94.5 379.5t263 261.5t380.5 94q167 0 308.5 -59.5t242 -168t146.5 -251.5l-330 -104q-41 124 -139 196t-228 72q-110 0 -199.5 -52.5t-140.5 -148t-51 -219.5
t51 -219t140.5 -147.5t199.5 -52.5q86 0 160.5 33.5t128 94.5t78.5 141l331 -103q-45 -143 -145.5 -252t-243 -169.5t-309.5 -60.5q-212 0 -380.5 94z" />
    <glyph glyph-name="Ccedilla" unicode="&#xc7;" horiz-adv-x="1543" 
d="M536 -427l64 150q37 -22 86 -22q40 0 65.5 18t25.5 50q0 75 -127 75l57 130q-189 22 -333 121t-223 257t-79 351q0 215 95 382.5t263.5 260t379.5 92.5q169 0 310.5 -60t240.5 -168t146 -251l-330 -104q-42 123 -138.5 195.5t-228.5 72.5q-112 0 -201 -52.5t-139.5 -148
t-50.5 -219.5q0 -125 51.5 -220t140.5 -147t199 -52q133 0 230.5 73.5t136.5 195.5l331 -103q-43 -134 -134 -238.5t-219.5 -167.5t-280.5 -74l-16 -34q161 -24 161 -181q0 -70 -38.5 -119t-103.5 -73.5t-143 -24.5q-141 0 -198 35z" />
    <glyph glyph-name="Ccircumflex" unicode="&#x108;" horiz-adv-x="1543" 
d="M817 1703l-186 -174l-161 77l221 296h252l223 -296l-161 -77zM429.5 62q-168.5 94 -263 261.5t-94.5 379.5t94.5 379.5t263 261.5t380.5 94q167 0 308.5 -59.5t242 -168t146.5 -251.5l-330 -104q-41 124 -139 196t-228 72q-110 0 -199.5 -52.5t-140.5 -148t-51 -219.5
t51 -219t140.5 -147.5t199.5 -52.5q86 0 160.5 33.5t128 94.5t78.5 141l331 -103q-45 -143 -145.5 -252t-243 -169.5t-309.5 -60.5q-212 0 -380.5 94z" />
    <glyph glyph-name="Cdotaccent" unicode="&#x10a;" horiz-adv-x="1543" 
d="M727 1587.5q-40 20.5 -62 57.5t-22 84t22 84t62 57.5t90 20.5q51 0 91 -20.5t62 -57.5t22 -84t-22 -84t-62 -57.5t-91 -20.5q-50 0 -90 20.5zM429.5 62q-168.5 94 -263 261.5t-94.5 379.5t94.5 379.5t263 261.5t380.5 94q167 0 308.5 -59.5t242 -168t146.5 -251.5
l-330 -104q-41 124 -139 196t-228 72q-110 0 -199.5 -52.5t-140.5 -148t-51 -219.5t51 -219t140.5 -147.5t199.5 -52.5q86 0 160.5 33.5t128 94.5t78.5 141l331 -103q-45 -143 -145.5 -252t-243 -169.5t-309.5 -60.5q-212 0 -380.5 94z" />
    <glyph glyph-name="D" unicode="D" horiz-adv-x="1492" 
d="M141 0v1406h558q215 0 378 -87.5t252.5 -247t89.5 -367.5t-89.5 -367.5t-252.5 -248t-378 -88.5h-558zM689 301q111 0 198 51.5t136 143t49 208.5t-49 208.5t-136 143t-198 51.5h-213v-806h213z" />
    <glyph glyph-name="Eth" unicode="&#xd0;" horiz-adv-x="1492" 
d="M141 0v619h-130v168h130v619h559q215 0 378 -88t252 -247.5t89 -367.5q0 -209 -89 -368t-252 -247t-378 -88h-559zM690 300q111 0 198 51.5t136 143t49 208.5t-49 209t-136 143.5t-198 51.5h-214v-320h265v-168h-265v-319h214z" />
    <glyph glyph-name="Dcaron" unicode="&#x10e;" horiz-adv-x="1492" 
d="M824 1529h-252l-222 297l161 76l187 -173l187 173l161 -76zM141 0v1406h558q215 0 378 -87.5t252.5 -247t89.5 -367.5t-89.5 -367.5t-252.5 -248t-378 -88.5h-558zM689 301q111 0 198 51.5t136 143t49 208.5t-49 208.5t-136 143t-198 51.5h-213v-806h213z" />
    <glyph glyph-name="Dcroat" unicode="&#x110;" horiz-adv-x="1492" 
d="M141 0v619h-130v168h130v619h559q215 0 378 -88t252 -247.5t89 -367.5q0 -209 -89 -368t-252 -247t-378 -88h-559zM690 300q111 0 198 51.5t136 143t49 208.5t-49 209t-136 143.5t-198 51.5h-214v-320h265v-168h-265v-319h214z" />
    <glyph glyph-name="uni1E0C" unicode="&#x1e0c;" horiz-adv-x="1492" 
d="M141 0v1406h558q215 0 378 -87.5t252.5 -247t89.5 -367.5t-89.5 -367.5t-252.5 -248t-378 -88.5h-558zM689 301q111 0 198 51.5t136 143t49 208.5t-49 208.5t-136 143t-198 51.5h-213v-806h213zM621.5 -368.5q-46.5 42.5 -46.5 109.5t46.5 110.5t119.5 43.5t119.5 -43.5
t46.5 -110.5t-46.5 -109.5t-119.5 -42.5t-119.5 42.5z" />
    <glyph glyph-name="E" unicode="E" horiz-adv-x="1076" 
d="M990 0h-849v1406h849v-300h-514v-249h486v-289h-486v-268h514v-300z" />
    <glyph glyph-name="Eacute" unicode="&#xc9;" horiz-adv-x="1076" 
d="M889 1782l-325 -284l-161 76l287 361zM990 0h-849v1406h849v-300h-514v-249h486v-289h-486v-268h514v-300z" />
    <glyph glyph-name="Ebreve" unicode="&#x114;" horiz-adv-x="1076" 
d="M396.5 1589.5q-76.5 45.5 -121.5 124t-45 173.5h187q0 -37 20.5 -67t54.5 -47t72 -17t71.5 17t54 47t20.5 67h189q0 -95 -45 -173.5t-122 -124t-168 -45.5t-167.5 45.5zM990 0h-849v1406h849v-300h-514v-249h486v-289h-486v-268h514v-300z" />
    <glyph glyph-name="Ecaron" unicode="&#x11a;" horiz-adv-x="1076" 
d="M691 1529h-252l-222 297l161 76l187 -173l187 173l161 -76zM990 0h-849v1406h849v-300h-514v-249h486v-289h-486v-268h514v-300z" />
    <glyph glyph-name="Ecircumflex" unicode="&#xca;" horiz-adv-x="1076" 
d="M565 1703l-187 -174l-161 77l222 296h252l222 -296l-161 -77zM990 0h-849v1406h849v-300h-514v-249h486v-289h-486v-268h514v-300z" />
    <glyph glyph-name="Edieresis" unicode="&#xcb;" horiz-adv-x="1076" 
d="M224 1612.5q-46 45.5 -46 116.5t46 116.5t117 45.5t117 -45.5t46 -116.5t-46 -116.5t-117 -45.5t-117 45.5zM672 1612.5q-46 45.5 -46 116.5t46 116.5t117 45.5q72 0 118 -45.5t46 -116.5t-46 -116.5t-118 -45.5q-71 0 -117 45.5zM990 0h-849v1406h849v-300h-514v-249
h486v-289h-486v-268h514v-300z" />
    <glyph glyph-name="Edotaccent" unicode="&#x116;" horiz-adv-x="1076" 
d="M475 1587.5q-40 20.5 -62 57.5t-22 84t22 84t62 57.5t90 20.5t90 -20.5t62.5 -57.5t22.5 -84t-22.5 -84t-62.5 -57.5t-90 -20.5t-90 20.5zM990 0h-849v1406h849v-300h-514v-249h486v-289h-486v-268h514v-300z" />
    <glyph glyph-name="Egrave" unicode="&#xc8;" horiz-adv-x="1076" 
d="M726 1574l-161 -76l-325 284l199 153zM990 0h-849v1406h849v-300h-514v-249h486v-289h-486v-268h514v-300z" />
    <glyph glyph-name="Emacron" unicode="&#x112;" horiz-adv-x="1076" 
d="M887 1637h-645v185h645v-185zM990 0h-849v1406h849v-300h-514v-249h486v-289h-486v-268h514v-300z" />
    <glyph glyph-name="Eogonek" unicode="&#x118;" horiz-adv-x="1076" 
d="M664 -418.5q-54 43.5 -54 111.5q0 49 18.5 87t58.5 79l131 141h-677v1406h849v-299h-514v-250h486v-289h-486v-268h514v-300l-124 -184q-18 -28 -18 -52q0 -20 14 -33t39 -13q42 0 76 22l51 -163q-44 -19 -97.5 -29t-105.5 -10q-107 0 -161 43.5z" />
    <glyph glyph-name="uni1EBC" unicode="&#x1ebc;" horiz-adv-x="1076" 
d="M624.5 1566.5q-33.5 14.5 -79.5 43.5q-35 23 -58 34t-50 11q-33 0 -64.5 -25t-46.5 -60l-138 130q31 85 94.5 135.5t143.5 50.5q46 0 81 -15.5t78 -44.5q37 -23 59.5 -34t48.5 -11q34 0 65.5 25t45.5 60l138 -128q-31 -85 -95 -135.5t-144 -50.5q-45 0 -78.5 14.5zM990 0
h-849v1406h849v-299h-514v-250h486v-289h-486v-268h514v-300z" />
    <glyph glyph-name="F" unicode="F" horiz-adv-x="1061" 
d="M476 0h-335v1406h849v-299h-514v-250h486v-289h-486v-568z" />
    <glyph glyph-name="G" unicode="G" horiz-adv-x="1591" 
d="M429 62q-168 94 -262.5 261.5t-94.5 379.5t94.5 379.5t263 261.5t380.5 94q167 0 309 -59.5t242 -168t146 -252.5l-332 -98q-42 124 -140 193.5t-225 69.5q-113 0 -202.5 -52t-139.5 -147.5t-50 -220.5t50 -220t139.5 -147t202.5 -52q150 0 234.5 54t103.5 140h-365v256
h747q0 -249 -83 -420t-244 -258.5t-393 -87.5q-213 0 -381 94z" />
    <glyph glyph-name="Gbreve" unicode="&#x11e;" horiz-adv-x="1591" 
d="M633.5 1589.5q-76.5 45.5 -121.5 124t-45 173.5h187q0 -37 20.5 -67t54.5 -47t72 -17t71.5 17t54 47t20.5 67h189q0 -95 -45 -173.5t-122 -124t-168 -45.5t-167.5 45.5zM429 62q-168 94 -262.5 261.5t-94.5 379.5t94.5 379.5t263 261.5t380.5 94q167 0 309 -59.5
t242 -168t146 -252.5l-332 -98q-42 124 -140 193.5t-225 69.5q-113 0 -202.5 -52t-139.5 -147.5t-50 -220.5t50 -220t139.5 -147t202.5 -52q150 0 234.5 54t103.5 140h-365v256h747q0 -249 -83 -420t-244 -258.5t-393 -87.5q-213 0 -381 94z" />
    <glyph glyph-name="uni0122" unicode="&#x122;" horiz-adv-x="1591" 
d="M429 62q-168 94 -262.5 261.5t-94.5 379.5t94.5 379.5t263 261.5t380.5 94q167 0 309 -59.5t242 -168t146 -252.5l-332 -98q-42 124 -140 193.5t-225 69.5q-113 0 -202.5 -52t-139.5 -147.5t-50 -220.5t50 -220t139.5 -147t202.5 -52q150 0 234.5 54t103.5 140h-365v256
h747q0 -249 -83 -420t-244 -258.5t-393 -87.5q-213 0 -381 94zM839 -462h-173l51 338h265z" />
    <glyph glyph-name="Gcircumflex" unicode="&#x11c;" horiz-adv-x="1591" 
d="M802 1703l-187 -174l-161 77l222 296h252l222 -296l-161 -77zM429 62q-168 94 -262.5 261.5t-94.5 379.5t94.5 379.5t263 261.5t380.5 94q167 0 309 -59.5t242 -168t146 -252.5l-332 -98q-42 124 -140 193.5t-225 69.5q-113 0 -202.5 -52t-139.5 -147.5t-50 -220.5
t50 -220t139.5 -147t202.5 -52q150 0 234.5 54t103.5 140h-365v256h747q0 -249 -83 -420t-244 -258.5t-393 -87.5q-213 0 -381 94z" />
    <glyph glyph-name="Gdotaccent" unicode="&#x120;" horiz-adv-x="1591" 
d="M712 1587.5q-40 20.5 -62 57.5t-22 84t22 84t62 57.5t90 20.5t90 -20.5t62 -57.5t22 -84t-22 -84t-62 -57.5t-90 -20.5t-90 20.5zM429 62q-168 94 -262.5 261.5t-94.5 379.5t94.5 379.5t263 261.5t380.5 94q167 0 309 -59.5t242 -168t146 -252.5l-332 -98
q-42 124 -140 193.5t-225 69.5q-113 0 -202.5 -52t-139.5 -147.5t-50 -220.5t50 -220t139.5 -147t202.5 -52q150 0 234.5 54t103.5 140h-365v256h747q0 -249 -83 -420t-244 -258.5t-393 -87.5q-213 0 -381 94z" />
    <glyph glyph-name="H" unicode="H" horiz-adv-x="1565" 
d="M476 0h-335v1406h335v-539h612v539h336v-1406h-336v568h-612v-568z" />
    <glyph glyph-name="Hbar" unicode="&#x126;" horiz-adv-x="1565" 
d="M476 0h-335v1151h-87v167h87v88h335v-88h612v88h336v-88h87v-167h-87v-1151h-336v568h-612v-568zM476 1151v-284h612v284h-612z" />
    <glyph glyph-name="Hcircumflex" unicode="&#x124;" horiz-adv-x="1565" 
d="M782 1703l-186 -174l-162 77l222 296h252l223 -296l-161 -77zM476 0h-335v1406h335v-539h612v539h336v-1406h-336v568h-612v-568z" />
    <glyph glyph-name="uni1E24" unicode="&#x1e24;" horiz-adv-x="1565" 
d="M476 0h-335v1406h335v-539h612v539h336v-1406h-336v568h-612v-568zM663 -368.5q-47 42.5 -47 109.5q0 44 21.5 79.5t59.5 55t85 19.5q73 0 119.5 -43.5t46.5 -110.5t-46.5 -109.5t-119.5 -42.5q-72 0 -119 42.5z" />
    <glyph glyph-name="I" unicode="I" horiz-adv-x="618" 
d="M476 0h-334v1406h334v-1406z" />
    <glyph glyph-name="Iacute" unicode="&#xcd;" horiz-adv-x="618" 
d="M633 1782l-325 -284l-161 76l287 361zM476 0h-334v1406h334v-1406z" />
    <glyph glyph-name="Ibreve" unicode="&#x12c;" horiz-adv-x="618" 
d="M141.5 1589.5q-76.5 45.5 -121.5 124t-45 173.5h187q0 -37 20.5 -67t54.5 -47t72 -17t71.5 17t54 47t20.5 67h189q0 -95 -45 -173.5t-122 -124t-168 -45.5t-167.5 45.5zM477 0h-334v1406h334v-1406z" />
    <glyph glyph-name="Icircumflex" unicode="&#xce;" horiz-adv-x="618" 
d="M310 1703l-186 -174l-163 77l223 296h252l223 -296l-162 -77zM477 0h-334v1406h334v-1406z" />
    <glyph glyph-name="Idieresis" unicode="&#xcf;" horiz-adv-x="618" 
d="M-7 1612.5q-46 45.5 -46 116.5t46 116.5t117 45.5t117 -45.5t46 -116.5t-46 -116.5t-117 -45.5t-117 45.5zM393 1612.5q-46 45.5 -46 116.5t46 116.5t117 45.5q72 0 117.5 -45.5t45.5 -116.5t-45.5 -116.5t-117.5 -45.5q-71 0 -117 45.5zM477 0h-334v1406h334v-1406z" />
    <glyph glyph-name="Idotaccent" unicode="&#x130;" horiz-adv-x="618" 
d="M219 1587.5q-40 20.5 -62 57.5t-22 84t22 84t62 57.5t90 20.5t90 -20.5t62.5 -57.5t22.5 -84t-22.5 -84t-62.5 -57.5t-90 -20.5t-90 20.5zM476 0h-334v1406h334v-1406z" />
    <glyph glyph-name="Igrave" unicode="&#xcc;" horiz-adv-x="618" 
d="M472 1574l-162 -76l-325 284l199 153zM477 0h-334v1406h334v-1406z" />
    <glyph glyph-name="Imacron" unicode="&#x12a;" horiz-adv-x="618" 
d="M590 1637h-562v185h562v-185zM476 0h-334v1406h334v-1406z" />
    <glyph glyph-name="Iogonek" unicode="&#x12e;" horiz-adv-x="618" 
d="M123 -419q-54 43 -54 112q0 49 18.5 87.5t57.5 78.5l131 141h-134v1406h334v-1406h-28l-124 -184q-17 -27 -17 -52q0 -21 13.5 -33.5t39.5 -12.5q41 0 76 22l50 -163q-43 -19 -96.5 -29t-105.5 -10q-107 0 -161 43z" />
    <glyph glyph-name="Itilde" unicode="&#x128;" horiz-adv-x="618" 
d="M368 1567q-35 15 -79 44q-34 22 -57.5 33t-49.5 11q-33 0 -64.5 -25t-46.5 -60l-139 130q32 85 95.5 135.5t143.5 50.5q46 0 81 -15.5t78 -44.5q37 -23 59.5 -34t48.5 -11q34 0 65.5 25t45.5 60l139 -128q-32 -85 -96 -135.5t-143 -50.5q-46 0 -81 15zM477 0h-334v1406
h334v-1406z" />
    <glyph glyph-name="J" unicode="J" horiz-adv-x="648" 
d="M-52 -162q103 0 164 51t61 161v1356h336v-1380q0 -249 -142 -368.5t-419 -119.5v300z" />
    <glyph glyph-name="Jcircumflex" unicode="&#x134;" horiz-adv-x="648" 
d="M340 1703l-186 -174l-162 77l222 296h252l223 -296l-161 -77zM-52 -162q103 0 164 51t61 161v1356h336v-1380q0 -249 -142 -368.5t-419 -119.5v300z" />
    <glyph glyph-name="K" unicode="K" horiz-adv-x="1286" 
d="M476 0h-335v1406h335v-558l383 558h391l-475 -647l565 -759h-416l-448 620v-620z" />
    <glyph glyph-name="uni0136" unicode="&#x136;" horiz-adv-x="1286" 
d="M476 0h-335v1406h335v-558l383 558h391l-475 -647l565 -759h-416l-448 620v-620zM725 -462h-173l51 338h265z" />
    <glyph glyph-name="uni1E32" unicode="&#x1e32;" horiz-adv-x="1286" 
d="M476 0h-335v1406h335v-558l383 558h391l-475 -647l565 -759h-416l-448 620v-620zM574.5 -368.5q-46.5 42.5 -46.5 109.5t46.5 110.5t119.5 43.5q72 0 118.5 -43.5t46.5 -110.5t-46.5 -109.5t-118.5 -42.5q-73 0 -119.5 42.5z" />
    <glyph glyph-name="L" unicode="L" horiz-adv-x="1002" 
d="M989 0h-848v1406h335v-1106h513v-300z" />
    <glyph glyph-name="Lacute" unicode="&#x139;" horiz-adv-x="1002" 
d="M632 1782l-325 -284l-161 76l288 361zM989 0h-848v1406h335v-1105h513v-301z" />
    <glyph glyph-name="Lcaron" unicode="&#x13d;" horiz-adv-x="1002" 
d="M989 0h-848v1406h335v-1105h513v-301zM827 1068h-174l52 338h264z" />
    <glyph glyph-name="uni013B" unicode="&#x13b;" horiz-adv-x="1002" 
d="M989 0h-848v1406h335v-1105h513v-301zM603 -462h-173l51 338h265z" />
    <glyph glyph-name="uni1E36" unicode="&#x1e36;" horiz-adv-x="1002" 
d="M989 0h-848v1406h335v-1105h513v-301zM445.5 -368.5q-46.5 42.5 -46.5 109.5t46.5 110.5t119.5 43.5t119 -43t46 -111q0 -67 -46 -109.5t-119 -42.5t-119.5 42.5z" />
    <glyph glyph-name="uni1E38" unicode="&#x1e38;" horiz-adv-x="1002" 
d="M630 1637h-608v185h608v-185zM989 0h-848v1406h335v-1105h513v-301zM445.5 -368.5q-46.5 42.5 -46.5 109.5t46.5 110.5t119.5 43.5t119 -43t46 -111q0 -67 -46 -109.5t-119 -42.5t-119.5 42.5z" />
    <glyph glyph-name="uni1E3A" unicode="&#x1e3a;" horiz-adv-x="1002" 
d="M989 0h-848v1406h335v-1105h513v-301zM943 -368h-756v186h756v-186z" />
    <glyph glyph-name="Lmiddledot" unicode="&#x13f;" horiz-adv-x="1002" 
d="M989 0h-848v1406h335v-1105h513v-301zM695.5 598.5q-41.5 40.5 -41.5 104.5t41.5 105t106.5 41t107 -41t42 -105t-42 -104.5t-107 -40.5t-106.5 40.5z" />
    <glyph glyph-name="Lslash" unicode="&#x141;" horiz-adv-x="1002" 
d="M990 0h-848v475l-97 -56l-83 146l180 103l-1 738h336v-545l261 151l83 -146l-344 -198v-367h513v-301z" />
    <glyph glyph-name="M" unicode="M" horiz-adv-x="1946" 
d="M405 0h-336l176 1406h352l376 -955l375 955h353l176 -1406h-336l-98 854l-352 -854h-235l-353 854z" />
    <glyph glyph-name="uni1E40" unicode="&#x1e40;" horiz-adv-x="1946" 
d="M883 1587.5q-40 20.5 -62 57.5t-22 84t22 84t62 57.5t90 20.5t90 -20.5t62.5 -57.5t22.5 -84t-22.5 -84t-62.5 -57.5t-90 -20.5t-90 20.5zM405 0h-336l176 1406h352l376 -955l375 955h353l176 -1406h-336l-98 854l-352 -854h-235l-353 854z" />
    <glyph glyph-name="uni1E42" unicode="&#x1e42;" horiz-adv-x="1946" 
d="M405 0h-336l176 1406h352l376 -955l375 955h353l176 -1406h-336l-98 854l-352 -854h-235l-353 854zM853.5 -368.5q-46.5 42.5 -46.5 109.5q0 68 46.5 111t119.5 43q72 0 118.5 -43.5t46.5 -110.5t-46.5 -109.5t-118.5 -42.5q-73 0 -119.5 42.5z" />
    <glyph glyph-name="N" unicode="N" horiz-adv-x="1603" 
d="M475 0h-334v1406h334l651 -870v870h336v-1406h-336l-651 871v-871z" />
    <glyph glyph-name="Nacute" unicode="&#x143;" horiz-adv-x="1603" 
d="M1125 1782l-325 -284l-162 76l288 361zM475 0h-334v1406h334l651 -870v870h336v-1406h-336l-651 871v-871z" />
    <glyph glyph-name="Ncaron" unicode="&#x147;" horiz-adv-x="1603" 
d="M927 1529h-252l-222 297l162 76l186 -173l187 173l162 -76zM475 0h-334v1406h334l651 -870v870h336v-1406h-336l-651 871v-871z" />
    <glyph glyph-name="uni0145" unicode="&#x145;" horiz-adv-x="1603" 
d="M475 0h-334v1406h334l651 -870v870h336v-1406h-336l-651 871v-871zM839 -462h-173l50 338h266z" />
    <glyph glyph-name="uni1E44" unicode="&#x1e44;" horiz-adv-x="1603" 
d="M711 1587.5q-40 20.5 -62 57.5t-22 84t22 84t62 57.5t90 20.5t90 -20.5t62 -57.5t22 -84t-22 -84t-62 -57.5t-90 -20.5t-90 20.5zM475 0h-334v1406h334l651 -870v870h336v-1406h-336l-651 871v-871z" />
    <glyph glyph-name="uni1E46" unicode="&#x1e46;" horiz-adv-x="1603" 
d="M475 0h-334v1406h334l651 -870v870h336v-1406h-336l-651 871v-871zM681.5 -368.5q-46.5 42.5 -46.5 109.5t46.5 110.5t119.5 43.5q72 0 118.5 -43.5t46.5 -110.5t-46.5 -109.5t-118.5 -42.5q-73 0 -119.5 42.5z" />
    <glyph glyph-name="Eng" unicode="&#x14a;" horiz-adv-x="1603" 
d="M1009 -191q42 0 73.5 16t48 41.5t16.5 55.5v78l-672 871v-871h-334v1406h334l651 -850v850h336v-1536q-1 -126 -52.5 -199t-149.5 -103t-251 -30v271z" />
    <glyph glyph-name="uni1E48" unicode="&#x1e48;" horiz-adv-x="1603" 
d="M475 0h-334v1406h334l651 -870v870h336v-1406h-336l-651 871v-871zM1214 -368h-826v186h826v-186z" />
    <glyph glyph-name="Ntilde" unicode="&#xd1;" horiz-adv-x="1603" 
d="M859.5 1567q-34.5 15 -78.5 44q-35 22 -58.5 33t-49.5 11q-33 0 -64.5 -25t-46.5 -60l-138 130q31 85 94.5 135.5t143.5 50.5q46 0 81 -15.5t78 -44.5q37 -23 59.5 -34t48.5 -11q33 0 64.5 25t46.5 60l139 -128q-32 -85 -95.5 -135.5t-143.5 -50.5q-46 0 -80.5 15zM475 0
h-334v1406h334l651 -870v870h336v-1406h-336l-651 871v-871z" />
    <glyph glyph-name="O" unicode="O" horiz-adv-x="1620" 
d="M429 62q-168 94 -262.5 261.5t-94.5 379.5t94.5 379.5t262.5 261.5t381 94q212 0 380.5 -94t263 -261.5t94.5 -379.5t-94.5 -379.5t-263 -261.5t-380.5 -94q-213 0 -381 94zM1012 343.5q89 52.5 139.5 146.5t50.5 213q0 120 -50.5 214t-139.5 146.5t-202 52.5t-202 -52.5
t-139 -146.5t-50 -214q0 -119 50 -213t139 -146.5t202 -52.5t202 52.5z" />
    <glyph glyph-name="Oacute" unicode="&#xd3;" horiz-adv-x="1620" 
d="M1135 1782l-325 -284l-162 76l288 361zM429 62q-168 94 -262.5 261.5t-94.5 379.5t94.5 379.5t262.5 261.5t381 94q212 0 380.5 -94t263 -261.5t94.5 -379.5t-94.5 -379.5t-263 -261.5t-380.5 -94q-213 0 -381 94zM1012 343.5q89 52.5 139.5 146.5t50.5 213
q0 120 -50.5 214t-139.5 146.5t-202 52.5t-202 -52.5t-139 -146.5t-50 -214q0 -119 50 -213t139 -146.5t202 -52.5t202 52.5z" />
    <glyph glyph-name="Obreve" unicode="&#x14e;" horiz-adv-x="1620" 
d="M642 1589.5q-77 45.5 -122 124t-45 173.5h188q0 -37 20.5 -67t54.5 -47t72 -17t71.5 17t53.5 47t20 67h190q0 -95 -45 -173.5t-122 -124t-168 -45.5t-168 45.5zM429 62q-168 94 -262.5 261.5t-94.5 379.5t94.5 379.5t262.5 261.5t381 94q212 0 380.5 -94t263 -261.5
t94.5 -379.5t-94.5 -379.5t-263 -261.5t-380.5 -94q-213 0 -381 94zM1012 343.5q89 52.5 139.5 146.5t50.5 213q0 120 -50.5 214t-139.5 146.5t-202 52.5t-202 -52.5t-139 -146.5t-50 -214q0 -119 50 -213t139 -146.5t202 -52.5t202 52.5z" />
    <glyph glyph-name="Ocircumflex" unicode="&#xd4;" horiz-adv-x="1620" 
d="M810 1703l-186 -174l-161 77l221 296h252l223 -296l-161 -77zM429 62q-168 94 -262.5 261.5t-94.5 379.5t94.5 379.5t262.5 261.5t381 94q212 0 380.5 -94t263 -261.5t94.5 -379.5t-94.5 -379.5t-263 -261.5t-380.5 -94q-213 0 -381 94zM1012 343.5q89 52.5 139.5 146.5
t50.5 213q0 120 -50.5 214t-139.5 146.5t-202 52.5t-202 -52.5t-139 -146.5t-50 -214q0 -119 50 -213t139 -146.5t202 -52.5t202 52.5z" />
    <glyph glyph-name="Odieresis" unicode="&#xd6;" horiz-adv-x="1620" 
d="M469 1612.5q-46 45.5 -46 116.5t46 116.5t117 45.5q72 0 118 -45.5t46 -116.5t-46 -116.5t-118 -45.5q-71 0 -117 45.5zM917.5 1612.5q-45.5 45.5 -45.5 116.5t45.5 116.5t116.5 45.5q72 0 118 -45.5t46 -116.5t-46 -116.5t-118 -45.5q-71 0 -116.5 45.5zM429 62
q-168 94 -262.5 261.5t-94.5 379.5t94.5 379.5t262.5 261.5t381 94q212 0 380.5 -94t263 -261.5t94.5 -379.5t-94.5 -379.5t-263 -261.5t-380.5 -94q-213 0 -381 94zM1012 343.5q89 52.5 139.5 146.5t50.5 213q0 120 -50.5 214t-139.5 146.5t-202 52.5t-202 -52.5
t-139 -146.5t-50 -214q0 -119 50 -213t139 -146.5t202 -52.5t202 52.5z" />
    <glyph glyph-name="Odoubleacute" unicode="&#x150;" horiz-adv-x="1620" 
d="M936 1772l-324 -285l-135 103l262 334zM1345 1766l-326 -285l-135 103l262 334zM429 62q-168 94 -262.5 261.5t-94.5 379.5t94.5 379.5t262.5 261.5t381 94q212 0 380.5 -94t263 -261.5t94.5 -379.5t-94.5 -379.5t-263 -261.5t-380.5 -94q-213 0 -381 94zM1012 343.5
q89 52.5 139.5 146.5t50.5 213q0 120 -50.5 214t-139.5 146.5t-202 52.5t-202 -52.5t-139 -146.5t-50 -214q0 -119 50 -213t139 -146.5t202 -52.5t202 52.5z" />
    <glyph glyph-name="Ograve" unicode="&#xd2;" horiz-adv-x="1620" 
d="M972 1574l-161 -76l-325 284l199 153zM429 62q-168 94 -262.5 261.5t-94.5 379.5t94.5 379.5t262.5 261.5t381 94q212 0 380.5 -94t263 -261.5t94.5 -379.5t-94.5 -379.5t-263 -261.5t-380.5 -94q-213 0 -381 94zM1012 343.5q89 52.5 139.5 146.5t50.5 213
q0 120 -50.5 214t-139.5 146.5t-202 52.5t-202 -52.5t-139 -146.5t-50 -214q0 -119 50 -213t139 -146.5t202 -52.5t202 52.5z" />
    <glyph glyph-name="Omacron" unicode="&#x14c;" horiz-adv-x="1620" 
d="M1133 1637h-645v185h645v-185zM429 62q-168 94 -262.5 261.5t-94.5 379.5t94.5 379.5t262.5 261.5t381 94q212 0 380.5 -94t263 -261.5t94.5 -379.5t-94.5 -379.5t-263 -261.5t-380.5 -94q-213 0 -381 94zM1012 343.5q89 52.5 139.5 146.5t50.5 213q0 120 -50.5 214
t-139.5 146.5t-202 52.5t-202 -52.5t-139 -146.5t-50 -214q0 -119 50 -213t139 -146.5t202 -52.5t202 52.5z" />
    <glyph glyph-name="Oslash" unicode="&#xd8;" horiz-adv-x="1620" 
d="M357 -32l-132 104l68 91q-106 98 -163.5 237t-57.5 303q0 212 94.5 379.5t262.5 261.5t380 94q213 0 381 -95l72 95l133 -105l-68 -90q105 -98 163 -237t58 -303q0 -212 -94.5 -379.5t-263 -261.5t-381.5 -94q-210 0 -380 95zM983 1078q-76 44 -174 44q-112 0 -201 -54
t-139 -149.5t-50 -215.5q0 -78 24.5 -144.5t70.5 -116.5zM1011.5 337.5q89.5 54.5 140 150t50.5 215.5q0 78 -25 144.5t-70 115.5l-469 -635q78 -45 171 -45q113 0 202.5 54.5z" />
    <glyph glyph-name="Otilde" unicode="&#xd5;" horiz-adv-x="1620" 
d="M871 1566.5q-33 14.5 -81 43.5q-33 22 -57 33.5t-51 11.5q-33 0 -64.5 -25t-46.5 -60l-137 130q31 85 94.5 135.5t143.5 50.5q46 0 81 -15.5t78 -44.5q35 -23 58 -34t49 -11q34 0 65.5 25t46.5 60l138 -128q-32 -85 -95.5 -135.5t-143.5 -50.5q-45 0 -78 14.5zM429 62
q-168 94 -262.5 261.5t-94.5 379.5t94.5 379.5t262.5 261.5t381 94q212 0 380.5 -94t263 -261.5t94.5 -379.5t-94.5 -379.5t-263 -261.5t-380.5 -94q-213 0 -381 94zM1012 343.5q89 52.5 139.5 146.5t50.5 213q0 120 -50.5 214t-139.5 146.5t-202 52.5t-202 -52.5
t-139 -146.5t-50 -214q0 -119 50 -213t139 -146.5t202 -52.5t202 52.5z" />
    <glyph glyph-name="OE" unicode="&#x152;" horiz-adv-x="1976" 
d="M429 62q-168 94 -262.5 261.5t-94.5 379.5t94.5 379.5t262.5 261.5t380 94q124 0 232 -32h849v-299h-513v-250h486v-289h-486v-268h513v-300h-849q-108 -32 -232 -32q-212 0 -380 94zM943 307q55 16 98 54v685q-48 38 -101.5 54t-124.5 16q-111 0 -201.5 -52.5
t-142.5 -147t-52 -213.5q0 -118 52 -212t142.5 -147t201.5 -53q73 0 128 16z" />
    <glyph glyph-name="P" unicode="P" horiz-adv-x="1197" 
d="M141 0v1406h488q243 0 369.5 -116.5t126.5 -330.5q0 -150 -63 -250.5t-174.5 -149t-258.5 -48.5h-153v-511h-335zM623 811q75 0 121.5 37t46.5 111q0 75 -43.5 111.5t-124.5 36.5h-147v-296h147z" />
    <glyph glyph-name="Thorn" unicode="&#xde;" horiz-adv-x="1191" 
d="M141 0v1406h335v-256h153q243 0 369.5 -116.5t126.5 -330.5q0 -150 -63 -250.5t-174.5 -149t-258.5 -48.5h-153v-255h-335zM623 555q75 0 121.5 37t46.5 111q0 147 -168 147h-147v-295h147z" />
    <glyph glyph-name="Q" unicode="Q" horiz-adv-x="1620" 
d="M808 -32q-212 0 -379.5 94.5t-262 261.5t-94.5 379t94.5 379.5t262.5 261.5t380 94q213 0 381 -94t262.5 -261.5t94.5 -379.5t-91.5 -372.5t-250.5 -243.5l469 -264l-147 -275zM1011.5 337.5q89.5 53.5 139.5 149t50 216.5t-50 217t-139.5 149.5t-202.5 53.5
q-112 0 -201 -53.5t-139 -149.5t-50 -217t50 -216.5t139 -149t201 -53.5q113 0 202.5 53.5z" />
    <glyph glyph-name="R" unicode="R" horiz-adv-x="1324" 
d="M141 0v1406h488q244 0 370 -116t126 -331q0 -125 -55 -215t-149 -145l442 -599h-414l-359 512h-114v-512h-335zM623 811q74 0 121 36.5t47 111.5q0 147 -168 147h-147v-295h147z" />
    <glyph glyph-name="Racute" unicode="&#x154;" horiz-adv-x="1324" 
d="M953 1782l-325 -284l-161 76l288 361zM141 0v1406h488q244 0 370 -116t126 -331q0 -125 -55 -215t-149 -145l442 -599h-414l-359 512h-114v-512h-335zM623 811q74 0 121 36.5t47 111.5q0 147 -168 147h-147v-295h147z" />
    <glyph glyph-name="Rcaron" unicode="&#x158;" horiz-adv-x="1324" 
d="M756 1529h-252l-223 297l162 76l187 -173l187 173l161 -76zM141 0v1406h488q244 0 370 -116t126 -331q0 -125 -55 -215t-149 -145l442 -599h-414l-359 512h-114v-512h-335zM623 811q74 0 121 36.5t47 111.5q0 147 -168 147h-147v-295h147z" />
    <glyph glyph-name="uni0156" unicode="&#x156;" horiz-adv-x="1324" 
d="M141 0v1406h488q244 0 370 -116t126 -331q0 -125 -55 -215t-149 -145l442 -599h-414l-359 512h-114v-512h-335zM623 811q74 0 121 36.5t47 111.5q0 147 -168 147h-147v-295h147zM751 -462h-173l51 338h265z" />
    <glyph glyph-name="uni1E58" unicode="&#x1e58;" horiz-adv-x="1324" 
d="M540 1587.5q-40 20.5 -62 57.5t-22 84t22 84t62 57.5t90 20.5t90 -20.5t62 -57.5t22 -84t-22 -84t-62 -57.5t-90 -20.5t-90 20.5zM141 0v1406h488q244 0 370 -116t126 -331q0 -125 -55 -215t-149 -145l442 -599h-414l-359 512h-114v-512h-335zM623 811q74 0 121 36.5
t47 111.5q0 147 -168 147h-147v-295h147z" />
    <glyph glyph-name="uni1E5A" unicode="&#x1e5a;" horiz-adv-x="1324" 
d="M141 0v1406h488q244 0 370 -116t126 -331q0 -125 -55 -215t-149 -145l442 -599h-414l-359 512h-114v-512h-335zM623 811q74 0 121 36.5t47 111.5q0 147 -168 147h-147v-295h147zM600.5 -368.5q-46.5 42.5 -46.5 109.5t46.5 110.5t119.5 43.5t119 -43t46 -111
q0 -67 -46 -109.5t-119 -42.5t-119.5 42.5z" />
    <glyph glyph-name="uni1E5C" unicode="&#x1e5c;" horiz-adv-x="1324" 
d="M952 1637h-646v185h646v-185zM141 0v1406h488q244 0 370 -116t126 -331q0 -125 -55 -215t-149 -145l442 -599h-414l-359 512h-114v-512h-335zM623 811q74 0 121 36.5t47 111.5q0 147 -168 147h-147v-295h147zM600.5 -368.5q-46.5 42.5 -46.5 109.5t46.5 110.5t119.5 43.5
t119 -43t46 -111q0 -67 -46 -109.5t-119 -42.5t-119.5 42.5z" />
    <glyph glyph-name="uni1E5E" unicode="&#x1e5e;" horiz-adv-x="1324" 
d="M141 0v1406h488q244 0 370 -116t126 -331q0 -125 -55 -215t-149 -145l442 -599h-414l-359 512h-114v-512h-335zM623 811q74 0 121 36.5t47 111.5q0 147 -168 147h-147v-295h147zM1100 -368h-756v186h756v-186z" />
    <glyph glyph-name="S" unicode="S" horiz-adv-x="1126" 
d="M229.5 71.5q-129.5 99.5 -163.5 296.5l296 48q20 -88 78 -128t136 -40q47 0 81.5 17t53 45.5t18.5 61.5q0 50 -25.5 85t-84.5 65l-257 139q-116 62 -185.5 152.5t-69.5 222.5q0 112 56.5 202.5t163 143t251.5 52.5q132 0 231 -45.5t157 -129.5t71 -197l-297 -48
q-12 72 -53.5 108t-104.5 36t-98.5 -30.5t-35.5 -75.5q0 -38 24 -64.5t87 -58.5l254 -138q126 -68 191.5 -164.5t65.5 -241.5q0 -119 -57 -212.5t-168 -147t-269 -53.5q-217 0 -346.5 99.5z" />
    <glyph glyph-name="Sacute" unicode="&#x15a;" horiz-adv-x="1126" 
d="M878 1782l-325 -284l-161 76l288 361zM229.5 71.5q-129.5 99.5 -163.5 296.5l296 48q20 -88 78 -128t136 -40q47 0 81.5 17t53 45.5t18.5 61.5q0 50 -25.5 85t-84.5 65l-257 139q-116 62 -185.5 152.5t-69.5 222.5q0 112 56.5 202.5t163 143t251.5 52.5q132 0 231 -45.5
t157 -129.5t71 -197l-297 -48q-12 72 -53.5 108t-104.5 36t-98.5 -30.5t-35.5 -75.5q0 -38 24 -64.5t87 -58.5l254 -138q126 -68 191.5 -164.5t65.5 -241.5q0 -119 -57 -212.5t-168 -147t-269 -53.5q-217 0 -346.5 99.5z" />
    <glyph glyph-name="Scaron" unicode="&#x160;" horiz-adv-x="1126" 
d="M680 1529h-252l-222 297l162 76l186 -173l188 173l161 -76zM229.5 71.5q-129.5 99.5 -163.5 296.5l296 48q20 -88 78 -128t136 -40q47 0 81.5 17t53 45.5t18.5 61.5q0 50 -25.5 85t-84.5 65l-257 139q-116 62 -185.5 152.5t-69.5 222.5q0 112 56.5 202.5t163 143
t251.5 52.5q132 0 231 -45.5t157 -129.5t71 -197l-297 -48q-12 72 -53.5 108t-104.5 36t-98.5 -30.5t-35.5 -75.5q0 -38 24 -64.5t87 -58.5l254 -138q126 -68 191.5 -164.5t65.5 -241.5q0 -119 -57 -212.5t-168 -147t-269 -53.5q-217 0 -346.5 99.5z" />
    <glyph glyph-name="Scedilla" unicode="&#x15e;" horiz-adv-x="1126" 
d="M312 -427l65 150q35 -22 86 -22q43 0 66 18t25 50q0 75 -127 75l57 133q-174 20 -280.5 117.5t-137.5 273.5l296 48q21 -89 79 -128.5t135 -39.5q48 0 82.5 17t52.5 45.5t18 61.5q0 49 -26 84t-84 66l-257 139q-118 62 -186.5 152.5t-68.5 222.5q0 112 56 202.5
t162.5 143t252.5 52.5q137 0 235.5 -47t154.5 -130.5t69 -194.5l-297 -48q-12 72 -53.5 108t-104.5 36t-98.5 -30.5t-35.5 -75.5q0 -37 24.5 -64t86.5 -59l254 -138q127 -67 192 -165t65 -241q0 -107 -47 -195.5t-141.5 -145t-230.5 -68.5l-16 -40q160 -24 160 -181
q0 -72 -39.5 -120.5t-104.5 -72.5t-140 -24q-141 0 -199 35z" />
    <glyph glyph-name="Scircumflex" unicode="&#x15c;" horiz-adv-x="1126" 
d="M574 1703l-186 -174l-162 77l222 296h252l223 -296l-162 -77zM229.5 71.5q-129.5 99.5 -163.5 296.5l296 48q20 -88 78 -128t136 -40q47 0 81.5 17t53 45.5t18.5 61.5q0 50 -25.5 85t-84.5 65l-257 139q-116 62 -185.5 152.5t-69.5 222.5q0 112 56.5 202.5t163 143
t251.5 52.5q132 0 231 -45.5t157 -129.5t71 -197l-297 -48q-12 72 -53.5 108t-104.5 36t-98.5 -30.5t-35.5 -75.5q0 -38 24 -64.5t87 -58.5l254 -138q126 -68 191.5 -164.5t65.5 -241.5q0 -119 -57 -212.5t-168 -147t-269 -53.5q-217 0 -346.5 99.5z" />
    <glyph glyph-name="uni0218" unicode="&#x218;" horiz-adv-x="1126" 
d="M229.5 71.5q-129.5 99.5 -163.5 296.5l296 48q20 -88 78 -128t136 -40q47 0 81.5 17t53 45.5t18.5 61.5q0 50 -25.5 85t-84.5 65l-257 139q-116 62 -185.5 152.5t-69.5 222.5q0 112 56.5 202.5t163 143t251.5 52.5q132 0 231 -45.5t157 -129.5t71 -197l-297 -48
q-12 72 -53.5 108t-104.5 36t-98.5 -30.5t-35.5 -75.5q0 -38 24 -64.5t87 -58.5l254 -138q126 -68 191.5 -164.5t65.5 -241.5q0 -119 -57 -212.5t-168 -147t-269 -53.5q-217 0 -346.5 99.5zM592 -462h-173l51 338h265z" />
    <glyph glyph-name="uni1E62" unicode="&#x1e62;" horiz-adv-x="1126" 
d="M229.5 71.5q-129.5 99.5 -163.5 296.5l296 48q20 -88 78 -128t136 -40q47 0 81.5 17t53 45.5t18.5 61.5q0 50 -25.5 85t-84.5 65l-257 139q-116 62 -185.5 152.5t-69.5 222.5q0 112 56.5 202.5t163 143t251.5 52.5q132 0 231 -45.5t157 -129.5t71 -197l-297 -48
q-12 72 -53.5 108t-104.5 36t-98.5 -30.5t-35.5 -75.5q0 -38 24 -64.5t87 -58.5l254 -138q126 -68 191.5 -164.5t65.5 -241.5q0 -119 -57 -212.5t-168 -147t-269 -53.5q-217 0 -346.5 99.5zM434.5 -368.5q-46.5 42.5 -46.5 109.5t46.5 110.5t119.5 43.5t119 -43t46 -111
q0 -67 -46 -109.5t-119 -42.5t-119.5 42.5z" />
    <glyph glyph-name="uni1E9E" unicode="&#x1e9e;" horiz-adv-x="1387" 
d="M686 -13q-48 4 -107 13v273h227q82 0 135 46.5t53 127.5q0 79 -53.5 125t-142.5 46h-194v225l207 267h-187q-79 0 -122.5 -43t-43.5 -118v-949h-335v951q0 133 60.5 236t174 161t266.5 58h598v-183l-295 -370h39q88 0 171.5 -45t137 -134.5t53.5 -215.5
q0 -151 -69.5 -258.5t-188.5 -162t-266 -54.5q-70 0 -118 4z" />
    <glyph glyph-name="T" unicode="T" horiz-adv-x="1207" 
d="M771 0h-335v1107h-434v299h1203v-299h-434v-1107z" />
    <glyph glyph-name="Tbar" unicode="&#x166;" horiz-adv-x="1207" 
d="M771 0h-335v533h-228v168h228v406h-434v299h1203v-299h-434v-406h227v-168h-227v-533z" />
    <glyph glyph-name="Tcaron" unicode="&#x164;" horiz-adv-x="1207" 
d="M730 1529h-252l-222 297l161 76l187 -173l187 173l161 -76zM771 0h-335v1107h-434v299h1203v-299h-434v-1107z" />
    <glyph glyph-name="uni0162" unicode="&#x162;" horiz-adv-x="1207" 
d="M358 -427l65 150q36 -22 86 -22q43 0 67 18t24 50q0 39 -31.5 57t-95.5 18l67 156h-104v1107h-434v299h1203v-299h-434v-1107h-62l-27 -64q76 -12 117.5 -57t41.5 -124q0 -71 -39.5 -120t-104 -73t-141.5 -24q-137 0 -198 35z" />
    <glyph glyph-name="uni021A" unicode="&#x21a;" horiz-adv-x="1207" 
d="M771 0h-335v1107h-434v299h1203v-299h-434v-1107zM627 -462h-173l52 338h264z" />
    <glyph glyph-name="uni1E6C" unicode="&#x1e6c;" horiz-adv-x="1207" 
d="M771 0h-335v1107h-434v299h1203v-299h-434v-1107zM484.5 -368.5q-46.5 42.5 -46.5 109.5q0 68 46.5 111t119.5 43q72 0 118 -43t46 -111q0 -67 -46 -109.5t-118 -42.5q-73 0 -119.5 42.5z" />
    <glyph glyph-name="U" unicode="U" horiz-adv-x="1514" 
d="M420.5 40.5q-140.5 72.5 -213 201t-72.5 295.5v869h334v-873q0 -77 34 -137t99 -93.5t155 -33.5q89 0 153.5 33.5t99 93.5t34.5 137v873h335v-869q0 -167 -72.5 -295.5t-213 -201t-336.5 -72.5t-336.5 72.5z" />
    <glyph glyph-name="Uacute" unicode="&#xda;" horiz-adv-x="1514" 
d="M1081 1782l-325 -284l-162 76l288 361zM420.5 40.5q-140.5 72.5 -213 201t-72.5 295.5v869h334v-873q0 -77 34 -137t99 -93.5t155 -33.5q89 0 153.5 33.5t99 93.5t34.5 137v873h335v-869q0 -167 -72.5 -295.5t-213 -201t-336.5 -72.5t-336.5 72.5z" />
    <glyph glyph-name="Ubreve" unicode="&#x16c;" horiz-adv-x="1514" 
d="M588.5 1589.5q-76.5 45.5 -121 124t-44.5 173.5h186q0 -37 20.5 -67t54.5 -47t72 -17t72 17t54.5 47t20.5 67h188q0 -95 -45 -173.5t-121.5 -124t-168.5 -45.5q-91 0 -167.5 45.5zM420.5 40.5q-140.5 72.5 -213 201t-72.5 295.5v869h334v-873q0 -77 34 -137t99 -93.5
t155 -33.5q89 0 153.5 33.5t99 93.5t34.5 137v873h335v-869q0 -167 -72.5 -295.5t-213 -201t-336.5 -72.5t-336.5 72.5z" />
    <glyph glyph-name="Ucircumflex" unicode="&#xdb;" horiz-adv-x="1514" 
d="M757 1703l-186 -174l-162 77l222 296h252l223 -296l-162 -77zM420.5 40.5q-140.5 72.5 -213 201t-72.5 295.5v869h334v-873q0 -77 34 -137t99 -93.5t155 -33.5q89 0 153.5 33.5t99 93.5t34.5 137v873h335v-869q0 -167 -72.5 -295.5t-213 -201t-336.5 -72.5t-336.5 72.5z
" />
    <glyph glyph-name="Udieresis" unicode="&#xdc;" horiz-adv-x="1514" 
d="M415.5 1612.5q-45.5 45.5 -45.5 116.5t45.5 116.5t116.5 45.5q72 0 118 -45.5t46 -116.5t-46 -116.5t-118 -45.5q-71 0 -116.5 45.5zM865 1612.5q-46 45.5 -46 116.5t46 116.5t117 45.5q72 0 117 -45.5t45 -116.5t-45 -116.5t-117 -45.5q-71 0 -117 45.5zM420.5 40.5
q-140.5 72.5 -213 201t-72.5 295.5v869h334v-873q0 -77 34 -137t99 -93.5t155 -33.5q89 0 153.5 33.5t99 93.5t34.5 137v873h335v-869q0 -167 -72.5 -295.5t-213 -201t-336.5 -72.5t-336.5 72.5z" />
    <glyph glyph-name="Udoubleacute" unicode="&#x170;" horiz-adv-x="1514" 
d="M874 1772l-325 -285l-135 103l261 334zM1282 1766l-326 -285l-135 103l262 334zM420.5 40.5q-140.5 72.5 -213 201t-72.5 295.5v869h334v-873q0 -77 34 -137t99 -93.5t155 -33.5q89 0 153.5 33.5t99 93.5t34.5 137v873h335v-869q0 -167 -72.5 -295.5t-213 -201
t-336.5 -72.5t-336.5 72.5z" />
    <glyph glyph-name="Ugrave" unicode="&#xd9;" horiz-adv-x="1514" 
d="M919 1574l-162 -76l-325 284l199 153zM420.5 40.5q-140.5 72.5 -213 201t-72.5 295.5v869h334v-873q0 -77 34 -137t99 -93.5t155 -33.5q89 0 153.5 33.5t99 93.5t34.5 137v873h335v-869q0 -167 -72.5 -295.5t-213 -201t-336.5 -72.5t-336.5 72.5z" />
    <glyph glyph-name="Umacron" unicode="&#x16a;" horiz-adv-x="1514" 
d="M1080 1637h-646v185h646v-185zM420.5 40.5q-140.5 72.5 -213 201t-72.5 295.5v869h334v-873q0 -77 34 -137t99 -93.5t155 -33.5q89 0 153.5 33.5t99 93.5t34.5 137v873h335v-869q0 -167 -72.5 -295.5t-213 -201t-336.5 -72.5t-336.5 72.5z" />
    <glyph glyph-name="Uogonek" unicode="&#x172;" horiz-adv-x="1514" 
d="M791 -419q-54 43 -54 112q0 50 19 88.5t58 75.5l125 132q-82 -21 -182 -21q-196 0 -336.5 72.5t-213 201t-72.5 295.5v869h334v-873q0 -77 34 -136.5t99 -93.5t155 -34q91 0 155.5 34.5t98 94t33.5 135.5v873h335v-869q0 -116 -38 -213t-110 -169l-238 -341
q-19 -24 -19 -50q0 -21 14 -33.5t40 -12.5q40 0 75 22l52 -163q-43 -19 -97.5 -29t-106.5 -10q-106 0 -160 43z" />
    <glyph glyph-name="Uring" unicode="&#x16e;" horiz-adv-x="1514" 
d="M650 1537q-49 27 -77.5 75t-28.5 107t28 106.5t77 74.5t108 27t107.5 -27t76.5 -74.5t28 -106.5t-28 -107t-76.5 -75t-107.5 -27q-58 0 -107 27zM813 1662.5q23 23.5 23 56.5q0 34 -23 57t-56 23q-32 0 -55.5 -23t-23.5 -57q0 -33 23.5 -56.5t55.5 -23.5q33 0 56 23.5z
M420.5 40.5q-140.5 72.5 -213 201t-72.5 295.5v869h334v-873q0 -77 34 -137t99 -93.5t155 -33.5q89 0 153.5 33.5t99 93.5t34.5 137v873h335v-869q0 -167 -72.5 -295.5t-213 -201t-336.5 -72.5t-336.5 72.5z" />
    <glyph glyph-name="Utilde" unicode="&#x168;" horiz-adv-x="1514" 
d="M815.5 1567q-34.5 15 -78.5 44q-35 22 -58.5 33t-49.5 11q-34 0 -65 -25t-45 -60l-139 130q31 84 95 135t143 51q46 0 81 -15.5t78 -44.5q37 -23 59.5 -34t48.5 -11q33 0 64.5 25t46.5 60l139 -128q-31 -85 -95 -135.5t-144 -50.5q-46 0 -80.5 15zM420.5 40.5
q-140.5 72.5 -213 201t-72.5 295.5v869h334v-873q0 -77 34 -137t99 -93.5t155 -33.5q89 0 153.5 33.5t99 93.5t34.5 137v873h335v-869q0 -167 -72.5 -295.5t-213 -201t-336.5 -72.5t-336.5 72.5z" />
    <glyph glyph-name="V" unicode="V" horiz-adv-x="1395" 
d="M878 0h-362l-539 1406h363l357 -1009l357 1009h363z" />
    <glyph glyph-name="W" unicode="W" horiz-adv-x="2115" 
d="M867 0h-386l-497 1406h361l355 -1027l211 595l-129 432h349l290 -1006l349 1006h361l-497 -1406h-386l-190 534z" />
    <glyph glyph-name="Wacute" unicode="&#x1e82;" horiz-adv-x="2115" 
d="M1382 1782l-325 -284l-162 76l289 361zM867 0h-386l-497 1406h361l355 -1027l211 595l-129 432h349l290 -1006l349 1006h361l-497 -1406h-386l-190 534z" />
    <glyph glyph-name="Wcircumflex" unicode="&#x174;" horiz-adv-x="2115" 
d="M1057 1703l-185 -174l-162 77l221 296h252l224 -296l-162 -77zM867 0h-386l-497 1406h361l355 -1027l211 595l-129 432h349l290 -1006l349 1006h361l-497 -1406h-386l-190 534z" />
    <glyph glyph-name="Wdieresis" unicode="&#x1e84;" horiz-adv-x="2115" 
d="M716 1612.5q-46 45.5 -46 116.5t46 116.5t117 45.5q72 0 118 -45.5t46 -116.5t-46 -116.5t-118 -45.5q-71 0 -117 45.5zM1165.5 1612.5q-45.5 45.5 -45.5 116.5t45.5 116.5t116.5 45.5q72 0 117.5 -45.5t45.5 -116.5t-45.5 -116.5t-117.5 -45.5q-71 0 -116.5 45.5zM867 0
h-386l-497 1406h361l355 -1027l211 595l-129 432h349l290 -1006l349 1006h361l-497 -1406h-386l-190 534z" />
    <glyph glyph-name="uni1E88" unicode="&#x1e88;" horiz-adv-x="2115" 
d="M867 0h-386l-497 1406h361l355 -1027l211 595l-129 432h349l290 -1006l349 1006h361l-497 -1406h-386l-190 534zM938.5 -368.5q-46.5 42.5 -46.5 109.5t46.5 110.5t118.5 43.5q73 0 119.5 -43.5t46.5 -110.5t-46.5 -109.5t-119.5 -42.5q-72 0 -118.5 42.5z" />
    <glyph glyph-name="Wgrave" unicode="&#x1e80;" horiz-adv-x="2115" 
d="M1220 1574l-161 -76l-326 284l199 153zM867 0h-386l-497 1406h361l355 -1027l211 595l-129 432h349l290 -1006l349 1006h361l-497 -1406h-386l-190 534z" />
    <glyph glyph-name="X" unicode="X" horiz-adv-x="1352" 
d="M676 485l-283 -485h-395l452 752l-404 654h389l241 -409l240 409h390l-404 -654l451 -752h-395z" />
    <glyph glyph-name="Y" unicode="Y" horiz-adv-x="1189" 
d="M762 0h-335v548l-474 858h389l253 -527l252 527h389l-474 -858v-548z" />
    <glyph glyph-name="Yacute" unicode="&#xdd;" horiz-adv-x="1189" 
d="M919 1782l-325 -284l-161 76l287 361zM762 0h-335v548l-474 858h389l253 -527l252 527h389l-474 -858v-548z" />
    <glyph glyph-name="Ycircumflex" unicode="&#x176;" horiz-adv-x="1189" 
d="M595 1703l-186 -174l-163 77l223 296h252l223 -296l-162 -77zM762 0h-335v548l-474 858h389l253 -527l252 527h389l-474 -858v-548z" />
    <glyph glyph-name="Ydieresis" unicode="&#x178;" horiz-adv-x="1189" 
d="M254 1612.5q-46 45.5 -46 116.5t46 116.5t117 45.5t116.5 -45.5t45.5 -116.5t-45.5 -116.5t-116.5 -45.5t-117 45.5zM702.5 1612.5q-45.5 45.5 -45.5 116.5t45.5 116.5t116.5 45.5q72 0 118 -45.5t46 -116.5t-46 -116.5t-118 -45.5q-71 0 -116.5 45.5zM762 0h-335v548
l-474 858h389l253 -527l252 527h389l-474 -858v-548z" />
    <glyph glyph-name="uni1EF4" unicode="&#x1ef4;" horiz-adv-x="1189" 
d="M762 0h-335v548l-474 858h389l253 -527l252 527h389l-474 -858v-548zM475 -368.5q-47 42.5 -47 109.5q0 44 21.5 79.5t59.5 55t86 19.5q72 0 118.5 -43.5t46.5 -110.5t-46.5 -109.5t-118.5 -42.5q-73 0 -120 42.5z" />
    <glyph glyph-name="Ygrave" unicode="&#x1ef2;" horiz-adv-x="1189" 
d="M757 1574l-162 -76l-325 284l199 153zM762 0h-335v548l-474 858h389l253 -527l252 527h389l-474 -858v-548z" />
    <glyph glyph-name="uni0232" unicode="&#x232;" horiz-adv-x="1189" 
d="M918 1637h-647v185h647v-185zM762 0h-335v548l-474 858h389l253 -527l252 527h389l-474 -858v-548z" />
    <glyph glyph-name="Z" unicode="Z" horiz-adv-x="1147" 
d="M1098 0h-1019v196l542 911h-513v299h944v-195l-542 -910h588v-301z" />
    <glyph glyph-name="Zacute" unicode="&#x179;" horiz-adv-x="1147" 
d="M913 1782l-325 -284l-162 76l288 361zM1098 0h-1019v196l542 911h-513v299h944v-195l-542 -910h588v-301z" />
    <glyph glyph-name="Zcaron" unicode="&#x17d;" horiz-adv-x="1147" 
d="M715 1529h-252l-222 297l162 76l186 -173l187 173l162 -76zM1098 0h-1019v196l542 911h-513v299h944v-195l-542 -910h588v-301z" />
    <glyph glyph-name="Zdotaccent" unicode="&#x17b;" horiz-adv-x="1147" 
d="M499 1587.5q-40 20.5 -62 57.5t-22 84t22 84t62 57.5t90 20.5t90 -20.5t62 -57.5t22 -84t-22 -84t-62 -57.5t-90 -20.5t-90 20.5zM1098 0h-1019v196l542 911h-513v299h944v-195l-542 -910h588v-301z" />
    <glyph glyph-name="uni1E92" unicode="&#x1e92;" horiz-adv-x="1147" 
d="M1098 0h-1019v196l542 911h-513v299h944v-195l-542 -910h588v-301zM469.5 -368.5q-46.5 42.5 -46.5 109.5t46.5 110.5t119.5 43.5q72 0 118.5 -43.5t46.5 -110.5t-46.5 -109.5t-118.5 -42.5q-73 0 -119.5 42.5z" />
    <glyph glyph-name="J.ss01" horiz-adv-x="1167" 
d="M284 25q-107 57 -166.5 155t-68.5 221l327 26q6 -74 46.5 -116t109.5 -42q78 0 119 48t41 141v948h336v-936q0 -250 -130.5 -376t-361.5 -126q-145 0 -252 57z" />
    <glyph glyph-name="Jcircumflex.ss01" horiz-adv-x="1167" 
d="M857 1703l-187 -174l-162 77l223 296h252l222 -296l-161 -77zM284 25q-107 57 -166.5 155t-68.5 221l327 26q6 -74 46.5 -116t109.5 -42q78 0 119 48t41 141v948h336v-936q0 -250 -130.5 -376t-361.5 -126q-145 0 -252 57z" />
    <glyph glyph-name="W.ss02" horiz-adv-x="2059" 
d="M761 0h-358l-419 1406h364l258 -947l285 947h276l287 -947l257 947h363l-417 -1406h-358l-269 847z" />
    <glyph glyph-name="Wacute.ss02" horiz-adv-x="2059" 
d="M1353 1782l-325 -284l-162 76l289 361zM761 0h-358l-419 1406h364l258 -947l285 947h276l287 -947l257 947h363l-417 -1406h-358l-269 847z" />
    <glyph glyph-name="Wcircumflex.ss02" horiz-adv-x="2059" 
d="M1030 1703l-187 -174l-162 77l223 296h252l222 -296l-162 -77zM761 0h-358l-419 1406h364l258 -947l285 947h276l287 -947l257 947h363l-417 -1406h-358l-269 847z" />
    <glyph glyph-name="Wdieresis.ss02" horiz-adv-x="2059" 
d="M688.5 1612.5q-45.5 45.5 -45.5 116.5t45.5 116.5t116.5 45.5t117 -45.5t46 -116.5t-46 -116.5t-117 -45.5t-116.5 45.5zM1137 1612.5q-46 45.5 -46 116.5t46 116.5t117 45.5q72 0 117.5 -45.5t45.5 -116.5t-45.5 -116.5t-117.5 -45.5q-71 0 -117 45.5zM761 0h-358
l-419 1406h364l258 -947l285 947h276l287 -947l257 947h363l-417 -1406h-358l-269 847z" />
    <glyph glyph-name="uni1E88.ss02" horiz-adv-x="2059" 
d="M761 0h-358l-419 1406h364l258 -947l285 947h276l287 -947l257 947h363l-417 -1406h-358l-269 847zM910 -368.5q-47 42.5 -47 109.5q0 44 21.5 79.5t59.5 55t86 19.5q47 0 84.5 -19.5t59 -55t21.5 -79.5t-21.5 -78.5t-59 -54t-84.5 -19.5q-73 0 -120 42.5z" />
    <glyph glyph-name="Wgrave.ss02" horiz-adv-x="2059" 
d="M1192 1574l-162 -76l-325 284l199 153zM761 0h-358l-419 1406h364l258 -947l285 947h276l287 -947l257 947h363l-417 -1406h-358l-269 847z" />
    <glyph glyph-name="a" unicode="a" horiz-adv-x="1120" 
d="M218 2.5q-70 34.5 -106.5 96.5t-36.5 143q0 119 75.5 202t209.5 125l310 94v39q0 60 -34 96.5t-98 36.5q-52 0 -89.5 -38.5t-45.5 -105.5l-299 48q19 112 80 196.5t154 131t205 46.5q225 0 336.5 -108.5t111.5 -302.5v-702h-287v92h-11q-58 -62 -132.5 -93t-174.5 -31
q-98 0 -168 34.5zM576 261q42 23 68.5 59.5t26.5 73.5v62l-183 -53q-46 -12 -69.5 -36.5t-23.5 -60.5q0 -31 24 -49.5t70 -18.5q45 0 87 23z" />
    <glyph glyph-name="aacute" unicode="&#xe1;" horiz-adv-x="1120" 
d="M887 1477l-325 -284l-161 76l287 361zM218 2.5q-70 34.5 -106.5 96.5t-36.5 143q0 119 75.5 202t209.5 125l310 94v39q0 60 -34 96.5t-98 36.5q-52 0 -89.5 -38.5t-45.5 -105.5l-299 48q19 112 80 196.5t154 131t205 46.5q225 0 336.5 -108.5t111.5 -302.5v-702h-287v92
h-11q-58 -62 -132.5 -93t-174.5 -31q-98 0 -168 34.5zM576 261q42 23 68.5 59.5t26.5 73.5v62l-183 -53q-46 -12 -69.5 -36.5t-23.5 -60.5q0 -31 24 -49.5t70 -18.5q45 0 87 23z" />
    <glyph glyph-name="abreve" unicode="&#x103;" horiz-adv-x="1120" 
d="M394.5 1242.5q-76.5 45.5 -121.5 124t-45 173.5h187q0 -37 20.5 -67t54.5 -47t72 -17t71.5 17t54 47t20.5 67h189q0 -95 -45 -173.5t-122 -124t-168 -45.5t-167.5 45.5zM218 2.5q-70 34.5 -106.5 96.5t-36.5 143q0 119 75.5 202t209.5 125l310 94v39q0 60 -34 96.5
t-98 36.5q-52 0 -89.5 -38.5t-45.5 -105.5l-299 48q19 112 80 196.5t154 131t205 46.5q225 0 336.5 -108.5t111.5 -302.5v-702h-287v92h-11q-58 -62 -132.5 -93t-174.5 -31q-98 0 -168 34.5zM576 261q42 23 68.5 59.5t26.5 73.5v62l-183 -53q-46 -12 -69.5 -36.5
t-23.5 -60.5q0 -31 24 -49.5t70 -18.5q45 0 87 23z" />
    <glyph glyph-name="acircumflex" unicode="&#xe2;" horiz-adv-x="1120" 
d="M563 1356l-186 -174l-162 77l222 296h252l223 -296l-162 -77zM218 2.5q-70 34.5 -106.5 96.5t-36.5 143q0 119 75.5 202t209.5 125l310 94v39q0 60 -34 96.5t-98 36.5q-52 0 -89.5 -38.5t-45.5 -105.5l-299 48q19 112 80 196.5t154 131t205 46.5q225 0 336.5 -108.5
t111.5 -302.5v-702h-287v92h-11q-58 -62 -132.5 -93t-174.5 -31q-98 0 -168 34.5zM576 261q42 23 68.5 59.5t26.5 73.5v62l-183 -53q-46 -12 -69.5 -36.5t-23.5 -60.5q0 -31 24 -49.5t70 -18.5q45 0 87 23z" />
    <glyph glyph-name="adieresis" unicode="&#xe4;" horiz-adv-x="1120" 
d="M222 1265.5q-46 45.5 -46 116.5t46 116.5t117 45.5t117 -45.5t46 -116.5t-46 -116.5t-117 -45.5t-117 45.5zM670.5 1265.5q-45.5 45.5 -45.5 116.5t45.5 116.5t116.5 45.5q72 0 118 -45.5t46 -116.5t-46 -116.5t-118 -45.5q-71 0 -116.5 45.5zM218 2.5
q-70 34.5 -106.5 96.5t-36.5 143q0 119 75.5 202t209.5 125l310 94v39q0 60 -34 96.5t-98 36.5q-52 0 -89.5 -38.5t-45.5 -105.5l-299 48q19 112 80 196.5t154 131t205 46.5q225 0 336.5 -108.5t111.5 -302.5v-702h-287v92h-11q-58 -62 -132.5 -93t-174.5 -31
q-98 0 -168 34.5zM576 261q42 23 68.5 59.5t26.5 73.5v62l-183 -53q-46 -12 -69.5 -36.5t-23.5 -60.5q0 -31 24 -49.5t70 -18.5q45 0 87 23z" />
    <glyph glyph-name="agrave" unicode="&#xe0;" horiz-adv-x="1120" 
d="M725 1269l-162 -76l-325 284l199 153zM218 2.5q-70 34.5 -106.5 96.5t-36.5 143q0 119 75.5 202t209.5 125l310 94v39q0 60 -34 96.5t-98 36.5q-52 0 -89.5 -38.5t-45.5 -105.5l-299 48q19 112 80 196.5t154 131t205 46.5q225 0 336.5 -108.5t111.5 -302.5v-702h-287v92
h-11q-58 -62 -132.5 -93t-174.5 -31q-98 0 -168 34.5zM576 261q42 23 68.5 59.5t26.5 73.5v62l-183 -53q-46 -12 -69.5 -36.5t-23.5 -60.5q0 -31 24 -49.5t70 -18.5q45 0 87 23z" />
    <glyph glyph-name="amacron" unicode="&#x101;" horiz-adv-x="1120" 
d="M886 1290h-646v185h646v-185zM218 2.5q-70 34.5 -106.5 96.5t-36.5 143q0 119 75.5 202t209.5 125l310 94v39q0 60 -34 96.5t-98 36.5q-52 0 -89.5 -38.5t-45.5 -105.5l-299 48q19 112 80 196.5t154 131t205 46.5q225 0 336.5 -108.5t111.5 -302.5v-702h-287v92h-11
q-58 -62 -132.5 -93t-174.5 -31q-98 0 -168 34.5zM576 261q42 23 68.5 59.5t26.5 73.5v62l-183 -53q-46 -12 -69.5 -36.5t-23.5 -60.5q0 -31 24 -49.5t70 -18.5q45 0 87 23z" />
    <glyph glyph-name="aogonek" unicode="&#x105;" horiz-adv-x="1120" 
d="M635 -418.5q-54 43.5 -54 111.5q0 48 18.5 87t58.5 79l130 141h-84v92h-11q-114 -124 -307 -124q-99 0 -169 35t-106 97t-36 142q0 117 74.5 200.5t210.5 126.5l310 94v39q0 59 -33.5 96t-98.5 37q-50 0 -88 -37.5t-47 -106.5l-299 48q21 112 80.5 196.5t151.5 131
t207 46.5q227 0 337.5 -109t110.5 -302v-702h-30l-124 -184q-19 -27 -19 -52q0 -20 14 -33t40 -13q44 0 76 22l51 -163q-45 -19 -98.5 -29t-105.5 -10q-106 0 -160 43.5zM576.5 261q42.5 23 68.5 59.5t26 73.5v62l-183 -53q-93 -25 -93 -97q0 -30 23.5 -49t70.5 -19
q45 0 87.5 23z" />
    <glyph glyph-name="aring" unicode="&#xe5;" horiz-adv-x="1120" 
d="M456 1190q-49 27 -77.5 75t-28.5 107t28 106.5t77 74.5t108 27t107.5 -27t76.5 -74.5t28 -106.5t-28 -107t-76.5 -75t-107.5 -27q-58 0 -107 27zM619 1315.5q23 23.5 23 56.5q0 34 -23 57t-56 23q-32 0 -55.5 -23t-23.5 -57q0 -33 23.5 -56.5t55.5 -23.5q33 0 56 23.5z
M218 2.5q-70 34.5 -106.5 96.5t-36.5 143q0 119 75.5 202t209.5 125l310 94v39q0 60 -34 96.5t-98 36.5q-52 0 -89.5 -38.5t-45.5 -105.5l-299 48q19 112 80 196.5t154 131t205 46.5q225 0 336.5 -108.5t111.5 -302.5v-702h-287v92h-11q-58 -62 -132.5 -93t-174.5 -31
q-98 0 -168 34.5zM576 261q42 23 68.5 59.5t26.5 73.5v62l-183 -53q-46 -12 -69.5 -36.5t-23.5 -60.5q0 -31 24 -49.5t70 -18.5q45 0 87 23z" />
    <glyph glyph-name="atilde" unicode="&#xe3;" horiz-adv-x="1120" 
d="M621.5 1220q-34.5 15 -78.5 44q-35 22 -58.5 33t-49.5 11q-33 0 -64.5 -25t-46.5 -60l-138 130q31 85 94.5 135.5t143.5 50.5q46 0 81 -15.5t78 -44.5q37 -23 59.5 -34t48.5 -11q34 0 65.5 25t45.5 60l139 -128q-32 -85 -95.5 -135.5t-143.5 -50.5q-46 0 -80.5 15z
M218 2.5q-70 34.5 -106.5 96.5t-36.5 143q0 119 75.5 202t209.5 125l310 94v39q0 60 -34 96.5t-98 36.5q-52 0 -89.5 -38.5t-45.5 -105.5l-299 48q19 112 80 196.5t154 131t205 46.5q225 0 336.5 -108.5t111.5 -302.5v-702h-287v92h-11q-58 -62 -132.5 -93t-174.5 -31
q-98 0 -168 34.5zM576 261q42 23 68.5 59.5t26.5 73.5v62l-183 -53q-46 -12 -69.5 -36.5t-23.5 -60.5q0 -31 24 -49.5t70 -18.5q45 0 87 23z" />
    <glyph glyph-name="ae" unicode="&#xe6;" horiz-adv-x="1850" 
d="M218.5 2.5q-70.5 34.5 -107 96.5t-36.5 143q0 119 75.5 202t209.5 125l311 94v39q0 60 -34.5 96t-98.5 36q-53 0 -91 -39t-44 -104l-299 48q20 112 82 196.5t155.5 131t204.5 46.5q226 0 336 -136q69 68 157.5 102t188.5 34q150 0 277 -65.5t203.5 -193.5t77.5 -306
q0 -22 -2 -55t-5 -46l-787 1v-59q25 -71 89.5 -112.5t149.5 -41.5q80 0 140 36t91 96l275 -120q-42 -86 -118 -149t-170 -96.5t-190 -33.5q-111 0 -203.5 31t-157 83.5t-97.5 115.5q-65 -110 -163 -170t-251 -60q-98 0 -168.5 34.5zM1469 647q-6 61 -40.5 108t-87.5 73
t-114 26q-79 0 -144 -43.5t-91 -116.5v-47h477zM576.5 261q42.5 23 69 59.5t26.5 73.5v61l-183 -52q-47 -13 -70.5 -37.5t-23.5 -59.5q0 -31 24 -49.5t70 -18.5q45 0 87.5 23z" />
    <glyph glyph-name="b" unicode="b" horiz-adv-x="1359" 
d="M570 1q-78 33 -130 91h-11v-92h-288v1522h315v-520q53 52 126.5 81.5t163.5 29.5q152 0 277 -73.5t197 -204.5t72 -295t-72 -294.5t-197 -204t-277 -73.5q-98 0 -176 33zM847.5 291.5q60.5 34.5 95 98.5t34.5 150t-34.5 150.5t-95 99t-136.5 34.5t-136.5 -34.5t-95 -99
t-34.5 -150.5t34.5 -150t95 -98.5t136.5 -34.5t136.5 34.5z" />
    <glyph glyph-name="c" unicode="c" horiz-adv-x="1215" 
d="M349.5 41q-132.5 73 -207.5 203.5t-75 295.5q0 166 75 296.5t207.5 203.5t298.5 73q129 0 241 -46.5t191.5 -131.5t114.5 -197l-299 -97q-29 86 -95.5 132.5t-152.5 46.5q-73 0 -134 -35t-97 -98.5t-36 -146.5q0 -82 36 -145.5t97 -98.5t134 -35q86 0 153 46.5t95 133.5
l299 -98q-35 -112 -114.5 -197t-191.5 -131.5t-241 -46.5q-166 0 -298.5 73z" />
    <glyph glyph-name="cacute" unicode="&#x107;" horiz-adv-x="1215" 
d="M977 1477l-325 -284l-161 76l288 361zM349 41q-133 73 -208 203.5t-75 295.5q0 166 75 296.5t208 203.5t299 73q129 0 241 -46.5t191.5 -131.5t114.5 -197l-299 -97q-29 86 -95.5 132.5t-152.5 46.5q-73 0 -134 -35t-97 -98.5t-36 -146.5q0 -82 36 -145.5t97 -98.5
t134 -35q86 0 152.5 46.5t95.5 133.5l299 -98q-35 -112 -114.5 -197t-191.5 -131.5t-241 -46.5q-166 0 -299 73z" />
    <glyph glyph-name="ccaron" unicode="&#x10d;" horiz-adv-x="1215" 
d="M773 1182h-252l-222 297l161 76l187 -173l187 173l161 -76zM349 41q-133 73 -208 203.5t-75 295.5q0 166 75 296.5t208 203.5t299 73q129 0 241 -46.5t191.5 -131.5t114.5 -197l-299 -97q-29 86 -95.5 132.5t-152.5 46.5q-73 0 -134 -35t-97 -98.5t-36 -146.5
q0 -82 36 -145.5t97 -98.5t134 -35q86 0 152.5 46.5t95.5 133.5l299 -98q-35 -112 -114.5 -197t-191.5 -131.5t-241 -46.5q-166 0 -299 73z" />
    <glyph glyph-name="ccedilla" unicode="&#xe7;" horiz-adv-x="1215" 
d="M467 -453.5q-48 8.5 -78 26.5l65 150q34 -22 90 -22q41 0 63.5 18t24.5 50q0 75 -127 75l55 129q-146 19 -258.5 96.5t-174 199.5t-61.5 271q0 168 75.5 298t208 202.5t298.5 72.5q129 0 240 -46t190.5 -130.5t116.5 -198.5l-299 -97q-31 89 -97.5 134t-150.5 45
q-73 0 -134 -34.5t-97 -98t-36 -147.5q0 -83 36.5 -146.5t97.5 -98t133 -34.5q84 0 150.5 45.5t97.5 134.5l299 -98q-34 -105 -103.5 -184t-163 -126.5t-201.5 -59.5l-14 -37q160 -24 160 -181q0 -70 -38 -119t-103 -73.5t-145 -24.5q-72 0 -120 8.5z" />
    <glyph glyph-name="ccircumflex" unicode="&#x109;" horiz-adv-x="1215" 
d="M653 1356l-187 -174l-161 77l222 296h252l222 -296l-160 -77zM349 41q-133 73 -208 203.5t-75 295.5q0 166 75 296.5t208 203.5t299 73q129 0 241 -46.5t191.5 -131.5t114.5 -197l-299 -97q-29 86 -95.5 132.5t-152.5 46.5q-73 0 -134 -35t-97 -98.5t-36 -146.5
q0 -82 36 -145.5t97 -98.5t134 -35q86 0 152.5 46.5t95.5 133.5l299 -98q-35 -112 -114.5 -197t-191.5 -131.5t-241 -46.5q-166 0 -299 73z" />
    <glyph glyph-name="cdotaccent" unicode="&#x10b;" horiz-adv-x="1215" 
d="M563 1240.5q-40 20.5 -62 57.5t-22 84t22 84t62 57.5t90 20.5q51 0 91 -20.5t62 -57.5t22 -84t-22 -84t-62 -57.5t-91 -20.5q-50 0 -90 20.5zM349 41q-133 73 -208 203.5t-75 295.5q0 166 75 296.5t208 203.5t299 73q129 0 241 -46.5t191.5 -131.5t114.5 -197l-299 -97
q-29 86 -95.5 132.5t-152.5 46.5q-73 0 -134 -35t-97 -98.5t-36 -146.5q0 -82 36 -145.5t97 -98.5t134 -35q86 0 152.5 46.5t95.5 133.5l299 -98q-35 -112 -114.5 -197t-191.5 -131.5t-241 -46.5q-166 0 -299 73z" />
    <glyph glyph-name="d" unicode="d" horiz-adv-x="1360" 
d="M336 41.5q-125 73.5 -197 204t-72 294.5t72 295t197 204.5t277 73.5q90 0 163.5 -30t126.5 -81v520h315v-1522h-288v92h-11q-52 -58 -130 -91t-176 -33q-152 0 -277 73.5zM784 291.5q61 34.5 95.5 98.5t34.5 150t-34.5 150.5t-95.5 99t-137 34.5t-136 -34.5t-94.5 -99
t-34.5 -150.5t34.5 -150t94.5 -98.5t136 -34.5t137 34.5z" />
    <glyph glyph-name="eth" unicode="&#xf0;" horiz-adv-x="1297" 
d="M345 41q-131 73 -204.5 203.5t-73.5 295.5q0 163 73 289.5t197 196t271 69.5q73 0 125 -44q-55 105 -139 196l-351 -94l-44 161l284 77q-65 69 -102 103l257 77q50 -48 108 -110l295 79l42 -162l-225 -61q116 -144 199 -292.5t130 -294.5q29 -90 29 -190
q0 -165 -73.5 -295.5t-204 -203.5t-296.5 -73t-297 73zM776 302q59 35 92.5 97t33.5 141t-33.5 141t-92.5 97t-134 35t-134.5 -35t-93 -97t-33.5 -141t33.5 -141t93 -97t134.5 -35t134 35z" />
    <glyph glyph-name="dcaron" unicode="&#x10f;" horiz-adv-x="1576" 
d="M336 41.5q-125 73.5 -197 204t-72 294.5t72 295t197 204.5t277 73.5q90 0 163.5 -30t126.5 -81v520h315v-1522h-288v92h-11q-52 -58 -130 -91t-176 -33q-152 0 -277 73.5zM1490 1184h-174l52 338h264zM784 291.5q61 34.5 95.5 98.5t34.5 150t-34.5 150.5t-95.5 99
t-137 34.5t-136 -34.5t-94.5 -99t-34.5 -150.5t34.5 -150t94.5 -98.5t136 -34.5t137 34.5z" />
    <glyph glyph-name="dcroat" unicode="&#x111;" horiz-adv-x="1360" 
d="M332.5 42q-124.5 74 -195 204.5t-70.5 293.5q0 166 72.5 296.5t197 203.5t276.5 73q177 0 290 -111v204h-373v166h373v150h315v-150h103v-166h-103v-1206h-288v92h-11q-53 -58 -130.5 -91t-175.5 -33q-156 0 -280.5 74zM782.5 290.5q60.5 33.5 96 97.5t35.5 152
t-35.5 152.5t-96 98t-135.5 33.5q-74 0 -134.5 -33.5t-95.5 -98t-35 -152.5t35 -152t95.5 -97.5t134.5 -33.5q75 0 135.5 33.5z" />
    <glyph glyph-name="uni1E0D" unicode="&#x1e0d;" horiz-adv-x="1360" 
d="M336 41.5q-125 73.5 -197 204t-72 294.5t72 295t197 204.5t277 73.5q90 0 163.5 -30t126.5 -81v520h315v-1522h-288v92h-11q-52 -58 -130 -91t-176 -33q-152 0 -277 73.5zM784 291.5q61 34.5 95.5 98.5t34.5 150t-34.5 150.5t-95.5 99t-137 34.5t-136 -34.5t-94.5 -99
t-34.5 -150.5t34.5 -150t94.5 -98.5t136 -34.5t137 34.5zM520 -368.5q-47 42.5 -47 109.5q0 44 21.5 79.5t59.5 55t86 19.5q72 0 118.5 -43.5t46.5 -110.5t-46.5 -109.5t-118.5 -42.5q-73 0 -120 42.5z" />
    <glyph glyph-name="e" unicode="e" horiz-adv-x="1243" 
d="M354 38.5q-132 70.5 -209.5 201t-77.5 301.5t76 301t206.5 200.5t289.5 70.5q149 0 271.5 -65.5t195 -193t73.5 -306.5q0 -22 -2 -54.5t-5 -45.5h-779q4 -63 40 -112.5t93.5 -77.5t123.5 -28q170 0 249 135l255 -114q-43 -87 -121.5 -151t-179.5 -98t-208 -34
q-159 0 -291 70.5zM862 648q-7 64 -37.5 112t-78.5 74.5t-108 26.5t-113.5 -26.5t-89 -75t-43.5 -111.5h470z" />
    <glyph glyph-name="eacute" unicode="&#xe9;" horiz-adv-x="1243" 
d="M963 1477l-325 -284l-162 76l289 361zM354 38.5q-132 70.5 -209.5 201t-77.5 301.5t76 301t206.5 200.5t289.5 70.5q149 0 271.5 -65.5t195 -193t73.5 -306.5q0 -22 -2 -54.5t-5 -45.5h-779q4 -63 40 -112.5t93.5 -77.5t123.5 -28q170 0 249 135l255 -114
q-43 -87 -121.5 -151t-179.5 -98t-208 -34q-159 0 -291 70.5zM862 648q-7 64 -37.5 112t-78.5 74.5t-108 26.5t-113.5 -26.5t-89 -75t-43.5 -111.5h470z" />
    <glyph glyph-name="ebreve" unicode="&#x115;" horiz-adv-x="1243" 
d="M477.5 1242.5q-76.5 45.5 -121.5 124t-45 173.5h187q0 -37 20.5 -67t54.5 -47t72 -17t71.5 17t54 47t20.5 67h189q0 -95 -45 -173.5t-122 -124t-168 -45.5t-167.5 45.5zM354 38.5q-132 70.5 -209.5 201t-77.5 301.5t76 301t206.5 200.5t289.5 70.5q149 0 271.5 -65.5
t195 -193t73.5 -306.5q0 -22 -2 -54.5t-5 -45.5h-779q4 -63 40 -112.5t93.5 -77.5t123.5 -28q170 0 249 135l255 -114q-43 -87 -121.5 -151t-179.5 -98t-208 -34q-159 0 -291 70.5zM862 648q-7 64 -37.5 112t-78.5 74.5t-108 26.5t-113.5 -26.5t-89 -75t-43.5 -111.5h470z
" />
    <glyph glyph-name="ecaron" unicode="&#x11b;" horiz-adv-x="1243" 
d="M772 1182h-252l-223 297l163 76l186 -173l187 173l162 -76zM354 38.5q-132 70.5 -209.5 201t-77.5 301.5t76 301t206.5 200.5t289.5 70.5q149 0 271.5 -65.5t195 -193t73.5 -306.5q0 -22 -2 -54.5t-5 -45.5h-779q4 -63 40 -112.5t93.5 -77.5t123.5 -28q170 0 249 135
l255 -114q-43 -87 -121.5 -151t-179.5 -98t-208 -34q-159 0 -291 70.5zM862 648q-7 64 -37.5 112t-78.5 74.5t-108 26.5t-113.5 -26.5t-89 -75t-43.5 -111.5h470z" />
    <glyph glyph-name="ecircumflex" unicode="&#xea;" horiz-adv-x="1243" 
d="M639 1356l-186 -174l-162 77l222 296h252l223 -296l-162 -77zM354 38.5q-132 70.5 -209.5 201t-77.5 301.5t76 301t206.5 200.5t289.5 70.5q149 0 271.5 -65.5t195 -193t73.5 -306.5q0 -22 -2 -54.5t-5 -45.5h-779q4 -63 40 -112.5t93.5 -77.5t123.5 -28q170 0 249 135
l255 -114q-43 -87 -121.5 -151t-179.5 -98t-208 -34q-159 0 -291 70.5zM862 648q-7 64 -37.5 112t-78.5 74.5t-108 26.5t-113.5 -26.5t-89 -75t-43.5 -111.5h470z" />
    <glyph glyph-name="edieresis" unicode="&#xeb;" horiz-adv-x="1243" 
d="M297.5 1265.5q-45.5 45.5 -45.5 116.5t45.5 116.5t116.5 45.5q72 0 118 -45.5t46 -116.5t-46 -116.5t-118 -45.5q-71 0 -116.5 45.5zM747 1265.5q-46 45.5 -46 116.5t46 116.5t117 45.5q72 0 117 -45.5t45 -116.5t-45 -116.5t-117 -45.5q-71 0 -117 45.5zM354 38.5
q-132 70.5 -209.5 201t-77.5 301.5t76 301t206.5 200.5t289.5 70.5q149 0 271.5 -65.5t195 -193t73.5 -306.5q0 -22 -2 -54.5t-5 -45.5h-779q4 -63 40 -112.5t93.5 -77.5t123.5 -28q170 0 249 135l255 -114q-43 -87 -121.5 -151t-179.5 -98t-208 -34q-159 0 -291 70.5z
M862 648q-7 64 -37.5 112t-78.5 74.5t-108 26.5t-113.5 -26.5t-89 -75t-43.5 -111.5h470z" />
    <glyph glyph-name="edotaccent" unicode="&#x117;" horiz-adv-x="1243" 
d="M556 1240.5q-40 20.5 -62 57.5t-22 84t22 84t62 57.5t90 20.5t90 -20.5t62.5 -57.5t22.5 -84t-22.5 -84t-62.5 -57.5t-90 -20.5t-90 20.5zM354 38.5q-132 70.5 -209.5 201t-77.5 301.5t76 301t206.5 200.5t289.5 70.5q149 0 271.5 -65.5t195 -193t73.5 -306.5
q0 -22 -2 -54.5t-5 -45.5h-779q4 -63 40 -112.5t93.5 -77.5t123.5 -28q170 0 249 135l255 -114q-43 -87 -121.5 -151t-179.5 -98t-208 -34q-159 0 -291 70.5zM862 648q-7 64 -37.5 112t-78.5 74.5t-108 26.5t-113.5 -26.5t-89 -75t-43.5 -111.5h470z" />
    <glyph glyph-name="egrave" unicode="&#xe8;" horiz-adv-x="1243" 
d="M801 1269l-161 -76l-326 284l200 153zM354 38.5q-132 70.5 -209.5 201t-77.5 301.5t76 301t206.5 200.5t289.5 70.5q149 0 271.5 -65.5t195 -193t73.5 -306.5q0 -22 -2 -54.5t-5 -45.5h-779q4 -63 40 -112.5t93.5 -77.5t123.5 -28q170 0 249 135l255 -114
q-43 -87 -121.5 -151t-179.5 -98t-208 -34q-159 0 -291 70.5zM862 648q-7 64 -37.5 112t-78.5 74.5t-108 26.5t-113.5 -26.5t-89 -75t-43.5 -111.5h470z" />
    <glyph glyph-name="emacron" unicode="&#x113;" horiz-adv-x="1243" 
d="M969 1290h-647v185h647v-185zM354 38.5q-132 70.5 -209.5 201t-77.5 301.5t76 301t206.5 200.5t289.5 70.5q149 0 271.5 -65.5t195 -193t73.5 -306.5q0 -22 -2 -54.5t-5 -45.5h-779q4 -63 40 -112.5t93.5 -77.5t123.5 -28q170 0 249 135l255 -114q-43 -87 -121.5 -151
t-179.5 -98t-208 -34q-159 0 -291 70.5zM862 648q-7 64 -37.5 112t-78.5 74.5t-108 26.5t-113.5 -26.5t-89 -75t-43.5 -111.5h470z" />
    <glyph glyph-name="eogonek" unicode="&#x119;" horiz-adv-x="1243" 
d="M662.5 -418.5q-53.5 43.5 -53.5 111.5q0 46 18 82.5t58 83.5l109 127q-72 -18 -149 -18q-158 0 -290 69.5t-210 199.5t-78 304q0 173 76.5 303t207 199.5t288.5 69.5q149 0 272 -64.5t195.5 -192t72.5 -308.5q0 -22 -2 -53.5t-5 -46.5h-779q6 -66 42.5 -115.5t93 -76
t121.5 -26.5q172 0 249 135l255 -114q-28 -54 -63 -94l-227 -341q-17 -25 -17 -52q0 -20 13.5 -32.5t39.5 -13.5q44 0 75 22l51 -163q-99 -39 -202 -39q-108 0 -161.5 43.5zM862 648q-12 98 -73 155.5t-151 57.5q-59 0 -111.5 -25t-88 -73.5t-46.5 -114.5h470z" />
    <glyph glyph-name="uni1EBD" unicode="&#x1ebd;" horiz-adv-x="1243" 
d="M697.5 1220q-34.5 15 -78.5 44q-35 22 -58.5 33t-49.5 11q-34 0 -65 -25t-45 -60l-139 130q31 84 95 135t143 51q46 0 81 -15.5t78 -44.5q37 -23 59.5 -34t48.5 -11q33 0 64.5 25t46.5 60l139 -128q-31 -85 -95 -135.5t-144 -50.5q-46 0 -80.5 15zM354 38.5
q-132 70.5 -209.5 201t-77.5 301.5t76 301t206.5 200.5t289.5 70.5q149 0 271.5 -65.5t195 -193t73.5 -306.5q0 -22 -2 -54.5t-5 -45.5h-779q4 -63 40 -112.5t93.5 -77.5t123.5 -28q170 0 249 135l255 -114q-43 -87 -121.5 -151t-179.5 -98t-208 -34q-159 0 -291 70.5z
M862 648q-7 64 -37.5 112t-78.5 74.5t-108 26.5t-113.5 -26.5t-89 -75t-43.5 -111.5h470z" />
    <glyph glyph-name="f" unicode="f" horiz-adv-x="844" 
d="M230 0v818h-164v264h164v96q0 169 98 262.5t284 93.5q69 0 184 -12v-263h-146q-47 0 -76 -28t-29 -74v-75h251v-264h-251v-818h-315z" />
    <glyph glyph-name="g" unicode="g" horiz-adv-x="1359" 
d="M404.5 -425.5q-112.5 36.5 -191 102.5t-111.5 152l299 100q20 -54 91.5 -86.5t155.5 -32.5q73 0 131 24.5t91 64t33 81.5v110q-54 -48 -127.5 -77t-162.5 -29q-153 0 -277.5 70.5t-196.5 197.5t-72 289q0 164 72 294.5t197 204t277 73.5q98 0 175.5 -33t130.5 -90h11v91
h288v-1108q0 -122 -68.5 -221t-197 -156.5t-302.5 -57.5q-133 0 -245.5 36.5zM784 292.5q61 34.5 95.5 98.5t34.5 150t-34.5 150.5t-95.5 99t-137 34.5t-136 -34.5t-94.5 -99t-34.5 -150.5t34.5 -150t94.5 -98.5t136 -34.5t137 34.5z" />
    <glyph glyph-name="gbreve" unicode="&#x11f;" horiz-adv-x="1359" 
d="M471.5 1242.5q-76.5 45.5 -121.5 124t-45 173.5h187q0 -37 20.5 -67t54.5 -47t72 -17t71.5 17t54 47t20.5 67h189q0 -95 -45 -173.5t-122 -124t-168 -45.5t-167.5 45.5zM404.5 -425.5q-112.5 36.5 -191 102.5t-111.5 152l299 100q20 -54 91.5 -86.5t155.5 -32.5
q73 0 131 24.5t91 64t33 81.5v110q-54 -48 -127.5 -77t-162.5 -29q-153 0 -277.5 70.5t-196.5 197.5t-72 289q0 164 72 294.5t197 204t277 73.5q98 0 175.5 -33t130.5 -90h11v91h288v-1108q0 -122 -68.5 -221t-197 -156.5t-302.5 -57.5q-133 0 -245.5 36.5zM784 292.5
q61 34.5 95.5 98.5t34.5 150t-34.5 150.5t-95.5 99t-137 34.5t-136 -34.5t-94.5 -99t-34.5 -150.5t34.5 -150t94.5 -98.5t136 -34.5t137 34.5z" />
    <glyph glyph-name="uni0123" unicode="&#x123;" horiz-adv-x="1359" 
d="M747 1169h-265l142 338h174zM405 -425.5q-113 36.5 -191 102.5t-111 152l298 100q20 -54 92 -86.5t156 -32.5q72 0 130 24.5t91 64t33 81.5v110q-54 -49 -127.5 -77.5t-162.5 -28.5q-153 0 -277.5 70.5t-196.5 197.5t-72 289q0 164 72 294.5t197 204t277 73.5
q98 0 175.5 -33t130.5 -90h11v91h288v-1108q0 -122 -68.5 -221t-197 -156.5t-301.5 -57.5q-133 0 -246 36.5zM784.5 292.5q60.5 34.5 95 98.5t34.5 150t-34.5 150.5t-95 99t-136.5 34.5t-136.5 -34.5t-95 -99t-34.5 -150.5t34.5 -150t95 -98.5t136.5 -34.5t136.5 34.5z" />
    <glyph glyph-name="gcircumflex" unicode="&#x11d;" horiz-adv-x="1359" 
d="M640 1356l-186 -174l-163 77l223 296h252l223 -296l-162 -77zM404.5 -425.5q-112.5 36.5 -191 102.5t-111.5 152l299 100q20 -54 91.5 -86.5t155.5 -32.5q73 0 131 24.5t91 64t33 81.5v110q-54 -48 -127.5 -77t-162.5 -29q-153 0 -277.5 70.5t-196.5 197.5t-72 289
q0 164 72 294.5t197 204t277 73.5q98 0 175.5 -33t130.5 -90h11v91h288v-1108q0 -122 -68.5 -221t-197 -156.5t-302.5 -57.5q-133 0 -245.5 36.5zM784 292.5q61 34.5 95.5 98.5t34.5 150t-34.5 150.5t-95.5 99t-137 34.5t-136 -34.5t-94.5 -99t-34.5 -150.5t34.5 -150
t94.5 -98.5t136 -34.5t137 34.5z" />
    <glyph glyph-name="gdotaccent" unicode="&#x121;" horiz-adv-x="1359" 
d="M550 1240.5q-40 20.5 -62 57.5t-22 84t22 84t62 57.5t90 20.5t90 -20.5t62.5 -57.5t22.5 -84t-22.5 -84t-62.5 -57.5t-90 -20.5t-90 20.5zM404.5 -425.5q-112.5 36.5 -191 102.5t-111.5 152l299 100q20 -54 91.5 -86.5t155.5 -32.5q73 0 131 24.5t91 64t33 81.5v110
q-54 -48 -127.5 -77t-162.5 -29q-153 0 -277.5 70.5t-196.5 197.5t-72 289q0 164 72 294.5t197 204t277 73.5q98 0 175.5 -33t130.5 -90h11v91h288v-1108q0 -122 -68.5 -221t-197 -156.5t-302.5 -57.5q-133 0 -245.5 36.5zM784 292.5q61 34.5 95.5 98.5t34.5 150
t-34.5 150.5t-95.5 99t-137 34.5t-136 -34.5t-94.5 -99t-34.5 -150.5t34.5 -150t94.5 -98.5t136 -34.5t137 34.5z" />
    <glyph glyph-name="h" unicode="h" horiz-adv-x="1262" 
d="M142 0v1522h314v-530q46 55 115 88t153 33q124 0 216.5 -57.5t142.5 -162t50 -241.5v-652h-314v661q0 46 -20.5 85.5t-58 63.5t-87.5 24q-57 0 -102 -30.5t-70 -82t-25 -111.5v-610h-314z" />
    <glyph glyph-name="hbar" unicode="&#x127;" horiz-adv-x="1262" 
d="M142 0v1210h-104v167h104v145h314v-145h374v-167h-374v-218q46 55 114 88t154 33q126 0 218 -57.5t141.5 -162t49.5 -241.5v-652h-314v661q0 46 -20.5 86t-58 63.5t-87.5 23.5q-57 0 -101.5 -30.5t-69.5 -82t-26 -111.5v-610h-314z" />
    <glyph glyph-name="hcircumflex" unicode="&#x125;" horiz-adv-x="1262" 
d="M300 1754l-186 -173l-162 76l222 296h252l223 -296l-161 -76zM142 0v1522h314v-530q46 55 115 88t153 33q124 0 216.5 -57.5t142.5 -162t50 -241.5v-652h-314v661q0 46 -20.5 85.5t-58 63.5t-87.5 24q-57 0 -102 -30.5t-70 -82t-25 -111.5v-610h-314z" />
    <glyph glyph-name="uni1E25" unicode="&#x1e25;" horiz-adv-x="1262" 
d="M142 0v1522h314v-530q46 55 115 88t153 33q124 0 216.5 -57.5t142.5 -162t50 -241.5v-652h-314v661q0 46 -20.5 85.5t-58 63.5t-87.5 24q-57 0 -102 -30.5t-70 -82t-25 -111.5v-610h-314zM518.5 -368.5q-46.5 42.5 -46.5 109.5t46.5 110.5t119.5 43.5q47 0 85 -19.5
t59.5 -55t21.5 -79.5q0 -67 -47 -109.5t-119 -42.5q-73 0 -119.5 42.5z" />
    <glyph glyph-name="i" unicode="i" horiz-adv-x="598" 
d="M160.5 1238.5q-53.5 48.5 -53.5 129.5t53.5 130t137.5 49q86 0 139 -48.5t53 -130.5q0 -81 -53 -129.5t-139 -48.5q-84 0 -137.5 48.5zM456 0h-314v1082h314v-1082z" />
    <glyph glyph-name="dotlessi" unicode="&#x131;" horiz-adv-x="598" 
d="M456 0h-314v1082h314v-1082z" />
    <glyph glyph-name="iacute" unicode="&#xed;" horiz-adv-x="598" 
d="M623 1477l-325 -284l-162 76l289 361zM456 0h-314v1082h314v-1082z" />
    <glyph glyph-name="ibreve" unicode="&#x12d;" horiz-adv-x="598" 
d="M131 1242.5q-77 45.5 -121.5 124t-44.5 173.5h188q0 -37 20.5 -67t54 -47t71.5 -17t71.5 17t54 47t20.5 67h189q0 -95 -45 -173.5t-122 -124t-168 -45.5t-168 45.5zM457 0h-314v1082h314v-1082z" />
    <glyph glyph-name="icircumflex" unicode="&#xee;" horiz-adv-x="598" 
d="M299 1356l-185 -174l-162 77l221 296h252l224 -296l-162 -77zM457 0h-314v1082h314v-1082z" />
    <glyph glyph-name="idieresis" unicode="&#xef;" horiz-adv-x="598" 
d="M-7 1265.5q-46 45.5 -46 116.5t46 116.5t117 45.5q72 0 117.5 -45.5t45.5 -116.5t-45.5 -116.5t-117.5 -45.5q-71 0 -117 45.5zM372 1265.5q-46 45.5 -46 116.5t46 116.5t117 45.5q72 0 117.5 -45.5t45.5 -116.5t-45.5 -116.5t-117.5 -45.5q-71 0 -117 45.5zM457 0h-315
v1082h315v-1082z" />
    <glyph glyph-name="igrave" unicode="&#xec;" horiz-adv-x="598" 
d="M472 1269l-162 -76l-325 284l199 153zM457 0h-314v1082h314v-1082z" />
    <glyph glyph-name="imacron" unicode="&#x12b;" horiz-adv-x="598" 
d="M590 1290h-562v185h562v-185zM456 0h-314v1082h314v-1082z" />
    <glyph glyph-name="iogonek" unicode="&#x12f;" horiz-adv-x="598" 
d="M161.5 1237.5q-53.5 47.5 -53.5 130.5t53.5 131t137.5 48t137.5 -48t53.5 -131t-53.5 -130.5t-137.5 -47.5t-137.5 47.5zM109 -419q-54 43 -54 112q0 49 18.5 87.5t57.5 78.5l131 141h-120v1082h315v-1082h-22l-124 -184q-19 -27 -19 -52q0 -21 14.5 -33.5t39.5 -12.5
q41 0 75 22l51 -163q-42 -19 -96.5 -29t-106.5 -10q-106 0 -160 43z" />
    <glyph glyph-name="itilde" unicode="&#x129;" horiz-adv-x="598" 
d="M368 1220q-35 15 -79 44q-34 22 -57.5 33t-49.5 11q-33 0 -64.5 -25t-46.5 -60l-139 130q32 85 95.5 135.5t143.5 50.5q46 0 81 -15.5t78 -44.5q37 -23 59.5 -34t48.5 -11q34 0 65.5 25t45.5 60l139 -128q-32 -85 -96 -135.5t-143 -50.5q-46 0 -81 15zM457 0h-314v1082
h314v-1082z" />
    <glyph glyph-name="j" unicode="j" horiz-adv-x="598" 
d="M160.5 1238.5q-53.5 48.5 -53.5 129.5q0 82 53.5 130.5t138.5 48.5q84 0 137.5 -49t53.5 -130t-53.5 -129.5t-137.5 -48.5q-85 0 -138.5 48.5zM4 -191q62 0 100 33t38 80v1160h315v-1212q-1 -126 -53 -198.5t-150 -103t-250 -30.5v271z" />
    <glyph glyph-name="uni0237" unicode="&#x237;" horiz-adv-x="598" 
d="M4 -191q62 0 100 33t38 80v1160h315v-1212q-1 -126 -53 -198.5t-150 -103t-250 -30.5v271z" />
    <glyph glyph-name="jcircumflex" unicode="&#x135;" horiz-adv-x="598" 
d="M299 1356l-187 -174l-161 77l222 296h252l222 -296l-161 -77zM4 -191q62 0 100 33t38 80v1160h315v-1212q-1 -126 -53 -198.5t-150 -103t-250 -30.5v271z" />
    <glyph glyph-name="k" unicode="k" horiz-adv-x="1135" 
d="M455 0h-314v1522h314v-811l296 371h362l-401 -504l440 -578h-375l-322 415v-415z" />
    <glyph glyph-name="uni0137" unicode="&#x137;" horiz-adv-x="1135" 
d="M455 0h-314v1522h314v-811l296 371h362l-401 -504l440 -578h-375l-322 415v-415zM638 -462h-173l50 338h266z" />
    <glyph glyph-name="uni1E33" unicode="&#x1e33;" horiz-adv-x="1135" 
d="M455 0h-314v1522h314v-811l296 371h362l-401 -504l440 -578h-375l-322 415v-415zM503 -368.5q-47 42.5 -47 109.5q0 68 47 111t120 43q72 0 118.5 -43.5t46.5 -110.5t-46.5 -109.5t-118.5 -42.5q-73 0 -120 42.5z" />
    <glyph glyph-name="kra" unicode="&#x138;" horiz-adv-x="1135" 
d="M455 0h-314v1082h314v-371l296 371h362l-401 -504l440 -578h-375l-322 415v-415z" />
    <glyph glyph-name="l" unicode="l" horiz-adv-x="597" 
d="M455 0h-314v1521h314v-1521z" />
    <glyph glyph-name="lacute" unicode="&#x13a;" horiz-adv-x="597" 
d="M601 1830l-326 -249l-161 63l288 310zM455 0h-314v1521h314v-1521z" />
    <glyph glyph-name="lcaron" unicode="&#x13e;" horiz-adv-x="813" 
d="M727 1184h-174l52 338h265zM455 0h-314v1521h314v-1521z" />
    <glyph glyph-name="uni013C" unicode="&#x13c;" horiz-adv-x="597" 
d="M455 0h-314v1521h314v-1521zM300 -462h-173l51 338h265z" />
    <glyph glyph-name="uni1E37" unicode="&#x1e37;" horiz-adv-x="597" 
d="M455 0h-314v1521h314v-1521zM178.5 -368.5q-46.5 42.5 -46.5 109.5t46.5 110.5t119.5 43.5q72 0 118.5 -43.5t46.5 -110.5t-46.5 -109.5t-118.5 -42.5q-73 0 -119.5 42.5z" />
    <glyph glyph-name="uni1E39" unicode="&#x1e39;" horiz-adv-x="597" 
d="M579 1737h-563v186h563v-186zM455 0h-314v1521h314v-1521zM178.5 -368.5q-46.5 42.5 -46.5 109.5t46.5 110.5t119.5 43.5t119 -43t46 -111q0 -67 -46 -109.5t-119 -42.5t-119.5 42.5z" />
    <glyph glyph-name="uni1E3B" unicode="&#x1e3b;" horiz-adv-x="597" 
d="M455 0h-314v1521h314v-1521zM573 -368h-550v186h550v-186z" />
    <glyph glyph-name="lmiddledot" unicode="&#x140;" horiz-adv-x="841" 
d="M455 0h-314v1521h314v-1521zM599 662.5q-42 40.5 -42 104.5q0 63 42 103.5t107 40.5t106.5 -40.5t41.5 -103.5q0 -64 -41.5 -104.5t-106.5 -40.5t-107 40.5z" />
    <glyph glyph-name="lslash" unicode="&#x142;" horiz-adv-x="774" 
d="M545 0h-315v573l-177 -102l-85 144l262 152v755h315v-574l177 103l84 -145l-261 -151v-755z" />
    <glyph glyph-name="m" unicode="m" horiz-adv-x="1930" 
d="M141 0v1082h288v-89h11q45 53 122 86.5t163 33.5q94 0 168.5 -33.5t127.5 -97.5q70 66 154 98.5t186 32.5q125 0 225.5 -58t157.5 -162.5t57 -240.5v-652h-315v662q0 45 -19 83.5t-55 61.5t-85 23q-57 0 -102.5 -30t-71 -80.5t-25.5 -109.5v-610h-314v662q0 45 -19 83.5
t-55.5 61.5t-86.5 23q-56 0 -101 -30t-70.5 -80.5t-25.5 -109.5v-610h-315z" />
    <glyph glyph-name="uni1E41" unicode="&#x1e41;" horiz-adv-x="1930" 
d="M881 1240.5q-40 20.5 -62 57.5t-22 84t22 84t62 57.5t90 20.5t90 -20.5t62.5 -57.5t22.5 -84t-22.5 -84t-62.5 -57.5t-90 -20.5t-90 20.5zM141 0v1082h288v-89h11q45 53 122 86.5t163 33.5q94 0 168.5 -33.5t127.5 -97.5q70 66 154 98.5t186 32.5q125 0 225.5 -58
t157.5 -162.5t57 -240.5v-652h-315v662q0 45 -19 83.5t-55 61.5t-85 23q-57 0 -102.5 -30t-71 -80.5t-25.5 -109.5v-610h-314v662q0 45 -19 83.5t-55.5 61.5t-86.5 23q-56 0 -101 -30t-70.5 -80.5t-25.5 -109.5v-610h-315z" />
    <glyph glyph-name="uni1E43" unicode="&#x1e43;" horiz-adv-x="1930" 
d="M141 0v1082h288v-89h11q45 53 122 86.5t163 33.5q94 0 168.5 -33.5t127.5 -97.5q70 66 154 98.5t186 32.5q125 0 225.5 -58t157.5 -162.5t57 -240.5v-652h-315v662q0 45 -19 83.5t-55 61.5t-85 23q-57 0 -102.5 -30t-71 -80.5t-25.5 -109.5v-610h-314v662q0 45 -19 83.5
t-55.5 61.5t-86.5 23q-56 0 -101 -30t-70.5 -80.5t-25.5 -109.5v-610h-315zM851.5 -368.5q-46.5 42.5 -46.5 109.5t46.5 110.5t119.5 43.5q72 0 118.5 -43.5t46.5 -110.5t-46.5 -109.5t-118.5 -42.5q-73 0 -119.5 42.5z" />
    <glyph glyph-name="n" unicode="n" horiz-adv-x="1263" 
d="M141 0v1082h288v-89h11q45 53 120.5 86.5t160.5 33.5q126 0 219.5 -57.5t143.5 -162t50 -241.5v-652h-314v662q0 45 -20.5 83.5t-58 61.5t-87.5 23q-57 0 -102.5 -30t-71 -80.5t-25.5 -109.5v-610h-314z" />
    <glyph glyph-name="nacute" unicode="&#x144;" horiz-adv-x="1263" 
d="M961 1477l-325 -284l-161 76l288 361zM141 0v1082h288v-89h11q45 53 120.5 86.5t160.5 33.5q126 0 219.5 -57.5t143.5 -162t50 -241.5v-652h-314v662q0 45 -20.5 83.5t-58 61.5t-87.5 23q-57 0 -102.5 -30t-71 -80.5t-25.5 -109.5v-610h-314z" />
    <glyph glyph-name="napostrophe" unicode="&#x149;" horiz-adv-x="1263" 
d="M131 1147h-174l52 339h264zM141 0v1082h287v-89h12q45 53 120.5 86.5t160.5 33.5q126 0 219.5 -57.5t143.5 -162t50 -241.5v-652h-314v662q0 45 -20.5 83.5t-58.5 61.5t-88 23q-56 0 -101.5 -30t-71 -80.5t-25.5 -109.5v-610h-314z" />
    <glyph glyph-name="ncaron" unicode="&#x148;" horiz-adv-x="1263" 
d="M764 1182h-252l-223 297l162 76l187 -173l187 173l161 -76zM141 0v1082h288v-89h11q45 53 120.5 86.5t160.5 33.5q126 0 219.5 -57.5t143.5 -162t50 -241.5v-652h-314v662q0 45 -20.5 83.5t-58 61.5t-87.5 23q-57 0 -102.5 -30t-71 -80.5t-25.5 -109.5v-610h-314z" />
    <glyph glyph-name="uni0146" unicode="&#x146;" horiz-adv-x="1263" 
d="M141 0v1082h288v-89h11q45 53 120.5 86.5t160.5 33.5q126 0 219.5 -57.5t143.5 -162t50 -241.5v-652h-314v662q0 45 -20.5 83.5t-58 61.5t-87.5 23q-57 0 -102.5 -30t-71 -80.5t-25.5 -109.5v-610h-314zM653 -462h-173l50 338h266z" />
    <glyph glyph-name="uni1E45" unicode="&#x1e45;" horiz-adv-x="1263" 
d="M548 1240.5q-40 20.5 -62 57.5t-22 84t22 84t62 57.5t90 20.5t90 -20.5t62 -57.5t22 -84t-22 -84t-62 -57.5t-90 -20.5t-90 20.5zM141 0v1082h288v-89h11q45 53 120.5 86.5t160.5 33.5q126 0 219.5 -57.5t143.5 -162t50 -241.5v-652h-314v662q0 45 -20.5 83.5t-58 61.5
t-87.5 23q-57 0 -102.5 -30t-71 -80.5t-25.5 -109.5v-610h-314z" />
    <glyph glyph-name="uni1E47" unicode="&#x1e47;" horiz-adv-x="1263" 
d="M141 0v1082h288v-89h11q45 53 120.5 86.5t160.5 33.5q126 0 219.5 -57.5t143.5 -162t50 -241.5v-652h-314v662q0 45 -20.5 83.5t-58 61.5t-87.5 23q-57 0 -102.5 -30t-71 -80.5t-25.5 -109.5v-610h-314zM518 -368.5q-47 42.5 -47 109.5q0 68 47 111t120 43
q72 0 118.5 -43.5t46.5 -110.5t-46.5 -109.5t-118.5 -42.5q-73 0 -120 42.5z" />
    <glyph glyph-name="eng" unicode="&#x14b;" horiz-adv-x="1263" 
d="M682 -191q43 0 74 16t47 42t16 55l1 740q0 44 -20 82.5t-58 62t-88 23.5q-57 0 -102.5 -30t-71 -80.5t-25.5 -109.5v-610h-314v1082h288v-89h11q45 53 119.5 86.5t161.5 33.5q126 0 219.5 -57.5t143.5 -161.5t50 -242v-782q0 -123 -49.5 -196t-148 -104.5t-254.5 -31.5
v271z" />
    <glyph glyph-name="uni1E49" unicode="&#x1e49;" horiz-adv-x="1263" 
d="M141 0v1082h288v-89h11q45 53 120.5 86.5t160.5 33.5q126 0 219.5 -57.5t143.5 -162t50 -241.5v-652h-314v662q0 45 -20.5 83.5t-58 61.5t-87.5 23q-57 0 -102.5 -30t-71 -80.5t-25.5 -109.5v-610h-314zM1015 -368h-756v186h756v-186z" />
    <glyph glyph-name="ntilde" unicode="&#xf1;" horiz-adv-x="1263" 
d="M695.5 1220q-34.5 15 -78.5 44q-34 22 -57.5 33t-49.5 11q-33 0 -64.5 -25t-46.5 -60l-139 130q32 85 95.5 135.5t143.5 50.5q45 0 79.5 -15t79.5 -45q35 -23 58 -34t50 -11q33 0 64.5 25t46.5 60l138 -128q-31 -85 -95 -135.5t-144 -50.5q-46 0 -80.5 15zM141 0v1082
h288v-89h11q45 53 120.5 86.5t160.5 33.5q126 0 219.5 -57.5t143.5 -162t50 -241.5v-652h-314v662q0 45 -20.5 83.5t-58 61.5t-87.5 23q-57 0 -102.5 -30t-71 -80.5t-25.5 -109.5v-610h-314z" />
    <glyph glyph-name="o" unicode="o" horiz-adv-x="1301" 
d="M351.5 41q-133.5 73 -209 203t-75.5 296q0 167 75.5 297.5t208.5 203t300 72.5q166 0 299 -72.5t208.5 -203t75.5 -297.5q0 -166 -75.5 -296t-208.5 -203t-299 -73t-299.5 73zM787.5 297.5q61.5 35.5 97 99t35.5 143.5t-35.5 144t-97 100t-136.5 36t-137 -36t-97.5 -100
t-35.5 -144t35.5 -143.5t97.5 -99t137 -35.5t136.5 35.5z" />
    <glyph glyph-name="oacute" unicode="&#xf3;" horiz-adv-x="1301" 
d="M975 1477l-325 -284l-161 76l287 361zM351.5 41q-133.5 73 -209 203t-75.5 296q0 167 75.5 297.5t208.5 203t300 72.5q166 0 299 -72.5t208.5 -203t75.5 -297.5q0 -166 -75.5 -296t-208.5 -203t-299 -73t-299.5 73zM787.5 297.5q61.5 35.5 97 99t35.5 143.5t-35.5 144
t-97 100t-136.5 36t-137 -36t-97.5 -100t-35.5 -144t35.5 -143.5t97.5 -99t137 -35.5t136.5 35.5z" />
    <glyph glyph-name="obreve" unicode="&#x14f;" horiz-adv-x="1301" 
d="M482.5 1242.5q-76.5 45.5 -121.5 124t-45 173.5h187q0 -37 20.5 -67t54.5 -47t72 -17t71.5 17t54 47t20.5 67h189q0 -95 -45 -173.5t-122 -124t-168 -45.5t-167.5 45.5zM351.5 41q-133.5 73 -209 203t-75.5 296q0 167 75.5 297.5t208.5 203t300 72.5q166 0 299 -72.5
t208.5 -203t75.5 -297.5q0 -166 -75.5 -296t-208.5 -203t-299 -73t-299.5 73zM787.5 297.5q61.5 35.5 97 99t35.5 143.5t-35.5 144t-97 100t-136.5 36t-137 -36t-97.5 -100t-35.5 -144t35.5 -143.5t97.5 -99t137 -35.5t136.5 35.5z" />
    <glyph glyph-name="ocircumflex" unicode="&#xf4;" horiz-adv-x="1301" 
d="M651 1356l-186 -174l-163 77l223 296h252l223 -296l-162 -77zM351.5 41q-133.5 73 -209 203t-75.5 296q0 167 75.5 297.5t208.5 203t300 72.5q166 0 299 -72.5t208.5 -203t75.5 -297.5q0 -166 -75.5 -296t-208.5 -203t-299 -73t-299.5 73zM787.5 297.5q61.5 35.5 97 99
t35.5 143.5t-35.5 144t-97 100t-136.5 36t-137 -36t-97.5 -100t-35.5 -144t35.5 -143.5t97.5 -99t137 -35.5t136.5 35.5z" />
    <glyph glyph-name="odieresis" unicode="&#xf6;" horiz-adv-x="1301" 
d="M310 1265.5q-46 45.5 -46 116.5t46 116.5t117 45.5t116.5 -45.5t45.5 -116.5t-45.5 -116.5t-116.5 -45.5t-117 45.5zM758.5 1265.5q-45.5 45.5 -45.5 116.5t45.5 116.5t116.5 45.5q72 0 118 -45.5t46 -116.5t-46 -116.5t-118 -45.5q-71 0 -116.5 45.5zM351.5 41
q-133.5 73 -209 203t-75.5 296q0 167 75.5 297.5t208.5 203t300 72.5q166 0 299 -72.5t208.5 -203t75.5 -297.5q0 -166 -75.5 -296t-208.5 -203t-299 -73t-299.5 73zM787.5 297.5q61.5 35.5 97 99t35.5 143.5t-35.5 144t-97 100t-136.5 36t-137 -36t-97.5 -100t-35.5 -144
t35.5 -143.5t97.5 -99t137 -35.5t136.5 35.5z" />
    <glyph glyph-name="odoubleacute" unicode="&#x151;" horiz-adv-x="1301" 
d="M761 1473l-324 -285l-135 103l261 334zM1169 1467l-326 -285l-135 103l263 334zM351.5 41q-133.5 73 -209 203t-75.5 296q0 167 75.5 297.5t208.5 203t300 72.5q166 0 299 -72.5t208.5 -203t75.5 -297.5q0 -166 -75.5 -296t-208.5 -203t-299 -73t-299.5 73zM787.5 297.5
q61.5 35.5 97 99t35.5 143.5t-35.5 144t-97 100t-136.5 36t-137 -36t-97.5 -100t-35.5 -144t35.5 -143.5t97.5 -99t137 -35.5t136.5 35.5z" />
    <glyph glyph-name="ograve" unicode="&#xf2;" horiz-adv-x="1301" 
d="M813 1269l-162 -76l-325 284l199 153zM351.5 41q-133.5 73 -209 203t-75.5 296q0 167 75.5 297.5t208.5 203t300 72.5q166 0 299 -72.5t208.5 -203t75.5 -297.5q0 -166 -75.5 -296t-208.5 -203t-299 -73t-299.5 73zM787.5 297.5q61.5 35.5 97 99t35.5 143.5t-35.5 144
t-97 100t-136.5 36t-137 -36t-97.5 -100t-35.5 -144t35.5 -143.5t97.5 -99t137 -35.5t136.5 35.5z" />
    <glyph glyph-name="omacron" unicode="&#x14d;" horiz-adv-x="1301" 
d="M974 1290h-647v185h647v-185zM351.5 41q-133.5 73 -209 203t-75.5 296q0 167 75.5 297.5t208.5 203t300 72.5q166 0 299 -72.5t208.5 -203t75.5 -297.5q0 -166 -75.5 -296t-208.5 -203t-299 -73t-299.5 73zM787.5 297.5q61.5 35.5 97 99t35.5 143.5t-35.5 144t-97 100
t-136.5 36t-137 -36t-97.5 -100t-35.5 -144t35.5 -143.5t97.5 -99t137 -35.5t136.5 35.5z" />
    <glyph glyph-name="oslash" unicode="&#xf8;" horiz-adv-x="1301" 
d="M352 41l-57 -70l-137 119l52 63q-143 156 -143 387q0 169 76 299t209.5 202t298.5 72q164 0 294 -70l56 68l137 -120l-49 -59q146 -156 146 -392q0 -167 -76 -297.5t-209.5 -202.5t-298.5 -72q-168 0 -299 73zM744 802q-44 18 -93 18q-74 0 -135.5 -35t-97.5 -99
t-36 -146q0 -78 36 -137zM786.5 296.5q61.5 35.5 97.5 99t36 144.5t-38 144l-329 -404q48 -19 98 -19q74 0 135.5 35.5z" />
    <glyph glyph-name="otilde" unicode="&#xf5;" horiz-adv-x="1301" 
d="M709 1220q-35 15 -79 44q-34 22 -57.5 33t-49.5 11q-33 0 -64.5 -25t-46.5 -60l-139 130q32 85 95.5 135.5t143.5 50.5q46 0 81 -15.5t78 -44.5q37 -23 59.5 -34t48.5 -11q34 0 65.5 25t45.5 60l139 -128q-32 -85 -96 -135.5t-143 -50.5q-46 0 -81 15zM351.5 41
q-133.5 73 -209 203t-75.5 296q0 167 75.5 297.5t208.5 203t300 72.5q166 0 299 -72.5t208.5 -203t75.5 -297.5q0 -166 -75.5 -296t-208.5 -203t-299 -73t-299.5 73zM787.5 297.5q61.5 35.5 97 99t35.5 143.5t-35.5 144t-97 100t-136.5 36t-137 -36t-97.5 -100t-35.5 -144
t35.5 -143.5t97.5 -99t137 -35.5t136.5 35.5z" />
    <glyph glyph-name="oe" unicode="&#x153;" horiz-adv-x="2089" 
d="M345 41q-131 73 -204.5 203.5t-73.5 295.5t73.5 295.5t204.5 204t297 73.5q129 0 236.5 -51t181.5 -145q75 95 181 145.5t232 50.5q149 0 274 -65.5t200.5 -193t78.5 -306.5q0 -22 -2 -55t-5 -46l-786 1q4 -63 38.5 -111.5t90 -75t122.5 -26.5q77 0 136 36t90 96
l276 -120q-42 -86 -121 -149.5t-180 -96.5t-208 -33q-126 0 -234 51t-183 145q-74 -94 -181.5 -145t-236.5 -51q-166 0 -297 73zM1709 647q-7 61 -40 108t-84.5 73t-111.5 26t-111.5 -26t-86 -73t-42.5 -108h476zM779 296q60 36 94 99.5t34 144.5q0 79 -33 143t-93 101
t-137 37q-75 0 -135 -36t-94 -100t-34 -145t34 -144.5t94 -99.5t135 -36t135 36z" />
    <glyph glyph-name="p" unicode="p" horiz-adv-x="1359" 
d="M141 -430v1512h288v-92h11q51 56 132.5 89.5t173.5 33.5q152 0 277 -73.5t197 -204t72 -294.5t-72 -295t-197 -204.5t-277 -73.5q-90 0 -163 30t-127 81v-509h-315zM847.5 292.5q60.5 34.5 95 98.5t34.5 150t-34.5 150.5t-95 99t-136.5 34.5t-136.5 -34.5t-95 -99
t-34.5 -150.5t34.5 -150t95 -98.5t136.5 -34.5t136.5 34.5z" />
    <glyph glyph-name="thorn" unicode="&#xfe;" horiz-adv-x="1359" 
d="M141 -430v1952h290v-532h9q51 56 132.5 89.5t173.5 33.5q153 0 278 -73.5t196.5 -204t71.5 -294.5q0 -165 -72 -295.5t-197 -204t-277 -73.5q-90 0 -163.5 30t-126.5 81v-509h-315zM846.5 292q60.5 34 95.5 98.5t35 150.5t-34.5 150.5t-95 99t-136.5 34.5t-136.5 -34.5
t-95 -99t-34.5 -150.5t34.5 -150.5t95 -98.5t136.5 -34q75 0 135.5 34z" />
    <glyph glyph-name="q" unicode="q" horiz-adv-x="1359" 
d="M903 79q-53 -51 -127 -81t-163 -30q-152 0 -277 73.5t-197 204.5t-72 295t72 294.5t197 204t277 73.5q92 0 173.5 -33.5t132.5 -89.5h11v92h288v-1512h-315v509zM784 292.5q61 34.5 95.5 98.5t34.5 150t-34.5 150.5t-95.5 99t-137 34.5t-136 -34.5t-94.5 -99
t-34.5 -150.5t34.5 -150t94.5 -98.5t136 -34.5t137 34.5z" />
    <glyph glyph-name="r" unicode="r" horiz-adv-x="845" 
d="M140 0v1082h288l1 -96h10q45 53 120.5 85.5t161.5 32.5q49 0 88 -7v-299h-135q-63 0 -113 -31t-78 -85t-28 -121v-561h-315z" />
    <glyph glyph-name="racute" unicode="&#x155;" horiz-adv-x="845" 
d="M799 1477l-325 -284l-161 76l288 361zM140 0v1082h288l1 -96h10q45 53 120.5 85.5t161.5 32.5q49 0 88 -7v-299h-135q-63 0 -113 -31t-78 -85t-28 -121v-561h-315z" />
    <glyph glyph-name="rcaron" unicode="&#x159;" horiz-adv-x="845" 
d="M602 1182h-252l-221 297l162 76l185 -173l188 173l162 -76zM142 0v1082h288v-96h11q44 53 120 85.5t161 32.5q50 0 88 -7v-299h-134q-63 0 -113 -31t-78 -85t-28 -121v-561h-315z" />
    <glyph glyph-name="uni0157" unicode="&#x157;" horiz-adv-x="845" 
d="M140 0v1082h288l1 -96h10q45 53 120.5 85.5t161.5 32.5q49 0 88 -7v-299h-135q-63 0 -113 -31t-78 -85t-28 -121v-561h-315zM318 -462h-173l50 338h266z" />
    <glyph glyph-name="uni1E59" unicode="&#x1e59;" horiz-adv-x="845" 
d="M385.5 1240.5q-39.5 20.5 -62 57.5t-22.5 84t22.5 84t62 57.5t89.5 20.5q51 0 91 -20.5t62 -57.5t22 -84t-22 -84t-62 -57.5t-91 -20.5q-50 0 -89.5 20.5zM140 0v1082h288l1 -96h10q45 53 120.5 85.5t161.5 32.5q49 0 88 -7v-299h-135q-63 0 -113 -31t-78 -85t-28 -121
v-561h-315z" />
    <glyph glyph-name="uni1E5B" unicode="&#x1e5b;" horiz-adv-x="845" 
d="M142 0v1082h288v-96h11q44 53 120 85.5t161 32.5q50 0 88 -7v-299h-134q-63 0 -113 -31t-78 -85t-28 -121v-561h-315zM179.5 -368.5q-46.5 42.5 -46.5 109.5t46.5 110.5t118.5 43.5q73 0 119.5 -43.5t46.5 -110.5t-46.5 -109.5t-119.5 -42.5q-72 0 -118.5 42.5z" />
    <glyph glyph-name="uni1E5D" unicode="&#x1e5d;" horiz-adv-x="845" 
d="M753 1290h-553v185h553v-185zM142 0v1082h288v-96h11q44 53 120 85.5t161 32.5q50 0 88 -7v-299h-134q-63 0 -113 -31t-78 -85t-28 -121v-561h-315zM179.5 -368.5q-46.5 42.5 -46.5 109.5t46.5 110.5t118.5 43.5q73 0 119.5 -43.5t46.5 -110.5t-46.5 -109.5t-119.5 -42.5
q-72 0 -118.5 42.5z" />
    <glyph glyph-name="uni1E5F" unicode="&#x1e5f;" horiz-adv-x="845" 
d="M142 0v1082h288v-96h11q44 53 120 85.5t161 32.5q50 0 88 -7v-299h-134q-63 0 -113 -31t-78 -85t-28 -121v-561h-315zM608 -368h-550v186h550v-186z" />
    <glyph glyph-name="s" unicode="s" horiz-adv-x="969" 
d="M188 57.5q-107 86.5 -130 244.5l282 25q7 -47 48.5 -78.5t93.5 -31.5q55 0 86 21t31 56q0 37 -22 58t-82 46l-179 73q-120 48 -175 123t-55 188q0 97 50.5 171.5t144 116t219.5 41.5q122 0 209 -39t134.5 -107.5t57.5 -159.5l-281 -24q-5 42 -39 67t-79 25
q-48 0 -75 -18.5t-27 -48.5q0 -27 16.5 -44.5t61.5 -36.5l177 -73q131 -51 194.5 -130t63.5 -204q0 -107 -50 -185t-147 -120t-233 -42q-188 0 -295 86.5z" />
    <glyph glyph-name="sacute" unicode="&#x15b;" horiz-adv-x="969" 
d="M808 1477l-325 -284l-162 76l288 361zM188 57.5q-107 86.5 -130 244.5l282 25q7 -47 48.5 -78.5t93.5 -31.5q55 0 86 21t31 56q0 37 -22 58t-82 46l-179 73q-120 48 -175 123t-55 188q0 97 50.5 171.5t144 116t219.5 41.5q122 0 209 -39t134.5 -107.5t57.5 -159.5
l-281 -24q-5 42 -39 67t-79 25q-48 0 -75 -18.5t-27 -48.5q0 -27 16.5 -44.5t61.5 -36.5l177 -73q131 -51 194.5 -130t63.5 -204q0 -107 -50 -185t-147 -120t-233 -42q-188 0 -295 86.5z" />
    <glyph glyph-name="scaron" unicode="&#x161;" horiz-adv-x="969" 
d="M616 1182h-252l-222 297l162 76l186 -173l187 173l162 -76zM188 57.5q-107 86.5 -130 244.5l282 25q7 -47 48.5 -78.5t93.5 -31.5q55 0 86 21t31 56q0 37 -22 58t-82 46l-179 73q-120 48 -175 123t-55 188q0 97 50.5 171.5t144 116t219.5 41.5q122 0 209 -39
t134.5 -107.5t57.5 -159.5l-281 -24q-5 42 -39 67t-79 25q-48 0 -75 -18.5t-27 -48.5q0 -27 16.5 -44.5t61.5 -36.5l177 -73q131 -51 194.5 -130t63.5 -204q0 -107 -50 -185t-147 -120t-233 -42q-188 0 -295 86.5z" />
    <glyph glyph-name="scedilla" unicode="&#x15f;" horiz-adv-x="969" 
d="M238 -427l65 150q35 -22 86 -22q43 0 66.5 18t24.5 50q0 75 -126 75l56 132q-154 16 -243 99.5t-109 226.5l282 25q9 -48 49 -79t93 -31q58 0 87.5 21.5t29.5 58.5q0 34 -23 55.5t-81 45.5l-179 73q-118 47 -174 122t-56 189q0 96 49.5 170.5t143 116.5t221.5 42
q124 0 211 -39.5t134 -108t56 -158.5l-281 -24q-5 42 -39 67t-79 25q-49 0 -75.5 -18.5t-26.5 -48.5q0 -27 17 -44.5t61 -36.5l177 -73q134 -53 196 -132.5t62 -201.5q0 -143 -87 -231.5t-247 -107.5l-17 -43q160 -24 160 -181q0 -71 -39.5 -120t-104.5 -73t-141 -24
q-141 0 -199 35z" />
    <glyph glyph-name="scircumflex" unicode="&#x15d;" horiz-adv-x="969" 
d="M490 1356l-186 -174l-162 77l222 296h252l223 -296l-162 -77zM188 57.5q-107 86.5 -130 244.5l282 25q7 -47 48.5 -78.5t93.5 -31.5q55 0 86 21t31 56q0 37 -22 58t-82 46l-179 73q-120 48 -175 123t-55 188q0 97 50.5 171.5t144 116t219.5 41.5q122 0 209 -39
t134.5 -107.5t57.5 -159.5l-281 -24q-5 42 -39 67t-79 25q-48 0 -75 -18.5t-27 -48.5q0 -27 16.5 -44.5t61.5 -36.5l177 -73q131 -51 194.5 -130t63.5 -204q0 -107 -50 -185t-147 -120t-233 -42q-188 0 -295 86.5z" />
    <glyph glyph-name="uni0219" unicode="&#x219;" horiz-adv-x="969" 
d="M188 57.5q-107 86.5 -130 244.5l282 25q7 -47 48.5 -78.5t93.5 -31.5q55 0 86 21t31 56q0 37 -22 58t-82 46l-179 73q-120 48 -175 123t-55 188q0 97 50.5 171.5t144 116t219.5 41.5q122 0 209 -39t134.5 -107.5t57.5 -159.5l-281 -24q-5 42 -39 67t-79 25
q-48 0 -75 -18.5t-27 -48.5q0 -27 16.5 -44.5t61.5 -36.5l177 -73q131 -51 194.5 -130t63.5 -204q0 -107 -50 -185t-147 -120t-233 -42q-188 0 -295 86.5zM505 -462h-173l51 338h265z" />
    <glyph glyph-name="uni1E63" unicode="&#x1e63;" horiz-adv-x="969" 
d="M188 57.5q-107 86.5 -130 244.5l282 25q7 -47 48.5 -78.5t93.5 -31.5q55 0 86 21t31 56q0 37 -22 58t-82 46l-179 73q-120 48 -175 123t-55 188q0 97 50.5 171.5t144 116t219.5 41.5q122 0 209 -39t134.5 -107.5t57.5 -159.5l-281 -24q-5 42 -39 67t-79 25
q-48 0 -75 -18.5t-27 -48.5q0 -27 16.5 -44.5t61.5 -36.5l177 -73q131 -51 194.5 -130t63.5 -204q0 -107 -50 -185t-147 -120t-233 -42q-188 0 -295 86.5zM370.5 -368.5q-46.5 42.5 -46.5 109.5t46.5 110.5t119.5 43.5q72 0 118.5 -43.5t46.5 -110.5t-46.5 -109.5
t-118.5 -42.5q-73 0 -119.5 42.5z" />
    <glyph glyph-name="germandbls" unicode="&#xdf;" horiz-adv-x="1382" 
d="M580 0v245h208q57 0 107 27t79.5 77t29.5 115q0 63 -27.5 111.5t-76.5 75.5t-112 27h-183v262h56q43 0 80 22.5t58.5 62.5t21.5 89q0 51 -22 92t-61.5 64t-88.5 23q-92 0 -142 -58t-50 -151v-1084h-314v1082q0 152 60 258t174 160t274 54q136 0 245.5 -45.5t173.5 -137
t64 -224.5q0 -91 -36 -160.5t-94 -107.5q82 -15 154 -70t115.5 -143.5t43.5 -200.5q0 -158 -66 -266.5t-184 -162t-273 -53.5q-113 0 -214 17z" />
    <glyph glyph-name="t" unicode="t" horiz-adv-x="868" 
d="M309.5 79.5q-100.5 91.5 -100.5 264.5v474h-164v264h173v240l305 84v-324h253v-264h-253v-453q0 -46 29.5 -74t76.5 -28h147v-263q-96 -12 -185 -12q-181 0 -281.5 91.5z" />
    <glyph glyph-name="tbar" unicode="&#x167;" horiz-adv-x="868" 
d="M310 79q-101 91 -101 265v127h-114v168h114v179h-164v264h173v240l305 84v-324h253v-264h-253v-179h202v-168h-202v-106q1 -47 30.5 -74.5t75.5 -27.5h147v-263q-93 -12 -185 -12q-180 0 -281 91z" />
    <glyph glyph-name="tcaron" unicode="&#x165;" horiz-adv-x="954" 
d="M835 1217h-174l52 338h265zM309.5 79.5q-100.5 91.5 -100.5 264.5v474h-164v264h173v240l305 84v-324h253v-264h-253v-453q0 -46 29.5 -74t76.5 -28h147v-263q-96 -12 -185 -12q-181 0 -281.5 91.5z" />
    <glyph glyph-name="uni0163" unicode="&#x163;" horiz-adv-x="868" 
d="M171 -427l65 150q35 -22 86 -22q42 0 66.5 18t24.5 50q0 75 -127 75l82 194q-159 89 -159 306v474h-164v264h173v240l305 84v-324h253v-264h-253v-453q1 -47 31 -74.5t75 -27.5h147v-263q-93 -12 -185 -12q-43 0 -73 5l-23 -57q159 -24 159 -181q0 -70 -38.5 -119
t-103.5 -73.5t-142 -24.5q-141 0 -199 35z" />
    <glyph glyph-name="uni021B" unicode="&#x21b;" horiz-adv-x="868" 
d="M309.5 79.5q-100.5 91.5 -100.5 264.5v474h-164v264h173v240l305 84v-324h253v-264h-253v-453q0 -46 29.5 -74t76.5 -28h147v-263q-96 -12 -185 -12q-181 0 -281.5 91.5zM461 -462h-173l51 338h265z" />
    <glyph glyph-name="uni1E6D" unicode="&#x1e6d;" horiz-adv-x="868" 
d="M309.5 79.5q-100.5 91.5 -100.5 264.5v474h-164v264h173v240l305 84v-324h253v-264h-253v-453q0 -46 29.5 -74t76.5 -28h147v-263q-96 -12 -185 -12q-181 0 -281.5 91.5zM343.5 -368.5q-46.5 42.5 -46.5 109.5t46.5 110.5t119.5 43.5q72 0 118.5 -43.5t46.5 -110.5
t-46.5 -109.5t-118.5 -42.5q-73 0 -119.5 42.5z" />
    <glyph glyph-name="u" unicode="u" horiz-adv-x="1263" 
d="M322.5 25.5q-93.5 57.5 -143.5 162.5t-50 242v651h314v-661q0 -45 20.5 -83.5t58.5 -62t88 -23.5q56 0 101.5 30t71 80.5t25.5 109.5v610h314v-1081h-287v88h-12q-45 -53 -121 -86.5t-160 -33.5q-126 0 -219.5 57.5z" />
    <glyph glyph-name="uacute" unicode="&#xfa;" horiz-adv-x="1263" 
d="M949 1477l-325 -284l-162 76l289 361zM322.5 25.5q-93.5 57.5 -143.5 162.5t-50 242v651h314v-661q0 -45 20.5 -83.5t58.5 -62t88 -23.5q56 0 101.5 30t71 80.5t25.5 109.5v610h314v-1081h-287v88h-12q-45 -53 -121 -86.5t-160 -33.5q-126 0 -219.5 57.5z" />
    <glyph glyph-name="ubreve" unicode="&#x16d;" horiz-adv-x="1264" 
d="M456.5 1242.5q-76.5 45.5 -121 124t-44.5 173.5h187q0 -37 20.5 -67t54 -47t71.5 -17t72 17t54.5 47t20.5 67h188q0 -95 -45 -173.5t-121.5 -124t-168.5 -45.5q-91 0 -167.5 45.5zM322.5 25.5q-93.5 57.5 -143.5 162.5t-50 242v651h314v-661q0 -45 20.5 -83.5t58.5 -62
t88 -23.5q56 0 101.5 30t71 80.5t25.5 109.5v610h314v-1081h-287v88h-12q-45 -53 -121 -86.5t-160 -33.5q-126 0 -219.5 57.5z" />
    <glyph glyph-name="ucircumflex" unicode="&#xfb;" horiz-adv-x="1263" 
d="M625 1356l-186 -174l-162 77l222 296h252l223 -296l-162 -77zM322.5 25.5q-93.5 57.5 -143.5 162.5t-50 242v651h314v-661q0 -45 20.5 -83.5t58.5 -62t88 -23.5q56 0 101.5 30t71 80.5t25.5 109.5v610h314v-1081h-287v88h-12q-45 -53 -121 -86.5t-160 -33.5
q-126 0 -219.5 57.5z" />
    <glyph glyph-name="udieresis" unicode="&#xfc;" horiz-adv-x="1263" 
d="M283.5 1265.5q-45.5 45.5 -45.5 116.5t45.5 116.5t116.5 45.5q72 0 118 -45.5t46 -116.5t-46 -116.5t-118 -45.5q-71 0 -116.5 45.5zM733 1265.5q-46 45.5 -46 116.5t46 116.5t117 45.5q72 0 117 -45.5t45 -116.5t-45 -116.5t-117 -45.5q-71 0 -117 45.5zM322.5 25.5
q-93.5 57.5 -143.5 162.5t-50 242v651h314v-661q0 -45 20.5 -83.5t58.5 -62t88 -23.5q56 0 101.5 30t71 80.5t25.5 109.5v610h314v-1081h-287v88h-12q-45 -53 -121 -86.5t-160 -33.5q-126 0 -219.5 57.5z" />
    <glyph glyph-name="udoubleacute" unicode="&#x171;" horiz-adv-x="1263" 
d="M728 1473l-324 -285l-135 103l262 334zM1137 1467l-326 -285l-135 103l262 334zM322.5 25.5q-93.5 57.5 -143.5 162.5t-50 242v651h314v-661q0 -45 20.5 -83.5t58.5 -62t88 -23.5q56 0 101.5 30t71 80.5t25.5 109.5v610h314v-1081h-287v88h-12q-45 -53 -121 -86.5
t-160 -33.5q-126 0 -219.5 57.5z" />
    <glyph glyph-name="ugrave" unicode="&#xf9;" horiz-adv-x="1263" 
d="M787 1269l-161 -76l-326 284l200 153zM322.5 25.5q-93.5 57.5 -143.5 162.5t-50 242v651h314v-661q0 -45 20.5 -83.5t58.5 -62t88 -23.5q56 0 101.5 30t71 80.5t25.5 109.5v610h314v-1081h-287v88h-12q-45 -53 -121 -86.5t-160 -33.5q-126 0 -219.5 57.5z" />
    <glyph glyph-name="umacron" unicode="&#x16b;" horiz-adv-x="1263" 
d="M948 1290h-646v185h646v-185zM322.5 25.5q-93.5 57.5 -143.5 162.5t-50 242v651h314v-661q0 -45 20.5 -83.5t58.5 -62t88 -23.5q56 0 101.5 30t71 80.5t25.5 109.5v610h314v-1081h-287v88h-12q-45 -53 -121 -86.5t-160 -33.5q-126 0 -219.5 57.5z" />
    <glyph glyph-name="uogonek" unicode="&#x173;" horiz-adv-x="1263" 
d="M766 -418.5q-54 43.5 -54 111.5q0 48 18.5 86.5t57.5 79.5l131 141h-84l-1 88h-11q-45 -53 -119.5 -86.5t-161.5 -33.5q-126 0 -219.5 57.5t-143.5 162t-50 242.5v651h314v-661q0 -45 20 -83.5t58 -62t89 -23.5q56 0 101.5 30t71 80.5t25.5 109.5v611h314v-1082h-30
l-124 -184q-19 -27 -19 -52q0 -20 14 -32.5t40 -13.5q44 0 75 22l52 -163q-45 -19 -99 -29t-104 -10q-107 0 -161 43.5z" />
    <glyph glyph-name="uring" unicode="&#x16f;" horiz-adv-x="1263" 
d="M518 1190q-49 27 -77 75t-28 107t28 106.5t76.5 74.5t107.5 27q60 0 108.5 -27t76.5 -74.5t28 -106.5q0 -60 -28 -107.5t-76.5 -74.5t-108.5 -27q-58 0 -107 27zM681 1315.5q23 23.5 23 56.5q0 34 -23 57t-56 23q-32 0 -55.5 -23t-23.5 -57q0 -33 23.5 -56.5t55.5 -23.5
q33 0 56 23.5zM322.5 25.5q-93.5 57.5 -143.5 162.5t-50 242v651h314v-661q0 -45 20.5 -83.5t58.5 -62t88 -23.5q56 0 101.5 30t71 80.5t25.5 109.5v610h314v-1081h-287v88h-12q-45 -53 -121 -86.5t-160 -33.5q-126 0 -219.5 57.5z" />
    <glyph glyph-name="utilde" unicode="&#x169;" horiz-adv-x="1263" 
d="M683.5 1220q-34.5 15 -78.5 44q-35 22 -58.5 33t-49.5 11q-34 0 -65 -25t-45 -60l-139 130q31 84 95 135t143 51q46 0 81 -15.5t78 -44.5q37 -23 59.5 -34t48.5 -11q33 0 64.5 25t46.5 60l139 -128q-31 -85 -95 -135.5t-144 -50.5q-46 0 -80.5 15zM322.5 25.5
q-93.5 57.5 -143.5 162.5t-50 242v651h314v-661q0 -45 20.5 -83.5t58.5 -62t88 -23.5q56 0 101.5 30t71 80.5t25.5 109.5v610h314v-1081h-287v88h-12q-45 -53 -121 -86.5t-160 -33.5q-126 0 -219.5 57.5z" />
    <glyph glyph-name="v" unicode="v" horiz-adv-x="1117" 
d="M734 0h-352l-377 1082h345l208 -712l209 712h345z" />
    <glyph glyph-name="w" unicode="w" horiz-adv-x="1691" 
d="M677 0h-294l-378 1082h337l209 -719l160 441l-75 278h296l208 -712l209 712h337l-378 -1082h-294l-169 469z" />
    <glyph glyph-name="wacute" unicode="&#x1e83;" horiz-adv-x="1691" 
d="M1169 1477l-325 -284l-162 76l289 361zM677 0h-294l-378 1082h337l209 -719l160 441l-75 278h296l208 -712l209 712h337l-378 -1082h-294l-169 469z" />
    <glyph glyph-name="wcircumflex" unicode="&#x175;" horiz-adv-x="1691" 
d="M845 1356l-186 -174l-162 77l222 296h252l223 -296l-162 -77zM677 0h-294l-378 1082h337l209 -719l160 441l-75 278h296l208 -712l209 712h337l-378 -1082h-294l-169 469z" />
    <glyph glyph-name="wdieresis" unicode="&#x1e85;" horiz-adv-x="1691" 
d="M503.5 1265.5q-45.5 45.5 -45.5 116.5t45.5 116.5t116.5 45.5q72 0 118 -45.5t46 -116.5t-46 -116.5t-118 -45.5q-71 0 -116.5 45.5zM953 1265.5q-46 45.5 -46 116.5t46 116.5t117 45.5q72 0 117 -45.5t45 -116.5t-45 -116.5t-117 -45.5q-71 0 -117 45.5zM677 0h-294
l-378 1082h337l209 -719l160 441l-75 278h296l208 -712l209 712h337l-378 -1082h-294l-169 469z" />
    <glyph glyph-name="uni1E89" unicode="&#x1e89;" horiz-adv-x="1691" 
d="M677 0h-294l-378 1082h337l209 -719l160 441l-75 278h296l208 -712l209 712h337l-378 -1082h-294l-169 469zM725.5 -368.5q-46.5 42.5 -46.5 109.5t46.5 110.5t119.5 43.5q47 0 85 -19.5t59.5 -55t21.5 -79.5q0 -67 -47 -109.5t-119 -42.5q-73 0 -119.5 42.5z" />
    <glyph glyph-name="wgrave" unicode="&#x1e81;" horiz-adv-x="1691" 
d="M1007 1269l-161 -76l-326 284l200 153zM677 0h-294l-378 1082h337l209 -719l160 441l-75 278h296l208 -712l209 712h337l-378 -1082h-294l-169 469z" />
    <glyph glyph-name="x" unicode="x" horiz-adv-x="1200" 
d="M366 0h-378l391 590l-335 492h377l179 -280l178 280h377l-335 -492l391 -590h-377l-234 367z" />
    <glyph glyph-name="y" unicode="y" horiz-adv-x="1152" 
d="M80 -192q265 2 332 187l20 54l-427 1033h355l225 -637l214 637h348l-441 -1183q-48 -127 -127 -206t-200.5 -117t-298.5 -38v270z" />
    <glyph glyph-name="yacute" unicode="&#xfd;" horiz-adv-x="1152" 
d="M903 1477l-325 -284l-161 76l288 361zM80 -192q265 2 332 187l20 54l-427 1033h355l225 -637l214 637h348l-441 -1183q-48 -127 -127 -206t-200.5 -117t-298.5 -38v270z" />
    <glyph glyph-name="ycircumflex" unicode="&#x177;" horiz-adv-x="1152" 
d="M579 1356l-186 -174l-162 77l222 296h252l223 -296l-161 -77zM80 -192q265 2 332 187l20 54l-427 1033h355l225 -637l214 637h348l-441 -1183q-48 -127 -127 -206t-200.5 -117t-298.5 -38v270z" />
    <glyph glyph-name="ydieresis" unicode="&#xff;" horiz-adv-x="1152" 
d="M238 1265.5q-46 45.5 -46 116.5t46 116.5t117 45.5q72 0 117.5 -45.5t45.5 -116.5t-45.5 -116.5t-117.5 -45.5q-71 0 -117 45.5zM686.5 1265.5q-45.5 45.5 -45.5 116.5t45.5 116.5t116.5 45.5q72 0 118 -45.5t46 -116.5t-46 -116.5t-118 -45.5q-71 0 -116.5 45.5z
M80 -192q265 2 332 187l20 54l-427 1033h355l225 -637l214 637h348l-441 -1183q-48 -127 -127 -206t-200.5 -117t-298.5 -38v270z" />
    <glyph glyph-name="uni1EF5" unicode="&#x1ef5;" horiz-adv-x="1152" 
d="M80 -192q265 2 332 187l20 54l-427 1033h355l225 -637l214 637h348l-441 -1183q-48 -127 -127 -206t-200.5 -117t-298.5 -38v270zM829.5 -368.5q-46.5 42.5 -46.5 109.5t46.5 110.5t119.5 43.5q72 0 118.5 -43.5t46.5 -110.5t-46.5 -109.5t-118.5 -42.5
q-73 0 -119.5 42.5z" />
    <glyph glyph-name="ygrave" unicode="&#x1ef3;" horiz-adv-x="1152" 
d="M741 1269l-161 -76l-325 284l198 153zM80 -192q265 2 332 187l20 54l-427 1033h355l225 -637l214 637h348l-441 -1183q-48 -127 -127 -206t-200.5 -117t-298.5 -38v270z" />
    <glyph glyph-name="uni0233" unicode="&#x233;" horiz-adv-x="1152" 
d="M902 1290h-646v185h646v-185zM80 -192q265 2 332 187l20 54l-427 1033h355l225 -637l214 637h348l-441 -1183q-48 -127 -127 -206t-200.5 -117t-298.5 -38v270z" />
    <glyph glyph-name="z" unicode="z" horiz-adv-x="1087" 
d="M1040 0h-970v162l490 658h-463v262h912v-157l-489 -665h520v-260z" />
    <glyph glyph-name="zacute" unicode="&#x17a;" horiz-adv-x="1087" 
d="M880 1477l-325 -284l-162 76l288 361zM1040 0h-970v162l490 658h-463v262h912v-157l-489 -665h520v-260z" />
    <glyph glyph-name="zcaron" unicode="&#x17e;" horiz-adv-x="1087" 
d="M682 1182h-252l-222 297l162 76l186 -173l187 173l162 -76zM1040 0h-970v162l490 658h-463v262h912v-157l-489 -665h520v-260z" />
    <glyph glyph-name="zdotaccent" unicode="&#x17c;" horiz-adv-x="1087" 
d="M466 1240.5q-40 20.5 -62 57.5t-22 84t22 84t62 57.5t90 20.5t90 -20.5t62 -57.5t22 -84t-22 -84t-62 -57.5t-90 -20.5t-90 20.5zM1040 0h-970v162l490 658h-463v262h912v-157l-489 -665h520v-260z" />
    <glyph glyph-name="uni1E93" unicode="&#x1e93;" horiz-adv-x="1087" 
d="M1040 0h-970v162l490 658h-463v262h912v-157l-489 -665h520v-260zM436.5 -368.5q-46.5 42.5 -46.5 109.5t46.5 110.5t119.5 43.5q72 0 118.5 -43.5t46.5 -110.5t-46.5 -109.5t-118.5 -42.5q-73 0 -119.5 42.5z" />
    <glyph glyph-name="a.ss04" horiz-adv-x="1359" 
d="M336 41.5q-125 73.5 -197 204t-72 294.5t72 295t197 204.5t277 73.5q90 0 163.5 -30t126.5 -81v80h315v-1082h-288v92h-11q-52 -58 -130 -91t-176 -33q-152 0 -277 73.5zM784 291.5q61 34.5 95.5 98.5t34.5 150t-34.5 150.5t-95.5 99t-137 34.5t-136 -34.5t-94.5 -99
t-34.5 -150.5t34.5 -150t94.5 -98.5t136 -34.5t137 34.5z" />
    <glyph glyph-name="aacute.ss04" horiz-adv-x="1359" 
d="M933 1477l-325 -284l-162 76l288 361zM336 41.5q-125 73.5 -197 204t-72 294.5t72 295t197 204.5t277 73.5q90 0 163.5 -30t126.5 -81v80h315v-1082h-288v92h-11q-52 -58 -130 -91t-176 -33q-152 0 -277 73.5zM784 291.5q61 34.5 95.5 98.5t34.5 150t-34.5 150.5
t-95.5 99t-137 34.5t-136 -34.5t-94.5 -99t-34.5 -150.5t34.5 -150t94.5 -98.5t136 -34.5t137 34.5z" />
    <glyph glyph-name="abreve.ss04" horiz-adv-x="1359" 
d="M494 1242.5q-77 45.5 -122 124t-45 173.5h188q0 -37 20.5 -67t54.5 -47t72 -17t71 17t53.5 47t20.5 67h190q0 -95 -45 -173.5t-122 -124t-168 -45.5t-168 45.5zM336 41.5q-125 73.5 -197 204t-72 294.5t72 295t197 204.5t277 73.5q90 0 163.5 -30t126.5 -81v80h315v-1082
h-288v92h-11q-52 -58 -130 -91t-176 -33q-152 0 -277 73.5zM784 291.5q61 34.5 95.5 98.5t34.5 150t-34.5 150.5t-95.5 99t-137 34.5t-136 -34.5t-94.5 -99t-34.5 -150.5t34.5 -150t94.5 -98.5t136 -34.5t137 34.5z" />
    <glyph glyph-name="acircumflex.ss04" horiz-adv-x="1359" 
d="M677 1356l-187 -174l-161 77l222 296h252l222 -296l-161 -77zM336 41.5q-125 73.5 -197 204t-72 294.5t72 295t197 204.5t277 73.5q90 0 163.5 -30t126.5 -81v80h315v-1082h-288v92h-11q-52 -58 -130 -91t-176 -33q-152 0 -277 73.5zM784 291.5q61 34.5 95.5 98.5
t34.5 150t-34.5 150.5t-95.5 99t-137 34.5t-136 -34.5t-94.5 -99t-34.5 -150.5t34.5 -150t94.5 -98.5t136 -34.5t137 34.5z" />
    <glyph glyph-name="adieresis.ss04" horiz-adv-x="1359" 
d="M343.5 1265.5q-45.5 45.5 -45.5 116.5t45.5 116.5t116.5 45.5q72 0 117 -45.5t45 -116.5t-45 -116.5t-117 -45.5q-71 0 -116.5 45.5zM792.5 1265.5q-45.5 45.5 -45.5 116.5t45.5 116.5t116.5 45.5t117 -45.5t46 -116.5t-46 -116.5t-117 -45.5t-116.5 45.5zM336 41.5
q-125 73.5 -197 204t-72 294.5t72 295t197 204.5t277 73.5q90 0 163.5 -30t126.5 -81v80h315v-1082h-288v92h-11q-52 -58 -130 -91t-176 -33q-152 0 -277 73.5zM784 291.5q61 34.5 95.5 98.5t34.5 150t-34.5 150.5t-95.5 99t-137 34.5t-136 -34.5t-94.5 -99t-34.5 -150.5
t34.5 -150t94.5 -98.5t136 -34.5t137 34.5z" />
    <glyph glyph-name="agrave.ss04" horiz-adv-x="1359" 
d="M834 1269l-163 -76l-324 284l198 153zM336 41.5q-125 73.5 -197 204t-72 294.5t72 295t197 204.5t277 73.5q90 0 163.5 -30t126.5 -81v80h315v-1082h-288v92h-11q-52 -58 -130 -91t-176 -33q-152 0 -277 73.5zM784 291.5q61 34.5 95.5 98.5t34.5 150t-34.5 150.5
t-95.5 99t-137 34.5t-136 -34.5t-94.5 -99t-34.5 -150.5t34.5 -150t94.5 -98.5t136 -34.5t137 34.5z" />
    <glyph glyph-name="amacron.ss04" horiz-adv-x="1359" 
d="M1000 1290h-646v185h646v-185zM336 41.5q-125 73.5 -197 204t-72 294.5t72 295t197 204.5t277 73.5q90 0 163.5 -30t126.5 -81v80h315v-1082h-288v92h-11q-52 -58 -130 -91t-176 -33q-152 0 -277 73.5zM784 291.5q61 34.5 95.5 98.5t34.5 150t-34.5 150.5t-95.5 99
t-137 34.5t-136 -34.5t-94.5 -99t-34.5 -150.5t34.5 -150t94.5 -98.5t136 -34.5t137 34.5z" />
    <glyph glyph-name="aogonek.ss04" horiz-adv-x="1362" 
d="M861 -418.5q-54 43.5 -54 111.5q0 47 18.5 86.5t58.5 79.5l131 141h-85v92h-11q-53 -58 -130.5 -91t-175.5 -33q-156 0 -280.5 74t-195 204.5t-70.5 293.5q0 166 72.5 296.5t197 203.5t276.5 73q177 0 290 -111v80h315v-1082h-30l-125 -184q-18 -28 -18 -52
q0 -20 14.5 -33t39.5 -13q43 0 75 22l51 -163q-102 -39 -203 -39q-107 0 -161 43.5zM782.5 290.5q60.5 33.5 96 97.5t35.5 152t-35.5 152.5t-96 98t-135.5 33.5q-74 0 -134.5 -33.5t-95.5 -98t-35 -152.5t35 -152t95.5 -97.5t134.5 -33.5q75 0 135.5 33.5z" />
    <glyph glyph-name="aring.ss04" horiz-adv-x="1359" 
d="M533 1190q-49 27 -77.5 75t-28.5 107t28 106.5t76.5 74.5t108.5 27q59 0 107.5 -27t76.5 -74.5t28 -106.5t-28 -107t-76.5 -75t-107.5 -27q-58 0 -107 27zM696 1315.5q23 23.5 23 56.5q0 34 -23 57t-56 23q-32 0 -55.5 -23t-23.5 -57q0 -33 23.5 -56.5t55.5 -23.5
q33 0 56 23.5zM336 41.5q-125 73.5 -197 204t-72 294.5t72 295t197 204.5t277 73.5q90 0 163.5 -30t126.5 -81v80h315v-1082h-288v92h-11q-52 -58 -130 -91t-176 -33q-152 0 -277 73.5zM784 291.5q61 34.5 95.5 98.5t34.5 150t-34.5 150.5t-95.5 99t-137 34.5t-136 -34.5
t-94.5 -99t-34.5 -150.5t34.5 -150t94.5 -98.5t136 -34.5t137 34.5z" />
    <glyph glyph-name="atilde.ss04" horiz-adv-x="1359" 
d="M735 1220q-35 15 -79 44q-36 23 -58.5 33.5t-48.5 10.5q-34 0 -65.5 -25t-45.5 -60l-138 130q31 85 95 135.5t144 50.5q45 0 80 -15.5t78 -44.5q37 -24 59 -34.5t49 -10.5q34 0 65.5 25t46.5 60l137 -128q-31 -85 -94.5 -135.5t-143.5 -50.5q-46 0 -81 15zM336 41.5
q-125 73.5 -197 204t-72 294.5t72 295t197 204.5t277 73.5q90 0 163.5 -30t126.5 -81v80h315v-1082h-288v92h-11q-52 -58 -130 -91t-176 -33q-152 0 -277 73.5zM784 291.5q61 34.5 95.5 98.5t34.5 150t-34.5 150.5t-95.5 99t-137 34.5t-136 -34.5t-94.5 -99t-34.5 -150.5
t34.5 -150t94.5 -98.5t136 -34.5t137 34.5z" />
    <glyph glyph-name="ae.ss04" horiz-adv-x="2069" 
d="M332.5 42q-123.5 74 -194.5 204.5t-71 293.5t71 294t194.5 205t275.5 74q179 0 295 -111v79h314v-75q53 50 121 78.5t143 28.5q141 0 259.5 -65.5t190 -193t74.5 -306.5q0 -22 -2 -55t-5 -46l-781 1v-72q28 -65 90.5 -103t142.5 -38t140.5 36t91.5 96l274 -120
q-65 -133 -181 -206t-260 -73q-76 0 -158.5 30.5t-136.5 83.5h-3v-82h-291v92h-4q-53 -57 -134.5 -90.5t-179.5 -33.5q-152 0 -275.5 74zM1688 647q-6 61 -40.5 108t-87.5 73t-113 26q-76 0 -139 -40t-91 -107v-60h471zM783 292.5q61 36.5 95.5 101t34.5 146.5
q0 87 -34.5 151.5t-95 99t-136.5 34.5t-136.5 -34.5t-95 -99.5t-34.5 -151q0 -82 35 -146.5t95.5 -101t135.5 -36.5t136 36.5z" />
    <glyph glyph-name="l.ss05" horiz-adv-x="659" 
d="M216 65.5q-75 76.5 -75 213.5v1242h314v-1175q0 -36 21 -58t57 -22h84v-264q-88 -13 -185 -13q-141 0 -216 76.5z" />
    <glyph glyph-name="lacute.ss05" horiz-adv-x="659" 
d="M600 1830l-325 -249l-161 63l287 310zM216 65.5q-75 76.5 -75 213.5v1242h314v-1175q0 -36 21 -58t57 -22h84v-264q-88 -13 -185 -13q-141 0 -216 76.5z" />
    <glyph glyph-name="lcaron.ss05" horiz-adv-x="840" 
d="M745 1184h-174l53 338h264zM216 65.5q-75 76.5 -75 213.5v1242h314v-1175q0 -36 21 -58t57 -22h84v-264q-88 -13 -185 -13q-141 0 -216 76.5z" />
    <glyph glyph-name="uni013C.ss05" horiz-adv-x="659" 
d="M216 65.5q-75 76.5 -75 213.5v1242h314v-1175q0 -36 21 -58t57 -22h84v-264q-88 -13 -185 -13q-141 0 -216 76.5zM404 -462h-174l51 338h265z" />
    <glyph glyph-name="uni1E37.ss05" horiz-adv-x="659" 
d="M216 65.5q-75 76.5 -75 213.5v1242h314v-1175q0 -36 21 -58t57 -22h84v-264q-88 -13 -185 -13q-141 0 -216 76.5zM247.5 -368.5q-46.5 42.5 -46.5 109.5t46.5 110.5t118.5 43.5q73 0 119.5 -43.5t46.5 -110.5t-46.5 -109.5t-119.5 -42.5q-72 0 -118.5 42.5z" />
    <glyph glyph-name="uni1E39.ss05" horiz-adv-x="659" 
d="M599 1748h-563v185h563v-185zM216 65.5q-75 76.5 -75 213.5v1242h314v-1175q0 -36 21 -58t57 -22h84v-264q-88 -13 -185 -13q-141 0 -216 76.5zM247.5 -368.5q-46.5 42.5 -46.5 109.5t46.5 110.5t118.5 43.5q73 0 119.5 -43.5t46.5 -110.5t-46.5 -109.5t-119.5 -42.5
q-72 0 -118.5 42.5z" />
    <glyph glyph-name="uni1E3B.ss05" horiz-adv-x="659" 
d="M216 65.5q-75 76.5 -75 213.5v1242h314v-1175q0 -36 21 -58t57 -22h84v-264q-88 -13 -185 -13q-141 0 -216 76.5zM621 -368h-549v186h549v-186z" />
    <glyph glyph-name="lslash.ss05" horiz-adv-x="774" 
d="M303 66.5q-73 77.5 -73 212.5v294l-177 -102l-85 144l262 152v754h314v-572l178 102l84 -145l-262 -152v-408q0 -36 20 -58t57 -22h85v-264q-88 -13 -185 -13q-145 0 -218 77.5z" />
    <glyph glyph-name="t.ss06" horiz-adv-x="821" 
d="M568 0h-314v818h-209v264h209v324h314v-324h208v-264h-208v-818z" />
    <glyph glyph-name="tbar.ss06" horiz-adv-x="821" 
d="M568 0h-314v405h-158v167h158v246h-209v264h209v324h314v-324h208v-264h-208v-246h158v-167h-158v-405z" />
    <glyph glyph-name="tcaron.ss06" horiz-adv-x="959" 
d="M849 1217h-174l52 339h264zM568 0h-314v818h-209v264h209v324h314v-324h208v-264h-208v-818z" />
    <glyph glyph-name="uni0163.ss06" horiz-adv-x="821" 
d="M165 -427l65 150q35 -22 86 -22q42 0 66 18.5t24 49.5q0 39 -31.5 57t-95.5 18l67 156h-92v818h-209v264h209v324h314v-324h208v-264h-208v-818h-53l-27 -64q78 -12 119.5 -57t41.5 -124q0 -71 -39.5 -120t-104.5 -73t-141 -24q-140 0 -199 35z" />
    <glyph glyph-name="uni021B.ss06" horiz-adv-x="821" 
d="M568 0h-314v818h-209v264h209v324h314v-324h208v-264h-208v-818zM417 -462h-174l52 338h265z" />
    <glyph glyph-name="uni1E6D.ss06" horiz-adv-x="821" 
d="M568 0h-314v818h-209v264h209v324h314v-324h208v-264h-208v-818zM291.5 -368.5q-46.5 42.5 -46.5 109.5t46.5 110.5t119.5 43.5q47 0 85 -19.5t59.5 -55t21.5 -79.5q0 -67 -47 -109.5t-119 -42.5q-73 0 -119.5 42.5z" />
    <glyph glyph-name="u.ss07" horiz-adv-x="1235" 
d="M363 19.5q-110 51.5 -172 151t-62 239.5v672h314v-655q0 -53 23 -93t62.5 -61.5t87.5 -21.5q50 0 89.5 22t62 62t22.5 92v655h315v-672q0 -140 -62 -239.5t-172.5 -151t-254.5 -51.5q-143 0 -253 51.5z" />
    <glyph glyph-name="uacute.ss07" horiz-adv-x="1235" 
d="M910 1477l-325 -284l-161 76l287 361zM363 19.5q-110 51.5 -172 151t-62 239.5v672h314v-655q0 -53 23 -93t62.5 -61.5t87.5 -21.5q50 0 89.5 22t62 62t22.5 92v655h315v-672q0 -140 -62 -239.5t-172.5 -151t-254.5 -51.5q-143 0 -253 51.5z" />
    <glyph glyph-name="ubreve.ss07" horiz-adv-x="1235" 
d="M448.5 1242.5q-76.5 45.5 -121.5 124t-45 173.5h188q0 -37 20.5 -67t54 -47t71.5 -17t71.5 17t54 47t20.5 67h189q0 -95 -45 -173.5t-122 -124t-168 -45.5t-167.5 45.5zM363 19.5q-110 51.5 -172 151t-62 239.5v672h314v-655q0 -53 23 -93t62.5 -61.5t87.5 -21.5
q50 0 89.5 22t62 62t22.5 92v655h315v-672q0 -140 -62 -239.5t-172.5 -151t-254.5 -51.5q-143 0 -253 51.5z" />
    <glyph glyph-name="ucircumflex.ss07" horiz-adv-x="1235" 
d="M616 1356l-186 -174l-162 77l223 296h251l223 -296l-161 -77zM363 19.5q-110 51.5 -172 151t-62 239.5v672h314v-655q0 -53 23 -93t62.5 -61.5t87.5 -21.5q50 0 89.5 22t62 62t22.5 92v655h315v-672q0 -140 -62 -239.5t-172.5 -151t-254.5 -51.5q-143 0 -253 51.5z" />
    <glyph glyph-name="udieresis.ss07" horiz-adv-x="1235" 
d="M275 1265.5q-46 45.5 -46 116.5t46 116.5t117 45.5q72 0 117.5 -45.5t45.5 -116.5t-45.5 -116.5t-117.5 -45.5q-71 0 -117 45.5zM724 1265.5q-46 45.5 -46 116.5t46 116.5t117 45.5q72 0 117.5 -45.5t45.5 -116.5t-45.5 -116.5t-117.5 -45.5q-71 0 -117 45.5zM363 19.5
q-110 51.5 -172 151t-62 239.5v672h314v-655q0 -53 23 -93t62.5 -61.5t87.5 -21.5q50 0 89.5 22t62 62t22.5 92v655h315v-672q0 -140 -62 -239.5t-172.5 -151t-254.5 -51.5q-143 0 -253 51.5z" />
    <glyph glyph-name="ugrave.ss07" horiz-adv-x="1235" 
d="M810 1269l-162 -76l-324 284l199 153zM363 19.5q-110 51.5 -172 151t-62 239.5v672h314v-655q0 -53 23 -93t62.5 -61.5t87.5 -21.5q50 0 89.5 22t62 62t22.5 92v655h315v-672q0 -140 -62 -239.5t-172.5 -151t-254.5 -51.5q-143 0 -253 51.5z" />
    <glyph glyph-name="umacron.ss07" horiz-adv-x="1235" 
d="M940 1290h-646v185h646v-185zM363 19.5q-110 51.5 -172 151t-62 239.5v672h314v-655q0 -53 23 -93t62.5 -61.5t87.5 -21.5q50 0 89.5 22t62 62t22.5 92v655h315v-672q0 -140 -62 -239.5t-172.5 -151t-254.5 -51.5q-143 0 -253 51.5z" />
    <glyph glyph-name="uogonek.ss07" horiz-adv-x="1235" 
d="M578 -419q-54 43 -54 112q0 49 18.5 87.5t57.5 78.5l103 118q-49 -9 -87 -9q-139 0 -248.5 49.5t-173 149t-65.5 243.5v672h314v-655q0 -54 22.5 -93.5t62 -61t88.5 -21.5q76 0 125 47.5t49 128.5v655h315v-672q0 -115 -42 -200.5t-117 -141.5l-167 -252q-18 -28 -18 -52
q0 -21 14.5 -33.5t39.5 -12.5q41 0 75 22l51 -163q-43 -19 -97.5 -29t-105.5 -10q-106 0 -160 43z" />
    <glyph glyph-name="uring.ss07" horiz-adv-x="1235" 
d="M509.5 1190q-48.5 27 -77 75t-28.5 107t28 106.5t76.5 74.5t107.5 27q60 0 109 -27t77 -74.5t28 -106.5t-28 -107t-77 -75t-109 -27q-58 0 -106.5 27zM672 1315q23 23 23 57t-23 57t-56 23q-32 0 -55 -23t-23 -57t23 -57t55 -23q33 0 56 23zM363 19.5q-110 51.5 -172 151
t-62 239.5v672h314v-655q0 -53 23 -93t62.5 -61.5t87.5 -21.5q50 0 89.5 22t62 62t22.5 92v655h315v-672q0 -140 -62 -239.5t-172.5 -151t-254.5 -51.5q-143 0 -253 51.5z" />
    <glyph glyph-name="utilde.ss07" horiz-adv-x="1235" 
d="M675 1220q-35 15 -79 44q-36 23 -58.5 33.5t-48.5 10.5q-34 0 -65.5 -25t-45.5 -60l-139 130q32 85 95.5 135.5t143.5 50.5q46 0 81 -15.5t78 -44.5q35 -23 58 -34t49 -11q34 0 65.5 25t46.5 60l138 -128q-31 -84 -95 -135t-143 -51q-46 0 -81 15zM363 19.5
q-110 51.5 -172 151t-62 239.5v672h314v-655q0 -53 23 -93t62.5 -61.5t87.5 -21.5q50 0 89.5 22t62 62t22.5 92v655h315v-672q0 -140 -62 -239.5t-172.5 -151t-254.5 -51.5q-143 0 -253 51.5z" />
    <glyph glyph-name="w.ss08" horiz-adv-x="1651" 
d="M628 0h-306l-307 1082h331l157 -694l204 694h238l202 -694l158 694h331l-308 -1082h-305l-198 617z" />
    <glyph glyph-name="wacute.ss08" horiz-adv-x="1651" 
d="M1119 1477l-326 -284l-162 76l289 361zM628 0h-306l-307 1082h331l157 -694l204 694h238l202 -694l158 694h331l-308 -1082h-305l-198 617z" />
    <glyph glyph-name="wcircumflex.ss08" horiz-adv-x="1651" 
d="M825 1356l-186 -174l-162 77l222 296h252l223 -296l-162 -77zM628 0h-306l-307 1082h331l157 -694l204 694h238l202 -694l158 694h331l-308 -1082h-305l-198 617z" />
    <glyph glyph-name="wdieresis.ss08" horiz-adv-x="1651" 
d="M483 1265.5q-46 45.5 -46 116.5t46 116.5t117 45.5t117 -45.5t46 -116.5t-46 -116.5t-117 -45.5t-117 45.5zM933 1265.5q-46 45.5 -46 116.5t46 116.5t117 45.5t116.5 -45.5t45.5 -116.5t-45.5 -116.5t-116.5 -45.5t-117 45.5zM628 0h-306l-307 1082h331l157 -694
l204 694h238l202 -694l158 694h331l-308 -1082h-305l-198 617z" />
    <glyph glyph-name="uni1E89.ss08" horiz-adv-x="1651" 
d="M628 0h-306l-307 1082h331l157 -694l204 694h238l202 -694l158 694h331l-308 -1082h-305l-198 617zM706 -368.5q-46 42.5 -46 109.5q0 68 46 111t119 43t119.5 -43.5t46.5 -110.5t-46.5 -109.5t-119.5 -42.5t-119 42.5z" />
    <glyph glyph-name="wgrave.ss08" horiz-adv-x="1651" 
d="M1019 1269l-162 -76l-326 284l200 153zM628 0h-306l-307 1082h331l157 -694l204 694h238l202 -694l158 694h331l-308 -1082h-305l-198 617z" />
    <glyph glyph-name="y.ss09" horiz-adv-x="1152" 
d="M583 -430h-329l178 479l-427 1033h355l225 -637l214 637h348z" />
    <glyph glyph-name="yacute.ss09" horiz-adv-x="1152" 
d="M874 1477l-326 -284l-161 76l288 361zM583 -430h-329l178 479l-427 1033h355l225 -637l214 637h348z" />
    <glyph glyph-name="ycircumflex.ss09" horiz-adv-x="1152" 
d="M580 1356l-187 -174l-161 77l222 296h252l222 -296l-161 -77zM583 -430h-329l178 479l-427 1033h355l225 -637l214 637h348z" />
    <glyph glyph-name="ydieresis.ss09" horiz-adv-x="1152" 
d="M239 1265.5q-46 45.5 -46 116.5t46 116.5t117 45.5t116.5 -45.5t45.5 -116.5t-45.5 -116.5t-116.5 -45.5t-117 45.5zM688 1265.5q-46 45.5 -46 116.5t46 116.5t117 45.5t116.5 -45.5t45.5 -116.5t-45.5 -116.5t-116.5 -45.5t-117 45.5zM583 -430h-329l178 479l-427 1033
h355l225 -637l214 637h348z" />
    <glyph glyph-name="uni1EF5.ss09" horiz-adv-x="1152" 
d="M583 -430h-329l178 479l-427 1033h355l225 -637l214 637h348zM813.5 -368.5q-46.5 42.5 -46.5 109.5q0 68 46.5 111t119.5 43q72 0 118.5 -43.5t46.5 -110.5t-46.5 -109.5t-118.5 -42.5q-73 0 -119.5 42.5z" />
    <glyph glyph-name="ygrave.ss09" horiz-adv-x="1152" 
d="M774 1269l-162 -76l-325 284l199 153zM583 -430h-329l178 479l-427 1033h355l225 -637l214 637h348z" />
    <glyph glyph-name="uni0233.ss09" horiz-adv-x="1152" 
d="M903 1290h-646v185h646v-185zM583 -430h-329l178 479l-427 1033h355l225 -637l214 637h348z" />
    <glyph glyph-name="fl.ss05" horiz-adv-x="1466" 
d="M230 0v818h-164v264h164v96q0 169 98 262.5t284 93.5q69 0 184 -12v-263h-146q-47 0 -76 -28t-29 -74v-75h251v-264h-251v-818h-315zM1023.5 65.5q-74.5 76.5 -74.5 213.5v1242h314v-1175q0 -36 21 -58t56 -22h85v-264q-90 -13 -185 -13q-142 0 -216.5 76.5z" />
    <glyph glyph-name="ordfeminine" unicode="&#xaa;" horiz-adv-x="759" 
d="M140.5 726q-46.5 23 -71 64t-24.5 93q0 79 49 128t140 79l178 58v18q0 22 -12.5 36t-38.5 14q-22 0 -36 -14t-16 -36h-244q6 78 44.5 139.5t104.5 97t151 35.5q154 0 228 -72t74 -200v-443h-234v58q-29 -34 -80 -56t-102 -22q-64 0 -110.5 23zM380.5 918.5
q23.5 18.5 31.5 49.5v35l-87 -29q-40 -10 -40 -41q0 -33 39 -33q33 0 56.5 18.5z" />
    <glyph glyph-name="ordmasculine" unicode="&#xba;" horiz-adv-x="857" 
d="M216 750q-85 47 -132.5 130.5t-47.5 189.5t47.5 190t132.5 131t193 47t193 -47t133 -131t48 -190t-48 -189.5t-133 -130.5t-193 -47t-193 47zM497.5 977.5q34.5 36.5 34.5 92.5q0 57 -34.5 93t-88.5 36t-88.5 -36t-34.5 -93q0 -56 34.5 -92.5t88.5 -36.5t88.5 36.5z" />
    <glyph glyph-name="ordfeminine.ss04" horiz-adv-x="886" 
d="M194 750q-75 47 -116.5 130.5t-41.5 189.5t41.5 190t116.5 131t171 47q48 0 86 -15.5t72 -44.5v39h250v-694h-235v42q-33 -27 -78.5 -44.5t-94.5 -17.5q-96 0 -171 47zM497 975q35 37 35 95t-35 95.5t-88 37.5q-54 0 -88.5 -37.5t-34.5 -95.5t34.5 -95t88.5 -37
q53 0 88 37z" />
    <glyph glyph-name="pi-grek" unicode="&#x3c0;" horiz-adv-x="1477" 
d="M233 0v821h-180v261h1370v-261h-193v-455q0 -46 29.5 -75.5t75.5 -29.5h105v-260h-161q-173 4 -268 99.5t-95 263.5v457h-370v-821h-313z" />
    <glyph glyph-name="zero" unicode="0" horiz-adv-x="1315" 
d="M359 46q-129 78 -202.5 242t-73.5 415t73.5 415t202.5 242t299 78t299 -78t202.5 -242t73.5 -415t-73.5 -415t-202.5 -242t-299 -78t-299 78zM787 318q58 44 93 140.5t35 244.5q0 222 -70.5 326t-186.5 104t-186 -104t-70 -326q0 -148 35 -244.5t93 -140.5t128 -44
q71 0 129 44z" />
    <glyph glyph-name="one" unicode="1" horiz-adv-x="807" 
d="M641 0h-318v1117h-308v258l350 31h276v-1406z" />
    <glyph glyph-name="two" unicode="2" horiz-adv-x="1232" 
d="M49 0v172l587 490q77 64 124 132t47 143q0 52 -25 96.5t-71.5 71t-109.5 26.5q-62 0 -110.5 -27.5t-75 -72.5t-26.5 -97v-64h-319v64q0 154 69 268.5t189.5 175t270.5 60.5q152 0 274 -58.5t192.5 -172t70.5 -273.5q0 -107 -36 -187.5t-92 -139t-146 -131.5l-223 -190
h506v-286h-1096z" />
    <glyph glyph-name="three" unicode="3" horiz-adv-x="1204" 
d="M331.5 12.5q-116.5 44.5 -194 131.5t-96.5 209l328 42q14 -64 71.5 -107.5t141.5 -43.5q62 0 112 24t78 67.5t28 99.5q0 84 -50 137.5t-143 53.5h-244v172l271 322h-529v286h925v-216l-275 -327h27q92 0 172 -50.5t128 -145t48 -221.5q0 -147 -73 -255t-198 -165.5
t-277 -57.5q-134 0 -250.5 44.5z" />
    <glyph glyph-name="four" unicode="4" horiz-adv-x="1225" 
d="M1076 0h-320v254h-693v220l433 932h363l-407 -866h304v258h320v-258h105v-286h-105v-254z" />
    <glyph glyph-name="five" unicode="5" horiz-adv-x="1246" 
d="M356 12.5q-116 44.5 -191.5 131t-94.5 209.5l328 42q13 -64 70.5 -107.5t141.5 -43.5q63 0 113 24.5t78 68t28 98.5q0 85 -49 138t-146 53h-488v780h935v-286h-617v-223h270q119 0 215 -52t152.5 -153.5t56.5 -245.5q0 -147 -72.5 -255t-197.5 -165.5t-278 -57.5
q-138 0 -254 44.5z" />
    <glyph glyph-name="six" unicode="6" horiz-adv-x="1215" 
d="M343.5 25.5q-124.5 57.5 -199 171t-74.5 274.5q0 171 95 327l374 608h371l-314 -487q55 29 126 29q121 0 222.5 -56t162.5 -164t61 -257q0 -161 -74.5 -274.5t-199 -171t-275.5 -57.5t-275.5 57.5zM731 301.5q50 26.5 78 73t28 106.5t-28 107t-77.5 73t-112.5 26
q-64 0 -113.5 -26.5t-77.5 -73.5t-28 -107t28 -106.5t78 -72.5t113 -26q62 0 112 26.5z" />
    <glyph glyph-name="seven" unicode="7" horiz-adv-x="1067" 
d="M477 0h-371l526 1119l-594 1v286h992v-220z" />
    <glyph glyph-name="eight" unicode="8" horiz-adv-x="1287" 
d="M369.5 16q-124.5 48 -199.5 148.5t-75 249.5q0 115 58 204t157 134q-75 40 -117 114t-42 163q0 132 64 224t175.5 138.5t253.5 46.5q141 0 252.5 -46.5t176 -139t64.5 -223.5q0 -89 -42 -163t-117 -114q98 -45 156.5 -134t58.5 -204q0 -149 -75 -249.5t-199.5 -148.5
t-274.5 -48t-274.5 48zM773 898.5q47 42.5 47 112.5t-49 110.5t-127 40.5q-79 0 -128 -41.5t-49 -111.5q1 -69 48.5 -111t128.5 -42q82 0 129 42.5zM743 265q47 20 76.5 60t29.5 97q0 83 -56.5 130t-148.5 47q-93 0 -149 -47t-56 -130q0 -57 29.5 -97t77 -60t98.5 -20
q52 0 99 20z" />
    <glyph glyph-name="nine" unicode="9" horiz-adv-x="1215" 
d="M620 488q-57 -30 -127 -30q-121 0 -222.5 56t-162.5 164t-61 258q0 161 74.5 274.5t199 170.5t274.5 57q151 0 276 -57t199 -170.5t74 -274.5q0 -173 -95 -328l-372 -608h-371zM709.5 745.5q50.5 26.5 78 73.5t27.5 107t-28 106.5t-78.5 72.5t-113.5 26q-62 0 -112 -26
t-78 -72.5t-28 -106.5t28 -107t77.5 -73.5t112.5 -26.5q64 0 114.5 26.5z" />
    <glyph glyph-name="zero.tnum" 
d="M216 148.5q-146 180.5 -146 554.5t146 554.5t403 180.5q258 0 403.5 -180t145.5 -555t-145.5 -555t-403.5 -180q-257 0 -403 180.5zM787.5 377.5q61.5 103.5 61.5 325.5q0 226 -59 328t-171 102t-171 -102t-59 -328q0 -222 62 -325.5t168 -103.5q107 0 168.5 103.5z" />
    <glyph glyph-name="one.tnum" 
d="M1119 0h-1000v260h341v857h-341v258l384 31h275v-1146h341v-260z" />
    <glyph glyph-name="two.tnum" 
d="M69 0v172l587 490q77 65 124 132.5t47 142.5q0 52 -24.5 96.5t-71 71t-110.5 26.5t-114 -27.5t-77.5 -72.5t-27.5 -97v-64h-319v64q0 154 70 268.5t192 175t274 60.5q153 0 275 -58.5t192 -172t70 -273.5q0 -104 -34 -183t-88 -137.5t-139 -127.5l-237 -200h507v-286
h-1096z" />
    <glyph glyph-name="three.tnum" 
d="M364.5 12.5q-116.5 44.5 -193.5 131.5t-96 209l328 42q13 -64 70.5 -107.5t142.5 -43.5q62 0 112 24t78 67.5t28 99.5q0 84 -50.5 137.5t-143.5 53.5h-243v172l270 322h-529v286h925v-216l-274 -327h27q92 0 171.5 -50.5t128 -145t48.5 -221.5q0 -146 -73.5 -254.5
t-198.5 -166t-276 -57.5q-135 0 -251.5 44.5z" />
    <glyph glyph-name="four.tnum" 
d="M1086 0h-320v254h-699v220l432 932h363l-407 -866h311v258h320v-258h106v-286h-106v-254z" />
    <glyph glyph-name="five.tnum" 
d="M359.5 12.5q-115.5 44.5 -191 131t-93.5 209.5l326 42q15 -65 72 -108t141 -43q63 0 112.5 24.5t77.5 68t28 98.5q0 85 -48.5 138t-145.5 53h-488v780h936v-286h-617v-223h269q118 0 215 -52t153.5 -153.5t56.5 -245.5q0 -147 -73 -255t-198 -165.5t-278 -57.5
q-139 0 -254.5 44.5z" />
    <glyph glyph-name="six.tnum" 
d="M343 25.5q-125 57.5 -199 171t-74 274.5q0 172 96 327l373 608h372l-314 -487q55 29 125 29q120 0 222 -56t163 -164t61 -257q0 -161 -74.5 -274.5t-199 -171t-275.5 -57.5t-276 57.5zM732 301.5q50 26.5 78 73t28 106.5t-28 107t-77.5 73t-113.5 26t-113.5 -26.5
t-77 -73.5t-27.5 -107t28 -106.5t78 -72.5t112 -26q63 0 113 26.5z" />
    <glyph glyph-name="seven.tnum" 
d="M599 0h-372l527 1119l-665 1v286h1062v-220z" />
    <glyph glyph-name="eight.tnum" 
d="M344.5 16q-124.5 48 -199.5 148.5t-75 249.5q0 114 58 203.5t156 134.5q-75 40 -116.5 114t-41.5 163q0 131 64.5 223.5t176 139t252.5 46.5t252.5 -46.5t176 -139t64.5 -223.5q0 -89 -41.5 -163t-116.5 -114q98 -45 156 -134t58 -204q0 -149 -75 -249.5t-199.5 -148.5
t-274.5 -48t-274.5 48zM749 898.5q47 42.5 47 112.5q0 69 -49 110t-128 41t-127.5 -41.5t-48.5 -111.5q1 -69 48 -111t128 -42q83 0 130 42.5zM718.5 265q47.5 20 77 60t29.5 97q-1 83 -57.5 130t-148.5 47t-148.5 -47t-56.5 -130q0 -57 29.5 -97t77 -60t98.5 -20
q52 0 99.5 20z" />
    <glyph glyph-name="nine.tnum" 
d="M642 488q-57 -30 -127 -30q-120 0 -221.5 56t-162.5 164t-61 258q0 161 74 274.5t198.5 170.5t275.5 57t276 -57t199 -170.5t74 -274.5q0 -173 -95 -328l-373 -608h-371zM732 745.5q50 26.5 77.5 74t27.5 106.5q0 60 -28 106.5t-78 72.5t-113 26q-62 0 -112 -26
t-78 -72.5t-28 -106.5t28 -107t77.5 -73.5t112.5 -26.5q64 0 114 26.5z" />
    <glyph glyph-name="uni2080" unicode="&#x2080;" horiz-adv-x="671" 
d="M110.5 -277.5q-80.5 89.5 -80.5 277.5t80.5 277.5t225.5 89.5q144 0 224.5 -89.5t80.5 -277.5t-80.5 -277.5t-224.5 -89.5q-145 0 -225.5 89.5zM417 0q0 89 -19.5 126.5t-61.5 37.5t-62 -37.5t-20 -126.5q0 -164 82 -164q81 0 81 164z" />
    <glyph glyph-name="uni2081" unicode="&#x2081;" horiz-adv-x="672" 
d="M488 -352h-224v514h-165v170l197 19h192v-703z" />
    <glyph glyph-name="uni2082" unicode="&#x2082;" horiz-adv-x="672" 
d="M30 -352v109l306 238q30 24 51.5 52.5t21.5 54.5t-20.5 44t-52.5 18q-31 0 -52.5 -19t-21.5 -45v-31h-232v31q0 85 41.5 145t111 91t152.5 31q84 0 153 -29.5t110.5 -89.5t41.5 -148q0 -69 -31 -119.5t-86 -89.5l-69 -54h182v-189h-606z" />
    <glyph glyph-name="uni2083" unicode="&#x2083;" horiz-adv-x="672" 
d="M194 -344q-66 23 -109.5 69.5t-52.5 114.5l231 23q4 -21 23.5 -35t48.5 -14q34 0 53.5 15t19.5 41t-16 41.5t-47 15.5h-151v109l115 126h-236v189h513v-142l-117 -128h8q40 0 77.5 -25t61.5 -71t24 -108q0 -78 -42 -133t-111.5 -83t-151.5 -28q-75 0 -141 23z" />
    <glyph glyph-name="uni2084" unicode="&#x2084;" horiz-adv-x="672" 
d="M602 -351h-224v98h-353v144l221 460h254l-202 -414h101v123h203v-123h46v-190h-46v-98z" />
    <glyph glyph-name="uni2085" unicode="&#x2085;" horiz-adv-x="672" 
d="M129 -314q-85 53 -97 154l231 23q4 -21 23 -34.5t49 -13.5q34 0 53.5 15t19.5 41q0 25 -15.5 40.5t-47.5 15.5h-284v425h537v-189h-313v-58h132q61 0 111.5 -25.5t81 -77t30.5 -124.5q0 -79 -41.5 -134t-111 -83t-152.5 -28q-121 0 -206 53z" />
    <glyph glyph-name="uni2086" unicode="&#x2086;" horiz-adv-x="672" 
d="M183 -338q-69 29 -111 88t-42 145q0 91 57 181l180 275h261l-153 -217q14 6 36 6q61 0 113.5 -28t84.5 -83.5t32 -133.5q0 -86 -41.5 -145t-111.5 -88t-153 -29t-152 29zM389 -145q21 19 21 47q-1 29 -21 47.5t-54 18.5q-33 0 -52.5 -18.5t-20.5 -47.5q0 -28 20.5 -47
t52.5 -19q33 0 54 19z" />
    <glyph glyph-name="uni2087" unicode="&#x2087;" horiz-adv-x="672" 
d="M355 -351h-259l249 513l-297 1v188h576v-143z" />
    <glyph glyph-name="uni2088" unicode="&#x2088;" horiz-adv-x="672" 
d="M118 -311q-87 56 -87 173q0 52 26 93.5t70 66.5q-33 22 -51 55.5t-18 74.5q0 72 37.5 120t100.5 71.5t140 23.5t140 -23.5t100.5 -71.5t37.5 -120q0 -41 -18 -74.5t-51 -55.5q45 -25 70.5 -66t25.5 -94q0 -117 -87 -173t-218 -56t-218 56zM377 104q15 13 15 34
q0 22 -15.5 35t-40.5 13t-40.5 -13t-15.5 -35q0 -21 15 -34t41 -13t41 13zM381.5 -171q18.5 14 18.5 39q-1 25 -18 39.5t-46 14.5t-46 -14.5t-18 -39.5q0 -25 18.5 -39t45.5 -14t45.5 14z" />
    <glyph glyph-name="uni2089" unicode="&#x2089;" horiz-adv-x="672" 
d="M297 -133q-11 -6 -36 -6q-61 0 -113.5 28t-84.5 83t-32 133q0 86 41.5 145t111 88t152.5 29t152.5 -29t111 -88t41.5 -145q0 -94 -57 -180l-179 -276h-260zM389.5 51q20.5 19 20.5 48q0 28 -20.5 46.5t-53.5 18.5t-53 -18.5t-20 -46.5q0 -29 19.5 -48t53.5 -19
q33 0 53.5 19z" />
    <glyph glyph-name="zero.dnom" horiz-adv-x="671" 
d="M110.5 75q-80.5 90 -80.5 277q0 188 80.5 278t225.5 90q144 0 224.5 -90t80.5 -278q0 -187 -80.5 -277t-224.5 -90q-145 0 -225.5 90zM395.5 227q21.5 39 21.5 125q0 89 -19.5 127t-61.5 38t-62 -38t-20 -127q0 -164 82 -164q38 0 59.5 39z" />
    <glyph glyph-name="one.dnom" horiz-adv-x="672" 
d="M488 0h-224v513h-165v170l197 20h192v-703z" />
    <glyph glyph-name="two.dnom" horiz-adv-x="672" 
d="M30 0v110l306 237q30 24 51.5 52.5t21.5 54.5t-20.5 44t-52.5 18q-31 0 -52.5 -19t-21.5 -45v-31h-232v31q0 85 41.5 145t111 91t152.5 31q84 0 153 -29.5t110.5 -89.5t41.5 -148q0 -68 -30.5 -118.5t-86.5 -90.5l-69 -54h182v-189h-606z" />
    <glyph glyph-name="three.dnom" horiz-adv-x="672" 
d="M194 8q-66 23 -109.5 69.5t-52.5 114.5l231 23q4 -20 23.5 -34t48.5 -14q34 0 53.5 15t19.5 41t-16 41t-47 15h-151v109l115 127h-236v189h513v-143l-117 -128h8q40 0 77.5 -24.5t61.5 -71t24 -107.5q0 -78 -42 -133.5t-111.5 -83.5t-151.5 -28q-75 0 -141 23z" />
    <glyph glyph-name="four.dnom" horiz-adv-x="672" 
d="M602 0h-224v99h-353v144l221 460h254l-202 -415h101v123h203v-123h46v-189h-46v-99z" />
    <glyph glyph-name="five.dnom" horiz-adv-x="672" 
d="M129 38q-85 53 -97 154l231 23q4 -20 23 -34t49 -14q34 0 53.5 15.5t19.5 40.5t-15.5 40.5t-47.5 15.5h-284v425h537v-189h-313v-57h132q61 0 111.5 -26t81 -77t30.5 -124q0 -79 -41.5 -134.5t-111 -83.5t-152.5 -28q-121 0 -206 53z" />
    <glyph glyph-name="six.dnom" horiz-adv-x="672" 
d="M183.5 14.5q-69.5 29.5 -111.5 88.5t-42 145q0 92 57 180l180 276h261l-153 -218q13 6 36 6q61 0 113.5 -28t84.5 -83t32 -133q0 -86 -42 -145t-111.5 -88.5t-152.5 -29.5q-82 0 -151.5 29.5zM389 207q21 19 21 48q-1 29 -21 47.5t-54 18.5q-33 0 -52.5 -18.5
t-20.5 -47.5q0 -29 20 -48t53 -19t54 19z" />
    <glyph glyph-name="seven.dnom" horiz-adv-x="672" 
d="M353 0l-260 1l250 513h-297v189h576v-144z" />
    <glyph glyph-name="eight.dnom" horiz-adv-x="672" 
d="M183.5 9q-68.5 24 -110.5 75t-42 130q0 53 26 94.5t70 66.5q-33 22 -51 55.5t-18 73.5q0 72 37.5 120.5t100.5 72t140 23.5t140 -23.5t100.5 -72t37.5 -120.5q0 -40 -18 -73.5t-51 -55.5q45 -25 70.5 -66.5t25.5 -94.5q0 -116 -87 -172.5t-218 -56.5q-84 0 -152.5 24z
M377 456q15 13 15 34q0 22 -15 35t-41 13t-41 -13t-15 -35q0 -21 15 -34t41 -13t41 13zM381.5 181.5q18.5 14.5 18.5 39.5q-1 25 -18 39.5t-46 14.5t-46 -14.5t-18 -39.5q0 -25 18.5 -39.5t45.5 -14.5t45.5 14.5z" />
    <glyph glyph-name="nine.dnom" horiz-adv-x="672" 
d="M297 219q-13 -7 -36 -7q-61 1 -113.5 28.5t-84.5 82.5t-32 133q0 86 41.5 145t111 88.5t152.5 29.5t152.5 -29.5t111 -88.5t41.5 -145q0 -94 -57 -179l-179 -277h-260zM389.5 402.5q20.5 18.5 20.5 47.5q0 28 -20.5 47t-53.5 19t-53 -19t-20 -47q0 -29 19.5 -47.5
t53.5 -18.5q33 0 53.5 18.5z" />
    <glyph glyph-name="zero.numr" horiz-adv-x="671" 
d="M110.5 793q-80.5 90 -80.5 277q0 188 80.5 278t225.5 90q144 0 224.5 -90t80.5 -278q0 -187 -80.5 -277t-224.5 -90q-145 0 -225.5 90zM395.5 945q21.5 39 21.5 125q0 89 -19.5 127t-61.5 38t-62 -38t-20 -127q0 -164 82 -164q38 0 59.5 39z" />
    <glyph glyph-name="one.numr" horiz-adv-x="672" 
d="M488 718h-224v513h-165v170l197 20h192v-703z" />
    <glyph glyph-name="two.numr" horiz-adv-x="672" 
d="M30 718v110l306 237q30 24 51.5 52.5t21.5 54.5t-20.5 44t-52.5 18q-31 0 -52.5 -19t-21.5 -45v-31h-232v31q0 85 41.5 145t111 91t152.5 31q84 0 153 -29.5t110.5 -89.5t41.5 -148q0 -68 -30.5 -118.5t-86.5 -90.5l-69 -54h182v-189h-606z" />
    <glyph glyph-name="three.numr" horiz-adv-x="672" 
d="M194 726q-66 23 -109.5 70t-52.5 115l231 22q4 -20 23.5 -33.5t48.5 -13.5q34 0 53.5 14.5t19.5 40.5t-16 41t-47 15h-151v110l115 126h-236v189h513v-143l-117 -127h8q40 0 77.5 -25t61.5 -71t24 -107q0 -79 -42 -134.5t-111.5 -83.5t-151.5 -28q-75 0 -141 23z" />
    <glyph glyph-name="four.numr" horiz-adv-x="672" 
d="M602 718h-224v99h-353v144l221 460h254l-202 -415h101v123h203v-123h46v-189h-46v-99z" />
    <glyph glyph-name="five.numr" horiz-adv-x="672" 
d="M129 756q-85 53 -97 154l231 23q4 -20 23 -34t49 -14q34 0 53.5 15t19.5 41q0 25 -15.5 40.5t-47.5 15.5h-284v425h537v-189h-313v-58h132q61 0 111.5 -25.5t81 -77t30.5 -124.5q0 -79 -41.5 -134t-111 -83t-152.5 -28q-121 0 -206 53z" />
    <glyph glyph-name="six.numr" horiz-adv-x="672" 
d="M183.5 732.5q-69.5 29.5 -111.5 88.5t-42 145q0 92 57 180l180 276h261l-153 -218q14 6 36 6q61 0 113.5 -28t84.5 -83t32 -133q0 -86 -42 -145t-111.5 -88.5t-152.5 -29.5q-82 0 -151.5 29.5zM389 925q21 19 21 48q-1 29 -21 47.5t-54 18.5q-33 0 -52.5 -18.5
t-20.5 -47.5q0 -29 20 -48t53 -19t54 19z" />
    <glyph glyph-name="seven.numr" horiz-adv-x="672" 
d="M353 718l-260 1l250 513h-297v189h576v-144z" />
    <glyph glyph-name="eight.numr" horiz-adv-x="672" 
d="M183.5 727q-68.5 24 -110.5 75t-42 130q0 53 26 94.5t70 66.5q-33 22 -51 55.5t-18 73.5q0 72 37.5 120.5t100.5 72t140 23.5t140 -23.5t100.5 -72t37.5 -120.5q0 -40 -18 -73.5t-51 -55.5q45 -25 70.5 -66.5t25.5 -94.5q0 -116 -87 -172.5t-218 -56.5q-84 0 -152.5 24z
M377 1174q15 13 15 34q0 22 -15 35t-41 13t-41 -13t-15 -35q0 -21 15 -34t41 -13t41 13zM381.5 899.5q18.5 14.5 18.5 39.5q-1 25 -18 39.5t-46 14.5t-46 -14.5t-18 -39.5q0 -25 18.5 -39.5t45.5 -14.5t45.5 14.5z" />
    <glyph glyph-name="nine.numr" horiz-adv-x="672" 
d="M297 937q-13 -7 -36 -7q-61 1 -113.5 29t-84.5 83t-32 133q0 85 41.5 144.5t111 88.5t152.5 29t152.5 -29t111 -88.5t41.5 -144.5q0 -94 -57 -180l-179 -277h-260zM389.5 1121q20.5 19 20.5 47q0 29 -20.5 47.5t-53.5 18.5t-53 -18.5t-20 -47.5t19.5 -47.5t53.5 -18.5
q33 0 53.5 19z" />
    <glyph glyph-name="uni2070" unicode="&#x2070;" horiz-adv-x="671" 
d="M110.5 1127.5q-80.5 89.5 -80.5 277.5t80.5 278t225.5 90q144 0 224.5 -90t80.5 -278t-80.5 -277.5t-224.5 -89.5q-145 0 -225.5 89.5zM395.5 1280q21.5 39 21.5 125q0 89 -19.5 127t-61.5 38t-62 -38t-20 -127q0 -164 82 -164q38 0 59.5 39z" />
    <glyph glyph-name="uni00B9" unicode="&#xb9;" horiz-adv-x="672" 
d="M488 1054h-224v513h-165v170l197 20h192v-703z" />
    <glyph glyph-name="uni00B2" unicode="&#xb2;" horiz-adv-x="672" 
d="M30 1054v110l306 237q30 24 51.5 52.5t21.5 54.5t-20.5 44t-52.5 18q-31 0 -52.5 -19t-21.5 -45v-31h-232v31q0 85 41.5 145t111 91t152.5 31q84 0 153 -29.5t110.5 -89.5t41.5 -148q0 -68 -30.5 -118.5t-86.5 -90.5l-69 -54h182v-189h-606z" />
    <glyph glyph-name="uni00B3" unicode="&#xb3;" horiz-adv-x="672" 
d="M194 1061q-66 23 -109.5 70t-52.5 115l231 22q4 -20 23.5 -33.5t48.5 -13.5q34 0 53.5 14.5t19.5 40.5t-16 41t-47 15h-151v110l115 126h-236v189h513v-143l-117 -127h8q40 0 77.5 -25t61.5 -71t24 -107q0 -79 -42 -134.5t-111.5 -83.5t-151.5 -28q-75 0 -141 23z" />
    <glyph glyph-name="uni2074" unicode="&#x2074;" horiz-adv-x="672" 
d="M602 1054h-224v99h-353v144l221 460h254l-202 -415h101v123h203v-123h46v-189h-46v-99z" />
    <glyph glyph-name="uni2075" unicode="&#x2075;" horiz-adv-x="672" 
d="M129 1091q-85 53 -97 154l231 23q4 -20 23 -34t49 -14q34 0 53.5 15.5t19.5 40.5t-15.5 40.5t-47.5 15.5h-284v425h537v-189h-313v-58h132q61 0 111.5 -25.5t81 -76.5t30.5 -124q0 -79 -41.5 -134.5t-111 -83.5t-152.5 -28q-121 0 -206 53z" />
    <glyph glyph-name="uni2076" unicode="&#x2076;" horiz-adv-x="672" 
d="M183.5 1067.5q-69.5 29.5 -111.5 88.5t-42 145q0 92 57 180l180 276h261l-153 -218q14 6 36 6q61 0 113.5 -28t84.5 -83.5t32 -132.5q0 -86 -42 -145t-111.5 -88.5t-152.5 -29.5q-82 0 -151.5 29.5zM389 1260q21 19 21 47q-1 29 -21 48t-54 19q-33 0 -52.5 -19t-20.5 -48
q0 -28 20.5 -47t52.5 -19q33 0 54 19z" />
    <glyph glyph-name="uni2077" unicode="&#x2077;" horiz-adv-x="672" 
d="M353 1054l-260 1l250 513h-297v189h576v-144z" />
    <glyph glyph-name="uni2078" unicode="&#x2078;" horiz-adv-x="672" 
d="M183.5 1062q-68.5 24 -110.5 75t-42 130q0 53 26 94.5t70 66.5q-33 22 -51 55.5t-18 73.5q0 72 37.5 120.5t100.5 72t140 23.5t140 -23.5t100.5 -72t37.5 -120.5q0 -40 -18 -73.5t-51 -55.5q45 -25 70.5 -66.5t25.5 -94.5q0 -116 -87 -172.5t-218 -56.5q-84 0 -152.5 24z
M377 1509q15 13 15 34q0 22 -15 35t-41 13t-41 -13t-15 -35q0 -21 15 -34t41 -13t41 13zM381.5 1234.5q18.5 14.5 18.5 39.5q-1 25 -18 39.5t-46 14.5t-46 -14.5t-18 -39.5q0 -25 18.5 -39.5t45.5 -14.5t45.5 14.5z" />
    <glyph glyph-name="uni2079" unicode="&#x2079;" horiz-adv-x="672" 
d="M297 1272q-13 -6 -36 -6q-61 0 -113.5 28t-84.5 83t-32 133q0 86 41.5 145t111 88.5t152.5 29.5t152.5 -29.5t111 -88.5t41.5 -145q0 -94 -57 -180l-179 -276h-260zM389.5 1456.5q20.5 18.5 20.5 47.5q0 28 -20.5 47t-53.5 19t-53 -19t-20 -47q0 -29 19.5 -47.5
t53.5 -18.5q33 0 53.5 18.5z" />
    <glyph glyph-name="fraction" unicode="&#x2044;" horiz-adv-x="232" 
d="M631 1335l-885 -1399l-144 93l884 1398z" />
    <glyph glyph-name="fraction" unicode="&#x2215;" horiz-adv-x="232" 
d="M631 1335l-885 -1399l-144 93l884 1398z" />
    <glyph glyph-name="onehalf" unicode="&#xbd;" horiz-adv-x="1577" 
d="M1304 1335l-884 -1399l-144 93l883 1398zM488 718h-224v513h-165v170l197 20h192v-703zM935 0v110l305 237q30 24 51.5 52.5t21.5 54.5t-20 44t-52 18t-53 -18.5t-21 -45.5v-31h-232v31q0 85 41.5 145t110.5 91t152 31q84 0 153.5 -29.5t111 -89.5t41.5 -148
q0 -68 -30.5 -118.5t-86.5 -90.5l-70 -54h182v-189h-605z" />
    <glyph glyph-name="uni2153" unicode="&#x2153;" horiz-adv-x="1577" 
d="M1304 1335l-884 -1399l-144 93l883 1398zM488 718h-224v513h-165v170l197 20h192v-703zM1098.5 9q-65.5 23 -109.5 70t-52 115l231 23q3 -20 23 -34t48 -14q34 0 54 14.5t20 40.5t-16 41t-48 15h-150v110l115 126h-237v189h513v-143l-117 -127h8q40 0 78 -25t61.5 -71
t23.5 -107q0 -79 -42 -134.5t-111 -83.5t-152 -28q-75 0 -140.5 23z" />
    <glyph glyph-name="uni2154" unicode="&#x2154;" horiz-adv-x="1577" 
d="M30 718v110l306 237q30 24 51.5 52.5t21.5 54.5t-20.5 44t-52.5 18q-31 0 -52.5 -19t-21.5 -45v-31h-232v31q0 85 41.5 145t111 91t152.5 31q84 0 153 -29.5t110.5 -89.5t41.5 -148q0 -68 -30.5 -118.5t-86.5 -90.5l-69 -54h182v-189h-606zM1304 1335l-884 -1399l-144 93
l883 1398zM1098.5 9q-65.5 23 -109.5 70t-52 115l231 23q3 -20 23 -34t48 -14q34 0 54 14.5t20 40.5t-16 41t-48 15h-150v110l115 126h-237v189h513v-143l-117 -127h8q40 0 78 -25t61.5 -71t23.5 -107q0 -79 -42 -134.5t-111 -83.5t-152 -28q-75 0 -140.5 23z" />
    <glyph glyph-name="onequarter" unicode="&#xbc;" horiz-adv-x="1577" 
d="M1304 1335l-884 -1399l-144 93l883 1398zM488 718h-224v513h-165v170l197 20h192v-703zM1506 0h-224v99h-352v144l221 460h254l-202 -415h100v123h203v-123h47v-189h-47v-99z" />
    <glyph glyph-name="threequarters" unicode="&#xbe;" horiz-adv-x="1577" 
d="M1304 1335l-884 -1399l-144 93l883 1398zM194 725.5q-66 22.5 -109.5 69.5t-52.5 115l231 23q4 -20 23.5 -34t48.5 -14q34 0 53.5 14.5t19.5 40.5t-16 41t-47 15h-151v110l115 126h-236v189h513v-143l-117 -127h8q40 0 77.5 -25t61.5 -71t24 -107q0 -79 -42 -134.5
t-111.5 -83t-151.5 -27.5q-75 0 -141 22.5zM1506 0h-224v99h-352v144l221 460h254l-202 -415h100v123h203v-123h47v-189h-47v-99z" />
    <glyph glyph-name="period" unicode="." horiz-adv-x="626" 
d="M214.5 -8q-43.5 24 -68 66.5t-24.5 96.5t24.5 96.5t68 66.5t98.5 24t98.5 -24t68 -66.5t24.5 -96.5t-24.5 -96.5t-68 -66.5t-98.5 -24t-98.5 24z" />
    <glyph glyph-name="comma" unicode="," horiz-adv-x="627" 
d="M322 -235h-219l67 548h335z" />
    <glyph glyph-name="colon" unicode=":" horiz-adv-x="626" 
d="M214.5 742q-43.5 24 -68 67t-24.5 96q0 54 24.5 96.5t68 66.5t99.5 24q55 0 98 -24t67.5 -66.5t24.5 -96.5q0 -53 -24.5 -96t-67.5 -67t-98 -24q-56 0 -99.5 24zM214.5 -30q-43.5 24 -68 67t-24.5 97q0 53 24.5 95.5t68 66.5t99.5 24q55 0 98 -24t67.5 -66.5t24.5 -95.5
q0 -54 -24.5 -97t-67.5 -67t-98 -24q-56 0 -99.5 24z" />
    <glyph glyph-name="semicolon" unicode=";" horiz-adv-x="626" 
d="M214.5 742q-43.5 24 -68 67t-24.5 96q0 54 24.5 96.5t68 66.5t99.5 24q55 0 98 -24t67.5 -66.5t24.5 -96.5q0 -53 -24.5 -96t-67.5 -67t-98 -24q-56 0 -99.5 24zM322 -235h-219l67 548h334z" />
    <glyph glyph-name="semicolon" unicode="&#x37e;" horiz-adv-x="626" 
d="M214.5 742q-43.5 24 -68 67t-24.5 96q0 54 24.5 96.5t68 66.5t99.5 24q55 0 98 -24t67.5 -66.5t24.5 -96.5q0 -53 -24.5 -96t-67.5 -67t-98 -24q-56 0 -99.5 24zM322 -235h-219l67 548h334z" />
    <glyph glyph-name="ellipsis" unicode="&#x2026;" horiz-adv-x="2048" 
d="M242 -8q-43 24 -67.5 66.5t-24.5 96.5t24.5 96.5t67.5 66.5t98 24q56 0 99.5 -24t68 -66.5t24.5 -96.5t-24.5 -96.5t-68 -66.5t-99.5 -24q-55 0 -98 24zM925 -8q-43 24 -67.5 66.5t-24.5 96.5t24.5 96.5t67.5 66.5t98 24q56 0 99.5 -24t68 -66.5t24.5 -96.5t-24.5 -96.5
t-68 -66.5t-99.5 -24q-55 0 -98 24zM1608 -8q-43 24 -67.5 66.5t-24.5 96.5t24.5 96.5t67.5 66.5t98 24q56 0 99.5 -24t68 -66.5t24.5 -96.5t-24.5 -96.5t-68 -66.5t-99.5 -24q-55 0 -98 24z" />
    <glyph glyph-name="exclam" unicode="!" horiz-adv-x="625" 
d="M442 448h-259l-28 990h315zM214.5 -9q-43.5 23 -68 63.5t-24.5 91.5t24.5 91.5t68 63.5t98.5 23t98.5 -23t68 -63.5t24.5 -91.5t-24.5 -91.5t-68 -63.5t-98.5 -23t-98.5 23z" />
    <glyph glyph-name="exclamdown" unicode="&#xa1;" horiz-adv-x="625" 
d="M214.5 781q-43.5 23 -68 63.5t-24.5 91.5t24.5 91.5t68 63t98.5 22.5t98.5 -22.5t68 -63t24.5 -91.5t-24.5 -91.5t-68 -63.5t-98.5 -23t-98.5 23zM470 -357h-315l28 991h259z" />
    <glyph glyph-name="question" unicode="?" horiz-adv-x="986" 
d="M302 448q0 76 27.5 139t66 110.5t98.5 108.5q64 65 94 107t30 88q0 60 -37 99t-110 39q-69 0 -109.5 -50t-43.5 -129l-315 13q6 130 63.5 236t162 167.5t242.5 61.5q144 0 247.5 -49.5t159 -144.5t55.5 -228q0 -81 -30.5 -149t-72.5 -118t-108 -115q-65 -63 -95.5 -103.5
t-30.5 -82.5h-294zM353.5 -9q-43.5 23 -68 63.5t-24.5 91.5t24.5 91.5t68 63.5t98.5 23q56 0 99.5 -23t68 -63.5t24.5 -91.5t-24.5 -91.5t-68 -63.5t-99.5 -23q-55 0 -98.5 23z" />
    <glyph glyph-name="questiondown" unicode="&#xbf;" horiz-adv-x="986" 
d="M434.5 781q-43.5 23 -68 63.5t-24.5 91.5t24.5 91.5t68 63t98.5 22.5t99 -22.5t68.5 -63t24.5 -91.5t-24.5 -91.5t-68.5 -63.5t-99 -23t-98.5 23zM268 -307q-104 50 -159 145t-55 228q0 80 30 147.5t72 117.5t107 115q65 63 96 104.5t31 83.5h295q0 -77 -27.5 -140.5
t-65.5 -110t-100 -108.5q-44 -45 -68 -72.5t-40 -58.5t-16 -63q0 -61 37 -100t110 -39q69 0 110 51t43 129l315 -13q-5 -131 -63 -237t-162 -167.5t-243 -61.5q-143 0 -247 50z" />
    <glyph glyph-name="periodcentered" unicode="&#xb7;" horiz-adv-x="625" 
d="M214.5 383q-43.5 24 -68 66.5t-24.5 96.5t24.5 96.5t68 66t98.5 23.5t98.5 -23.5t68 -66t24.5 -96.5t-24.5 -96.5t-68 -66.5t-98.5 -24t-98.5 24z" />
    <glyph glyph-name="periodcentered" unicode="&#x2219;" horiz-adv-x="625" 
d="M214.5 383q-43.5 24 -68 66.5t-24.5 96.5t24.5 96.5t68 66t98.5 23.5t98.5 -23.5t68 -66t24.5 -96.5t-24.5 -96.5t-68 -66.5t-98.5 -24t-98.5 24z" />
    <glyph glyph-name="bullet" unicode="&#x2022;" horiz-adv-x="854" 
d="M277.5 447q-65.5 36 -102 100t-36.5 146q0 81 36.5 145t102.5 100t149 36t149 -36t102.5 -100t36.5 -145q0 -82 -36.5 -146t-102 -100t-149.5 -36t-149.5 36z" />
    <glyph glyph-name="asterisk" unicode="*" horiz-adv-x="781" 
d="M475 673h-184v214l-184 -107l-92 159l185 107l-182 110l92 158l181 -110v213h184v-213l183 107l93 -159l-185 -106l183 -111l-94 -159l-180 110v-213z" />
    <glyph glyph-name="numbersign" unicode="#" 
d="M348 -32h-268l87 365h-109v254h173l54 234h-227v252h290l89 365h268l-89 -365h192l87 365h268l-87 -365h104v-252h-168l-54 -234h222v-254h-285l-88 -365h-268l88 365h-192zM553 821l-54 -234h191l54 234h-191z" />
    <glyph glyph-name="slash" unicode="/" horiz-adv-x="770" 
d="M830 1452l-732 -1571l-159 74l732 1571z" />
    <glyph glyph-name="backslash" unicode="\" horiz-adv-x="770" 
d="M830 -45l-159 -74l-732 1571l159 74z" />
    <glyph glyph-name="parenleft" unicode="(" horiz-adv-x="690" 
d="M523 -305q-174 181 -266 435t-92 573q0 320 91.5 573.5t266.5 434.5l155 -105q-102 -176 -159.5 -406.5t-57.5 -496.5t58 -496.5t159 -405.5z" />
    <glyph glyph-name="parenright" unicode=")" horiz-adv-x="690" 
d="M12 -199q101 174 158.5 405t57.5 497q0 267 -57.5 497.5t-158.5 405.5l155 105q175 -181 267 -434.5t92 -573.5t-92 -573.5t-267 -434.5z" />
    <glyph glyph-name="braceleft" unicode="{" horiz-adv-x="690" 
d="M564 -282q-100 0 -179 36t-124 103.5t-45 158.5v464q0 53 -31.5 82t-81.5 29h-35v225h35q50 1 81.5 29t31.5 82v463q0 91 45 158.5t124 103.5t179 36h58v-232h-41q-40 0 -62.5 -20.5t-22.5 -61.5v-449q0 -71 -35 -134t-95 -88q60 -25 95 -88t35 -134v-449
q0 -41 22.5 -61.5t62.5 -20.5h41v-232h-58z" />
    <glyph glyph-name="braceright" unicode="}" horiz-adv-x="690" 
d="M68 -282v232h43q39 0 61.5 20.5t22.5 61.5v449q0 71 35 134t95 88q-60 25 -95 88t-35 134v449q0 41 -22.5 61.5t-61.5 20.5h-43v232h59q101 0 180 -36t123.5 -103.5t44.5 -158.5v-463q0 -54 31.5 -82t82.5 -29h33v-225h-34q-50 0 -81.5 -28.5t-31.5 -82.5v-464
q0 -91 -44.5 -158.5t-123.5 -103.5t-180 -36h-59z" />
    <glyph glyph-name="bracketleft" unicode="[" horiz-adv-x="690" 
d="M637 -282h-457v1970h457v-232h-177v-1506h177v-232z" />
    <glyph glyph-name="bracketright" unicode="]" horiz-adv-x="690" 
d="M511 -282h-457v232h177v1506h-177v232h457v-1970z" />
    <glyph glyph-name="hyphenminus" unicode="-" horiz-adv-x="759" 
d="M665 379h-571v281h571v-281z" />
    <glyph glyph-name="hyphenminus" unicode="&#xad;" horiz-adv-x="759" 
d="M665 379h-571v281h571v-281z" />
    <glyph glyph-name="hyphen" unicode="&#x2010;" horiz-adv-x="759" 
d="M665 379h-571v281h571v-281z" />
    <glyph glyph-name="endash" unicode="&#x2013;" 
d="M1147 395h-1057v281h1057v-281z" />
    <glyph glyph-name="emdash" unicode="&#x2014;" horiz-adv-x="2048" 
d="M2048 395h-2048v281h2048v-281z" />
    <glyph glyph-name="figuredash" unicode="&#x2012;" 
d="M1147 584h-1057v281h1057v-281z" />
    <glyph glyph-name="uni2011" unicode="&#x2011;" horiz-adv-x="759" 
d="M665 379h-571v281h571v-281z" />
    <glyph glyph-name="underscore" unicode="_" 
d="M1338 -462h-1438v167h1438v-167z" />
    <glyph glyph-name="quotesinglbase" unicode="&#x201a;" horiz-adv-x="626" 
d="M321 -236h-218l66 548h335z" />
    <glyph glyph-name="quotedblbase" unicode="&#x201e;" horiz-adv-x="1049" 
d="M321 -236h-218l66 548h335zM743 -236h-219l67 548h336z" />
    <glyph glyph-name="quotedblleft" unicode="&#x201c;" horiz-adv-x="1049" 
d="M458 963h-336l184 549h218zM880 963h-335l183 549h218z" />
    <glyph glyph-name="quotedblright" unicode="&#x201d;" horiz-adv-x="1049" 
d="M321 963h-218l67 549h335zM744 963h-220l68 549h335z" />
    <glyph glyph-name="quoteleft" unicode="&#x2018;" horiz-adv-x="627" 
d="M458 963h-336l184 549h218z" />
    <glyph glyph-name="quoteright" unicode="&#x2019;" horiz-adv-x="627" 
d="M321 963h-218l67 549h335z" />
    <glyph glyph-name="guillemotleft" unicode="&#xab;" horiz-adv-x="1327" 
d="M677 78h-285l-272 468l272 468h285l-269 -468zM1165 78h-284l-272 468l272 468h284l-267 -468z" />
    <glyph glyph-name="guillemotright" unicode="&#xbb;" horiz-adv-x="1327" 
d="M447 78h-285l268 468l-268 468h285l272 -468zM936 78h-285l268 468l-268 468h285l272 -468z" />
    <glyph glyph-name="guilsinglleft" unicode="&#x2039;" horiz-adv-x="838" 
d="M676 78h-284l-272 468l272 468h284l-268 -468z" />
    <glyph glyph-name="guilsinglright" unicode="&#x203a;" horiz-adv-x="838" 
d="M447 78h-285l268 468l-268 468h285l271 -468z" />
    <glyph glyph-name="quotedbl" unicode="&#x22;" horiz-adv-x="591" 
d="M237 1026h-174l-9 496h192zM528 1026h-174l-9 496h192z" />
    <glyph glyph-name="quotesingle" unicode="'" horiz-adv-x="299" 
d="M237 1027h-175l-8 495h192z" />
    <glyph glyph-name="cent" unicode="&#xa2;" 
d="M543 148q-145 25 -253 103t-166 195t-58 257q0 141 59 259t167 196t251 101v147h184v-144q103 -15 191.5 -65t153 -127.5t95.5 -174.5l-277 -90q-28 80 -94.5 128t-153.5 48q-77 0 -137 -35.5t-93.5 -98.5t-33.5 -144q0 -80 33.5 -143t93.5 -98.5t137 -35.5
q88 0 155.5 49.5t93.5 127.5l280 -91q-45 -145 -162 -242t-282 -125v-145h-184v148z" />
    <glyph glyph-name="currency" unicode="&#xa4;" 
d="M236 188l-132 133l163 163q-63 98 -63 219q0 123 63 219l-163 164l132 132l165 -165q98 63 218 63q119 0 217 -63l165 165l133 -132l-163 -164q63 -96 63 -219q0 -121 -63 -219l163 -163l-133 -133l-165 165q-99 -62 -217 -62q-119 0 -218 62zM709 546q40 23 62 64t22 93
t-22 93t-62 64t-90 23t-89.5 -23t-61.5 -64t-22 -93t22 -93t61.5 -64t89.5 -23t90 23z" />
    <glyph glyph-name="dollar" unicode="$" 
d="M537 -46q-137 19 -233 80t-146 150.5t-54 196.5h313q10 -81 61.5 -126.5t132.5 -45.5q86 0 131 43t45 108q0 56 -36 97t-110 73l-237 99q-137 59 -199.5 146.5t-62.5 234.5q0 103 48.5 188.5t138 140.5t209.5 70v138h174v-137q134 -21 224.5 -82t134 -147t45.5 -183h-306
q-5 70 -48.5 113.5t-118.5 43.5t-117 -41t-42 -100q0 -48 32.5 -82t101.5 -65l227 -96q103 -45 165.5 -98t93 -127t30.5 -180q0 -108 -53 -196t-149.5 -144.5t-222.5 -71.5v-138h-172v138z" />
    <glyph glyph-name="Euro" unicode="&#x20ac;" 
d="M668 26q-141 58 -242.5 167.5t-148.5 259.5h-201l47 175h122q-5 26 -5 75q0 48 5 74h-169l47 175h154q47 151 148.5 260.5t242 167.5t303.5 58q50 0 111.5 -6.5t106.5 -18.5l-71 -265q-58 18 -147 18q-121 0 -215.5 -56t-139.5 -158h449l-47 -174h-475q-5 -29 -5 -75
t5 -75h435l-47 -175h-315q45 -102 139.5 -157.5t215.5 -55.5q87 0 147 17l71 -264q-44 -12 -105 -18.5t-113 -6.5q-162 0 -303 58z" />
    <glyph glyph-name="uni20B9" unicode="&#x20b9;" 
d="M686 0l-335 501h-205v253h281q86 0 146.5 41t79.5 115l-541 -1l46 174h504q-19 71 -76.5 109.5t-149.5 39.5h-324l46 174h982l-46 -173h-257q76 -47 88 -150l215 1l-46 -174h-153q-9 -143 -84 -233.5t-200 -127.5l370 -549h-341z" />
    <glyph glyph-name="sterling" unicode="&#xa3;" 
d="M85 0v268h155v296h-155v175h155v264q0 133 57 231.5t157.5 151t226.5 52.5t223 -52.5t151 -150.5t54 -232h-285q0 46 -18.5 83t-51 58.5t-73.5 21.5q-40 0 -72.5 -21.5t-51.5 -58.5t-19 -83v-264h425v-175h-425l-1 -296h648v-268h-1100z" />
    <glyph glyph-name="uni20BA" unicode="&#x20ba;" 
d="M266 0v596l-191 -52v179l191 52v154l-191 -51v179l191 51v298h296v-217l412 109v-179l-412 -110v-155l412 110v-179l-412 -110v-404h49q130 0 198.5 89.5t69.5 239.5h297q0 -179 -59.5 -314t-183 -210.5t-308.5 -75.5h-359z" />
    <glyph glyph-name="yen" unicode="&#xa5;" 
d="M768 0h-298v329h-369v175l369 1v115l-22 42h-347v175h260l-305 569h348l215 -465l215 465h348l-305 -569h260v-175h-346l-23 -42v-116h369v-175h-369v-329z" />
    <glyph glyph-name="plus" unicode="+" 
d="M757 185h-276v353h-351v266h351v354h276v-354h351v-266h-351v-353z" />
    <glyph glyph-name="minus" unicode="&#x2212;" 
d="M1019 571h-801v265h801v-265z" />
    <glyph glyph-name="multiply" unicode="&#xd7;" horiz-adv-x="1246" 
d="M622 515l-250 -251l-188 188l251 250l-251 252l188 188l249 -252l253 252l188 -188l-251 -251l251 -251l-188 -188z" />
    <glyph glyph-name="divide" unicode="&#xf7;" horiz-adv-x="1246" 
d="M505.5 992.5q-45.5 44.5 -45.5 114.5t45.5 114.5t116.5 44.5t117 -44.5t46 -114.5t-46 -114.5t-117 -44.5t-116.5 44.5zM1096 571h-948v264h948v-264zM505.5 184.5q-45.5 44.5 -45.5 114.5t45.5 115t116.5 45t117 -45t46 -115t-46 -114.5t-117 -44.5t-116.5 44.5z" />
    <glyph glyph-name="equal" unicode="=" 
d="M1107 785h-977v266h977v-266zM1107 314h-977v265h977v-265z" />
    <glyph glyph-name="notequalto" unicode="&#x2260;" horiz-adv-x="1237" 
d="M505 -32h-179l99 371h-307v265h378l64 239h-442v266h513l89 329h179l-88 -329h307v-266h-378l-63 -239h441v-265h-513z" />
    <glyph glyph-name="greater" unicode="&#x3e;" 
d="M1150 557l-1062 -404v279l683 250l-683 249v279l1062 -403v-250z" />
    <glyph glyph-name="less" unicode="&#x3c;" 
d="M1150 432v-279l-1062 404v250l1062 403v-279l-683 -249z" />
    <glyph glyph-name="greaterthanorequalto" unicode="&#x2265;" 
d="M1150 703l-1062 -404v279l683 249l-683 250v278l1062 -403v-249zM1143 51h-1055v192h1055v-192z" />
    <glyph glyph-name="lessthanorequalto" unicode="&#x2264;" 
d="M1150 578v-279l-1062 404v249l1062 403v-278l-683 -250zM1150 51h-1055v192h1055v-192z" />
    <glyph glyph-name="plusminus" unicode="&#xb1;" 
d="M757 294h-276v335h-351v264h351v355h276v-355h350v-264h-350v-335zM1107 0h-977v192h977v-192z" />
    <glyph glyph-name="almostequalto" unicode="&#x2248;" 
d="M778.5 774q-57.5 11 -145.5 32q-93 23 -154 34.5t-112 11.5q-72 0 -121.5 -10t-80.5 -25.5t-63 -39.5v264q66 76 254 76q46 0 101.5 -12t146.5 -36q92 -25 153.5 -37.5t112.5 -12.5q72 0 121 12t77 28t69 44v-267q-70 -73 -255 -73q-46 0 -103.5 11zM778.5 301
q-57.5 11 -145.5 32q-93 23 -154 34.5t-112 11.5q-72 0 -121.5 -10t-80.5 -25.5t-63 -39.5v266q67 75 254 75q46 0 104 -11t144 -32q92 -23 153.5 -34.5t112.5 -11.5q73 0 122.5 10t80.5 25.5t64 39.5v-266q-68 -75 -255 -75q-46 0 -103.5 11z" />
    <glyph glyph-name="asciitilde" unicode="~" 
d="M696 536q-44 16 -103 46q-49 25 -80.5 37t-65.5 12q-43 0 -83.5 -28t-59.5 -66l-140 172q53 92 119 134.5t162 42.5q53 0 97.5 -16t101.5 -46q49 -25 80.5 -37t65.5 -12q43 0 84 28.5t60 66.5l140 -173q-53 -93 -118.5 -135t-161.5 -42q-54 0 -98 16z" />
    <glyph glyph-name="logicalnot" unicode="&#xac;" 
d="M1243 436h-277v268h-982v266h1259v-534z" />
    <glyph glyph-name="asciicircum" unicode="^" 
d="M370 591h-321l427 815h287l426 -815h-321l-249 503z" />
    <glyph glyph-name="infinity" unicode="&#x221e;" horiz-adv-x="1770" 
d="M1123 299q-69 30 -122 75t-129 125l-48 50l-31 -32q-74 -75 -118.5 -112t-102.5 -59t-139 -22q-104 0 -191 50.5t-137 138t-50 191.5t50.5 191t137 138t190.5 51q80 0 137.5 -21t100.5 -56.5t113 -106.5l40 -40l51 52q75 78 127.5 122.5t121.5 74t156 29.5q119 0 219 -58
t158 -157.5t58 -218.5t-58 -218.5t-158 -158t-219 -58.5q-88 0 -157 30zM1388 519.5q49 28.5 77.5 77.5t28.5 107q0 59 -28.5 108t-77 77.5t-107.5 28.5q-48 0 -91.5 -23.5t-78.5 -56t-84 -85.5q-48 -51 -46 -49q-3 3 45 -48q49 -53 84 -85.5t79 -56t92 -23.5q58 0 107 28.5
zM504 561q32 15 57.5 37.5t66.5 65.5l39 40l-39 40q-41 43 -66.5 65.5t-57.5 37.5t-72 15q-44 0 -80 -21t-56.5 -57t-20.5 -80q0 -43 20.5 -79.5t56.5 -57.5t80 -21q40 0 72 15z" />
    <glyph glyph-name="integral" unicode="&#x222b;" horiz-adv-x="819" 
d="M128 -273v232h42q40 0 62.5 20.5t22.5 61.5v1339q0 93 38 160t109.5 103t171.5 36h117v-232h-43q-39 0 -61.5 -20.5t-22.5 -61.5v-1340q0 -139 -84 -218.5t-235 -79.5h-117z" />
    <glyph glyph-name="uni2206" unicode="&#x2206;" horiz-adv-x="1568" 
d="M1491 0h-1414l706 1530zM783 897l-270 -619h541z" />
    <glyph glyph-name="naryproduct" unicode="&#x220f;" horiz-adv-x="1709" 
d="M492 -430h-309v1951h1344v-1951h-309v1675h-726v-1675z" />
    <glyph glyph-name="narysummation" unicode="&#x2211;" horiz-adv-x="1363" 
d="M1273 -430h-1168v186l565 858l-565 738v169h1168v-276h-737l496 -631l-521 -783h762v-261z" />
    <glyph glyph-name="squareroot" unicode="&#x221a;" horiz-adv-x="1432" 
d="M941 0h-198l-283 843l-335 -89l-71 264l586 158l182 -580l362 1358h282z" />
    <glyph glyph-name="uni00B5" unicode="&#xb5;" horiz-adv-x="1311" 
d="M160 -430v1511h315v-637q0 -51 20 -92.5t58 -66t89 -24.5q57 0 101 28t68.5 76.5t24.5 106.5v609h315v-1081h-281v135q-27 -78 -86 -122.5t-152 -44.5q-66 0 -113.5 28.5t-76.5 78.5v-505h-282z" />
    <glyph glyph-name="uni00B5" unicode="&#x3bc;" horiz-adv-x="1311" 
d="M160 -430v1511h315v-637q0 -51 20 -92.5t58 -66t89 -24.5q57 0 101 28t68.5 76.5t24.5 106.5v609h315v-1081h-281v135q-27 -78 -86 -122.5t-152 -44.5q-66 0 -113.5 28.5t-76.5 78.5v-505h-282z" />
    <glyph glyph-name="partialdifferential" unicode="&#x2202;" horiz-adv-x="1299" 
d="M302 19q-106 51 -166 146t-60 222q0 165 77 288t210.5 189t299.5 66q73 0 144 -22.5t117 -60.5q3 39 3 50q-1 76 -41 137.5t-117 97.5t-185 36q-57 0 -110 -25l-80 257q101 38 217 38q209 0 346 -79t202 -213t65 -302q0 -217 -70.5 -417t-223.5 -329.5t-386 -129.5
q-136 0 -242 51zM736.5 280q65.5 55 101 138t47.5 174q-50 40 -118.5 63t-135.5 23q-76 0 -132 -33.5t-85.5 -92t-29.5 -132.5q0 -86 51.5 -140.5t140.5 -54.5q95 0 160.5 55z" />
    <glyph glyph-name="percent" unicode="%" horiz-adv-x="1863" 
d="M1446 1335l-883 -1399l-145 93l883 1398zM259.5 675q-91.5 51 -143 141t-51.5 205q0 114 51.5 204.5t143 141t207.5 50.5t207.5 -50.5t143 -140.5t51.5 -205t-51.5 -205t-143 -141t-207.5 -51t-207.5 51zM581.5 904.5q44.5 45.5 44.5 116.5t-44.5 116.5t-114.5 45.5
q-45 0 -81 -21t-56 -58t-20 -83q0 -71 44.5 -116.5t112.5 -45.5q70 0 114.5 45.5zM1188.5 -3q-91.5 51 -142.5 141.5t-51 205.5t51 205t142.5 140.5t207.5 50.5t207.5 -50.5t143 -140.5t51.5 -205t-51.5 -205.5t-143 -141.5t-207.5 -51t-207.5 51zM1510 227.5
q44 45.5 44 116.5t-44 116.5t-114 45.5t-114 -45.5t-44 -116.5t44 -116.5t114 -45.5t114 45.5z" />
    <glyph glyph-name="perthousand" unicode="&#x2030;" horiz-adv-x="2747" 
d="M1446 1335l-883 -1399l-145 93l883 1398zM259.5 675q-91.5 51 -143 141t-51.5 205q0 114 51.5 204.5t143 141t207.5 50.5t207.5 -50.5t143 -140.5t51.5 -205t-51.5 -205t-143 -141t-207.5 -51t-207.5 51zM581.5 904.5q44.5 45.5 44.5 116.5t-44.5 116.5t-114.5 45.5
q-45 0 -81 -21t-56 -58t-20 -83q0 -71 44.5 -116.5t112.5 -45.5q70 0 114.5 45.5zM1188.5 -3q-91.5 51 -142.5 141.5t-51 205.5t51 205t142.5 140.5t207.5 50.5t207.5 -50.5t143 -140.5t51.5 -205t-51.5 -205.5t-143 -141.5t-207.5 -51t-207.5 51zM2072 -3
q-91 51 -142.5 141.5t-51.5 205.5t51.5 205t142.5 140.5t207 50.5t207.5 -50.5t143 -140.5t51.5 -205t-51.5 -205.5t-143 -141.5t-207.5 -51t-207 51zM1510 227.5q44 45.5 44 116.5t-44 116.5t-114 45.5t-114 -45.5t-44 -116.5t44 -116.5t114 -45.5t114 45.5zM2393 227.5
q44 45.5 44 116.5t-44 116.5t-114 45.5q-69 0 -113 -45.5t-44 -116.5t44 -116.5t113 -45.5q70 0 114 45.5z" />
    <glyph glyph-name="arrowup" unicode="&#x2191;" horiz-adv-x="1014" 
d="M595 0h-176v1161l-138 -145l-97 95l323 323l323 -323l-97 -95l-138 145v-1161z" />
    <glyph glyph-name="uni2197" unicode="&#x2197;" horiz-adv-x="1674" 
d="M1236 992l-821 -822l-124 124l822 821l-201 -4l-1 135h456v-456l-135 1z" />
    <glyph glyph-name="arrowright" unicode="&#x2192;" horiz-adv-x="1674" 
d="M1582 479l-323 -323l-95 97l145 138h-1189v176h1189l-145 138l95 97z" />
    <glyph glyph-name="uni2198" unicode="&#x2198;" horiz-adv-x="1674" 
d="M1367 187h-456l1 135l201 -4l-822 821l124 124l821 -821l-4 200l135 1v-456z" />
    <glyph glyph-name="arrowdown" unicode="&#x2193;" horiz-adv-x="1014" 
d="M830 295l-323 -323l-323 323l97 95l138 -145v1161h176v-1161l138 145z" />
    <glyph glyph-name="uni2199" unicode="&#x2199;" horiz-adv-x="1674" 
d="M763 187h-456v456l135 -1l-4 -200l821 821l124 -124l-821 -821l200 4z" />
    <glyph glyph-name="arrowleft" unicode="&#x2190;" horiz-adv-x="1674" 
d="M510 253l-95 -97l-323 323l323 323l95 -97l-145 -138h1189v-176h-1189z" />
    <glyph glyph-name="uni2196" unicode="&#x2196;" horiz-adv-x="1674" 
d="M1383 294l-124 -124l-821 822l4 -201l-135 -1v456h456l-1 -135l-200 4z" />
    <glyph glyph-name="arrowboth" unicode="&#x2194;" horiz-adv-x="1674" 
d="M510 253l-95 -97l-323 323l323 323l95 -97l-145 -138h944l-145 138l95 97l323 -323l-323 -323l-95 97l145 138h-944z" />
    <glyph glyph-name="arrowupdn" unicode="&#x2195;" horiz-adv-x="1014" 
d="M830 295l-323 -323l-323 323l97 95l138 -145v916l-138 -145l-97 95l323 323l323 -323l-97 -95l-138 145v-916l138 145z" />
    <glyph glyph-name="lozenge" unicode="&#x25ca;" horiz-adv-x="1170" 
d="M731 -30h-291l-371 734l371 734h291l370 -734zM353 704l232 -502l233 502l-233 501z" />
    <glyph glyph-name="at" unicode="@" horiz-adv-x="2038" 
d="M566 -336.5q-228 124.5 -355.5 341t-127.5 483.5q0 266 125.5 483.5t346.5 342t494 124.5q267 0 473 -107.5t319.5 -298.5t113.5 -434q0 -144 -43 -266t-142.5 -198.5t-261.5 -76.5q-94 0 -155.5 30t-82.5 98q-60 -65 -137.5 -96.5t-155.5 -31.5q-114 0 -202 55t-137 153
t-49 223t49 223t137 153t202 55q137 0 228 -88v64h238v-513q0 -55 20.5 -86t58.5 -31q100 0 141 88.5t41 244.5q0 163 -81 301t-230 220t-344 82q-204 0 -367 -92t-255 -255t-92 -366q0 -204 95 -366.5t265.5 -254.5t388.5 -92q168 0 324 61t246 166l151 -187
q-126 -128 -317 -202.5t-404 -74.5q-290 1 -518 125.5zM1117 306.5q44 25.5 70 72.5t26 109t-25.5 109.5t-69.5 73t-98 25.5q-57 0 -101 -27t-68 -74.5t-24 -106.5t24.5 -106t68 -74t100.5 -27q53 0 97 25.5z" />
    <glyph glyph-name="ampersand" unicode="&#x26;" horiz-adv-x="1479" 
d="M292 24q-102 56 -151.5 147.5t-49.5 198.5q0 125 58 216t155 151l97 64l-72 82q-38 43 -58 100.5t-20 115.5q0 94 48.5 171.5t141 122.5t219.5 45t217.5 -44t137 -121t46.5 -174q0 -81 -43.5 -156.5t-119.5 -124.5l-87 -59l157 -181l234 273l200 -174l-252 -296l347 -384
h-372l-161 181q-71 -70 -128 -113.5t-129 -70t-163 -26.5q-150 0 -252 56zM721 1007q22 15 34 38.5t12 49.5q0 44 -32 75t-79 31q-48 0 -80.5 -31t-32.5 -75q0 -40 25 -69l67 -76zM684.5 281q46.5 32 100.5 93l-209 237l-88 -60q-35 -23 -56.5 -61t-21.5 -79q0 -44 21.5 -81
t58 -59t81.5 -22q67 0 113.5 32z" />
    <glyph glyph-name="paragraph" unicode="&#xb6;" horiz-adv-x="1224" 
d="M449 784q-100 0 -185 49.5t-134.5 134t-49.5 185.5q0 100 49.5 184.5t134.5 134.5t185 50h648v-1952h-187v1774h-275v-1774h-186v1214z" />
    <glyph glyph-name="section" unicode="&#xa7;" 
d="M253.5 -347.5q-134.5 114.5 -149.5 341.5h301q7 -87 64 -134.5t148 -47.5q56 0 99 23t66.5 60.5t23.5 80.5q0 54 -34.5 89.5t-87 56.5t-147.5 49q-143 42 -235 86t-158.5 136.5t-66.5 248.5q0 150 81 261q-50 84 -50 213q0 125 61.5 224.5t177.5 156.5t273 57
q227 0 362.5 -115.5t150.5 -340.5h-300q-7 86 -64 134t-149 48q-56 0 -99 -23t-66.5 -61t-23.5 -80q0 -54 34.5 -89.5t87 -56.5t147.5 -49q143 -42 235 -86t158.5 -136.5t66.5 -248.5q0 -151 -80 -262q49 -83 49 -212q0 -125 -61.5 -224.5t-177.5 -156.5t-273 -57
q-229 0 -363.5 114.5zM827 450q0 61 -29.5 99.5t-73.5 60t-118 46.5q-64 23 -100 38t-68 38q-28 -38 -28 -90q0 -61 29.5 -99.5t72.5 -60t118 -47.5q59 -20 97.5 -36.5t71.5 -39.5q28 37 28 91z" />
    <glyph glyph-name="copyright" unicode="&#xa9;" horiz-adv-x="1646" 
d="M447.5 67q-168.5 99 -267.5 267.5t-99 368.5t99 368.5t267.5 267.5t368.5 99t368.5 -99t267.5 -267.5t99 -368.5t-99 -368.5t-267.5 -267.5t-368.5 -99t-368.5 99zM1097 217.5q129 75.5 204.5 204.5t75.5 281q0 153 -75.5 282t-204.5 204.5t-281 75.5t-281.5 -75.5
t-205 -205t-75.5 -281.5t75.5 -281t204.5 -204.5t282 -75.5q152 0 281 75.5zM631 380.5q-85 47.5 -132.5 131.5t-47.5 191t47.5 191.5t132.5 132t192 47.5q127 0 221 -65.5t130 -176.5l-168 -56q-22 61 -70 98t-113 37q-54 0 -99 -26t-71 -73t-26 -108t26 -108.5t71 -73.5
t99 -26q65 0 113 37.5t70 98.5l168 -55q-35 -111 -129 -177.5t-222 -66.5q-107 0 -192 47.5z" />
    <glyph glyph-name="registered" unicode="&#xae;" horiz-adv-x="1661" 
d="M462.5 67q-168.5 99 -267.5 267.5t-99 368.5t99 368.5t267.5 267.5t368.5 99t368.5 -99t267.5 -267.5t99 -368.5t-99 -368.5t-267.5 -267.5t-368.5 -99t-368.5 99zM1112 217.5q129 75.5 204.5 204.5t75.5 281q0 153 -75.5 282t-204.5 204.5t-281 75.5t-281.5 -75.5
t-205 -205t-75.5 -281.5t75.5 -281t204.5 -204.5t282 -75.5q152 0 281 75.5zM593 361v685h237q119 0 180 -56.5t61 -161.5q0 -56 -27 -95.5t-71 -61.5l209 -310h-197l-163 250h-67v-250h-162zM825 757q38 0 60.5 17.5t22.5 53.5q0 72 -83 72h-70v-143h70z" />
    <glyph glyph-name="trademark" unicode="&#x2122;" horiz-adv-x="1773" 
d="M409 645h-188v592h-233v169h653v-169h-232v-592zM882 645h-189l97 761h197l198 -507l200 507h196l98 -761h-189l-53 449l-185 -449h-132l-186 447z" />
    <glyph glyph-name="degree" unicode="&#xb0;" horiz-adv-x="767" 
d="M222.5 961.5q-72.5 41.5 -114 114t-41.5 161.5t41.5 161.5t114 114t160.5 41.5q90 0 162.5 -41.5t113.5 -114t41 -161.5t-41.5 -161.5t-113.5 -114t-162 -41.5q-88 0 -160.5 41.5zM465.5 1152.5q34.5 35.5 34.5 84.5q0 50 -34.5 85t-82.5 35q-47 0 -81 -35t-34 -85
q0 -49 34 -84.5t81 -35.5q48 0 82.5 35.5z" />
    <glyph glyph-name="bar" unicode="|" horiz-adv-x="512" 
d="M350 -462h-188v2016h188v-2016z" />
    <glyph glyph-name="brokenbar" unicode="&#xa6;" horiz-adv-x="512" 
d="M350 660h-188v894h188v-894zM350 -462h-188v894h188v-894z" />
    <glyph glyph-name="uni2113" unicode="&#x2113;" horiz-adv-x="915" 
d="M363.5 2.5q-51.5 34.5 -73.5 103t-22 177.5v248l-98 -72l-62 85l160 118v500q1 186 74 284t217 98q67 0 123 -34.5t90 -109.5t34 -192q0 -121 -38.5 -210.5t-100 -152.5t-155.5 -132l-57 -43v-385q0 -83 21.5 -118.5t75.5 -35.5q45 0 88.5 29t94.5 88l70 -78
q-59 -69 -104.5 -111t-94.5 -66.5t-105 -24.5q-86 0 -137.5 34.5zM505 837q73 56 127 144t54 199q0 91 -30.5 143.5t-84.5 52.5t-85 -56t-31 -152v-366z" />
    <glyph glyph-name="dagger" unicode="&#x2020;" 
d="M712 0h-187v892h-324v189h324v325h187v-325h325v-189h-325v-892z" />
    <glyph glyph-name="daggerdbl" unicode="&#x2021;" 
d="M713 0h-188v325h-324v189h324v378h-324v189h324v325h188v-325h324v-189h-324v-378h324v-189h-324v-325z" />
    <glyph glyph-name="estimated" unicode="&#x212e;" horiz-adv-x="1753" 
d="M503.5 66.5q-171.5 98.5 -272 267.5t-100.5 369q0 201 100.5 369.5t272 267t373.5 98.5t373 -98.5t271.5 -267t100.5 -369.5v-56h-1225v-340q87 -111 212.5 -172.5t267.5 -61.5q168 0 312.5 84.5t230.5 231.5l100 -57q-66 -110 -165.5 -192.5t-222 -127t-255.5 -44.5
q-202 0 -373.5 98.5zM397 750h958v350q-86 110 -211 171.5t-267 61.5t-267.5 -61.5t-212.5 -171.5v-350z" />
    <glyph glyph-name="ampersand.ss03" horiz-adv-x="1487" 
d="M353 21q-117 53 -184.5 156.5t-67.5 248.5q0 132 52.5 226.5t139.5 147t193 62.5l-246 339v205h925v-273h-547l388 -549q16 56 23.5 122t7.5 158h342v-242h-123q-12 -184 -67 -301l226 -321h-331l-84 120q-78 -78 -176 -115t-209 -37q-145 0 -262 53zM848 338l-213 299
q-106 -3 -163.5 -55.5t-57.5 -147.5q0 -58 30.5 -104.5t81 -72.5t108.5 -26q141 0 214 107z" />
    <glyph glyph-name="uni02F7" unicode="&#x2f7;" horiz-adv-x="1024" 
d="M569.5 -398q-34.5 15 -78.5 44q-34 23 -58 34t-50 11q-34 0 -65 -24.5t-46 -59.5l-138 128q31 85 94.5 135.5t143.5 50.5q46 0 80.5 -15t78.5 -44q35 -22 58.5 -33t49.5 -11q33 0 64.5 25t46.5 59l139 -129q-32 -85 -95.5 -135.5t-143.5 -50.5q-46 0 -80.5 15z" />
    <glyph glyph-name="uni02CA" unicode="&#x2ca;" horiz-adv-x="1024" 
d="M741 1477l-325 -284l-162 76l288 361z" />
    <glyph glyph-name="uni02BC" unicode="&#x2bc;" horiz-adv-x="505" 
d="M287 1147h-174l52 339h265z" />
    <glyph glyph-name="uni02BB" unicode="&#x2bb;" horiz-adv-x="506" 
d="M371 1169h-264l143 338h173z" />
    <glyph glyph-name="uni02CB" unicode="&#x2cb;" horiz-adv-x="1024" 
d="M767 1269l-160 -76l-326 284l199 153z" />
    <glyph glyph-name="uni02CD" unicode="&#x2cd;" horiz-adv-x="1024" 
d="M1028 -368h-1032v186h1032v-186z" />
    <glyph glyph-name="uni02C9" unicode="&#x2c9;" horiz-adv-x="1024" 
d="M834 1290h-646v185h646v-185z" />
    <glyph glyph-name="uni0308" unicode="&#x308;" horiz-adv-x="0" 
d="M-893 1265.5q-46 45.5 -46 116.5t46 116.5t117 45.5q72 0 118 -45.5t46 -116.5t-46 -116.5t-118 -45.5q-71 0 -117 45.5zM-444.5 1265.5q-45.5 45.5 -45.5 116.5t45.5 116.5t116.5 45.5q72 0 118 -45.5t46 -116.5t-46 -116.5t-118 -45.5q-71 0 -116.5 45.5z" />
    <glyph glyph-name="uni0307" unicode="&#x307;" horiz-adv-x="0" 
d="M-641 1240.5q-40 20.5 -62 57.5t-22 84t22 84t62 57.5t90 20.5q51 0 91 -20.5t62 -57.5t22 -84t-22 -84t-62 -57.5t-91 -20.5q-50 0 -90 20.5z" />
    <glyph glyph-name="gravecomb" unicode="&#x300;" horiz-adv-x="0" 
d="M-289 1269l-161 -76l-325 284l198 153z" />
    <glyph glyph-name="acutecomb" unicode="&#x301;" horiz-adv-x="0" 
d="M-285 1477l-325 -284l-162 76l288 361z" />
    <glyph glyph-name="uni030B" unicode="&#x30b;" horiz-adv-x="0" 
d="M-437 1473l-325 -285l-135 103l261 334zM-29 1467l-326 -285l-135 103l262 334z" />
    <glyph glyph-name="uni0302" unicode="&#x302;" horiz-adv-x="0" 
d="M-507 1356l-186 -174l-161 77l221 296h252l223 -296l-161 -77z" />
    <glyph glyph-name="uni030C" unicode="&#x30c;" horiz-adv-x="0" 
d="M-381 1182h-252l-221 297l161 76l186 -173l188 173l161 -76z" />
    <glyph glyph-name="uni0306" unicode="&#x306;" horiz-adv-x="0" 
d="M-636 1242.5q-77 45.5 -122 124t-45 173.5h188q0 -37 20.5 -67t54.5 -47t72 -17t71 17t53.5 47t20.5 67h190q0 -95 -45 -173.5t-122 -124t-168 -45.5t-168 45.5z" />
    <glyph glyph-name="uni030A" unicode="&#x30a;" horiz-adv-x="0" 
d="M-594.5 1190q-48.5 27 -77 75t-28.5 107t28 106.5t76.5 74.5t107.5 27q60 0 108.5 -27t76.5 -74.5t28 -106.5q0 -60 -28 -107.5t-76.5 -74.5t-108.5 -27q-58 0 -106.5 27zM-432.5 1315q22.5 23 22.5 57t-22.5 57t-55.5 23t-55.5 -23t-22.5 -57t22.5 -57t55.5 -23t55.5 23
z" />
    <glyph glyph-name="tildecomb" unicode="&#x303;" horiz-adv-x="0" 
d="M-417 1219.5q-33 14.5 -81 43.5q-33 22 -57 33.5t-51 11.5q-33 0 -64.5 -25t-46.5 -60l-137 130q31 85 94.5 135.5t143.5 50.5q46 0 81 -15.5t78 -44.5q35 -23 58 -34t49 -11q34 0 65.5 25t46.5 60l138 -128q-32 -85 -95.5 -135.5t-143.5 -50.5q-45 0 -78 14.5z" />
    <glyph glyph-name="uni0304" unicode="&#x304;" horiz-adv-x="0" 
d="M-135 1290h-645v185h645v-185z" />
    <glyph glyph-name="uni0305" unicode="&#x305;" horiz-adv-x="0" 
d="M2636 1486h-1437v167h1437v-167z" />
    <glyph glyph-name="uni0310" unicode="&#x310;" horiz-adv-x="0" 
d="M-810 1532q-35 21 -54.5 58t-19.5 83q0 47 19.5 84t54.5 58t78 21q66 0 108.5 -46t42.5 -117t-42.5 -116.5t-108.5 -45.5q-43 0 -78 21zM-900.5 1212.5q-76.5 45.5 -121.5 124t-45 173.5h188q0 -37 20.5 -67t54 -47t71.5 -17t71.5 17t54 47t20.5 67h189q0 -95 -45 -173.5
t-122 -124t-168 -45.5t-167.5 45.5z" />
    <glyph glyph-name="uni0315" unicode="&#x315;" horiz-adv-x="0" 
d="M-102 1175h-174l52 338h265z" />
    <glyph glyph-name="dotbelowcomb" unicode="&#x323;" horiz-adv-x="0" 
d="M-576.5 -368.5q-46.5 42.5 -46.5 109.5q0 68 46.5 111t119.5 43q72 0 118.5 -43.5t46.5 -110.5t-46.5 -109.5t-118.5 -42.5q-73 0 -119.5 42.5z" />
    <glyph glyph-name="uni0324" unicode="&#x324;" horiz-adv-x="0" 
d="M-823 -362.5q-46 45.5 -46 117.5q0 71 46 116.5t117 45.5q72 0 118 -45.5t46 -116.5q0 -72 -46 -117.5t-118 -45.5q-71 0 -117 45.5zM-374.5 -362.5q-45.5 45.5 -45.5 117.5q0 71 45.5 116.5t116.5 45.5q72 0 118 -45.5t46 -116.5q0 -72 -46 -117.5t-118 -45.5
q-71 0 -116.5 45.5z" />
    <glyph glyph-name="uni0325" unicode="&#x325;" horiz-adv-x="0" 
d="M-514.5 -435q-48.5 27 -77 74.5t-28.5 106.5t28 106.5t76.5 74.5t107.5 27q60 0 108.5 -27t76.5 -74.5t28 -106.5t-28 -106.5t-76.5 -74.5t-108.5 -27q-58 0 -106.5 27zM-352.5 -310.5q22.5 23.5 22.5 56.5q0 34 -22.5 58t-55.5 24t-55.5 -24t-22.5 -58q0 -33 22.5 -56.5
t55.5 -23.5t55.5 23.5z" />
    <glyph glyph-name="uni0326" unicode="&#x326;" horiz-adv-x="0" 
d="M-389 -462h-173l51 338h265z" />
    <glyph glyph-name="dieresis" unicode="&#xa8;" horiz-adv-x="1024" 
d="M169.5 1265.5q-45.5 45.5 -45.5 116.5t45.5 116.5t116.5 45.5q72 0 118 -45.5t46 -116.5t-46 -116.5t-118 -45.5q-71 0 -116.5 45.5zM618.5 1265.5q-45.5 45.5 -45.5 116.5t45.5 116.5t116.5 45.5q72 0 117.5 -45.5t45.5 -116.5t-45.5 -116.5t-117.5 -45.5
q-71 0 -116.5 45.5z" />
    <glyph glyph-name="dotaccentmod" unicode="&#x2d9;" horiz-adv-x="1024" 
d="M421 1240.5q-40 20.5 -62 57.5t-22 84t22 84t62 57.5t90 20.5t90 -20.5t62 -57.5t22 -84t-22 -84t-62 -57.5t-90 -20.5t-90 20.5z" />
    <glyph glyph-name="grave" unicode="`" horiz-adv-x="1024" 
d="M767 1269l-160 -76l-326 284l199 153z" />
    <glyph glyph-name="acute" unicode="&#xb4;" horiz-adv-x="1024" 
d="M741 1477l-325 -284l-162 76l288 361z" />
    <glyph glyph-name="doubleacutemod" unicode="&#x2dd;" horiz-adv-x="1024" 
d="M542 1473l-325 -285l-135 103l261 334zM950 1467l-326 -285l-135 103l262 334z" />
    <glyph glyph-name="circumflexmod" unicode="&#x2c6;" horiz-adv-x="1024" 
d="M511 1356l-186 -174l-162 77l222 296h252l223 -296l-162 -77z" />
    <glyph glyph-name="caronmod" unicode="&#x2c7;" horiz-adv-x="1024" 
d="M637 1182h-252l-222 297l162 76l186 -173l187 173l162 -76z" />
    <glyph glyph-name="brevemod" unicode="&#x2d8;" horiz-adv-x="1024" 
d="M343 1242.5q-77 45.5 -121.5 124t-44.5 173.5h187q0 -37 20.5 -67t54.5 -47t72 -17t71.5 17t54 47t20.5 67h189q0 -95 -45 -173.5t-122 -124t-168 -45.5t-168 45.5z" />
    <glyph glyph-name="ringmod" unicode="&#x2da;" horiz-adv-x="1024" 
d="M404.5 1190q-48.5 27 -77 75t-28.5 107t28 106.5t76.5 74.5t107.5 27q60 0 108.5 -27t76.5 -74.5t28 -106.5q0 -60 -28 -107.5t-76.5 -74.5t-108.5 -27q-58 0 -106.5 27zM567 1315q23 23 23 57t-23 57t-56 23q-32 0 -55 -23t-23 -57t23 -57t55 -23q33 0 56 23z" />
    <glyph glyph-name="tildemod" unicode="&#x2dc;" horiz-adv-x="1024" 
d="M569.5 1220q-34.5 15 -78.5 44q-35 22 -58.5 33t-49.5 11q-33 0 -64.5 -25t-46.5 -60l-138 130q31 85 94.5 135.5t143.5 50.5q46 0 81 -15.5t78 -44.5q37 -23 59.5 -34t48.5 -11q33 0 64.5 25t46.5 60l139 -128q-32 -85 -95.5 -135.5t-143.5 -50.5q-46 0 -80.5 15z" />
    <glyph glyph-name="macron" unicode="&#xaf;" horiz-adv-x="1024" 
d="M1028 1590h-1032v185h1032v-185z" />
    <glyph glyph-name="cedilla" unicode="&#xb8;" horiz-adv-x="1024" 
d="M347 -453.5q-47 8.5 -77 26.5l64 150q37 -22 87 -22q41 0 65.5 18.5t24.5 49.5q0 75 -127 75l67 156h169l-27 -64q77 -11 118.5 -57t41.5 -124q0 -69 -39 -118t-103.5 -74t-142.5 -25q-74 0 -121 8.5z" />
    <glyph glyph-name="ogonekmod" unicode="&#x2db;" horiz-adv-x="1024" 
d="M358.5 -419.5q-55.5 42.5 -55.5 112.5q0 50 18.5 88.5t57.5 77.5l131 141h173l-125 -184q-18 -29 -18 -52q0 -21 14.5 -33.5t39.5 -12.5q22 0 38.5 5t36.5 17l51 -163q-41 -19 -95.5 -29t-107.5 -10q-103 0 -158.5 42.5z" />
    <glyph glyph-name="lmiddledot.ss05" horiz-adv-x="853" 
d="M216 65.5q-75 76.5 -75 213.5v1242h314v-1175q0 -36 21 -58t57 -22h84v-264q-88 -13 -185 -13q-141 0 -216 76.5zM599 657.5q-42 40.5 -42 103.5q0 64 42 105t107 41t106.5 -41t41.5 -105q0 -63 -41.5 -103.5t-106.5 -40.5t-107 40.5z" />
    <glyph glyph-name="udoubleacute.ss07" horiz-adv-x="1235" 
d="M721 1473l-326 -285l-135 103l262 334zM1128 1467l-325 -285l-135 103l261 334zM363 19.5q-110 51.5 -172 151t-62 239.5v672h314v-655q0 -53 23 -93t62.5 -61.5t87.5 -21.5q50 0 89.5 22t62 62t22.5 92v655h315v-672q0 -140 -62 -239.5t-172.5 -151t-254.5 -51.5
q-143 0 -253 51.5z" />
    <glyph glyph-name="ffl.ss05" horiz-adv-x="2184" 
d="M230 0v818h-164v264h164v96q0 166 95.5 261t286.5 95q85 0 184 -12v-263h-146q-47 0 -76 -28t-29 -74v-75h402v96q0 166 95.5 261t286.5 95q84 0 184 -12v-263h-146q-47 0 -76 -28t-29 -74v-75h251v-264h-251v-818h-315v818h-402v-818h-315zM1740.5 65.5
q-74.5 76.5 -74.5 213.5v1242h314v-1175q0 -36 21 -58t56 -22h85v-264q-90 -13 -185 -13q-142 0 -216.5 76.5z" />
    </font>
</defs>
</svg>
